<?xml version="1.0" encoding="UTF-8" standalone="no"?><svg xmlns="http://www.w3.org/2000/svg" xmlns:xlink="http://www.w3.org/1999/xlink" fill="#000000" height="33" preserveAspectRatio="xMidYMid meet" version="1" viewBox="0.9 1.2 80.3 33.0" width="80.3" zoomAndPan="magnify"><g fill="#eaf1ff" id="change1_1"><rect height="30.89" rx="4.96" width="78.19" x="1.9" y="2.3"/><path d="M75.13,34.19H6.87a6,6,0,0,1-6-6v-21a6,6,0,0,1,6-6H75.13a6,6,0,0,1,6,6v21A6,6,0,0,1,75.13,34.19ZM6.87,3.3a4,4,0,0,0-4,4v21a4,4,0,0,0,4,4H75.13a4,4,0,0,0,4-4v-21a4,4,0,0,0-4-4Z"/></g></svg>