<?xml version="1.0" encoding="UTF-8" standalone="no"?><svg xmlns="http://www.w3.org/2000/svg" xmlns:xlink="http://www.w3.org/1999/xlink" fill="#d69e0f" height="128" preserveAspectRatio="xMidYMid meet" version="1" viewBox="10.0 0.0 108.0 128.0" width="108" zoomAndPan="magnify"><g id="change1_1"><path d="M66.9,17.3c0.9,0.2,1.9,1.1,2.2,2.1c0.3,1.1,1.4,1.7,2.4,1.4c1.1-0.3,1.7-1.4,1.4-2.4c-0.6-2.3-2.6-4.3-4.9-4.9V12 c0-1.1-0.9-2-2-2s-2,0.9-2,2v1.5c-1.4,0.4-2.7,1.1-3.6,2.6c-1.1,1.8-1.1,4.1,0,6c1.2,2.2,3.5,2.9,5.2,3.4c1.9,0.6,2.6,0.9,2.9,1.8 c0.4,1.3-1.3,2-2.3,2c-1.4,0-2.9-1-3.3-2.4c-0.3-1.1-1.5-1.6-2.5-1.3c-1.1,0.3-1.6,1.5-1.3,2.5c0.6,2,2.1,3.6,4.1,4.5 c0.3,0.1,0.5,0.2,0.8,0.3V34c0,1.1,0.9,2,2,2s2-0.9,2-2v-1c0.4-0.1,0.8-0.2,1.2-0.4c2.6-1.2,3.9-3.9,3.2-6.5c-0.9-3-3.6-3.8-5.6-4.4 c-1.4-0.4-4.2-1.4-3-3.4C64.4,17.3,65.7,17.1,66.9,17.3z" fill="inherit"/></g><g id="change1_2"><path d="M66,58H26c-1.1,0-2,0.9-2,2s0.9,2,2,2h40V58z" fill="inherit"/></g><g id="change1_3"><path d="M66,68H26c-1.1,0-2,0.9-2,2s0.9,2,2,2h40V68z" fill="inherit"/></g><g id="change1_4"><path d="M66,78H26c-1.1,0-2,0.9-2,2s0.9,2,2,2h40V78z" fill="inherit"/></g><g id="change1_5"><path d="M66,88H26c-1.1,0-2,0.9-2,2s0.9,2,2,2h40V88z" fill="inherit"/></g><g id="change1_6"><path d="M66,98H26c-1.1,0-2,0.9-2,2s0.9,2,2,2h40V98z" fill="inherit"/></g><g id="change1_7"><path d="M24,110c0,1.1,0.9,2,2,2h40v-4H26C24.9,108,24,108.9,24,110z" fill="inherit"/></g><g id="change1_8"><path d="M96.1,124H15.9c-1.1,0-1.9-0.9-1.9-2V36h24.1c3.3,0,5.9-2.6,5.9-5.9V4h52.1c1,0,1.8,0.7,1.9,1.1V34h4V5c0-2.3-2.6-5-5.9-5 H40.9L10.5,32.6C10.2,33,10,33.6,10,34.1l0,0V122c0,3.3,2.7,6,5.9,6h80.2c2.6,0,5.5-1.9,5.9-6h-4C97.7,123.1,97.2,124,96.1,124z M40,7.1v23.1c0,1-0.9,1.9-1.9,1.9H17.3L40,7.1z" fill="inherit"/></g><g id="change1_9"><path d="M112.5,38h-37c-3,0-5.5,2.5-5.5,5.5v68.9c0,3.1,2.5,5.5,5.5,5.5h37c3,0,5.5-2.5,5.5-5.5V43.5C118,40.5,115.5,38,112.5,38z M92,114H75.5c-0.8,0-1.5-0.7-1.5-1.5V98h18V114z M92,94H74V76h18V94z M114,112.5c0,0.8-0.7,1.5-1.5,1.5H96V98h18V112.5z M114,94H96 V76h18V94z M114,72H74V43.5c0-0.8,0.7-1.5,1.5-1.5h37c0.8,0,1.5,0.7,1.5,1.5V72z" fill="inherit"/></g><g id="change1_10"><path d="M106,48H82c-2.2,0-4,1.8-4,4v6c0,2.2,1.8,4,4,4h24c2.2,0,4-1.8,4-4v-6C110,49.8,108.2,48,106,48z M106,58H82v-6h24V58z" fill="inherit"/></g><g id="change1_11"><path d="M80,87h6c1.1,0,2-0.9,2-2s-0.9-2-2-2h-6c-1.1,0-2,0.9-2,2S78.9,87,80,87z" fill="inherit"/></g><g id="change1_12"><path d="M80,108h1v1c0,1.1,0.9,2,2,2s2-0.9,2-2v-1h1c1.1,0,2-0.9,2-2s-0.9-2-2-2h-1v-1c0-1.1-0.9-2-2-2s-2,0.9-2,2v1h-1 c-1.1,0-2,0.9-2,2S78.9,108,80,108z" fill="inherit"/></g><g id="change1_13"><path d="M102,105h6c1.1,0,2-0.9,2-2s-0.9-2-2-2h-6c-1.1,0-2,0.9-2,2S100.9,105,102,105z" fill="inherit"/></g><g id="change1_14"><path d="M102,111h6c1.1,0,2-0.9,2-2s-0.9-2-2-2h-6c-1.1,0-2,0.9-2,2S100.9,111,102,111z" fill="inherit"/></g><g id="change1_15"><path d="M100.6,89.4c0.7,0.7,2.1,0.8,2.8,0l1.6-1.6c0,0,1.6,1.6,1.6,1.6c0.8,0.8,2.1,0.8,2.8,0c0.8-0.8,0.8-2,0-2.8l-1.6-1.6 l1.6-1.6c0.8-0.8,0.8-2,0-2.8c-0.8-0.8-2-0.8-2.8,0l-1.6,1.6l-1.6-1.6c-0.8-0.8-2-0.8-2.8,0c-0.8,0.8-0.8,2,0,2.8l1.6,1.6l-1.6,1.6 C99.8,87.4,99.8,88.6,100.6,89.4z" fill="inherit"/></g></svg>