<?xml version="1.0" encoding="UTF-8" standalone="no"?><svg xmlns="http://www.w3.org/2000/svg" xmlns:xlink="http://www.w3.org/1999/xlink" fill="#000000" height="216.9" preserveAspectRatio="xMidYMid meet" version="1" viewBox="4.0 147.6 504.0 216.9" width="504" zoomAndPan="magnify"><g fill="#e9bb00" id="change1_1"><path d="M 135.976562 340.886719 C 131.957031 340.886719 128.6875 337.617188 128.6875 333.597656 C 128.6875 329.578125 131.957031 326.308594 135.976562 326.308594 C 139.992188 326.308594 143.265625 329.578125 143.265625 333.597656 C 143.265625 337.617188 139.992188 340.886719 135.976562 340.886719 Z M 135.976562 318.308594 C 127.546875 318.308594 120.6875 325.167969 120.6875 333.597656 C 120.6875 342.027344 127.546875 348.886719 135.976562 348.886719 C 144.40625 348.886719 151.265625 342.027344 151.265625 333.597656 C 151.265625 325.167969 144.40625 318.308594 135.976562 318.308594" fill="inherit"/><path d="M 376.023438 340.886719 C 372.007812 340.886719 368.734375 337.617188 368.734375 333.597656 C 368.734375 329.578125 372.007812 326.308594 376.023438 326.308594 C 380.042969 326.308594 383.3125 329.578125 383.3125 333.597656 C 383.3125 337.617188 380.042969 340.886719 376.023438 340.886719 Z M 376.023438 318.308594 C 367.59375 318.308594 360.734375 325.167969 360.734375 333.597656 C 360.734375 342.027344 367.59375 348.886719 376.023438 348.886719 C 384.453125 348.886719 391.3125 342.027344 391.3125 333.597656 C 391.3125 325.167969 384.453125 318.308594 376.023438 318.308594" fill="inherit"/><path d="M 500.007812 279.703125 L 500.007812 310.925781 L 493.261719 310.925781 C 489.308594 310.925781 486.09375 307.710938 486.09375 303.757812 L 486.09375 297.164062 C 486.09375 288.660156 492.046875 281.523438 500.007812 279.703125 Z M 484.078125 340.269531 L 406.132812 340.269531 C 406.609375 338.121094 406.867188 335.890625 406.867188 333.597656 C 406.867188 316.589844 393.03125 302.753906 376.023438 302.753906 C 359.019531 302.753906 345.183594 316.589844 345.183594 333.597656 C 345.183594 335.890625 345.441406 338.121094 345.917969 340.269531 L 166.082031 340.269531 C 166.558594 338.121094 166.816406 335.890625 166.816406 333.597656 C 166.816406 316.589844 152.980469 302.753906 135.976562 302.753906 C 118.96875 302.753906 105.132812 316.589844 105.132812 333.597656 C 105.132812 335.890625 105.390625 338.121094 105.867188 340.269531 L 35.917969 340.269531 C 21.261719 340.269531 13.128906 331.539062 12.101562 322.324219 C 28.953125 321.023438 37.425781 314.636719 38.660156 302.410156 C 38.953125 299.519531 37.917969 296.695312 35.824219 294.671875 C 33.75 292.664062 30.929688 291.734375 28.089844 292.113281 C 21.765625 292.96875 16.273438 294.214844 12.433594 295.214844 C 12.539062 293.886719 12.664062 292.421875 12.796875 290.878906 C 32.59375 287.007812 34.386719 271.667969 37.015625 249.011719 L 37.304688 246.5 C 38.320312 237.816406 39.554688 229.613281 40.644531 222.378906 C 43.996094 200.082031 46.210938 185.355469 39.667969 177.757812 C 38.078125 175.90625 36.039062 174.617188 33.601562 173.863281 C 36.058594 167.910156 38.132812 165.046875 39.535156 163.679688 C 42.050781 161.238281 49.390625 155.558594 63.152344 155.558594 L 476.929688 155.558594 C 497.261719 155.558594 499.75 171.214844 500.011719 173.605469 L 500.011719 271.5625 C 487.613281 273.488281 478.09375 284.234375 478.09375 297.164062 L 478.09375 303.757812 C 478.09375 312.121094 484.898438 318.925781 493.261719 318.925781 L 500.011719 318.925781 L 500.011719 324.339844 C 500.011719 329.128906 498.457031 340.269531 484.078125 340.269531 Z M 376.023438 356.441406 C 363.429688 356.441406 353.183594 346.191406 353.183594 333.597656 C 353.183594 321 363.429688 310.753906 376.023438 310.753906 C 388.621094 310.753906 398.867188 321 398.867188 333.597656 C 398.867188 346.191406 388.621094 356.441406 376.023438 356.441406 Z M 135.976562 356.441406 C 123.378906 356.441406 113.132812 346.191406 113.132812 333.597656 C 113.132812 321 123.378906 310.753906 135.976562 310.753906 C 148.570312 310.753906 158.816406 321 158.816406 333.597656 C 158.816406 346.191406 148.570312 356.441406 135.976562 356.441406 Z M 30.871094 181.398438 C 32.363281 181.773438 33.136719 182.433594 33.605469 182.976562 C 37.753906 187.792969 35.425781 203.269531 32.730469 221.1875 C 31.632812 228.484375 30.390625 236.757812 29.359375 245.570312 L 29.066406 248.089844 C 26.472656 270.460938 24.847656 279.386719 13.578125 282.503906 C 15.484375 263.195312 21.296875 210.984375 30.871094 181.398438 Z M 11.988281 303.632812 C 15.386719 302.664062 21.707031 301.046875 29.15625 300.042969 C 29.707031 299.964844 30.085938 300.246094 30.261719 300.421875 C 30.453125 300.605469 30.761719 301.003906 30.703125 301.605469 C 30.296875 305.613281 29.558594 312.835938 11.988281 314.3125 Z M 507.996094 173.074219 C 507.257812 164.25 499.8125 147.558594 476.929688 147.558594 L 63.152344 147.558594 C 46.464844 147.558594 37.179688 154.816406 33.957031 157.945312 C 30.507812 161.308594 27.355469 167.136719 24.328125 175.761719 C 12.707031 208.800781 6.277344 274.277344 5.105469 287.066406 C 4.589844 292.699219 4.199219 297.648438 4.0625 300.3125 C 4.0625 300.339844 4.058594 300.367188 4.058594 300.394531 C 4.058594 300.398438 4.058594 300.402344 4.058594 300.402344 C 4.011719 301.167969 3.988281 301.722656 3.988281 302.050781 L 3.988281 320.339844 C 3.988281 333.878906 15.179688 348.269531 35.917969 348.269531 L 108.851562 348.269531 C 114.078125 357.894531 124.273438 364.441406 135.976562 364.441406 C 147.675781 364.441406 157.871094 357.894531 163.097656 348.269531 L 348.902344 348.269531 C 354.128906 357.894531 364.324219 364.441406 376.023438 364.441406 C 387.726562 364.441406 397.921875 357.894531 403.148438 348.269531 L 484.078125 348.269531 C 501.742188 348.269531 508.011719 335.378906 508.011719 324.339844 L 508.011719 173.410156 C 508.011719 173.300781 508.003906 173.1875 507.996094 173.074219" fill="inherit"/><path d="M 137.992188 226.074219 C 137.992188 273.5625 90.957031 287.160156 70.734375 290.800781 C 69.140625 291.089844 68.019531 290.386719 67.484375 289.941406 C 66.574219 289.175781 66.046875 288.050781 66.046875 286.855469 L 66.046875 183.730469 C 66.046875 181.527344 67.84375 179.730469 70.050781 179.730469 L 133.992188 179.730469 C 136.199219 179.730469 137.992188 181.527344 137.992188 183.730469 Z M 133.992188 171.730469 L 70.050781 171.730469 C 63.429688 171.730469 58.046875 177.113281 58.046875 183.730469 L 58.046875 286.855469 C 58.046875 290.429688 59.617188 293.789062 62.355469 296.078125 C 64.53125 297.894531 67.238281 298.867188 70.019531 298.867188 C 70.726562 298.867188 71.441406 298.804688 72.152344 298.675781 C 94.351562 294.675781 145.992188 279.597656 145.992188 226.074219 L 145.992188 183.730469 C 145.992188 177.113281 140.609375 171.730469 133.992188 171.730469" fill="inherit"/><path d="M 476.890625 252.578125 C 476.890625 254.785156 475.09375 256.582031 472.886719 256.582031 L 406.179688 256.582031 L 406.179688 181.582031 L 472.886719 181.582031 C 475.09375 181.582031 476.890625 183.375 476.890625 185.582031 Z M 170.042969 252.578125 L 170.042969 185.582031 C 170.042969 183.375 171.839844 181.582031 174.046875 181.582031 L 240.757812 181.582031 L 240.757812 256.582031 L 174.046875 256.582031 C 171.839844 256.582031 170.042969 254.785156 170.042969 252.578125 Z M 319.46875 256.582031 L 248.757812 256.582031 L 248.757812 181.582031 L 319.46875 181.582031 Z M 327.46875 181.582031 L 398.179688 181.582031 L 398.179688 256.582031 L 327.46875 256.582031 Z M 484.890625 252.578125 L 484.890625 185.582031 C 484.890625 178.964844 479.507812 173.582031 472.886719 173.582031 L 174.046875 173.582031 C 167.429688 173.582031 162.042969 178.964844 162.042969 185.582031 L 162.042969 252.578125 C 162.042969 259.199219 167.429688 264.582031 174.046875 264.582031 L 472.886719 264.582031 C 479.507812 264.582031 484.890625 259.199219 484.890625 252.578125" fill="inherit"/></g></svg>