<?xml version="1.0" encoding="UTF-8" standalone="no"?><svg xmlns="http://www.w3.org/2000/svg" xmlns:xlink="http://www.w3.org/1999/xlink" fill="#000000" height="219.3" preserveAspectRatio="xMidYMid meet" version="1" viewBox="100.2 102.9 225.0 219.3" width="225" zoomAndPan="magnify"><g><g id="change1_1"><path d="M 248.832031 127.46875 C 247.085938 127.46875 245.664062 126.046875 245.664062 124.296875 L 245.664062 111.675781 L 260.742188 127.46875 Z M 131.203125 288.679688 L 242.699219 288.679688 L 242.699219 314.09375 C 242.699219 315.839844 241.277344 317.261719 239.53125 317.261719 L 108.398438 317.261719 C 106.648438 317.261719 105.226562 315.839844 105.226562 314.09375 L 105.226562 144.691406 C 105.226562 142.941406 106.648438 141.519531 108.398438 141.519531 L 123.035156 141.519531 L 123.035156 280.507812 C 123.035156 285.011719 126.699219 288.679688 131.203125 288.679688 Z M 268.003906 238.933594 C 269.386719 238.933594 270.503906 237.8125 270.503906 236.433594 L 270.503906 136.214844 C 270.503906 132.46875 268.453125 127.425781 265.835938 124.742188 L 249.265625 107.75 C 246.632812 105.050781 241.617188 102.9375 237.847656 102.9375 L 131.203125 102.9375 C 126.699219 102.9375 123.035156 106.601562 123.035156 111.105469 L 123.035156 136.519531 L 108.398438 136.519531 C 103.894531 136.519531 100.226562 140.1875 100.226562 144.691406 L 100.226562 314.09375 C 100.226562 318.597656 103.894531 322.261719 108.398438 322.261719 L 239.53125 322.261719 C 244.035156 322.261719 247.699219 318.597656 247.699219 314.09375 L 247.699219 288.679688 L 262.335938 288.679688 C 266.839844 288.679688 270.503906 285.011719 270.503906 280.507812 L 270.503906 260.355469 C 270.503906 258.976562 269.386719 257.855469 268.003906 257.855469 C 266.625 257.855469 265.503906 258.976562 265.503906 260.355469 L 265.503906 280.507812 C 265.503906 282.257812 264.082031 283.679688 262.335938 283.679688 L 131.203125 283.679688 C 129.457031 283.679688 128.035156 282.257812 128.035156 280.507812 L 128.035156 111.105469 C 128.035156 109.359375 129.457031 107.9375 131.203125 107.9375 L 237.847656 107.9375 C 238.796875 107.9375 239.925781 108.171875 241.054688 108.554688 C 240.808594 109.253906 240.664062 110.097656 240.664062 111.105469 L 240.664062 124.296875 C 240.664062 128.800781 244.328125 132.46875 248.832031 132.46875 L 260.917969 132.46875 C 262.492188 132.46875 263.589844 132.109375 264.382812 131.632812 C 265.058594 133.191406 265.503906 134.882812 265.503906 136.214844 L 265.503906 236.433594 C 265.503906 237.8125 266.625 238.933594 268.003906 238.933594" fill="#1b4189"/></g><g id="change2_1"><path d="M 238.070312 225.792969 C 233.324219 231.9375 226.144531 235.464844 218.371094 235.464844 C 212.835938 235.464844 207.589844 233.671875 203.195312 230.28125 C 192.347656 221.898438 190.335938 206.253906 198.71875 195.402344 C 203.460938 189.257812 210.640625 185.734375 218.417969 185.734375 C 223.953125 185.734375 229.199219 187.527344 233.59375 190.917969 C 244.441406 199.296875 246.449219 214.941406 238.070312 225.792969 Z M 236.648438 186.960938 C 231.371094 182.886719 225.066406 180.734375 218.417969 180.734375 C 209.082031 180.734375 200.457031 184.96875 194.761719 192.347656 C 184.695312 205.378906 187.109375 224.171875 200.140625 234.238281 C 205.417969 238.3125 211.71875 240.464844 218.371094 240.464844 C 227.707031 240.464844 236.328125 236.230469 242.027344 228.851562 C 252.09375 215.816406 249.679688 197.027344 236.648438 186.960938" fill="#edc01f"/></g><g id="change2_2"><path d="M 319.316406 285.816406 L 316.472656 289.503906 C 315.867188 290.28125 314.949219 290.730469 313.953125 290.730469 C 313.246094 290.730469 312.578125 290.503906 312.023438 290.074219 L 265.148438 253.875 C 263.765625 252.808594 263.511719 250.8125 264.578125 249.429688 L 267.421875 245.746094 C 268.023438 244.96875 268.941406 244.519531 269.941406 244.519531 C 270.648438 244.519531 271.3125 244.746094 271.867188 245.175781 L 318.746094 281.375 C 319.410156 281.886719 319.835938 282.632812 319.945312 283.476562 C 320.054688 284.320312 319.828125 285.152344 319.316406 285.816406 Z M 256.058594 249.71875 C 255.371094 249.71875 254.726562 249.5 254.191406 249.085938 C 253.542969 248.585938 253.128906 247.851562 253.027344 247.019531 C 252.925781 246.179688 253.152344 245.347656 253.667969 244.679688 L 260.066406 236.394531 C 260.675781 235.605469 261.597656 235.152344 262.597656 235.152344 C 263.28125 235.152344 263.929688 235.371094 264.464844 235.785156 C 265.820312 236.832031 266.054688 238.808594 264.984375 240.191406 L 258.585938 248.476562 C 257.980469 249.265625 257.058594 249.71875 256.058594 249.71875 Z M 196.460938 239.003906 C 180.796875 226.90625 177.894531 204.324219 189.988281 188.664062 C 196.835938 179.796875 207.195312 174.710938 218.417969 174.710938 C 226.410156 174.710938 233.984375 177.296875 240.328125 182.195312 C 247.914062 188.054688 252.765625 196.515625 253.988281 206.023438 C 255.199219 215.460938 252.691406 224.804688 246.925781 232.359375 L 246.683594 232.675781 C 239.835938 241.453125 229.527344 246.484375 218.367188 246.484375 C 210.375 246.484375 202.800781 243.898438 196.460938 239.003906 Z M 251.941406 234.042969 L 253.941406 235.589844 L 251.34375 238.957031 L 249.34375 237.410156 L 250.625 235.746094 C 250.667969 235.691406 250.714844 235.644531 250.753906 235.589844 C 250.804688 235.527344 250.847656 235.460938 250.894531 235.398438 Z M 324.902344 282.839844 C 324.625 280.671875 323.523438 278.746094 321.800781 277.414062 L 274.925781 241.21875 C 273.648438 240.230469 272.140625 239.6875 270.546875 239.570312 C 271.015625 236.714844 269.953125 233.703125 267.519531 231.824219 C 266.101562 230.730469 264.398438 230.152344 262.597656 230.152344 C 260.683594 230.152344 258.882812 230.800781 257.4375 231.972656 L 254.527344 229.726562 C 258.472656 222.3125 260.039062 213.886719 258.945312 205.386719 C 257.554688 194.554688 252.027344 184.914062 243.382812 178.238281 C 236.160156 172.660156 227.523438 169.710938 218.417969 169.710938 C 205.636719 169.710938 193.832031 175.503906 186.03125 185.605469 C 172.25 203.449219 175.558594 229.179688 193.40625 242.960938 C 200.628906 248.539062 209.261719 251.484375 218.367188 251.484375 C 228.664062 251.484375 238.328125 247.71875 245.773438 240.972656 L 248.734375 243.261719 C 248.121094 244.617188 247.878906 246.117188 248.066406 247.628906 C 248.332031 249.796875 249.421875 251.71875 251.136719 253.042969 C 252.554688 254.136719 254.257812 254.71875 256.058594 254.71875 C 257.222656 254.71875 258.339844 254.464844 259.363281 254.015625 C 259.863281 255.480469 260.78125 256.820312 262.09375 257.832031 L 308.96875 294.03125 C 310.40625 295.140625 312.128906 295.730469 313.953125 295.730469 C 316.511719 295.730469 318.871094 294.574219 320.429688 292.558594 L 323.273438 288.875 C 324.605469 287.152344 325.183594 285.007812 324.902344 282.839844" fill="#edc01f"/></g><g id="change1_2"><path d="M 235.027344 147.664062 L 146.0625 147.664062 C 144.683594 147.664062 143.5625 146.546875 143.5625 145.164062 C 143.5625 143.785156 144.683594 142.664062 146.0625 142.664062 L 235.027344 142.664062 C 236.410156 142.664062 237.527344 143.785156 237.527344 145.164062 C 237.527344 146.546875 236.410156 147.664062 235.027344 147.664062" fill="#1b4189"/></g><g id="change1_3"><path d="M 235.027344 166.410156 L 146.0625 166.410156 C 144.683594 166.410156 143.5625 165.292969 143.5625 163.910156 C 143.5625 162.53125 144.683594 161.410156 146.0625 161.410156 L 235.027344 161.410156 C 236.410156 161.410156 237.527344 162.53125 237.527344 163.910156 C 237.527344 165.292969 236.410156 166.410156 235.027344 166.410156" fill="#1b4189"/></g><g id="change1_4"><path d="M 235.027344 260.144531 L 146.0625 260.144531 C 144.683594 260.144531 143.5625 259.023438 143.5625 257.644531 C 143.5625 256.261719 144.683594 255.144531 146.0625 255.144531 L 235.027344 255.144531 C 236.410156 255.144531 237.527344 256.261719 237.527344 257.644531 C 237.527344 259.023438 236.410156 260.144531 235.027344 260.144531" fill="#1b4189"/></g><g id="change1_5"><path d="M 175.808594 185.15625 L 146.0625 185.15625 C 144.683594 185.15625 143.5625 184.039062 143.5625 182.65625 C 143.5625 181.277344 144.683594 180.15625 146.0625 180.15625 L 175.808594 180.15625 C 177.1875 180.15625 178.308594 181.277344 178.308594 182.65625 C 178.308594 184.039062 177.1875 185.15625 175.808594 185.15625" fill="#1b4189"/></g><g id="change1_6"><path d="M 175.808594 241.398438 L 146.0625 241.398438 C 144.683594 241.398438 143.5625 240.277344 143.5625 238.898438 C 143.5625 237.515625 144.683594 236.398438 146.0625 236.398438 L 175.808594 236.398438 C 177.1875 236.398438 178.308594 237.515625 178.308594 238.898438 C 178.308594 240.277344 177.1875 241.398438 175.808594 241.398438" fill="#1b4189"/></g><g id="change1_7"><path d="M 171.332031 203.90625 L 146.0625 203.90625 C 144.683594 203.90625 143.5625 202.785156 143.5625 201.40625 C 143.5625 200.023438 144.683594 198.90625 146.0625 198.90625 L 171.332031 198.90625 C 172.714844 198.90625 173.832031 200.023438 173.832031 201.40625 C 173.832031 202.785156 172.714844 203.90625 171.332031 203.90625" fill="#1b4189"/></g><g id="change1_8"><path d="M 171.332031 222.648438 L 146.0625 222.648438 C 144.683594 222.648438 143.5625 221.53125 143.5625 220.148438 C 143.5625 218.769531 144.683594 217.648438 146.0625 217.648438 L 171.332031 217.648438 C 172.714844 217.648438 173.832031 218.769531 173.832031 220.148438 C 173.832031 221.53125 172.714844 222.648438 171.332031 222.648438" fill="#1b4189"/></g></g></svg>