<?xml version="1.0" encoding="UTF-8" standalone="no"?><svg xmlns="http://www.w3.org/2000/svg" xmlns:xlink="http://www.w3.org/1999/xlink" fill="#000000" height="251.6" id="Layer_1" preserveAspectRatio="xMidYMid meet" version="1.1" viewBox="128.6 113.9 234.0 251.6" width="234" x="0" xml:space="preserve" y="0" zoomAndPan="magnify"><g><g><g><g id="change1_8"><path d="M251.4,267.7l-0.2,16.6c0,0.8-0.5,1.5-1.3,1.7c-1.4,0.4-2.9,0.7-4.4,0.7c-1.5,0-2.9-0.2-4.3-0.7 c-0.8-0.2-1.3-0.9-1.3-1.7l-0.2-16.6c0-0.5,0.2-1.1,0.7-1.4c0.4-0.4,1-0.5,1.5-0.4c2.4,0.4,5,0.4,7.4,0c0.5-0.1,1.1,0,1.5,0.4 C251.2,266.6,251.4,267.1,251.4,267.7z" fill="#2e57a6"/></g></g><g><g id="change1_4"><path d="M250.4,292.8c0.4,0.4,0.6,0.9,0.6,1.4l-0.6,46.3c0,1-0.8,1.8-1.8,1.8h-6.1c-1,0-1.8-0.8-1.8-1.8l-0.6-46.3 c0-0.5,0.2-1.1,0.6-1.4c0.4-0.4,1-0.5,1.5-0.4c2.2,0.4,4.6,0.4,6.8,0C249.5,292.3,250,292.5,250.4,292.8z" fill="#2e57a6"/></g></g><g><g id="change2_2"><path d="M260.2,245.4c0,4.1-1.7,8-4.8,10.8c-0.3,0.3-0.8,0.5-1.2,0.5c-0.1,0-0.2,0-0.3,0c-0.5-0.1-1-0.4-1.3-0.9 c-1.1-2-2.5-3.8-4.1-5.3c-0.4-0.3-0.6-0.8-0.6-1.3l0.1-7.6c0-0.9,0.7-1.6,1.6-1.8c1.5-0.2,3-0.6,4.4-1.1 c0.6-0.2,1.3-0.1,1.7,0.3c1.4,1.1,2.7,2.4,3.9,3.7c0.3,0.3,0.5,0.7,0.5,1.2C260.2,244.4,260.2,244.9,260.2,245.4z" fill="#d69e0f"/></g></g><g><g id="change1_6"><path d="M251.8,241.6l-0.2,13c-0.8,0.5-1.6,0.9-2.5,1.2c-2.3,0.8-4.8,0.8-7.1,0c-0.9-0.3-1.7-0.7-2.4-1.2l-0.1-8.8 l-0.1-4.2c0-0.5,0.2-1,0.6-1.4c0.4-0.4,0.9-0.5,1.5-0.4c2.7,0.4,5.6,0.4,8.2,0c0.5-0.1,1.1,0.1,1.5,0.4 C251.5,240.6,251.8,241.1,251.8,241.6z" fill="#2e57a6"/></g></g><g><g id="change2_8"><path d="M265.8,220.5c-2.3,3.9-5,7.1-7.9,9.3c-0.3,0.2-0.7,0.4-1.1,0.4c-0.2,0-0.4,0-0.6-0.1 c-0.6-0.2-1-0.7-1.2-1.3c-1.3-5.7-3.3-10-5.9-12.3c-0.4-0.4-0.6-0.9-0.6-1.4l0.1-11.2c0-0.6,0.3-1.2,0.8-1.5 c0.5-0.3,1.1-0.4,1.7-0.2c4.5,1.7,10.7,6,14.8,16.7C266.1,219.4,266,220,265.8,220.5z" fill="#d69e0f"/></g></g><g><g id="change2_1"><path d="M270,245.4c0,4-1,7.9-2.8,11.4c-2,3.7-4.9,6.9-8.5,9.2c-2.7,1.7-5.7,2.9-8.8,3.5c-1.4,0.3-2.9,0.4-4.4,0.4 c-1.5,0-2.9-0.1-4.3-0.4c-2.6-0.5-5.1-1.4-7.5-2.7c-3.1-1.7-5.9-4.2-7.9-7c-3-4.2-4.7-9.1-4.7-14.3c0-4.1,1.7-7.7,4.8-10.1 c0.6-0.5,1.2-0.9,1.8-1.2c0.7-0.4,1.6-0.3,2.1,0.3c2.9,2.9,6.9,4.7,11.6,5.4c-0.5-0.1-1.1,0.1-1.5,0.4c-0.4,0.4-0.6,0.9-0.6,1.4 l0.1,4.2c-2.8-0.5-4.2-0.3-4.9-0.1c0.1,3,1.4,5.9,3.7,7.9c0.1,0.1,0.1,0.1,0.2,0.2c0.4,0.3,0.7,0.6,1.1,0.8 c0.7,0.5,1.6,0.9,2.4,1.2c2.3,0.8,4.9,0.8,7.1,0c0.9-0.3,1.7-0.7,2.5-1.2c0.5-0.3,1-0.7,1.4-1.1c2.3-2.1,3.6-5.1,3.6-8.1 c0-0.5,0-1,0-1.5c0-1.8-0.1-3.4-0.2-4.9c0-0.7,0.3-1.4,1-1.8c0.9-0.5,1.9-1,2.8-1.7c2-1.4,3.9-3,5.7-5c0.5-0.5,1.2-0.7,1.9-0.5 c0.7,0.2,1.2,0.8,1.3,1.5C269.7,235.7,270,240.4,270,245.4z" fill="#d69e0f"/></g></g><g><g id="change2_5"><path d="M270,271.9c0,12-8.6,22.2-20.4,24.1c-1.3,0.2-2.6,0.3-4,0.3c-1.3,0-2.7-0.1-4-0.3 c-11.9-1.9-20.5-12.1-20.5-24.1c0-5.2,1.6-10.1,4.7-14.3c0.3-0.5,0.9-0.8,1.5-0.8c0.6,0,1.1,0.3,1.5,0.8c1.8,2.4,4.1,4.5,6.8,6 c0.4,0.2,0.8,0.7,0.9,1.1c0.1,0.5,0,1-0.2,1.4c-1.1,1.7-1.6,3.7-1.6,5.8c0,4.9,3.1,9.1,7.8,10.5c2.1,0.6,4.4,0.6,6.5,0 c4.6-1.4,7.8-5.8,7.8-10.5c0-2.5-0.2-4.9-0.7-7.1c-0.1-0.7,0.2-1.5,0.8-1.9c3-1.9,5.5-4.6,7.2-7.8c0.3-0.6,1-1,1.7-1 c0.7,0.1,1.3,0.5,1.6,1.2C269.1,260.4,270,265.9,270,271.9z" fill="#d69e0f"/></g></g><g><g id="change1_1"><path d="M252.8,165.9l-0.8,63.2c-0.8,0.3-1.5,0.6-2.3,0.8c-2.5,0.7-5.5,0.7-8.1,0c-0.8-0.2-1.5-0.5-2.3-0.8 l-0.2-13.6l-0.2-14l-0.3-23.9l-85.4-3.4c-1,0-1.7-0.8-1.8-1.8c0-1,0.7-1.8,1.7-1.9l92.4-6.9h0.3l5.4,0.4 C252,164.1,252.8,164.9,252.8,165.9z" fill="#2e57a6"/></g></g><g><g id="change2_7"><path d="M339.8,172.4c0,1-0.8,1.8-1.8,1.8l-51.6,2c-0.5,11-3.1,40.3-17.9,56.8c-2,2.2-4.1,4.1-6.4,5.6 c-1,0.7-2.1,1.4-3.2,1.9c-1.3,0.7-2.5,1.2-3.8,1.6c-1.6,0.6-3.3,1-5,1.3c-1.5,0.2-3,0.4-4.6,0.4c-1.6,0-3.1-0.1-4.6-0.3 c-5.4-0.8-10.1-3-13.6-6.4c-4.1-4-6.2-9.3-6.2-15.3c0-10.9,8.7-18.3,17.7-20.3l0.2,14c-2.4,1.2-4.5,3.2-4.5,6.3 c0,4,2.2,6.2,4.7,7.3c0.8,0.4,1.6,0.6,2.3,0.8c2.6,0.7,5.6,0.6,8.1,0c0.8-0.2,1.6-0.5,2.3-0.8c0.9-0.4,1.9-0.9,2.8-1.5 c0.3-0.2,0.6-0.4,0.9-0.7c2.6-2,4.9-4.7,7-8.3c6-10.1,9.9-26.4,10.5-43.8c0-1.4,0.1-2.7,0.1-4.1c0-0.1,0-0.2,0-0.3l0-0.7 c0-1.3,0-2.4,0.9-3.2c0.5-0.5,1.2-0.7,2.1-0.6l61.9,4.6C339.1,170.6,339.8,171.4,339.8,172.4z" fill="#d69e0f"/></g></g><g><g id="change1_3"><path d="M195.5,256.4v1.7c0,18.4-15,33.4-33.4,33.4c-18.4,0-33.4-15-33.4-33.4v-1.7c0-1,0.8-1.8,1.8-1.8h63.1 C194.7,254.6,195.5,255.4,195.5,256.4z" fill="#2e57a6"/></g></g><g><g id="change1_7"><path d="M130.6,258.3c-0.2,0-0.4,0-0.6-0.1c-0.9-0.4-1.4-1.4-1.1-2.4l31.5-84.8c0.3-0.8,1.2-1.3,2-1.2 c0.9,0.2,1.5,0.9,1.5,1.8v84.8c0,1-0.8,1.8-1.8,1.8s-1.8-0.8-1.8-1.8v-74.6l-28,75.2C132,257.8,131.3,258.3,130.6,258.3z" fill="#2e57a6"/></g></g><g><g id="change1_2"><path d="M193.7,258.3c-0.7,0-1.4-0.5-1.7-1.2l-31.5-84.8c-0.4-0.9,0.1-2,1.1-2.4c0.9-0.4,2,0.1,2.4,1.1l31.5,84.8 c0.4,0.9-0.1,2-1.1,2.4C194.1,258.2,193.9,258.3,193.7,258.3z" fill="#2e57a6"/></g></g><g><g id="change2_3"><path d="M362.4,256.4v1.7c0,18.4-15,33.4-33.4,33.4c-18.4,0-33.4-15-33.4-33.4v-1.7c0-1,0.8-1.8,1.8-1.8h63.1 C361.5,254.6,362.4,255.4,362.4,256.4z" fill="#d69e0f"/></g></g><g><g id="change2_4"><path d="M360.5,258.3c-0.7,0-1.4-0.5-1.7-1.2l-28-75.2v74.6c0,1-0.8,1.8-1.8,1.8s-1.8-0.8-1.8-1.8v-84.8 c0-0.9,0.6-1.6,1.5-1.8c0.9-0.2,1.7,0.3,2,1.2l31.5,84.8c0.4,0.9-0.1,2-1.1,2.4C361,258.2,360.7,258.3,360.5,258.3z" fill="#d69e0f"/></g></g><g><g id="change2_6"><path d="M297.5,258.3c-0.2,0-0.4,0-0.6-0.1c-0.9-0.4-1.4-1.4-1.1-2.4l31.5-84.8c0.4-0.9,1.4-1.4,2.4-1.1 c0.9,0.4,1.4,1.4,1.1,2.4l-31.5,84.8C298.9,257.8,298.2,258.3,297.5,258.3z" fill="#d69e0f"/></g></g><g><g id="change2_9"><circle cx="245.6" cy="137.4" fill="#d69e0f" r="18" transform="rotate(-22.5 245.546 137.44)"/></g></g><g><g id="change1_5"><path d="M279,363.7c0,1-0.8,1.8-1.8,1.8H214c-1,0-1.8-0.8-1.8-1.8c0-13.8,11.2-25,25-25H254 C267.8,338.7,279,349.9,279,363.7z" fill="#2e57a6"/></g></g></g></g></svg>