<?xml version="1.0" encoding="UTF-8" standalone="no"?><svg xmlns="http://www.w3.org/2000/svg" xmlns:xlink="http://www.w3.org/1999/xlink" fill="#000000" height="480" preserveAspectRatio="xMidYMid meet" version="1" viewBox="16.0 16.0 480.0 480.0" width="480" zoomAndPan="magnify"><g fill="#e9bb00" id="change1_1"><path d="M 256 432 C 212.023438 432 169.921875 415.695312 137.453125 386.089844 L 126.671875 397.910156 C 162.097656 430.210938 208.023438 448 256 448 C 303.976562 448 349.902344 430.210938 385.328125 397.910156 L 374.546875 386.089844 C 342.078125 415.695312 299.976562 432 256 432" fill="inherit"/><path d="M 137.453125 125.910156 C 169.921875 96.304688 212.023438 80 256 80 C 299.976562 80 342.078125 96.304688 374.546875 125.910156 L 385.328125 114.089844 C 349.902344 81.789062 303.976562 64 256 64 C 208.023438 64 162.097656 81.789062 126.671875 114.089844 L 137.453125 125.910156" fill="inherit"/><path d="M 354.761719 338.40625 L 338.40625 354.761719 L 310.246094 337.507812 L 275.234375 352.015625 L 267.566406 384 L 244.433594 384 L 236.765625 352.015625 L 201.753906 337.507812 L 173.59375 354.761719 L 157.238281 338.40625 L 174.492188 310.246094 L 159.984375 275.234375 L 128 267.566406 L 128 244.433594 L 159.984375 236.765625 L 174.492188 201.753906 L 157.238281 173.59375 L 173.59375 157.238281 L 201.753906 174.492188 L 236.765625 159.984375 L 244.433594 128 L 267.566406 128 L 275.234375 159.984375 L 310.246094 174.492188 L 338.40625 157.238281 L 354.761719 173.59375 L 337.507812 201.753906 L 352.015625 236.765625 L 384 244.433594 L 384 267.566406 L 352.015625 275.234375 L 337.507812 310.246094 Z M 400 280.183594 L 400 231.816406 L 363.675781 223.105469 L 355.410156 203.160156 L 374.996094 171.199219 L 340.800781 137.003906 L 308.839844 156.589844 L 288.894531 148.324219 L 280.183594 112 L 231.816406 112 L 223.105469 148.324219 L 203.160156 156.589844 L 171.199219 137.003906 L 137.003906 171.199219 L 156.589844 203.160156 L 148.324219 223.105469 L 112 231.816406 L 112 280.183594 L 148.324219 288.894531 L 156.589844 308.839844 L 137.003906 340.800781 L 171.199219 374.996094 L 203.160156 355.410156 L 223.105469 363.675781 L 231.816406 400 L 280.183594 400 L 288.894531 363.675781 L 308.839844 355.410156 L 340.800781 374.996094 L 374.996094 340.800781 L 355.410156 308.839844 L 363.675781 288.894531 L 400 280.183594" fill="inherit"/><path d="M 256 304 C 229.53125 304 208 282.46875 208 256 C 208 229.53125 229.53125 208 256 208 C 282.46875 208 304 229.53125 304 256 C 304 282.46875 282.46875 304 256 304 Z M 256 192 C 220.710938 192 192 220.710938 192 256 C 192 291.289062 220.710938 320 256 320 C 291.289062 320 320 291.289062 320 256 C 320 220.710938 291.289062 192 256 192" fill="inherit"/><path d="M 480 155.054688 L 464.53125 162.789062 L 456.839844 232 L 439.160156 232 L 431.46875 162.789062 L 416 155.054688 L 416 138.375 C 416 114.578125 428.273438 92.835938 448 80.460938 C 467.726562 92.835938 480 114.578125 480 138.375 Z M 440 40 C 440 35.589844 443.589844 32 448 32 C 452.410156 32 456 35.589844 456 40 L 456 53.449219 C 456 56.652344 454.097656 59.539062 451.152344 60.804688 C 450.085938 61.257812 449.039062 61.734375 448 62.230469 C 446.960938 61.734375 445.914062 61.257812 444.847656 60.804688 C 441.902344 59.539062 440 56.652344 440 53.449219 Z M 463.484375 71.792969 C 468.800781 67.308594 472 60.648438 472 53.449219 L 472 40 C 472 26.765625 461.234375 16 448 16 C 434.765625 16 424 26.765625 424 40 L 424 53.449219 C 424 60.648438 427.199219 67.308594 432.515625 71.792969 C 412.289062 87.535156 400 111.925781 400 138.375 L 400 164.945312 L 416.527344 173.210938 L 424.839844 248 L 471.160156 248 L 479.472656 173.210938 L 496 164.945312 L 496 138.375 C 496 111.925781 483.714844 87.535156 463.484375 71.792969" fill="inherit"/><path d="M 480 403.054688 L 464.53125 410.789062 L 456.839844 480 L 439.160156 480 L 431.46875 410.789062 L 416 403.054688 L 416 386.375 C 416 362.578125 428.273438 340.835938 448 328.460938 C 467.726562 340.835938 480 362.578125 480 386.375 Z M 440 288 C 440 283.589844 443.589844 280 448 280 C 452.410156 280 456 283.589844 456 288 L 456 301.449219 C 456 304.652344 454.097656 307.539062 451.152344 308.804688 C 450.085938 309.257812 449.039062 309.734375 448 310.230469 C 446.960938 309.734375 445.914062 309.257812 444.847656 308.804688 C 441.902344 307.539062 440 304.652344 440 301.449219 Z M 463.484375 319.792969 C 468.800781 315.308594 472 308.648438 472 301.449219 L 472 288 C 472 274.765625 461.234375 264 448 264 C 434.765625 264 424 274.765625 424 288 L 424 301.449219 C 424 308.648438 427.199219 315.308594 432.515625 319.792969 C 412.289062 335.535156 400 359.925781 400 386.375 L 400 412.945312 L 416.527344 421.210938 L 424.839844 496 L 471.160156 496 L 479.472656 421.210938 L 496 412.945312 L 496 386.375 C 496 359.925781 483.714844 335.535156 463.484375 319.792969" fill="inherit"/><path d="M 32 138.375 C 32 114.578125 44.273438 92.835938 64 80.460938 C 83.726562 92.835938 96 114.578125 96 138.375 L 96 155.054688 L 80.53125 162.789062 L 72.839844 232 L 55.160156 232 L 47.46875 162.789062 L 32 155.054688 Z M 56 40 C 56 35.589844 59.589844 32 64 32 C 68.410156 32 72 35.589844 72 40 L 72 53.449219 C 72 56.652344 70.097656 59.539062 67.152344 60.804688 C 66.085938 61.257812 65.039062 61.734375 64 62.230469 C 62.960938 61.734375 61.914062 61.257812 60.847656 60.804688 C 57.902344 59.539062 56 56.652344 56 53.449219 Z M 40.839844 248 L 87.160156 248 L 95.46875 173.210938 L 112 164.945312 L 112 138.375 C 112 111.925781 99.714844 87.535156 79.484375 71.792969 C 84.800781 67.308594 88 60.648438 88 53.449219 L 88 40 C 88 26.765625 77.234375 16 64 16 C 50.765625 16 40 26.765625 40 40 L 40 53.449219 C 40 60.648438 43.199219 67.308594 48.515625 71.792969 C 28.289062 87.535156 16 111.925781 16 138.375 L 16 164.945312 L 32.53125 173.210938 L 40.839844 248" fill="inherit"/><path d="M 32 386.375 C 32 362.578125 44.273438 340.835938 64 328.460938 C 83.726562 340.835938 96 362.578125 96 386.375 L 96 403.054688 L 80.53125 410.789062 L 72.839844 480 L 55.160156 480 L 47.46875 410.789062 L 32 403.054688 Z M 56 288 C 56 283.589844 59.589844 280 64 280 C 68.410156 280 72 283.589844 72 288 L 72 301.449219 C 72 304.652344 70.097656 307.539062 67.152344 308.804688 C 66.085938 309.257812 65.039062 309.734375 64 310.230469 C 62.960938 309.734375 61.914062 309.257812 60.847656 308.804688 C 57.902344 307.539062 56 304.652344 56 301.449219 Z M 40.839844 496 L 87.160156 496 L 95.46875 421.210938 L 112 412.945312 L 112 386.375 C 112 359.925781 99.714844 335.535156 79.484375 319.792969 C 84.800781 315.308594 88 308.648438 88 301.449219 L 88 288 C 88 274.765625 77.234375 264 64 264 C 50.765625 264 40 274.765625 40 288 L 40 301.449219 C 40 308.648438 43.199219 315.308594 48.515625 319.792969 C 28.289062 335.535156 16 359.925781 16 386.375 L 16 412.945312 L 32.53125 421.210938 L 40.839844 496" fill="inherit"/></g></svg>