<?xml version="1.0" encoding="UTF-8" standalone="no"?><svg xmlns="http://www.w3.org/2000/svg" xmlns:xlink="http://www.w3.org/1999/xlink" data-name="1-Human Resources" fill="#e9bb00" height="48" preserveAspectRatio="xMidYMid meet" version="1" viewBox="1.0 0.0 46.0 48.0" width="46" zoomAndPan="magnify"><g id="change1_1"><path d="M22,48H21a2,2,0,0,1-2-2V42.018a18.833,18.833,0,0,1-2.5-1.03L13.686,43.8a2.048,2.048,0,0,1-2.828,0L5.2,38.142a2,2,0,0,1,0-2.829l2.81-2.81A18.833,18.833,0,0,1,6.982,30H3a2,2,0,0,1-2-2V20a2,2,0,0,1,2-2H6.982a18.833,18.833,0,0,1,1.03-2.5L5.2,12.686a2,2,0,0,1,0-2.828L10.858,4.2a2.047,2.047,0,0,1,2.829,0l2.81,2.81A18.833,18.833,0,0,1,19,5.982V2a2,2,0,0,1,2-2h8a2,2,0,0,1,2,2V7H29V2H21V6.719a1,1,0,0,1-.723.961,16.963,16.963,0,0,0-3.483,1.434,1,1,0,0,1-1.19-.168L12.272,5.615,6.615,11.272,9.946,14.6a1,1,0,0,1,.168,1.191A16.94,16.94,0,0,0,8.68,19.277,1,1,0,0,1,7.719,20H3v8H7.719a1,1,0,0,1,.961.723,16.963,16.963,0,0,0,1.434,3.483,1,1,0,0,1-.168,1.19L6.615,36.728l5.657,5.657L15.6,39.054a1,1,0,0,1,1.19-.168,16.963,16.963,0,0,0,3.483,1.434,1,1,0,0,1,.723.961V46h1Z" fill="inherit"/></g><g id="change1_2"><path d="M26,48H24V39a7.442,7.442,0,0,1,3.445-5.832C29.685,31.675,38.5,28.264,41,27.31v-.643C37.275,24.9,35,19.9,35,16V10C35,5.471,39.46,0,45,0h2V2H45c-4.309,0-8,4.4-8,8v6c0,3.391,2.19,7.944,5.334,9.057A1,1,0,0,1,43,26v2a1,1,0,0,1-.647.936c-3.942,1.485-11.9,4.63-13.8,5.9A5.443,5.443,0,0,0,26,39Z" fill="inherit"/></g><g id="change1_3"><path d="M32 39H34V48H32z" fill="inherit"/></g><g id="change1_4"><path d="M22.9,32.753a9,9,0,1,1,10.02-4.476l-1.758-.952a7,7,0,1,0-7.8,3.483Z" fill="inherit"/></g><g id="change1_5"><path d="M24 5H26V7H24z" fill="inherit"/></g><g id="change1_6"><path d="M11 36H13V38H11z" fill="inherit"/></g><g id="change1_7"><path d="M11 10H13V12H11z" fill="inherit"/></g><g id="change1_8"><path d="M6 23H8V25H6z" fill="inherit"/></g><g id="change1_9"><path d="M25,28a4,4,0,1,1,4-4A4,4,0,0,1,25,28Zm0-6a2,2,0,1,0,2,2A2,2,0,0,0,25,22Z" fill="inherit"/></g><g id="change1_10"><path d="M47,39H45V32a1,1,0,0,1-.707-.293l-3-3,1.414-1.414L45.414,30H46a1,1,0,0,1,1,1Z" fill="inherit"/></g><g id="change1_11"><path d="M45 41H47V43H45z" fill="inherit"/></g><g id="change1_12"><path d="M45 45H47V47H45z" fill="inherit"/></g></svg>