<?xml version="1.0" encoding="UTF-8" standalone="no"?><svg xmlns="http://www.w3.org/2000/svg" xmlns:xlink="http://www.w3.org/1999/xlink" fill="#000000" height="322.8" preserveAspectRatio="xMidYMid meet" version="1" viewBox="-1.2 0.0 451.0 322.8" width="451" zoomAndPan="magnify"><g><g fill="#f5f5f5" id="change1_1"><path d="M93.699 183.061H209.495V234.769H93.699z" fill="inherit"/><path d="M241.512,304.671c-0.081,0.555-0.191,1.085-0.358,1.559c-2.1,5.95-7.897,5.82-11.025,6.475 c-7.525,1.575-8.75,6.3-8.75,6.3h37.451l-2.529-14.915L241.512,304.671z" fill="inherit"/><path d="M447.603,90.656c-0.185-0.216-0.379-0.417-0.585-0.601l-0.42-0.371l-11.366-10.055 c0.083-0.084,0.161-0.172,0.244-0.257L421.41,66.215c-0.71-0.664-1.511-1.167-2.356-1.528c-0.012-0.009-0.021-0.034-0.034-0.04 c-4.218-1.905-9.81-3.143-15.707-3.759l0.131,2.297l-0.553-9.684c1.087-1.262,1.837-2.839,2.075-4.613l0.271-2.02 c0.056,0.01,0.109,0.026,0.168,0.029c2.048,0.103,3.774-0.9,4.37-2.583c0.767-2.161,0.038-4.392-1.629-4.983 c0.057,0.02,0.103,0.056,0.158,0.08c0.07-0.201,0.137-0.405,0.209-0.603c0.134-0.366,0.283-0.745,0.385-1.125 c0.101-0.376-0.062-0.818,0.007-1.206c0.067-0.383,0.262-0.753,0.296-1.146c0.007-0.08,0-0.162-0.008-0.242 c0.044-0.288,0.027-0.623,0.054-0.932c0.025-0.297,0.054-0.585,0.075-0.868c0.036-0.112,0.059-0.223,0.049-0.332 c-0.004-0.042-0.015-0.083-0.027-0.123c0.003-0.399-0.034-0.787-0.051-1.156c-0.021-0.429-0.268-0.816-0.319-1.207 c-0.056-0.427,0.225-0.897,0.136-1.28c-0.098-0.42-0.42-0.766-0.553-1.136c-0.145-0.406-0.182-0.847-0.362-1.196 c-0.198-0.383-0.559-0.654-0.79-0.972c-0.251-0.348-0.457-0.717-0.737-0.994c-0.306-0.302-0.517-0.736-0.84-0.961 c-0.354-0.246-0.784-0.405-1.14-0.568c-0.398-0.182-0.973-0.025-1.343-0.117c-0.055-0.272,0.239-0.868,0.098-1.324 c-0.102-0.334-0.374-0.69-0.577-1.061c-0.173-0.316-0.475-0.607-0.752-0.915c-0.242-0.267-0.664-0.357-1.005-0.596 c-0.295-0.206-0.636-0.31-1.019-0.48c-0.329-0.147-0.551-0.661-0.953-0.771c-0.349-0.096-0.767-0.053-1.176-0.116 c-0.361-0.055-0.746-0.153-1.157-0.178c-0.366-0.023-0.762-0.173-1.17-0.169c-0.369,0.004-0.742,0.418-1.148,0.445 c-0.37,0.025-0.779-0.213-1.181-0.166c-0.409,0.047-0.807,0.151-1.189,0.228c-0.403,0.082-0.793,0.201-1.168,0.314 c-0.392,0.118-0.784,0.229-1.147,0.378c-0.377,0.155-0.772,0.281-1.12,0.464c-0.36,0.19-0.628,0.533-0.957,0.75 c-0.339,0.224-0.504,0.656-0.811,0.903c-0.316,0.255-0.846,0.248-1.13,0.522c-0.292,0.282-0.518,0.627-0.777,0.924 c-0.268,0.306-0.522,0.618-0.757,0.934c-0.244,0.327-0.274,0.784-0.485,1.115c-0.22,0.346-0.384,0.698-0.57,1.039 c-0.199,0.363-0.724,0.543-0.888,0.892c-0.178,0.381-0.019,0.885-0.157,1.236c-0.15,0.377-0.309,0.681-0.283,1.054 c0.028,0.392-0.001,0.806,0.19,1.139c0.175,0.305,0.448,0.558,0.741,0.767c-0.01,0.035-0.023,0.068-0.033,0.103 c-0.101,0.376-0.375,0.72-0.443,1.109c-0.067,0.384,0.177,0.81,0.143,1.203c-0.034,0.387-0.222,0.764-0.222,1.161 c0,0.395,0.206,0.771,0.24,1.158c0.033,0.393,0.105,0.762,0.173,1.145c0.067,0.388,0.015,0.789,0.116,1.165 c0.101,0.381,0.406,0.68,0.54,1.047c0.106,0.292-0.071,0.701-0.07,1.035c-1.174,0.884-1.616,2.769-0.963,4.611 c0.597,1.683,2.323,2.686,4.371,2.583c0.086-0.005,0.167-0.024,0.247-0.042l0.535,2.626c0.275,1.34,0.858,2.586,1.677,3.649 l-0.216,9.722l0.049-2.228c-4.217,0.289-8.146,0.902-11.337,1.849c-0.03,0.007-0.059,0.016-0.089,0.024 c-0.046,0.014-0.098,0.025-0.144,0.039c-0.005,0.002-0.01,0.008-0.015,0.01c-2.078,0.591-3.901,2.034-4.897,4.139 c-0.051,0.109-0.11,0.244-0.156,0.354l-6.36,15.381c0.116,0.058,0.231,0.116,0.347,0.173l-2.841,6.793l-9.119-13.972 c-0.491-3.72-5.031-8.14-7.118-10.286c-1.047-1.077-1.436-1.289-1.912-0.751c-0.636,0.718-0.497,1.98,0.037,3.358 c0.477,1.229,1.207,2.402,1.41,3.069c-1.679-0.342-3.567-0.503-4.894-0.657c-0.214-0.067-0.7-0.216-1.349-0.402V16.33V0.837V0 H99.417v0.837V16.33v16.388c-0.674-0.106-1.361-0.177-2.065-0.177c-7.305,0-13.228,5.922-13.228,13.228 s5.922,13.228,13.228,13.228c0.704,0,1.391-0.071,2.065-0.177v53.891l-1.115-2.163c-0.231-0.415-0.693-0.625-1.141-0.553 L84.115,85.911c-2.052-3.336-5.579-5.204-9.223-5.294c-3.205-1.125-6.91-1.916-12.184-2.534c-2.602-0.204-5.154-0.327-7.627-0.385 l0.093-2.981c0.169-0.049,0.338-0.097,0.504-0.154c1.673-0.578,3.169-1.555,4.369-2.823c0.479-0.507,0.911-1.061,1.288-1.655 c0.941-1.485,1.535-3.219,1.662-5.096c-0.029,0.432-0.089,0.855-0.167,1.271c0.078-0.416,0.138-0.839,0.167-1.271l0.739-10.973 c0,0,0,0,0,0.001c0.703-1.875,1.152-3.648,1.263-5.179c0.14-1.937-0.184-3.672-0.833-5.214c2.202-0.009,4.009-0.731,4.791-2.555 c2.326-5.414,2.127-11.289-4.599-12.498c-3.098-0.559-7.844,0.837-11.072,2.356c-3.428-1.276-6.03-1.33-9.262,1.085 c-6.891-0.141-10.828,2.879-11.273,9.62c-4.822,3.701-3.448,8.613-2.136,11.299h-3.012v2.512H31.7 c-0.659,4.562,2.439,7.163,5.245,8.562c-0.017-0.008-0.033-0.014-0.05-0.023l-1.678,14.496c-6.369,0.64-10.34,1.419-10.34,1.419 c-7.045,2.067-12.029,4.647-15.405,6.052c-0.334,0.139-0.614,0.355-0.837,0.615c-2.586,1.801-4.4,4.675-4.731,8.057l-1.509,29.294 l-0.034,0c-0.002,0-0.004,0-0.005,0c-0.246,0-0.447,0.198-0.45,0.445c-0.001,0.107,0.041,0.201,0.102,0.279 c-0.262,0.189-0.443,0.485-0.461,0.83l-0.862,12.689L0.45,138.56c-1.657,5.438,1.409,11.189,6.847,12.846 c2.313,0.705,4.681,0.548,6.768-0.276c-0.021,0.213-0.034,0.434-0.056,0.645c-0.167,1.6,0.538,3.122,1.771,4.037 c-0.604,9.032-0.707,18.934-0.299,27.331l2.426,45.753c0,0-2.5,22.884-0.812,35.545c1.208,9.058,3.727,24.318,5.063,32.271h2.658 v2.897c0.001,0,0.002-0.001,0.003-0.001c-0.712,0.431-1.276,1.005-1.599,1.757c-1.352,3.142-2.829,5.329-4.858,8.509 c-1.376,2.156-2.072,4.018-2.335,5.627H15.95c-0.248,0-0.45,0.202-0.45,0.45c0,0.238,0.188,0.429,0.421,0.444 c-0.016,0.232-0.026,0.459-0.025,0.679c0.005,0.954,0.799,1.716,1.753,1.716h23.397c0.953,0,1.751-0.761,1.752-1.715 c0-0.227-0.023-0.449-0.03-0.675h0.029c0.248,0,0.45-0.202,0.45-0.45s-0.202-0.45-0.45-0.45H42.73 c-0.333-4.705-2.065-9.06-2.749-12.042c-0.324-1.415-0.391-2.631-0.944-3.01c-0.046-0.031-0.083-0.042-0.126-0.065 c0,0,0.001,0,0.001,0.001c-0.127-1.394-0.205-2.612-0.247-3.672h2.118l2.317-109.154c-0.035,0-0.065-0.013-0.098-0.021 c0.033,0.008,0.063,0.021,0.098,0.021c0.002,0,0.003,0,0.005,0c0.246,0,0.447-0.198,0.45-0.445l0.169-15.234l-0.107,9.711 l6.976,50.362c-3.944,20.458,4.136,53.213,7.616,64.761h2.187c0.103,1.406,0.194,2.532,0.273,3.476l0,0 c-0.233-0.102-0.489-0.135-0.817-0.042c-2.009,0.573-2.199,8.36-2.214,15.532h-0.001c-0.248,0-0.45,0.202-0.45,0.45 s0.202,0.45,0.45,0.45c0,0.199,0,0.4,0,0.597c0,0.992,0.804,1.793,1.795,1.793h33.533c1.072,0,1.911-0.931,1.786-1.996 c-0.016-0.132-0.034-0.268-0.055-0.408c0.212-0.036,0.378-0.213,0.378-0.436c0-0.248-0.202-0.45-0.45-0.45h-0.094 c-0.481-2.146-1.69-4.787-4.683-6.121c-5.536-2.466-9.216-4.995-10.854-8.46c-0.825-1.744-2.671-2.507-4.511-2.539c0,0,0,0,0,0 c-0.107-0.683-0.2-1.306-0.271-1.847h1.928l-1.375-69.322l-5.37-64.465c1.756-0.315,2.127-2.117,2.414-4.078l0,0 c0.069-0.115,0.141-0.228,0.197-0.351l27.411-6.871v17.897h118.141l29.079,35.422c1.814,2.207,5.089,2.487,7.248,0.62l6.864-5.925 l2.978-2.572l0.724,0.898l-0.021,0.019c-0.184,0.167-0.196,0.451-0.028,0.636c0.088,0.097,0.21,0.146,0.332,0.146 c0.108,0,0.217-0.039,0.304-0.118l5.455-4.975l0.088-0.071l4.033,29.065c-15.293-1.451-38.878-3.366-43.006-1.818 c-6.196,2.324-4.905,10.586-4.905,10.586l5.831,73.59l28.465-1.116l-6.014-55.096c0,0,0.061,0.022,0.17,0.061 c1,0.644,2.097,1.238,3.265,1.687c0.053,0.021,0.107,0.03,0.161,0.03c0.181,0,0.352-0.109,0.42-0.289 c0.009-0.025,0.008-0.05,0.013-0.075c0,0,0,0,0,0c5.15,1.779,13.949,4.713,18.527,5.627c2.804,0.56,5.406,0.94,7.825,1.161 c1.722,15.735,5.969,41.35,8.145,54.073c0.758,4.433,4.599,7.671,9.096,7.671h73.82v-1.643c7.471-0.198,16.405-0.09,19.062,1.386 c7.77,4.317,18.994,0.863,18.994,0.863l-27.195-18.994c-3.454,3.022-6.907,3.022-9.497,3.022c-0.468,0-0.921,0-1.363,0v-1.675 l-56.659-6.879c-1.033-15.749-1.279-30.56-1.279-30.56c5.865-15.037,6.427-24.825,5.367-30.981 c-0.002,0.001-0.006,0.002-0.008,0.003c1.946-0.758,3.013-1.394,3.013-1.394l-14.076-45.469l7.695,24.856 c7.188-4.268,4.41-12.077,4.41-12.077L321,186.056l-0.467-1.583l0.249-0.063c0,0-2.159-7.851-6.229-13.958 c-0.215-0.322-0.428-0.632-0.64-0.932h26.589V83.238c0.053,0.006,0.101,0.03,0.156,0.03c0.212,0.002,0.61-0.035,1.071-0.084 c2.802,0.769,4.848,1.143,6.49,1.186c3.182,6.99,10.724,23.513,10.724,23.513c1.559,3.504,6.038,4.812,9.056,2.445 c0.131-0.102,0.258-0.211,0.383-0.326c0.55-0.507,0.985-1.093,1.306-1.723l8.491-18.118c1.114,8.738,2.792,16.323,4.857,16.954 c0.073,0.022,0.153,0.043,0.228,0.064c-0.001,0-0.002,0-0.003-0.001c-8.922,6.768-14.789,19.854-15.251,31.838l-0.032,0.009 c0,0.341,0.003,0.685,0.008,1.032c-0.001,0.11-0.008,0.22-0.008,0.331h0.015c0.297,15.765,1.728,29.944,2.007,42.641 c0.085,3.891-2.02,10.189-2.845,13.992c-1.028,4.744-1.582,10.779-1.582,14.565c0,13.188,0.155,38.331,0.155,38.331h1.481 c-0.021,2.052-0.175,4.014-0.634,5.643c0.002-0.002,0.004-0.005,0.007-0.007c-6.055,6.565-10.737,6.983-14.593,9.29 c-0.941,0.564-1.541,1.233-1.928,1.9h-0.034c-0.248,0-0.45,0.202-0.45,0.45c0,0.121,0.049,0.231,0.128,0.312c0,0,0,0,0,0 c-0.493,1.37-0.21,2.553-0.21,2.553l30.217,0.003c0.109-0.834,0.174-1.64,0.21-2.417h0.02c0.248,0,0.45-0.202,0.45-0.45 s-0.202-0.45-0.45-0.45c0.002,0,0.003,0.001,0.005,0.001c0.082-5.403-1.347-9.119-1.347-9.119s-0.317,0.163-0.846,0.36 c0.188-0.07,0.357-0.138,0.484-0.193c-0.222-2.461-0.04-5.171,0.338-7.875h1.027l15.795-107.683h1.579l0.159,107.683h0.332 c0.001,1.991-0.019,4.269-0.081,6.645c0.075,3.43-0.074,6.473,0.025,10.186c0.003,0,0.006-0.002,0.01-0.002 c-0.248,0-0.45,0.202-0.45,0.45s0.202,0.45,0.45,0.45h0.019c0.028,0.774,0.065,1.569,0.121,2.414h22.769 c-0.03-0.963-0.319-1.781-0.783-2.503c0.116-0.082,0.196-0.21,0.196-0.361c0-0.248-0.202-0.45-0.45-0.45h-0.374 c-3.127-3.437-10.37-4.621-10.382-10.012c-0.046-0.288-0.124-0.528-0.214-0.749c-0.12-2.069-0.081-4.173,0.024-6.068h1.273 c0,0,7.981-31.48,7.981-45.678c0-3.647-0.42-7.251-0.875-10.085c-0.627-3.909-0.445-7.902,0.578-11.727 c2.786-10.419,8.047-26.388,8.343-42.113h0.015c0-0.111-0.007-0.22-0.008-0.331c0.005-0.347,0.008-0.691,0.008-1.032l-0.032-0.01 c-0.23-5.956-1.954-12.173-4.765-17.751c-0.305,0.153-0.608,0.308-0.905,0.461c0.764-0.395,1.571-0.798,2.334-1.157 c0.131-0.062,0.249-0.129,0.353-0.2c0.531-0.255,1.031-0.644,1.511-1.163c0.262-0.284,0.434-0.587,0.546-0.903 c0.274-0.154,0.537-0.333,0.783-0.543l21.417-18.256C449.52,97.199,449.833,93.271,447.603,90.656z M35.791,299.983 c-0.187-0.103-0.392-0.2-0.605-0.295C35.399,299.782,35.604,299.88,35.791,299.983z M34.973,299.6 c-0.151-0.063-0.308-0.124-0.469-0.182C34.666,299.476,34.822,299.537,34.973,299.6z M34.238,299.326 c-0.16-0.053-0.324-0.103-0.492-0.152C33.913,299.222,34.078,299.272,34.238,299.326z M33.466,299.094 c-0.201-0.054-0.408-0.102-0.617-0.149C33.058,298.991,33.265,299.04,33.466,299.094z M32.527,298.877 c-0.217-0.043-0.437-0.083-0.659-0.118C32.091,298.793,32.31,298.833,32.527,298.877z M31.463,298.703 c-0.145-0.019-0.29-0.037-0.436-0.052C31.173,298.666,31.318,298.684,31.463,298.703z M30.567,298.61 c-0.126-0.01-0.253-0.016-0.38-0.023C30.314,298.593,30.44,298.6,30.567,298.61z M29.686,298.567 c-0.096-0.002-0.191,0.001-0.287,0.001C29.495,298.567,29.59,298.565,29.686,298.567z M26.042,299.052 c-0.053,0.018-0.103,0.039-0.155,0.058C25.939,299.091,25.989,299.07,26.042,299.052z M28.182,298.621 c-0.023,0.002-0.047,0.003-0.071,0.005C28.135,298.624,28.159,298.624,28.182,298.621z M27.554,298.7 c-0.082,0.012-0.164,0.024-0.245,0.038C27.389,298.724,27.472,298.713,27.554,298.7z M26.784,298.845 c-0.078,0.018-0.155,0.038-0.231,0.058C26.629,298.884,26.706,298.864,26.784,298.845z M38.701,300.296 c-0.072-0.016-0.142-0.028-0.209-0.016C38.559,300.268,38.628,300.276,38.701,300.296z M70.669,299.74 c-0.043,0.035-0.092,0.067-0.132,0.104C70.577,299.807,70.626,299.776,70.669,299.74z M70.239,300.166 c-0.035,0.042-0.078,0.079-0.11,0.122C70.161,300.244,70.203,300.207,70.239,300.166z M61.741,300.952 c-0.044-0.032-0.089-0.064-0.131-0.096C61.652,300.889,61.697,300.92,61.741,300.952z M63.966,301.63 c-0.225,0-0.425-0.018-0.614-0.043C63.541,301.612,63.741,301.63,63.966,301.63z M63.215,301.567 c-0.175-0.029-0.341-0.065-0.49-0.112C62.874,301.501,63.039,301.538,63.215,301.567z M62.662,301.432 c-0.127-0.043-0.245-0.092-0.355-0.144C62.417,301.34,62.534,301.389,62.662,301.432z M62.19,301.231 c-0.11-0.057-0.214-0.117-0.31-0.18C61.976,301.114,62.08,301.174,62.19,301.231z M72.292,298.876 c0.012-0.004,0.025-0.007,0.037-0.011C72.317,298.869,72.305,298.872,72.292,298.876z M71.042,299.458 c0.038-0.025,0.081-0.045,0.12-0.069C71.123,299.413,71.08,299.433,71.042,299.458z M71.632,299.133 c0.027-0.013,0.057-0.023,0.084-0.035C71.689,299.111,71.66,299.121,71.632,299.133z M96.03,52.229l-6.376-4.977 c-0.68-0.531-0.801-1.512-0.271-2.192c0.531-0.68,1.512-0.801,2.192-0.27l4.073,3.179l3.768-4.215v4.687L96.03,52.229z M19.925,112.764l0.043,0.312c-0.092-0.047-0.176-0.109-0.271-0.152L19.925,112.764z M56.399,138.448l-31.61,0.378 c-0.168,0.002-0.333-0.03-0.488-0.09c-0.463-0.179-0.831-0.608-0.901-1.112l-1.429-10.218v0l1.429,10.219 c0.07,0.504,0.438,0.933,0.901,1.112c0.154,0.06,0.319,0.092,0.488,0.09L56.399,138.448c0.505-0.006,0.895-0.318,1.019-0.757 C57.294,138.13,56.904,138.442,56.399,138.448z M39.476,60.748c0,0.01,0,0.02,0,0.029C39.475,60.769,39.476,60.757,39.476,60.748z M42.726,57.253c0.111,0.26,0.229,0.508,0.353,0.746C42.955,57.761,42.837,57.513,42.726,57.253z M54.66,65.394 c0.398,0,0.813-0.029,1.227-0.064c-0.141,0.012-0.281,0.023-0.421,0.033l0-0.011C55.195,65.37,54.922,65.394,54.66,65.394z M54.671,67.716c0.019,0,0.038,0,0.057,0c-0.009,0-0.018,0-0.027,0c-0.019,0-0.037,0-0.056,0.001 C54.654,67.717,54.662,67.717,54.671,67.716z M54.329,67.72c-0.079,0.001-0.149,0.002-0.216,0.003 c0.021,0,0.042-0.001,0.062-0.001C54.226,67.722,54.273,67.721,54.329,67.72z M50.738,94.556c0.386,0.15,0.683,0.481,0.819,0.876 C51.421,95.037,51.123,94.706,50.738,94.556z M53.865,67.727c0.004,0,0.009,0,0.014,0c0,0,0.001,0,0.002,0 C53.874,67.727,53.869,67.727,53.865,67.727C53.864,67.728,53.864,67.727,53.865,67.727z M54.991,67.713c-0.011,0-0.021,0-0.033,0 c0.01,0,0.021,0,0.03,0c0.005,0,0.009,0,0.014,0c0.049,0,0.092-0.001,0.137-0.001C55.092,67.712,55.044,67.713,54.991,67.713 L54.991,67.713z M55.392,67.71c0.077-0.001,0.134-0.001,0.134-0.001S55.473,67.709,55.392,67.71L55.392,67.71z M55.232,67.711 c-0.007,0-0.012,0-0.019,0C55.22,67.711,55.226,67.711,55.232,67.711z M58.679,65.252c-0.015-0.003-0.031-0.005-0.046-0.007 C58.648,65.247,58.664,65.249,58.679,65.252z M59.397,65.553c-0.018-0.015-0.038-0.028-0.058-0.041 C59.359,65.525,59.379,65.538,59.397,65.553z M59.115,62.658c-0.061,0.015-0.13,0.024-0.193,0.037 c0.077-0.017,0.158-0.031,0.233-0.049C59.14,62.649,59.129,62.655,59.115,62.658z M59.084,65.371 c-0.014-0.006-0.027-0.013-0.042-0.019C59.056,65.358,59.069,65.365,59.084,65.371z M58.341,62.808 c-0.073,0.012-0.151,0.021-0.226,0.032c-0.018,0.002-0.037,0.004-0.055,0.007c0.114-0.016,0.228-0.031,0.337-0.049 C58.377,62.801,58.36,62.805,58.341,62.808z M58.238,65.2c-0.012-0.001-0.023-0.002-0.035-0.002 C58.215,65.199,58.226,65.2,58.238,65.2z M57.556,62.906c0.133-0.013,0.261-0.03,0.388-0.046c-0.153,0.02-0.305,0.04-0.466,0.055 c-0.095,0.009-0.191,0.018-0.289,0.026c-0.006,0-0.014,0.001-0.021,0.001C57.301,62.932,57.429,62.919,57.556,62.906z M57.445,44.31c0.175-0.027,0.35-0.054,0.515-0.083C57.793,44.256,57.624,44.283,57.445,44.31z M56.497,62.983 c-0.09,0.004-0.177,0.009-0.269,0.012c0.137-0.005,0.265-0.013,0.397-0.02c0.06-0.003,0.116-0.007,0.176-0.011 C56.7,62.97,56.602,62.978,56.497,62.983z M53.175,62.969c0.639,0.029,1.298,0.045,1.988,0.045 C54.473,63.014,53.815,62.997,53.175,62.969z M51.115,62.807c0.586,0.07,1.199,0.12,1.837,0.153 C52.313,62.927,51.702,62.876,51.115,62.807z M43.226,58.28c0.013,0.024,0.026,0.049,0.039,0.072 c0.175,0.304,0.36,0.59,0.558,0.857c0.026,0.035,0.05,0.075,0.076,0.109c0.729,0.951,1.609,1.67,2.639,2.208 c0.018,0.01,0.037,0.019,0.055,0.028c0.34,0.175,0.695,0.332,1.068,0.47c1,0.37,2.115,0.614,3.344,0.767 C47.433,62.352,44.827,61.134,43.226,58.28z M50.25,94.466c0.093-0.001,0.181,0.031,0.271,0.05 C50.43,94.497,50.343,94.465,50.25,94.466L50.25,94.466z M18.637,147.578c-0.071,0.099-0.145,0.195-0.22,0.291 C18.492,147.773,18.565,147.677,18.637,147.578z M19.747,145.629c-0.046,0.107-0.101,0.208-0.15,0.313 C19.646,145.837,19.701,145.736,19.747,145.629z M19.244,146.635c-0.063,0.112-0.132,0.219-0.2,0.328 C19.112,146.854,19.181,146.747,19.244,146.635z M17.711,148.687c0.072-0.074,0.141-0.152,0.21-0.228 C17.852,148.535,17.783,148.613,17.711,148.687z M53.791,75.023c0.039-0.006,0.078-0.011,0.117-0.017 C53.869,75.012,53.83,75.017,53.791,75.023z M59.617,65.786c0.007,0.01,0.011,0.023,0.018,0.034 C59.628,65.81,59.624,65.797,59.617,65.786z M59.757,66.101c0.009,0.031,0.018,0.062,0.025,0.094 C59.775,66.163,59.766,66.132,59.757,66.101z M59.879,62.429c0.066-0.024,0.129-0.051,0.193-0.076 c0.17-0.067,0.333-0.14,0.488-0.219c0.063-0.032,0.127-0.063,0.188-0.097C60.48,62.187,60.191,62.318,59.879,62.429z M60.879,61.952c0.149-0.088,0.297-0.176,0.432-0.279c0.021-0.016,0.039-0.034,0.059-0.05 C61.217,61.744,61.049,61.85,60.879,61.952z M61.814,61.221c0.047-0.048,0.092-0.099,0.138-0.149 C61.907,61.123,61.861,61.173,61.814,61.221z M62.14,60.837c0.051-0.064,0.105-0.124,0.154-0.192 c0.031-0.043,0.064-0.082,0.093-0.126C62.31,60.633,62.223,60.732,62.14,60.837z M62.455,60.404 c0.105-0.164,0.208-0.33,0.302-0.513c0.029-0.055,0.055-0.115,0.083-0.172c0.06-0.123,0.115-0.256,0.171-0.388 C62.844,59.725,62.66,60.084,62.455,60.404z M63.095,59.142c0.029-0.073,0.058-0.145,0.086-0.22 C63.153,58.997,63.123,59.07,63.095,59.142z M61.714,42.954c-0.007,0.004-0.014,0.008-0.021,0.012 C61.7,42.962,61.707,42.958,61.714,42.954C61.714,42.954,61.714,42.954,61.714,42.954z M59.098,44.002 c-0.001,0-0.002,0-0.003,0.001C59.097,44.003,59.098,44.003,59.098,44.002C59.099,44.002,59.099,44.002,59.098,44.002z M58.673,44.092c-0.003,0.001-0.007,0.001-0.01,0.002c-0.144,0.03-0.282,0.062-0.437,0.09c0,0-0.001,0-0.001,0c0,0,0,0,0,0 c0,0,0.001,0,0.002,0C58.384,44.155,58.526,44.123,58.673,44.092z M56.829,44.397c-0.001,0-0.002,0-0.003,0 c-0.004,0-0.009,0.001-0.013,0.002c-0.122,0.016-0.25,0.032-0.372,0.048c-0.002,0-0.004,0-0.006,0.001 c0.125-0.016,0.255-0.033,0.378-0.049C56.818,44.399,56.824,44.398,56.829,44.397z M55.772,44.528 c-0.311,0.036-0.632,0.072-0.979,0.107C55.141,44.6,55.456,44.564,55.772,44.528z M34.076,56.969 c-0.049,0.256-0.092,0.516-0.107,0.787C33.985,57.485,34.025,57.224,34.076,56.969z M38.066,64.512 c-0.013-0.005-0.024-0.01-0.037-0.015C38.041,64.503,38.054,64.507,38.066,64.512z M19.221,107.733 c-0.1,0.034-0.199,0.069-0.293,0.113C19.022,107.802,19.121,107.767,19.221,107.733l-1.63-11.658L19.221,107.733z M17.077,149.29 c-0.049,0.043-0.095,0.088-0.145,0.129C16.982,149.377,17.028,149.332,17.077,149.29z M42.919,187.515 c0.003,0.001,0.004,0.004,0.007,0.005C42.923,187.519,42.922,187.516,42.919,187.515z M70.268,160.144 c0.196-0.075,0.371-0.167,0.535-0.268C70.64,159.977,70.465,160.069,70.268,160.144z M71.022,159.718 c0.072-0.053,0.143-0.107,0.208-0.166C71.166,159.611,71.093,159.664,71.022,159.718z M71.479,159.297 c0.029-0.033,0.057-0.068,0.085-0.102C71.536,159.23,71.508,159.263,71.479,159.297z M90.686,138.725 c-0.158,0.046-14.163,3.682-22.274,5.786c1.437-0.373,3.057-0.793,4.752-1.233l2.483-28.536l2.737,4.467 c0.007,0.042,0.012,0.084,0.031,0.124c0.016,0.033,0.047,0.05,0.069,0.077c-0.303,0.351-0.369,0.87-0.108,1.292l5.846,12.433 c0.321,0.519,1.003,0.677,1.52,0.353l13.674-6.958v0l-11.63,5.918L90.686,138.725z M249.996,244.467 c-0.02-0.022-0.041-0.045-0.059-0.065C249.954,244.421,249.976,244.445,249.996,244.467z M249.838,244.29 c-0.021-0.025-0.039-0.045-0.057-0.065C249.798,244.244,249.818,244.267,249.838,244.29z M249.727,244.162 c-0.026-0.03-0.044-0.052-0.052-0.061C249.683,244.11,249.705,244.137,249.727,244.162z M250.588,245.097 c0.017,0.018,0.034,0.035,0.052,0.053C250.622,245.133,250.605,245.115,250.588,245.097z M250.918,245.432 c0.005,0.005,0.011,0.011,0.017,0.016C250.93,245.443,250.924,245.438,250.918,245.432z M254.51,248.439 c0.049,0.034,0.099,0.068,0.149,0.102C254.609,248.507,254.559,248.473,254.51,248.439z M252.041,246.489 c0.005,0.004,0.009,0.009,0.014,0.013C252.051,246.497,252.046,246.493,252.041,246.489z M252.486,246.877 c0.008,0.007,0.016,0.014,0.024,0.02C252.502,246.89,252.494,246.883,252.486,246.877z M253.952,248.041 c0.026,0.019,0.051,0.038,0.078,0.057C254.004,248.079,253.978,248.06,253.952,248.041z M258.964,249.917 c0.002,0.004,0.005,0.006,0.007,0.01C258.969,249.924,258.966,249.921,258.964,249.917z M301.227,234.855 c0.175,0.037,0.349,0.072,0.522,0.107C301.576,234.927,301.403,234.892,301.227,234.855z M303.163,235.222 c0.146,0.024,0.292,0.051,0.437,0.074C303.456,235.274,303.309,235.247,303.163,235.222z M305.336,235.532 c0.121,0.014,0.24,0.024,0.36,0.036C305.576,235.556,305.457,235.546,305.336,235.532z M307.063,235.691 c0.164,0.012,0.328,0.023,0.49,0.033C307.39,235.715,307.227,235.703,307.063,235.691z M308.971,235.787 c0.072,0.002,0.146,0.006,0.218,0.008C309.118,235.794,309.044,235.789,308.971,235.787z M310.749,235.796 c0.143-0.003,0.284-0.007,0.425-0.011C311.033,235.789,310.892,235.794,310.749,235.796z M318.418,234.918 c0.089-0.019,0.175-0.039,0.263-0.059C318.592,234.878,318.507,234.899,318.418,234.918z M312.325,235.737 c0.135-0.008,0.271-0.014,0.404-0.023C312.596,235.722,312.459,235.729,312.325,235.737z M314.145,235.596 c0.07-0.007,0.137-0.016,0.207-0.024C314.282,235.579,314.215,235.589,314.145,235.596z M315.526,235.427 c0.129-0.018,0.257-0.036,0.384-0.055C315.783,235.391,315.655,235.409,315.526,235.427z M316.972,235.2 c0.077-0.014,0.156-0.026,0.232-0.04C317.128,235.174,317.049,235.187,316.972,235.2z M322.913,233.646 c0.031-0.011,0.065-0.022,0.096-0.034C322.977,233.624,322.945,233.635,322.913,233.646z M319.601,234.641 c0.091-0.023,0.183-0.046,0.273-0.069C319.784,234.596,319.693,234.618,319.601,234.641z M321.924,233.98 c0.065-0.021,0.128-0.042,0.191-0.062C322.052,233.939,321.989,233.959,321.924,233.98z M262.58,173.651 c-6.411,6.01-9.995,9.595-9.995,9.595l0.319,0.396l-1.115,0.967l-2.806,2.439l-20.719-17.528h38.955 C265.63,170.857,264.067,172.256,262.58,173.651z M373.836,86.299c-0.627-0.295-1.255-0.588-1.879-0.891 C372.581,85.712,373.209,86.004,373.836,86.299z M368.945,83.923c0.583,0.291,1.169,0.578,1.753,0.866 C370.114,84.5,369.529,84.214,368.945,83.923z M374.935,86.819c0.993,0.456,1.991,0.899,2.997,1.322 C376.926,87.718,375.928,87.275,374.935,86.819z M349.844,267.602c0.002,0.001,0.003,0.002,0.005,0.003 C349.846,267.604,349.846,267.603,349.844,267.602z M367.547,256.438c0.104,0.086,0.21,0.158,0.315,0.238 C367.757,256.596,367.652,256.524,367.547,256.438z M368.533,257.156c0.121,0.078,0.242,0.147,0.363,0.219 C368.775,257.304,368.654,257.235,368.533,257.156z M369.531,257.721c0.122,0.06,0.243,0.116,0.365,0.17 C369.774,257.837,369.653,257.781,369.531,257.721z M370.54,258.147c0.111,0.04,0.223,0.081,0.334,0.116 C370.763,258.228,370.652,258.187,370.54,258.147z M371.575,258.451c0.085,0.02,0.172,0.044,0.257,0.062 C371.747,258.496,371.66,258.471,371.575,258.451z M373.696,258.708c0.044,0,0.087-0.003,0.131-0.003 C373.783,258.706,373.74,258.709,373.696,258.708z M377.34,258.128c0.055-0.018,0.117-0.036,0.168-0.054 C377.456,258.092,377.396,258.11,377.34,258.128z M374.553,258.681c0.078-0.006,0.152-0.014,0.228-0.021 C374.704,258.667,374.631,258.675,374.553,258.681z M375.356,258.594c0.082-0.012,0.162-0.025,0.242-0.038 C375.517,258.569,375.438,258.582,375.356,258.594z M376.096,258.462c0.076-0.016,0.153-0.032,0.227-0.049 C376.248,258.43,376.173,258.446,376.096,258.462z M376.759,258.302c0.068-0.019,0.14-0.037,0.205-0.056 C376.898,258.266,376.827,258.283,376.759,258.302z M405.312,254.776c-0.014,0.003-0.027,0.005-0.041,0.008 C405.285,254.781,405.299,254.778,405.312,254.776z M404.82,254.893c-0.029,0.008-0.058,0.016-0.087,0.024 C404.762,254.909,404.79,254.901,404.82,254.893z M404.305,255.052c-0.042,0.014-0.084,0.029-0.127,0.044 C404.221,255.082,404.263,255.067,404.305,255.052z M403.779,255.247c-0.055,0.022-0.11,0.045-0.165,0.068 C403.669,255.292,403.724,255.269,403.779,255.247z M403.246,255.473c-0.067,0.03-0.133,0.062-0.2,0.093 C403.113,255.535,403.18,255.503,403.246,255.473z M402.716,255.724c-0.082,0.041-0.163,0.083-0.244,0.124 C402.553,255.806,402.634,255.765,402.716,255.724z M402.194,255.992c-0.105,0.056-0.207,0.113-0.31,0.171 C401.987,256.105,402.089,256.048,402.194,255.992z M401.685,256.273c-0.167,0.096-0.331,0.192-0.489,0.287 C401.354,256.465,401.518,256.369,401.685,256.273z M435.191,79.672c-1.239,1.27-2.439,2.575-3.629,3.892 C432.75,82.246,433.952,80.941,435.191,79.672z M409.736,112.138c0.104-0.075,0.211-0.152,0.319-0.231 C409.947,111.986,409.841,112.063,409.736,112.138z M410.203,111.799c0.135-0.098,0.271-0.198,0.409-0.299 C410.475,111.601,410.339,111.701,410.203,111.799z M410.685,111.447c0.345-0.253,0.694-0.512,1.03-0.762 C411.378,110.936,411.03,111.193,410.685,111.447z M411.751,110.659c0.163-0.121,0.323-0.241,0.478-0.357 C412.073,110.418,411.914,110.537,411.751,110.659z M412.231,110.3c0.16-0.12,0.314-0.235,0.461-0.345 C412.545,110.065,412.391,110.18,412.231,110.3z M407.832,107.323c0.009-0.002,0.018-0.004,0.027-0.006 C407.85,107.319,407.842,107.321,407.832,107.323z M399.664,108.326c-0.009,0-0.019,0.001-0.028,0.001 C399.645,108.327,399.655,108.327,399.664,108.326z M397.822,108.399c-0.004,0-0.008,0-0.012,0 C397.814,108.399,397.818,108.399,397.822,108.399z M383.452,39.564c0.143-0.091,0.292-0.174,0.456-0.232 C383.744,39.39,383.597,39.476,383.452,39.564z M390.569,108.266c-0.006,0-0.011-0.001-0.017-0.001 C390.558,108.266,390.563,108.266,390.569,108.266z M388.874,108.129c-0.002,0-0.005,0-0.007-0.001 C388.869,108.129,388.871,108.129,388.874,108.129z M408.742,112.842c0.124-0.085,0.259-0.18,0.399-0.279 C409,112.663,408.866,112.757,408.742,112.842z M409.254,112.483c0.104-0.073,0.21-0.149,0.32-0.228 C409.463,112.334,409.358,112.41,409.254,112.483z M418.369,122.493c0.479-0.26,1.019-0.546,1.588-0.84 C419.388,121.946,418.848,122.233,418.369,122.493z M417.619,122.904c0.188-0.105,0.401-0.222,0.624-0.343 C418.02,122.682,417.807,122.799,417.619,122.904z M419.148,110.067c-1.067-0.544-2.278-0.997-3.591-1.305 c-0.003,0.002-0.006,0.005-0.009,0.006c-0.511-0.113-1.063-0.076-1.491,0.156c0,0-0.568,0.432-1.357,1.025 c-1.133-1.086-2.319-2.083-3.557-2.962c0,0-0.001,0-0.001,0c0.607-0.177,1.158-0.37,1.63-0.581 c2.718-1.083,5.308-11.657,6.941-21.895c0.037-0.007,0.072-0.016,0.105-0.032l7.308,6.276c0.268-0.293,0.531-0.591,0.797-0.886 l6.86,5.524L419.148,110.067z" fill="inherit"/></g><g id="change2_1"><path d="M31.975 51.256H47.324V56.93H31.975z" fill="#293237"/></g><g id="change1_2"><path d="M99.417,0.837h241.085V169.52H99.417V0.837z M93.699,234.769h115.796v-51.708H93.699V234.769z M259,250.3 c0.089-0.231-0.026-0.492-0.259-0.581c-4.668-1.795-8.338-6.149-8.374-6.193c-0.159-0.191-0.443-0.218-0.634-0.058 c-0.19,0.159-0.217,0.443-0.058,0.634c0.155,0.186,3.852,4.576,8.743,6.457c0.053,0.021,0.107,0.03,0.161,0.03 C258.761,250.589,258.931,250.479,259,250.3z M43.556,187.112l0.169-15.234l6.163-1.645c0.24-0.063,0.383-0.311,0.318-0.551 c-0.064-0.239-0.308-0.385-0.551-0.318l-6.493,1.732c-0.195,0.052-0.331,0.228-0.334,0.43l-0.173,15.576 c-0.003,0.248,0.196,0.452,0.445,0.455c0.002,0,0.003,0,0.005,0C43.352,187.558,43.554,187.359,43.556,187.112z M56.399,138.448 c0.673-0.008,1.143-0.559,1.048-1.231l-5.809-41.548c-0.094-0.672-0.715-1.21-1.388-1.203l-31.61,0.378 c-0.673,0.008-1.143,0.559-1.048,1.231l5.809,41.549c0.094,0.672,0.716,1.21,1.388,1.202L56.399,138.448" fill="#f5f5f5"/></g><g id="change3_1"><path d="M127.78,32.23v53.718h38.247V32.23H127.78z M146.75,40.82c5.913,0,10.707,4.793,10.707,10.706 s-4.793,10.706-10.707,10.706s-10.707-4.793-10.707-10.706S140.837,40.82,146.75,40.82z M159.776,78.726h-26.053v-3.008h26.053 V78.726z M159.776,71.231h-26.053v-3.008h26.053V71.231z M236.382,32.076h-47.099c-1.579,0-2.86,1.281-2.86,2.86v56.021 c0,1.58,1.281,2.86,2.86,2.86h47.099c1.58,0,2.86-1.28,2.86-2.86V34.936C239.242,33.357,237.961,32.076,236.382,32.076z M223.019,50.991l8.355-10.404v20.808L223.019,50.991z M230.272,62.768h-16.709l8.355-10.404L230.272,62.768z M230.272,39.214 l-8.354,10.404l-8.355-10.404H230.272z M212.46,40.586l8.355,10.405l-8.355,10.405V40.586z M212.46,62.768L212.46,62.768 L212.46,62.768L212.46,62.768z M232.996,77.724h-40.328v-1.719h40.328V77.724z M232.996,70.587h-40.328v-1.719h40.328V70.587z M99.417,0v16.33h241.085V0H99.417z M110.544,11.081c-1.636,0-2.962-1.326-2.962-2.962s1.326-2.962,2.962-2.962 c1.636,0,2.962,1.326,2.962,2.962S112.18,11.081,110.544,11.081z M120.417,11.081c-1.636,0-2.962-1.326-2.962-2.962 s1.326-2.962,2.962-2.962c1.636,0,2.962,1.326,2.962,2.962S122.053,11.081,120.417,11.081z M130.29,11.081 c-1.636,0-2.962-1.326-2.962-2.962s1.326-2.962,2.962-2.962c1.636,0,2.962,1.326,2.962,2.962S131.926,11.081,130.29,11.081z M151.779,196.079v2.913h-30.588v-2.913H151.779z M153.782,212.738v2.913h-50.797v-2.913H153.782z M148.319,219.293v2.913h-45.335 v-2.913H148.319z M175.084,201.45v25.854h27.31V201.45H175.084z M197.815,210.363l-10.606,11.865l-7.333-5.723 c-0.782-0.61-0.921-1.739-0.311-2.521c0.61-0.782,1.739-0.921,2.521-0.311l4.684,3.656l8.367-9.36 c0.661-0.74,1.797-0.803,2.536-0.142C198.412,208.488,198.476,209.623,197.815,210.363z M260.835,33.949v55.866h57.509V33.949 H260.835z M267.408,52.024c0-5.445,4.414-9.859,9.858-9.859s9.859,4.414,9.859,9.859s-4.414,9.859-9.859,9.859 S267.408,57.469,267.408,52.024z M298.627,83.243H278.91V65.169h19.717V83.243z M286.03,61.883l12.871-19.431l12.871,19.431H286.03 z" fill="#e0e0e0"/></g><g id="change4_1"><path d="M89.848,309.558c2.993,1.333,4.202,3.975,4.683,6.121H57.639c0.015-7.172,0.205-14.959,2.214-15.532 c1.409-0.403,1.495,1.483,4.112,1.483c2.618,0,3.678-2.255,5.864-0.846c1.246-2.727,7.441-3.333,9.165,0.314 C80.632,304.563,84.312,307.092,89.848,309.558z M94.697,316.564c-0.024,0.004-0.047,0.015-0.072,0.015H57.639 c0,0.199,0,0.4,0,0.597c0,0.992,0.804,1.793,1.795,1.793h33.533c1.072,0,1.911-0.931,1.786-1.996 C94.736,316.841,94.718,316.704,94.697,316.564z M39.036,300.448c-0.211-0.144-0.38-0.197-0.544-0.168 c-0.93,0.167-1.874,0.158-2.701-0.297c-3.266-1.797-10.932-2.433-12.572,1.382c-1.352,3.142-2.829,5.329-4.858,8.509 c-1.376,2.156-2.072,4.018-2.335,5.627H42.73c-0.333-4.705-2.065-9.06-2.749-12.042C39.657,302.043,39.59,300.827,39.036,300.448z M15.95,316.4c-0.01,0-0.019-0.005-0.029-0.006c-0.016,0.232-0.026,0.459-0.025,0.679c0.005,0.954,0.799,1.716,1.753,1.716h23.397 c0.953,0,1.751-0.761,1.752-1.715c0-0.227-0.023-0.449-0.03-0.675H15.95z M68.978,162.99c2.136-0.079,2.521-2.03,2.831-4.144 c-0.337,0.563-0.824,1.024-1.541,1.298c-0.79,0.301-1.532,0.452-2.237,0.443c-0.15,0.021-0.311,0.03-0.485,0.027 c-2.186-0.046-4.721,0.023-6.292,0.099c-1.85,0.089-2.286-2.431-0.278-2.99c-0.941,0.084-1.803,0.166-2.483,0.24 c-2.095,0.229-2.787-2.343-0.793-3.26c-0.334,0.072-0.649,0.141-0.929,0.203c-2.5,0.553-3.719-2.374-0.847-3.676 c2.344-1.063,5.934-2.552,5.934-2.552c-2.301,0.007-3.655-0.075-5.205-0.014c-2.401,0.095-2.497-3.033,0.434-3.453 c2.508-0.36,7.779-1.375,7.779-1.375c0.582-0.021,1.193,0.232,1.681,0.625c0.004,0,0.009-0.001,0.014-0.002 c0.162,0.134,0.311,0.275,0.467,0.412c1.737-0.451,3.871-1.005,6.138-1.593l2.483-28.536l2.849,4.65 c-0.316,0.352-0.386,0.882-0.121,1.311l5.846,12.433c0.321,0.519,1.003,0.677,1.52,0.353l18.418-9.372c0,0,0.756-0.347,0.378-1.464 l-6.237-12.105c-0.231-0.415-0.693-0.625-1.141-0.553L84.115,85.911c-2.052-3.336-5.579-5.204-9.223-5.294 c-3.205-1.125-6.91-1.916-12.184-2.534c-2.602-0.204-5.154-0.327-7.627-0.385l-0.156,5.014c-0.583,5.296-5.623,9.097-11.257,8.489 c-5.635-0.608-9.264-5.459-8.681-10.756l0.228-1.967c-6.369,0.64-10.34,1.419-10.34,1.419c-7.045,2.067-12.029,4.647-15.405,6.052 c-0.334,0.139-0.614,0.355-0.837,0.615c-2.586,1.801-4.4,4.675-4.731,8.057l-1.537,29.839c-0.453,0.12-0.795,0.521-0.82,1.008 l-0.862,12.689l9.063-15.724l1.735-8.806c0,0,0,0,0-0.001c-0.036-0.918,0.392-1.782,1.142-2.312l5.945-3.259 c0.101-0.069,0.207-0.131,0.317-0.186c0.015-0.007,0.028-0.015,0.042-0.022c0.094-0.044,0.193-0.079,0.293-0.113l-1.63-11.658 c-0.095-0.672,0.375-1.223,1.048-1.231l31.61-0.378c0.673-0.008,1.294,0.531,1.388,1.203l5.809,41.548 c0.095,0.672-0.375,1.224-1.048,1.231l-31.61,0.378c-0.673,0.008-1.295-0.53-1.389-1.202l-1.429-10.218l-1.83,17.154 c-0.952,3.124-3.258,5.458-6.078,6.571c-0.021,0.213-0.034,0.434-0.056,0.645c-0.223,2.131,1.101,4.123,3.156,4.727 C34.086,161.476,51.357,163.639,68.978,162.99z M37.804,53.338c0.672,0.039,1.076,0.942,1.321,2.104h4.943v0l2.115-0.819 c0.292-0.113,0.309-0.52,0.027-0.657l-2.142-1.036H27.603v2.512h7.009C35.313,54.118,36.497,53.261,37.804,53.338z M102.984,203.908h13.837v-12.745h-13.837V203.908z M84.124,45.769c0-7.306,5.922-13.228,13.228-13.228 c7.306,0,13.228,5.922,13.228,13.228s-5.922,13.228-13.228,13.228C90.047,58.996,84.124,53.074,84.124,45.769z M89.654,47.252 l6.376,4.977l9.224-10.318c0.575-0.643,0.52-1.631-0.124-2.206s-1.631-0.52-2.206,0.124l-7.276,8.139l-4.073-3.179 c-0.68-0.531-1.662-0.41-2.192,0.27C88.852,45.74,88.973,46.721,89.654,47.252z M235.215,45.982c0.898,0,1.695-0.401,2.246-1.025 c2.533,1.399,6.746,3.326,12.453,4.552c3.042,0.653,6.718,1.135,10.942,1.135c7.385,0,16.446-1.484,26.702-6.102 c0.551,0.615,1.343,1.01,2.234,1.01c1.661,0,3.008-1.347,3.008-3.008s-1.347-3.008-3.008-3.008c-1.662,0-3.008,1.347-3.008,3.008 c0,0.15,0.023,0.293,0.044,0.436c-15.644,7.036-28.38,6.585-36.46,4.867c-5.603-1.192-9.759-3.121-12.185-4.467 c0.018-0.134,0.041-0.267,0.041-0.406c0-1.661-1.347-3.008-3.008-3.008s-3.008,1.347-3.008,3.008S233.554,45.982,235.215,45.982z M311.772,61.883l-12.871-19.431L286.03,61.883H311.772z M233.377,138.873c0.125-2.516-0.789-4.797-2.715-6.781 c-3.741-3.853-10.96-6.189-18.624-7.604c0.291-0.712,0.615-1.412,0.999-2.091c6.433-11.397,24.14-15.696,31.702-17.532l0.133-0.032 c22.596-5.487,28.124-15.276,29.461-20.218c1.45-0.215,2.567-1.454,2.567-2.964c0-1.661-1.347-3.008-3.008-3.008 c-1.662,0-3.008,1.347-3.008,3.008c0,1.193,0.699,2.214,1.706,2.7c-1.337,4.489-6.697,13.608-28.123,18.811l-0.133,0.032 c-7.779,1.889-25.994,6.311-32.793,18.358c-0.482,0.855-0.891,1.734-1.239,2.633c-12.418-2.06-25.399-1.846-26.294-1.83 l0.035,1.719c0.215-0.005,13.288-0.219,25.695,1.781c-0.964,3.354-1.042,6.988-0.236,10.868c-0.817,0.538-1.359,1.461-1.359,2.512 c0,1.661,1.347,3.008,3.008,3.008c1.661,0,3.008-1.347,3.008-3.008c0-1.655-1.336-2.995-2.988-3.006 c-0.727-3.613-0.649-6.989,0.273-10.084c7.48,1.342,14.487,3.539,17.986,7.144c1.603,1.651,2.333,3.449,2.231,5.498 c-0.284,5.732-7.014,15.422-48.89,15.913c-8.937,0.103-33.216-2.461-40.133-9.436c-1.162-1.172-1.715-2.359-1.689-3.629 c0.101-5.013,3.345-7.937,10.848-9.778c7.963-1.954,20.836-2.636,41.744-2.206l0.035-1.719 c-21.063-0.432-34.074,0.264-42.189,2.256c-8.29,2.034-12.039,5.554-12.156,11.413c-0.035,1.735,0.701,3.375,2.187,4.874 c7.557,7.62,32.393,9.948,40.885,9.947c0.169,0,0.333-0.001,0.489-0.002C223.907,155.938,232.994,146.612,233.377,138.873z M198.417,44.628c-0.095,0.293-0.16,0.6-0.16,0.924c0,1.661,1.347,3.008,3.008,3.008c1.662,0,3.008-1.347,3.008-3.008 s-1.347-3.008-3.008-3.008c-0.714,0-1.361,0.259-1.877,0.675c-8.549-5.685-19.889-5.525-32.983,0.522 c-10.519,4.859-18.594,11.885-18.675,11.956l1.133,1.293C149.166,56.725,178.492,31.392,198.417,44.628z M175.16,139.529 l-2.287,1.954l7.839,9.175l19.09-16.509l-1.968-2.275l-16.8,14.529L175.16,139.529z M320.782,184.41c0,0-2.159-7.851-6.229-13.958 c-3.198-4.797-5.992-7.124-10.135-9.115c-2.234-1.074-6.281-2.425-9.055-2.078c-6.396,0.8-6.796,0.8-13.193,1.599 c-5.426,0.678-13.193,6.796-19.589,12.793c-6.411,6.01-9.995,9.595-9.995,9.595l12.149,15.069l5.847-4.714l4.106,29.591 c0,0,13.879,8.428,24.673,11.226c16.244,4.212,27.498-2.512,27.498-2.512l-14.076-45.469L320.782,184.41z M377.788,303.393 c-0.468,0-0.921,0-1.363,0v13.722c7.471-0.198,16.405-0.09,19.062,1.386c7.77,4.317,18.994,0.863,18.994,0.863l-27.195-18.994 C383.831,303.393,380.378,303.393,377.788,303.393z M241.512,304.671c-0.081,0.555-0.191,1.085-0.358,1.559 c-2.1,5.95-7.897,5.82-11.025,6.475c-7.525,1.575-8.75,6.3-8.75,6.3h37.451l-2.529-14.915L241.512,304.671z M421.41,66.215 c-0.71-0.664-1.511-1.167-2.356-1.528c-0.012-0.009-0.021-0.034-0.034-0.04c-4.218-1.905-9.81-3.143-15.707-3.759l0.131,2.297 c-0.069,4.11-3.458,7.385-7.566,7.316h-0.001c-4.109-0.069-7.052-3.54-6.983-7.65l0.049-2.228 c-4.217,0.289-8.146,0.902-11.337,1.849c-0.03,0.007-0.059,0.016-0.089,0.024c-0.046,0.014-0.098,0.025-0.144,0.039 c-0.005,0.002-0.01,0.008-0.015,0.01c-2.078,0.591-3.901,2.034-4.897,4.139c-0.051,0.109-0.11,0.244-0.156,0.354l-6.36,15.381 c3.962,1.979,7.911,4.005,11.989,5.722c1.105,9.559,2.88,18.293,5.104,18.973c6.283,1.92,22.149,1.787,27.736-0.708 c2.728-1.087,5.326-11.731,6.958-22.002l7.396,6.351c3.466-3.785,6.754-7.729,10.349-11.383L421.41,66.215z M380.39,267.192 c0-0.248-0.202-0.45-0.45-0.45h-29.914c-0.248,0-0.45,0.202-0.45,0.45s0.202,0.45,0.45,0.45h29.914 C380.188,267.643,380.39,267.44,380.39,267.192z M419.293,266.745h-21.872c-0.248,0-0.45,0.202-0.45,0.45s0.202,0.45,0.45,0.45 h21.872c0.248,0,0.45-0.202,0.45-0.45S419.541,266.745,419.293,266.745z" fill="#2e57a6"/></g><g id="change5_1"><path d="M324.887,199.217c0,0,2.778,7.809-4.41,12.077l-7.695-24.856l7.751-1.965l0.467,1.583L324.887,199.217z M447.603,90.656c-0.185-0.216-0.379-0.417-0.585-0.601l-0.42-0.371l-11.366-10.055c-3.222,3.299-6.212,6.815-9.309,10.24 l6.86,5.524l-13.635,14.674c-1.067-0.544-2.278-0.997-3.591-1.305c-0.003,0.002-0.006,0.005-0.009,0.006 c-0.511-0.113-1.063-0.076-1.491,0.156c0,0-3.571,2.718-5.315,3.918c-2.038,1.403-0.805,3.71,0.958,2.747 c1.138-0.621,2.183-1.062,3.903-1.922c0,0-2.135,2.448-3.497,4.114c-1.667,2.041,0.333,3.781,2,2.438 c0.187-0.15,0.397-0.319,0.621-0.497c-1.153,1.427,0.32,3.096,1.804,2.147c0.482-0.308,1.097-0.689,1.771-1.102 c-1.296,1.163-0.034,2.889,1.318,2.136c1.148-0.64,3.021-1.633,4.675-2.41c0.131-0.062,0.249-0.129,0.353-0.2 c0.531-0.255,1.031-0.644,1.511-1.163c0.262-0.284,0.434-0.587,0.546-0.903c0.274-0.154,0.537-0.333,0.783-0.543l21.417-18.256 C449.52,97.199,449.833,93.271,447.603,90.656z M403.443,63.186l-0.553-9.684c1.087-1.262,1.837-2.839,2.075-4.613l0.271-2.02 c0.056,0.01,0.109,0.026,0.168,0.029c2.048,0.103,3.774-0.9,4.37-2.583c0.767-2.161,0.038-4.392-1.629-4.983 c-0.666-0.236-1.441,0.625-2.132,1.742l0.453-3.365c0.149-1.151,0.124-2.392-0.122-3.594c-0.68-3.336-2.832-5.991-5.639-7.44 c-3.616,2.645-8.384,4.726-13.088,4.726c-0.489,0-0.972-0.023-1.453-0.055c-1.084,2.108-1.495,4.578-0.985,7.081l0.399,1.961 c-0.562-0.756-1.15-1.243-1.671-1.058c-1.666,0.59-2.395,2.822-1.629,4.983c0.597,1.683,2.323,2.686,4.371,2.583 c0.086-0.005,0.167-0.024,0.247-0.042l0.535,2.626c0.275,1.34,0.858,2.586,1.677,3.649l-0.216,9.722 c-0.069,4.11,2.874,7.581,6.983,7.65h0.001C399.986,70.571,403.374,67.296,403.443,63.186z M368.382,110.001 c0.55-0.507,0.985-1.093,1.306-1.723l8.491-18.118c-0.085-0.668-0.168-1.34-0.247-2.018c-3.959-1.667-7.797-3.625-11.643-5.548 l-2.841,6.793l-9.119-13.972c-0.491-3.72-5.031-8.14-7.118-10.286c-1.047-1.077-1.436-1.289-1.912-0.751 c-0.636,0.718-0.497,1.98,0.037,3.358c0.477,1.229,1.207,2.402,1.41,3.069c-1.679-0.342-3.567-0.503-4.894-0.657 c-1.156-0.36-10.142-3.094-10.621-1.31c-0.429,1.599,5.865,3.716,8.818,4.469c0.12,0.049,0.245,0.085,0.374,0.104 c-0.176-0.02-0.328-0.033-0.452-0.037c-0.95-0.032-1.756,0.688-1.831,1.635l-0.004,0.047c-0.075,0.951,0.618,1.791,1.564,1.903 c0.125,0.015,0.322,0.026,0.562,0.037h-0.011c-0.956-0.008-1.666,0.636-1.659,1.592c0.007,0.86,0.654,1.582,1.507,1.687 l0.107-0.006c0,0.009-0.001,0.017-0.001,0.026c-0.684,0.216-1.14,0.895-1.049,1.635c0.092,0.76,0.736,1.332,1.501,1.338 c0.212,0.002,0.61-0.035,1.071-0.084c2.802,0.769,4.848,1.143,6.49,1.186c3.182,6.99,10.724,23.513,10.724,23.513 c1.559,3.504,6.038,4.812,9.056,2.445C368.131,110.225,368.258,110.116,368.382,110.001z M60.397,296.712 c0.103,1.406,0.194,2.532,0.273,3.476c0.768,0.335,1.288,1.442,3.295,1.442c2.618,0,3.678-2.255,5.864-0.846 c0.65-1.423,2.648-2.26,4.655-2.225c-0.107-0.683-0.2-1.306-0.271-1.847H60.397z M24.815,296.712v2.897 c2.898-1.758,8.353-1.07,10.976,0.374c0.828,0.456,1.771,0.464,2.701,0.297c0.129-0.023,0.267,0.021,0.42,0.104 c-0.127-1.394-0.205-2.612-0.247-3.672H24.815z M55.525,67.759c0.014,1.582,1.997,2.405,3.152,1.325 c0.721-0.674,1.153-1.536,1.153-2.476c0-1.91-2.247-1.39-4.365-1.246l0-0.011c-0.271,0.018-0.544,0.042-0.806,0.042 c-2.309,0-5.171-0.941-5.171,1.215c0,0.94,0.433,1.803,1.153,2.476c1.155,1.08,3.138,0.256,3.152-1.325c0-0.01,0-0.019,0-0.029 c0-0.001,0.028-0.002,0.07-0.003c0.004,0,0.009,0,0.014,0c0.035-0.001,0.087-0.002,0.141-0.002c0.02,0,0.032-0.001,0.054-0.001 c0.031,0,0.07-0.001,0.104-0.001c0.05-0.001,0.097-0.001,0.153-0.002c0.008,0,0.015,0,0.023,0c0.048-0.001,0.099-0.001,0.149-0.002 c0.048,0,0.094-0.001,0.143-0.002c0.009,0,0.017,0,0.026,0c0.047,0,0.092-0.001,0.139-0.001c0.05,0,0.101-0.001,0.149-0.001 c0.01,0,0.021,0,0.03,0c0.005,0,0.009,0,0.014,0c0.158-0.001,0.294-0.003,0.39-0.003v0c0.077-0.001,0.134-0.001,0.134-0.001 c0,0.008-0.001,0.014-0.001,0.022V67.759z M55.174,74.717c-0.855,0.25-1.749,0.404-2.671,0.435 c-0.369,0.013-0.741,0.006-1.116-0.019c-0.297-0.019-0.59-0.052-0.88-0.094c-0.289-0.043-0.574-0.098-0.855-0.162 c-0.843-0.195-1.645-0.488-2.397-0.865c-0.25-0.126-0.496-0.26-0.734-0.404c-0.286-0.172-0.544-0.381-0.812-0.577 c-0.014,0-0.028,0.004-0.042,0.004c-0.107-0.081-0.219-0.179-0.328-0.266c-0.097-0.077-0.193-0.153-0.287-0.233 c-1.945-1.635-4.141-4.245-5.965-7.637c-0.651-0.221-1.412-0.525-2.194-0.917l-1.906,16.463 c-0.583,5.297,3.046,10.148,8.681,10.756c5.634,0.608,10.674-3.193,11.257-8.489L55.174,74.717z M27.413,120.029 c0.685-0.39,1.251-0.722,1.46-0.871c0.691-0.49,1.777-1.229,1.379-2.507c-0.208-0.67-0.753-0.957-1.35-1.042 c1.09-0.764,1.129-1.94,0.908-2.392c-0.402-0.823-0.884-0.9-1.858-0.78c-0.975,0.119-6.278,0.736-6.293,0.739 c-0.165,0.011-0.329,0.033-0.491,0.078l-0.571,0.173c-0.282-0.197-0.584-0.362-0.9-0.504l1.108-0.778 c1.374-0.095,3.645-0.26,4.944-0.393c1.949-0.2,2.547-1.502,2.558-2.094c0.017-0.916-0.689-1-1.615-1.274l-6.095-0.803 c-0.596-0.064-1.178,0.033-1.669,0.264c-0.015,0.007-0.028,0.015-0.042,0.022c-0.111,0.055-0.217,0.117-0.317,0.186l-5.945,3.259 c-0.75,0.53-1.178,1.395-1.142,2.312c0,0,0,0,0,0.001l-1.735,8.806L0.45,138.56c-1.657,5.438,1.409,11.189,6.847,12.846 c5.438,1.656,11.188-1.409,12.846-6.846l1.865-17.487c0.719-0.309,1.453-0.625,1.455-0.625c0.127-0.044,0.253-0.1,0.374-0.17 l3.86-2.878C30.194,121.484,28.587,119.733,27.413,120.029z M108.78,140.567l-0.253-0.62l-6.773-14.606l-13.967,7.107l2.899,6.277 c-0.167,0.049-15.885,4.128-23.66,6.146c-0.156-0.137-0.305-0.278-0.467-0.412c-0.005,0.001-0.009,0.002-0.014,0.002 c-0.487-0.392-1.099-0.646-1.681-0.625c0,0-5.271,1.015-7.779,1.375c-2.93,0.421-2.834,3.549-0.434,3.453 c1.55-0.062,2.904,0.021,5.205,0.014c0,0-3.589,1.489-5.934,2.552c-2.872,1.302-1.653,4.229,0.847,3.676 c0.28-0.062,0.595-0.131,0.929-0.203c-1.994,0.917-1.302,3.489,0.793,3.26c0.681-0.074,1.542-0.156,2.483-0.24 c-2.008,0.558-1.572,3.078,0.278,2.99c1.571-0.076,4.106-0.145,6.292-0.099c0.174,0.003,0.335-0.006,0.485-0.027 c0.705,0.009,1.447-0.142,2.237-0.443c0.863-0.33,1.405-0.921,1.737-1.649l31.67-7.939c3.989-1,6.412-5.044,5.412-9.032 C109.005,141.193,108.902,140.875,108.78,140.567z M37.345,62.306c0.997,0.362,2.064-0.335,2.126-1.394 c0,0,0.301-7.459-1.667-7.574c-1.969-0.115-3.686,1.864-3.834,4.418C33.854,59.745,35.194,61.524,37.345,62.306z M46.183,54.623 l-2.115,0.819v0h-1.964c0.005,0.017,0.008,0.036,0.012,0.053c0.038,0.14,0.083,0.268,0.123,0.404 c0.098,0.326,0.202,0.643,0.316,0.941c0.051,0.133,0.105,0.261,0.159,0.388c0.123,0.29,0.253,0.566,0.392,0.829 c0.053,0.099,0.104,0.2,0.159,0.296c0.175,0.304,0.36,0.59,0.558,0.857c0.026,0.035,0.05,0.075,0.076,0.109 c0.729,0.951,1.609,1.67,2.639,2.208c0.018,0.01,0.037,0.019,0.055,0.028c0.34,0.175,0.695,0.332,1.068,0.47 c2.029,0.752,4.528,0.989,7.502,0.989c0.367,0,0.713-0.007,1.049-0.018c0,0,0.001,0,0.001,0c0.143-0.005,0.274-0.014,0.412-0.021 c0.185-0.009,0.367-0.019,0.542-0.033c0.133-0.01,0.261-0.023,0.389-0.036c0.172-0.017,0.34-0.037,0.502-0.059 c0.115-0.016,0.229-0.031,0.338-0.049c0.181-0.03,0.353-0.065,0.522-0.101c0.078-0.017,0.16-0.031,0.235-0.05 c0.255-0.063,0.495-0.135,0.724-0.217c0.067-0.024,0.129-0.051,0.194-0.077c0.17-0.067,0.333-0.14,0.488-0.219 c0.063-0.032,0.127-0.063,0.188-0.097c0.198-0.111,0.387-0.229,0.562-0.363c0.021-0.016,0.04-0.035,0.06-0.051 c0.156-0.123,0.303-0.257,0.442-0.4c0.047-0.049,0.093-0.099,0.139-0.151c0.12-0.134,0.233-0.276,0.342-0.427 c0.031-0.043,0.064-0.083,0.094-0.127c0.131-0.195,0.254-0.404,0.37-0.627c0.029-0.055,0.055-0.115,0.083-0.172 c0.089-0.183,0.173-0.375,0.254-0.576c0.029-0.074,0.059-0.147,0.087-0.223c0.098-0.266,0.193-0.541,0.28-0.839l-0.465,6.909 c-0.029,0.432-0.089,0.855-0.167,1.271c0.078-0.416,0.138-0.839,0.167-1.271l0.739-10.973c0,0,0,0,0,0.001l0.19-2.818 c0.089-1.42-0.043-2.935-0.44-4.384c-0.387-1.415-0.998-2.706-1.771-3.861c-0.188,0.122-0.382,0.233-0.584,0.337c0,0,0,0,0,0 c-0.183,0.093-0.376,0.181-0.576,0.262c0,0,0,0-0.001,0c-0.021,0.008-0.042,0.017-0.063,0.025c0,0,0,0,0,0 c-0.028,0.011-0.061,0.021-0.09,0.031c-0.199,0.076-0.406,0.148-0.627,0.214c0,0,0,0,0,0c-0.212,0.063-0.435,0.124-0.671,0.179 c0,0,0,0-0.001,0c-0.137,0.032-0.29,0.061-0.436,0.091c-0.144,0.03-0.282,0.062-0.437,0.09c0,0-0.001,0-0.001,0 c-0.423,0.077-0.896,0.147-1.399,0.214c-0.004,0-0.009,0.001-0.013,0.002c-0.122,0.016-0.25,0.032-0.372,0.048 c-0.509,0.064-1.045,0.126-1.646,0.187c-2.824,0.289-7.547,0.274-10.084-0.57c-2.256,3.052-0.637,6.553-1.973,8.865h1.332 l2.142,1.036C46.492,54.103,46.475,54.51,46.183,54.623z M367.209,249.916c-0.021,2.052-0.175,4.014-0.634,5.643 c0.002-0.002,0.004-0.005,0.007-0.007c4.67,4.811,10.221,2.864,11.656,2.239c-0.222-2.461-0.04-5.171,0.338-7.875H367.209z M397.467,249.916c0.001,1.991-0.019,4.269-0.081,6.645c0,0,1.44,1.436,3.811,0c2.431-1.472,6.101-3.086,7.126-0.577 c-0.12-2.069-0.081-4.173,0.024-6.068H397.467z M224.347,159.947l-0.792-2.616l-3.727-3.228c-0.285-0.247-0.725-0.05-0.736,0.328 c-0.015,0.488,0.007,1.13,0.138,1.809L224.347,159.947z M251.789,184.609l-2.806,2.439l-23.18-19.61l-1.224-3.118l-4.158-3.074 l-2.275-0.392l-1.02-1.579c0,0,0.588-4.521-0.452-6.073c-0.16-0.236-0.516-0.212-0.631,0.048l-2.987,6.545 c-0.24,0.524-0.231,1.123,0.02,1.639l3.154,6.472l30.404,37.036c1.814,2.207,5.089,2.487,7.248,0.62l6.864-5.925l2.978-2.572 l-10.823-13.424L251.789,184.609z M286.558,147.925c2.396,0.549,3.412-3.033,3.412-3.033c0.478-1.911-0.022-2.864-0.762-3.326 c-0.883-0.552-2.039-0.316-2.757,0.439c-1.221,1.282-1.789,3.267-1.789,3.267l-1.137-0.379c-0.812-1.827-0.752-3.649-0.524-4.952 c-2.938-0.868-5.139-2.324-6.723-3.994c-0.558,1.865-6.349,22.138,5.479,22.084l0.008,0.064l0.379,2.767 c0.008-0.001,0.017-0.004,0.025-0.005c6.396-0.8,6.796-0.8,13.193-1.599c0.386-0.048,0.8-0.057,1.228-0.045l-1.058-6.186 C288.16,155.931,286.558,147.925,286.558,147.925z" fill="#f5c0a2"/></g><g id="change2_2"><path d="M94.625,316.579H57.639c-0.248,0-0.45-0.202-0.45-0.45s0.202-0.45,0.45-0.45h36.986 c0.248,0,0.45,0.202,0.45,0.45S94.873,316.579,94.625,316.579z M43.249,315.95c0-0.248-0.202-0.45-0.45-0.45H15.95 c-0.248,0-0.45,0.202-0.45,0.45s0.202,0.45,0.45,0.45h26.849C43.047,316.4,43.249,316.198,43.249,315.95z M74.765,227.389 l-5.37-64.466c-0.137,0.025-0.263,0.06-0.417,0.066c-17.621,0.649-34.893-1.514-51.814-6.487c-0.512-0.151-0.978-0.387-1.386-0.691 c-0.604,9.033-0.707,18.934-0.299,27.331l2.426,45.753c0,0-2.5,22.884-0.812,35.545c1.208,9.058,3.727,24.318,5.063,32.271h18.626 l2.317-109.154c-0.249-0.003-0.448-0.207-0.445-0.455l0.173-15.576c0.003-0.202,0.139-0.378,0.334-0.43l6.493-1.732 c0.243-0.066,0.486,0.079,0.551,0.318c0.064,0.24-0.078,0.487-0.318,0.551l-6.163,1.645l-0.107,9.711l6.976,50.362 c-3.944,20.458,4.136,53.213,7.616,64.761h17.93L74.765,227.389z M12.623,111.313l0.009-0.005l-1.139-12.553 c-0.023-0.248-0.24-0.43-0.489-0.407c-0.247,0.022-0.43,0.241-0.407,0.489l1.216,13.402 C12.008,111.879,12.276,111.558,12.623,111.313z M2.349,124.813l5.989,0.061l0.516-0.895l-6.495-0.066c-0.002,0-0.004,0-0.005,0 c-0.246,0-0.447,0.198-0.45,0.445C1.902,124.607,2.101,124.811,2.349,124.813z M79.015,119.546l17.75-8.471 c0.225-0.107,0.319-0.376,0.213-0.6c-0.107-0.226-0.377-0.317-0.6-0.213l-17.75,8.471c-0.225,0.107-0.319,0.376-0.213,0.6 c0.077,0.162,0.238,0.257,0.406,0.257C78.888,119.59,78.953,119.575,79.015,119.546z M76.324,110.605l1.444-13.432 c0.026-0.247-0.152-0.469-0.399-0.495c-0.224-0.028-0.469,0.151-0.495,0.399L75.43,110.51c-0.026,0.247,0.152,0.469,0.399,0.495 c0.016,0.002,0.032,0.003,0.049,0.003C76.104,111.008,76.3,110.837,76.324,110.605z M18.455,123.675l3.641-0.87l4.941-1.952 c0.231-0.092,0.345-0.354,0.254-0.584c-0.092-0.23-0.354-0.347-0.584-0.254l-4.881,1.934l-3.58,0.852 c-0.241,0.058-0.391,0.3-0.333,0.542c0.049,0.206,0.233,0.346,0.438,0.346C18.385,123.688,18.42,123.684,18.455,123.675z M19.022,119.139l3.64-0.87l4.941-1.952c0.231-0.092,0.345-0.354,0.254-0.584c-0.092-0.231-0.354-0.348-0.584-0.254l-4.881,1.934 l-3.579,0.852c-0.241,0.058-0.391,0.3-0.333,0.542c0.049,0.206,0.233,0.346,0.438,0.346 C18.952,119.151,18.987,119.147,19.022,119.139z M21.059,131.191c0.197-0.151,0.233-0.435,0.082-0.631 c-0.153-0.198-0.435-0.233-0.631-0.082c-1.233,0.951-2.584,0.932-3.499,0.745c-1.424-0.287-2.548-1.104-2.922-1.764 c-0.123-0.218-0.399-0.294-0.613-0.17c-0.217,0.123-0.292,0.397-0.17,0.613c0.562,0.992,2.013,1.897,3.526,2.203 c0.345,0.069,0.74,0.119,1.168,0.119C18.938,132.226,20.028,131.986,21.059,131.191z M58.485,154.832l5.256-1.293 c0.241-0.059,0.389-0.303,0.329-0.544c-0.059-0.241-0.298-0.396-0.544-0.329l-5.256,1.293c-0.241,0.059-0.389,0.303-0.329,0.544 c0.05,0.205,0.233,0.343,0.437,0.343C58.413,154.846,58.449,154.842,58.485,154.832z M61.882,158.093l4.021-0.72 c0.245-0.044,0.407-0.278,0.364-0.522c-0.044-0.245-0.281-0.405-0.522-0.364l-4.021,0.72c-0.245,0.044-0.407,0.278-0.364,0.522 c0.039,0.218,0.229,0.371,0.442,0.371C61.828,158.1,61.855,158.098,61.882,158.093z M72.722,157.805 c0.428-1.8,0.022-3.983-0.432-5.882c-0.058-0.242-0.297-0.393-0.542-0.333c-0.242,0.058-0.391,0.3-0.333,0.542 c0.429,1.796,0.815,3.85,0.432,5.464c-0.058,0.242,0.092,0.484,0.333,0.542c0.035,0.009,0.07,0.013,0.104,0.013 C72.489,158.15,72.674,158.011,72.722,157.805z M63.461,58.081l-0.465,6.909c-0.126,1.877-0.721,3.611-1.662,5.096 c-0.376,0.594-0.809,1.148-1.288,1.655c-1.199,1.269-2.696,2.245-4.369,2.823c-1.003,0.347-2.071,0.551-3.175,0.588 c-0.369,0.013-0.741,0.006-1.116-0.019c-0.297-0.019-0.59-0.052-0.88-0.094c-0.289-0.043-0.574-0.098-0.855-0.162 c-0.843-0.195-1.645-0.488-2.397-0.865c-0.25-0.126-0.496-0.26-0.734-0.404c-0.286-0.172-0.544-0.381-0.812-0.577 c-0.014,0-0.028,0.004-0.042,0.004c-0.107-0.081-0.219-0.179-0.328-0.266c-0.097-0.077-0.193-0.153-0.287-0.233 c-1.945-1.635-4.141-4.245-5.965-7.637c-2.982-1.012-8.227-3.652-7.388-9.455h2.913c0,0,0-0.001,0.001-0.001 c-0.355,0.672-0.595,1.456-0.645,2.316c-0.115,1.989,1.225,3.768,3.376,4.549c0.997,0.362,2.064-0.335,2.126-1.394 c0,0,0.127-3.233-0.348-5.475c0,0.002,0.001,0.004,0.001,0.005H42.1c1.686,6.316,6.092,7.573,13.063,7.573 c0.367,0,0.713-0.007,1.049-0.018c0.098-0.003,0.189-0.009,0.285-0.013c0.238-0.011,0.469-0.024,0.692-0.042 c0.098-0.008,0.194-0.016,0.289-0.026c0.22-0.021,0.431-0.046,0.636-0.075c0.075-0.011,0.153-0.02,0.226-0.032 c0.27-0.043,0.53-0.092,0.774-0.15C61.479,62.09,62.679,60.759,63.461,58.081z M59.83,66.608c0-1.385-1.183-1.491-2.64-1.39 c-0.414,0.029-0.85,0.073-1.288,0.11c-0.419,0.036-0.839,0.065-1.243,0.065c-2.309,0-5.171-0.941-5.171,1.215 c0,0.94,0.433,1.803,1.153,2.476c1.155,1.08,3.138,0.256,3.152-1.325c0-0.01,0-0.019,0-0.029c0-0.001,0.028-0.002,0.066-0.003 c0.009,0,0.017,0,0.027-0.001c0.095-0.002,0.254-0.004,0.441-0.007c0.01,0,0.019,0,0.029,0c0.092-0.001,0.189-0.002,0.287-0.003 c0.019,0,0.037,0,0.056-0.001c0.088-0.001,0.175-0.002,0.258-0.002c0.011,0,0.022,0,0.033,0h0c0.297-0.003,0.535-0.005,0.535-0.005 c0,0.008-0.001,0.014-0.001,0.022v0.029c0.014,1.582,1.997,2.405,3.152,1.325C59.398,68.411,59.83,67.549,59.83,66.608z M64.358,28.57c-3.098-0.559-7.844,0.837-11.072,2.356c-3.428-1.276-6.03-1.33-9.262,1.085c-6.891-0.141-10.828,2.879-11.273,9.62 c-4.822,3.701-3.448,8.613-2.136,11.299h12.122c1.336-2.312-0.283-5.813,1.973-8.865c2.537,0.844,7.26,0.859,10.084,0.57 c0.463-0.047,0.896-0.095,1.303-0.143c0.254-0.03,0.482-0.062,0.716-0.093c0.139-0.019,0.288-0.036,0.419-0.055 c0.271-0.039,0.52-0.081,0.766-0.123c0.075-0.013,0.156-0.025,0.229-0.038c0.258-0.047,0.498-0.098,0.73-0.15 c0.047-0.01,0.097-0.021,0.143-0.031c0.236-0.055,0.458-0.116,0.671-0.179c0.033-0.01,0.068-0.02,0.101-0.03 c0.216-0.067,0.422-0.139,0.618-0.216c0.021-0.009,0.043-0.017,0.065-0.025c0.2-0.081,0.393-0.168,0.576-0.262 c0.011-0.006,0.022-0.012,0.034-0.018c0.19-0.098,0.374-0.204,0.55-0.319c0,0,0,0,0.001,0c0.773,1.155,1.384,2.446,1.771,3.861 c0.397,1.449,0.529,2.964,0.44,4.384l-0.19,2.818c0.703-1.875,1.152-3.648,1.263-5.179c0.14-1.937-0.184-3.672-0.833-5.214 c2.202-0.009,4.009-0.731,4.791-2.555C71.283,35.655,71.084,29.779,64.358,28.57z M283.002,139.94 c-0.229,1.303-0.288,3.125,0.524,4.952l1.137,0.379c0,0,0.567-1.985,1.789-3.267c0.718-0.755,1.874-0.991,2.757-0.439 c0.74,0.463,1.24,1.416,0.762,3.326c0,0-1.017,3.581-3.412,3.033c0,0,1.602,8.006,8.975,5.102c0,0,12.102-12.87,5.751-20.108 c0,0-10.217-15.305-15.1-11.488c0,0-0.899,0.751-0.472,2.021c-10.753-9.32-10.318,1.564-10.318,1.564 C271.212,124.53,271.678,136.595,283.002,139.94z M224.998,164.604l-7.823-5.748c0.081-0.811,0.219-2.646,0.001-4.106l9.82,7.117 c0.745,0.54,0.923,1.574,0.402,2.332C226.855,164.986,225.769,165.17,224.998,164.604z M214.358,152.708l1.453,1.053l-1.399,3.066 l-1.917-1.408l-2.135-3.37c-0.175-0.276,0.092-0.62,0.403-0.518L214.358,152.708z M319.765,294.839l56.659,6.879v17.04h-73.82 c-4.497,0-8.338-3.239-9.096-7.671c-2.175-12.723-6.422-38.338-8.145-54.073c-2.418-0.222-5.021-0.601-7.825-1.161 c-4.578-0.915-13.376-3.848-18.527-5.627c0.042-0.21-0.063-0.427-0.271-0.507c-4.668-1.795-8.338-6.149-8.374-6.193 c-0.159-0.191-0.443-0.218-0.634-0.058c-0.19,0.159-0.217,0.443-0.058,0.634c0.118,0.141,2.291,2.717,5.478,4.77 c-0.109-0.039-0.17-0.061-0.17-0.061l6.014,55.096l-28.465,1.116l-5.831-73.59c0,0-1.291-8.262,4.905-10.586 c4.128-1.548,27.714,0.367,43.007,1.818l0.073,0.527c0,0,13.879,8.428,24.673,11.226c11.257,2.918,20.113,0.587,24.493-1.121 c1.06,6.156,0.498,15.944-5.367,30.981C318.486,264.279,318.733,279.089,319.765,294.839z M264.402,198.618 c-0.168-0.185-0.155-0.469,0.028-0.636l15.799-14.408c0.185-0.169,0.471-0.154,0.636,0.028c0.168,0.185,0.155,0.469-0.028,0.636 l-15.799,14.408c-0.087,0.079-0.195,0.118-0.304,0.118C264.612,198.765,264.49,198.715,264.402,198.618z M378.598,257.624 c0,0,1.429,3.716,1.347,9.119c-0.002,0-0.003-0.001-0.005-0.001h-29.88c0.387-0.667,0.986-1.336,1.928-1.9 c3.856-2.307,8.539-2.726,14.593-9.29C371.992,261.126,378.598,257.624,378.598,257.624z M350.026,267.643h29.895 c-0.036,0.778-0.101,1.583-0.21,2.417l-30.217-0.003c0,0-0.283-1.183,0.21-2.553C349.785,267.589,349.899,267.643,350.026,267.643z M425.655,139.982c0.001,0.111,0.008,0.22,0.008,0.331h-0.015c-0.296,15.725-5.557,31.694-8.343,42.113 c-1.023,3.825-1.205,7.818-0.578,11.727c0.455,2.835,0.875,6.439,0.875,10.085c0,14.198-7.981,45.678-7.981,45.678h-12.486 l-0.159-107.683h-1.579l-15.795,107.683h-13.875c0,0-0.155-25.143-0.155-38.331c0-3.786,0.554-9.821,1.582-14.565 c0.825-3.803,2.93-10.101,2.845-13.992c-0.279-12.697-1.71-26.876-2.007-42.641h-0.015c0-0.111,0.007-0.22,0.008-0.331 c-0.005-0.347-0.008-0.692-0.008-1.032l0.032-0.009c0.462-11.983,6.329-25.07,15.251-31.838c5.876,1.694,19.389,1.706,25.882-0.191 c1.238,0.879,2.424,1.876,3.557,2.962c-1.197,0.899-2.907,2.17-3.958,2.894c-2.038,1.403-0.805,3.71,0.958,2.747 c1.138-0.621,2.183-1.062,3.903-1.922c0,0-2.135,2.448-3.497,4.114c-1.667,2.041,0.333,3.781,2,2.438 c0.187-0.15,0.397-0.319,0.621-0.497c-1.153,1.427,0.32,3.096,1.804,2.147c0.482-0.308,1.097-0.689,1.771-1.102 c-1.296,1.163-0.034,2.889,1.318,2.136c0.825-0.46,2.024-1.101,3.247-1.714c2.812,5.578,4.535,11.795,4.765,17.751l0.032,0.01 C425.663,139.291,425.66,139.635,425.655,139.982z M382.056,29.81c-0.191-0.333-0.162-0.747-0.19-1.139 c-0.026-0.373,0.132-0.676,0.283-1.054c0.139-0.351-0.021-0.855,0.157-1.236c0.164-0.349,0.689-0.529,0.888-0.892 c0.187-0.341,0.35-0.693,0.57-1.039c0.211-0.33,0.241-0.788,0.485-1.115c0.235-0.316,0.489-0.628,0.757-0.934 c0.259-0.297,0.485-0.642,0.777-0.924c0.284-0.274,0.813-0.267,1.13-0.522c0.307-0.247,0.472-0.679,0.811-0.903 c0.329-0.216,0.597-0.559,0.957-0.75c0.348-0.184,0.743-0.31,1.12-0.464c0.363-0.149,0.756-0.26,1.147-0.378 c0.375-0.113,0.765-0.232,1.168-0.314c0.382-0.077,0.78-0.181,1.189-0.228c0.402-0.046,0.812,0.191,1.181,0.166 c0.406-0.027,0.78-0.442,1.148-0.445c0.409-0.004,0.804,0.146,1.17,0.169c0.411,0.025,0.796,0.123,1.157,0.178 c0.409,0.063,0.828,0.02,1.176,0.116c0.402,0.111,0.624,0.624,0.953,0.771c0.382,0.17,0.724,0.273,1.019,0.48 c0.341,0.239,0.763,0.328,1.005,0.596c0.278,0.308,0.579,0.599,0.752,0.915c0.203,0.371,0.475,0.727,0.577,1.061 c0.141,0.456-0.153,1.052-0.098,1.324c0.371,0.092,0.945-0.066,1.343,0.117c0.355,0.163,0.785,0.322,1.14,0.568 c0.323,0.225,0.534,0.659,0.84,0.961c0.28,0.277,0.485,0.646,0.737,0.994c0.23,0.319,0.591,0.589,0.79,0.972 c0.18,0.349,0.217,0.79,0.362,1.196c0.133,0.37,0.455,0.716,0.553,1.136c0.089,0.382-0.192,0.853-0.136,1.28 c0.051,0.391,0.298,0.778,0.319,1.207c0.017,0.368,0.054,0.757,0.051,1.156c0.012,0.04,0.023,0.081,0.027,0.123 c0.009,0.109-0.014,0.22-0.049,0.332c-0.021,0.284-0.05,0.571-0.075,0.868c-0.027,0.309-0.01,0.644-0.054,0.932 c0.008,0.081,0.015,0.162,0.008,0.242c-0.034,0.394-0.229,0.763-0.296,1.146c-0.068,0.388,0.094,0.83-0.007,1.206 c-0.102,0.38-0.251,0.759-0.385,1.125c-0.072,0.198-0.139,0.401-0.209,0.603c-0.055-0.024-0.101-0.06-0.158-0.08 c-0.666-0.236-1.441,0.625-2.132,1.742l0.453-3.365c0.149-1.151,0.124-2.392-0.122-3.594c-0.68-3.336-2.832-5.991-5.639-7.44 c-3.616,2.645-8.384,4.726-13.088,4.726c-0.489,0-0.972-0.023-1.453-0.055c-1.084,2.108-1.495,4.578-0.985,7.081l0.399,1.961 c-0.562-0.756-1.15-1.243-1.671-1.058c-0.246,0.087-0.464,0.219-0.667,0.372c0-0.334,0.176-0.743,0.07-1.036 c-0.134-0.367-0.438-0.666-0.54-1.047c-0.101-0.376-0.048-0.777-0.116-1.165c-0.068-0.383-0.14-0.752-0.173-1.145 c-0.034-0.387-0.24-0.763-0.24-1.158c0-0.396,0.188-0.774,0.222-1.161c0.034-0.393-0.21-0.819-0.143-1.203 c0.068-0.388,0.342-0.732,0.443-1.109c0.01-0.035,0.022-0.068,0.033-0.103C382.505,30.368,382.231,30.115,382.056,29.81z M417.185,84.004l1.079-6.706c0.04-0.246,0.275-0.41,0.516-0.373c0.245,0.039,0.412,0.271,0.373,0.516l-1.079,6.706 c-0.035,0.222-0.227,0.379-0.443,0.379c-0.024,0-0.048-0.002-0.072-0.006C417.313,84.48,417.146,84.249,417.185,84.004z M377.286,86.589l-1.025-11.002c-0.022-0.248,0.159-0.467,0.406-0.49c0.249-0.022,0.467,0.158,0.49,0.406l1.025,11.002 c0.022,0.248-0.159,0.467-0.406,0.49c-0.015,0.001-0.028,0.002-0.043,0.002C377.504,86.997,377.307,86.822,377.286,86.589z M350.15,84.259c-0.058-0.241,0.092-0.484,0.334-0.541c1.305-0.311,2.249-1.463,2.807-3.427c0.067-0.238,0.313-0.378,0.556-0.31 c0.239,0.067,0.378,0.316,0.31,0.556c-0.652,2.301-1.818,3.665-3.465,4.056c-0.034,0.009-0.069,0.013-0.104,0.013 C350.384,84.605,350.199,84.466,350.15,84.259z M346.28,76.168c0.137-0.358,0.104-0.724-0.091-1.026 c-0.218-0.338-0.613-0.556-1.06-0.583c-0.001,0-0.002-0.001-0.004-0.001c-0.05-0.005-0.099-0.004-0.148-0.013 c-0.494-0.084-1.258-0.2-2.032-0.313c-0.246-0.036-0.416-0.265-0.38-0.511c0.037-0.246,0.271-0.413,0.511-0.38 c0.782,0.115,1.554,0.231,2.053,0.317c0.287,0.047,0.57-0.01,0.778-0.162c0.205-0.148,0.331-0.375,0.376-0.675 c0.029-0.198,0.12-0.804-1.066-1.192c-0.236-0.077-0.365-0.332-0.288-0.567c0.078-0.237,0.333-0.369,0.567-0.288 c1.661,0.544,1.764,1.6,1.678,2.181c-0.077,0.512-0.314,0.928-0.679,1.219c0.173,0.14,0.332,0.295,0.452,0.482 c0.35,0.542,0.413,1.21,0.176,1.834c-0.163,0.429-0.462,0.733-0.849,0.926c0.036,0.042,0.078,0.078,0.11,0.124 c0.318,0.456,0.403,1.013,0.239,1.568c-0.182,0.613-0.665,1.066-1.243,1.257c0.326,0.418,0.469,0.94,0.377,1.47 c-0.149,0.849-0.852,1.486-1.709,1.552c-0.012,0.001-0.023,0.002-0.034,0.002c-0.233,0-0.431-0.18-0.448-0.416 c-0.02-0.248,0.166-0.464,0.414-0.482c0.446-0.034,0.812-0.367,0.891-0.811c0.054-0.307-0.038-0.613-0.252-0.841 c-0.215-0.228-0.521-0.337-0.824-0.304c-0.036,0.004-0.068-0.005-0.103-0.009l-0.655,0.037c-0.009,0.001-0.018,0.001-0.025,0.001 c-0.237,0-0.436-0.186-0.449-0.425c-0.014-0.248,0.176-0.461,0.424-0.475l1.737-0.097c0.504,0.006,0.908-0.276,1.037-0.716 c0.085-0.287,0.044-0.57-0.114-0.797c-0.176-0.253-0.478-0.41-0.826-0.435c-0.427-0.051-1.239-0.079-1.822-0.097 c-0.248-0.008-0.443-0.215-0.437-0.464c0.008-0.247,0.178-0.414,0.464-0.437c0.911,0.028,1.479,0.058,1.84,0.098 c0.002,0,0.004-0.001,0.006-0.001c0.007,0,0.014,0.003,0.021,0.004c0.021,0.002,0.051,0.005,0.071,0.007 C346.017,76.865,346.216,76.34,346.28,76.168z M412.83,118.897l3.455-2.92c0.188-0.161,0.474-0.137,0.634,0.054 c0.16,0.189,0.137,0.474-0.054,0.634l-3.455,2.92c-0.084,0.071-0.188,0.106-0.29,0.106c-0.128,0-0.255-0.055-0.344-0.16 C412.616,119.342,412.639,119.058,412.83,118.897z M416.625,120.045l2.744-2.032c0.197-0.148,0.48-0.106,0.629,0.094 c0.148,0.199,0.106,0.481-0.094,0.629l-2.744,2.032c-0.08,0.06-0.174,0.089-0.268,0.089c-0.138,0-0.273-0.063-0.361-0.183 C416.383,120.475,416.425,120.192,416.625,120.045z M418.919,266.745h-21.498c-0.003,0-0.006,0.002-0.01,0.002 c-0.099-3.713,0.05-6.756-0.025-10.186c0,0,1.44,1.436,3.811,0c2.645-1.601,6.765-3.385,7.34,0.172 C408.549,262.124,415.791,263.309,418.919,266.745z M419.547,267.557c0.464,0.722,0.753,1.541,0.783,2.503h-22.769 c-0.056-0.846-0.093-1.64-0.121-2.414h21.853C419.389,267.646,419.473,267.608,419.547,267.557z" fill="#293237"/></g></g></svg>