<?xml version="1.0" encoding="UTF-8" standalone="no"?><svg xmlns="http://www.w3.org/2000/svg" xmlns:xlink="http://www.w3.org/1999/xlink" fill="#000000" height="28.9" preserveAspectRatio="xMidYMid meet" version="1" viewBox="0.0 0.0 44.0 28.9" width="44" zoomAndPan="magnify"><defs><clipPath id="a"><path d="M 0 0 L 44 0 L 44 28.898438 L 0 28.898438 Z M 0 0"/></clipPath></defs><g><g clip-path="url(#a)" id="change1_1"><path d="M 38.226562 0.984375 C 39.953125 1.007812 41.609375 1.640625 42.914062 2.769531 C 43.058594 2.902344 43.070312 3.128906 42.9375 3.277344 C 42.917969 3.296875 42.898438 3.316406 42.875 3.332031 C 41.035156 4.816406 39.003906 6.050781 36.839844 7 L 30.917969 9.667969 C 30.761719 9.738281 30.632812 9.867188 30.558594 10.027344 L 23.441406 25.605469 C 22.765625 26.652344 21.765625 27.449219 20.589844 27.871094 L 22.917969 14.515625 C 22.988281 14.121094 22.726562 13.746094 22.332031 13.675781 C 22.191406 13.652344 22.042969 13.671875 21.910156 13.730469 L 15.789062 16.492188 C 12.59375 17.933594 9.109375 18.621094 5.605469 18.503906 C 5.082031 18.488281 4.613281 18.183594 4.386719 17.710938 L 1.027344 10.683594 C 0.910156 10.441406 1.011719 10.148438 1.253906 10.03125 C 1.40625 9.960938 1.585938 9.96875 1.726562 10.058594 L 7.289062 13.550781 C 7.648438 13.777344 8.097656 13.808594 8.488281 13.632812 L 17.304688 9.65625 C 17.667969 9.492188 17.828125 9.066406 17.664062 8.703125 C 17.609375 8.574219 17.511719 8.464844 17.394531 8.390625 L 9.648438 3.46875 C 10.90625 2.808594 12.351562 2.601562 13.742188 2.890625 L 24.117188 6.371094 C 24.289062 6.429688 24.480469 6.421875 24.648438 6.347656 L 35.105469 1.628906 C 36.082031 1.191406 37.144531 0.96875 38.214844 0.984375 Z M 38.226562 0.0078125 C 37.015625 -0.0117188 35.808594 0.238281 34.703125 0.738281 L 24.335938 5.414062 L 14 1.945312 C 12.304688 1.578125 10.535156 1.84375 9.023438 2.691406 C 8.601562 2.929688 8.449219 3.464844 8.6875 3.886719 C 8.757812 4.015625 8.859375 4.121094 8.980469 4.203125 L 16.46875 8.960938 L 8.085938 12.742188 C 7.996094 12.78125 7.894531 12.777344 7.808594 12.722656 L 2.25 9.230469 C 1.5625 8.800781 0.65625 9.007812 0.226562 9.691406 C -0.0429688 10.117188 -0.0742188 10.652344 0.144531 11.105469 L 3.507812 18.132812 C 3.886719 18.933594 4.683594 19.453125 5.570312 19.484375 C 9.222656 19.605469 12.855469 18.886719 16.1875 17.386719 L 21.871094 14.820312 L 19.59375 27.871094 C 19.511719 28.347656 19.832031 28.804688 20.308594 28.886719 C 20.453125 28.910156 20.597656 28.902344 20.734375 28.855469 C 22.214844 28.371094 23.472656 27.386719 24.300781 26.074219 L 31.40625 10.519531 L 37.234375 7.894531 C 39.472656 6.910156 41.574219 5.636719 43.476562 4.101562 C 44.0625 3.652344 44.171875 2.8125 43.722656 2.226562 C 43.667969 2.15625 43.605469 2.089844 43.539062 2.03125 C 42.0625 0.75 40.179688 0.0351562 38.222656 0.0078125 L 38.226562 0.0078125" fill="#e9bb00"/></g></g></svg>