<?xml version="1.0" encoding="UTF-8" standalone="no"?><svg xmlns="http://www.w3.org/2000/svg" xmlns:xlink="http://www.w3.org/1999/xlink" fill="#2e57a6" height="44" preserveAspectRatio="xMidYMid meet" version="1" viewBox="9.2 10.0 45.5 44.0" width="45.5" zoomAndPan="magnify"><g id="change1_1"><path d="M52.9,26.6C52.9,26.6,52.9,26.5,52.9,26.6l-2.4-1.9v-6.9c0-1-0.8-1.8-1.8-1.8h-9.1l-7.3-5.8c-0.3-0.2-0.7-0.2-0.9,0 L24.2,16h-9.1c-1,0-1.8,0.8-1.8,1.8v6.9l-2.3,1.8c0,0,0,0.1-0.1,0.1l0,0c-1.5,1.7-1.7,4-1.7,4.9V47c0,3.4,1.8,7,7,7h31.4 c3.4,0,7-1.8,7-7V31.5C54.7,29.4,54.1,27.8,52.9,26.6L52.9,26.6z M51.1,27l-0.6,0.4v-0.9L51.1,27z M32,11.7l5.4,4.3H26.6L32,11.7z M15.2,17.5h33.6c0.1,0,0.3,0.1,0.3,0.3v10.8L32,40.4L14.9,28.5V17.7C14.9,17.6,15,17.5,15.2,17.5z M13.4,26.6v0.9L12.9,27 L13.4,26.6z M10.8,31.5c0-0.6,0.1-2.1,0.9-3.4l15,10.4L11.5,49.9c-0.6-1.1-0.7-2.3-0.7-2.9V31.5z M16.3,52.5 c-1.9,0-3.1-0.6-3.9-1.4L28,39.4l3.6,2.5c0,0,0,0,0.1,0c0,0,0,0,0.1,0c0.1,0,0.2,0.1,0.3,0.1c0,0,0,0,0,0s0,0,0,0 c0.1,0,0.2,0,0.3-0.1c0,0,0,0,0.1,0c0,0,0,0,0.1,0l3.5-2.4l15.6,11.7c-1.3,1.2-3.1,1.3-3.8,1.3H16.3z M53.2,47c0,1.3-0.3,2.2-0.7,3 L37.2,38.6l15-10.5c0.6,0.9,0.9,2,0.9,3.4V47z" fill="inherit"/><path d="M19.8,22.3h16.4c0.4,0,0.8-0.3,0.8-0.8s-0.3-0.8-0.8-0.8H19.8c-0.4,0-0.8,0.3-0.8,0.8S19.4,22.3,19.8,22.3z" fill="inherit"/><path d="M19.8,27.8h24.4c0.4,0,0.8-0.3,0.8-0.8s-0.3-0.8-0.8-0.8H19.8c-0.4,0-0.8,0.3-0.8,0.8S19.4,27.8,19.8,27.8z" fill="inherit"/></g></svg>