<?xml version="1.0" encoding="UTF-8" standalone="no"?><svg xmlns="http://www.w3.org/2000/svg" xmlns:xlink="http://www.w3.org/1999/xlink" fill="#2e57a6" height="166.7" preserveAspectRatio="xMidYMid meet" version="1" viewBox="0.0 0.0 16.0 166.7" width="16" zoomAndPan="magnify"><g id="change1_1"><path d="M9,48.1H7V18.2h2V48.1z M9,98.3H7V68.4h2V98.3z M9,148.6H7v-29.9h2V148.6z" fill="inherit"/></g><g id="change1_2"><path d="M8,16c-4.4,0-8-3.6-8-8s3.6-8,8-8s8,3.6,8,8S12.4,16,8,16z M16,58.2c0-4.4-3.6-8-8-8s-8,3.6-8,8s3.6,8,8,8S16,62.7,16,58.2z M16,108.5c0-4.4-3.6-8-8-8s-8,3.6-8,8s3.6,8,8,8S16,112.9,16,108.5z M16,158.7c0-4.4-3.6-8-8-8s-8,3.6-8,8c0,4.4,3.6,8,8,8 S16,163.2,16,158.7z" fill="inherit"/></g></svg>