<?xml version="1.0" encoding="UTF-8" standalone="no"?><svg xmlns="http://www.w3.org/2000/svg" xmlns:xlink="http://www.w3.org/1999/xlink" fill="#e9bb00" height="512" preserveAspectRatio="xMidYMid meet" version="1" viewBox="-0.1 0.0 512.2 512.0" width="512.2" zoomAndPan="magnify"><g data-name="Layer 1" id="change1_1"><path d="M420.266,103.7A223.076,223.076,0,0,1,479.253,240H448v32H479.19a222.473,222.473,0,0,1-45.057,119.26c-9.132-6.738-27.322-18.7-53.278-29.834a294.1,294.1,0,0,0,11.568-37.848l-31.188-7.156c-16.7,72.621-61.1,121.749-89.234,146.736V400H240v63.219c-28.141-25.016-72.563-74.25-89.235-146.8l-31.187,7.156a294.1,294.1,0,0,0,11.567,37.848C105.19,372.56,87,384.522,77.869,391.26A222.466,222.466,0,0,1,32.811,272H64V240H32.749A223.075,223.075,0,0,1,91.735,103.7L68.266,81.953A255.228,255.228,0,0,0,0,256C0,397.156,114.844,512,256,512S512,397.156,512,256A255.224,255.224,0,0,0,443.735,81.953ZM368.029,390.736a245.434,245.434,0,0,1,44.98,24.774,223.77,223.77,0,0,1-105.254,58.214A323.469,323.469,0,0,0,368.029,390.736ZM204.247,473.724A223.76,223.76,0,0,1,98.993,415.51a245.382,245.382,0,0,1,44.979-24.774A323.47,323.47,0,0,0,204.247,473.724Z" fill="inherit"/><path d="M256,224a48,48,0,1,0-48-48A48.053,48.053,0,0,0,256,224Zm0-64a16,16,0,1,1-16,16A16.011,16.011,0,0,1,256,160Z" fill="inherit"/><path d="M192,352H320a15.991,15.991,0,0,0,16-16V288a48.053,48.053,0,0,0-48-48H224a48.052,48.052,0,0,0-48,48v48A15.99,15.99,0,0,0,192,352Zm16-64a16.011,16.011,0,0,1,16-16h16v32h32V272h16a16.011,16.011,0,0,1,16,16v32H208Z" fill="inherit"/><path d="M160,64a48,48,0,1,0,48,48A48.052,48.052,0,0,0,160,64Zm0,64a16,16,0,1,1,16-16A16.011,16.011,0,0,1,160,128Z" fill="inherit"/><path d="M176,224V208h16V176H128a48.052,48.052,0,0,0-48,48v48a15.99,15.99,0,0,0,16,16h64V256H112V224a16.011,16.011,0,0,1,16-16h16v16Z" fill="inherit"/><path d="M352,64a48,48,0,1,0,48,48A48.052,48.052,0,0,0,352,64Zm0,64a16,16,0,1,1,16-16A16.011,16.011,0,0,1,352,128Z" fill="inherit"/><path d="M352,256v32h64a15.991,15.991,0,0,0,16-16V224a48.053,48.053,0,0,0-48-48H320v32h16v16h32V208h16a16.011,16.011,0,0,1,16,16v32Z" fill="inherit"/><path d="M256,0a48,48,0,1,0,48,48A48.052,48.052,0,0,0,256,0Zm0,64a16,16,0,1,1,16-16A16.011,16.011,0,0,1,256,64Z" fill="inherit"/></g></svg>