<?xml version="1.0" encoding="UTF-8" standalone="no"?><svg xmlns="http://www.w3.org/2000/svg" xmlns:xlink="http://www.w3.org/1999/xlink" fill="#000000" height="182.3" preserveAspectRatio="xMidYMid meet" version="1" viewBox="44.0 36.8 173.1 182.3" width="173.1" zoomAndPan="magnify"><g fill="#2e57a6" id="change1_1"><path d="M 148.726562 132.988281 C 148.722656 133.003906 148.722656 133.019531 148.71875 133.035156 C 147.664062 140.53125 145.316406 146.765625 141.925781 151.066406 C 138.398438 155.539062 133.878906 157.8125 128.492188 157.832031 C 123.121094 157.8125 118.601562 155.539062 115.074219 151.066406 C 111.683594 146.765625 109.335938 140.53125 108.28125 133.035156 C 108.277344 133.011719 108.273438 132.984375 108.269531 132.960938 C 107.945312 130.578125 108.203125 128.15625 108.96875 125.875 L 109.386719 124.621094 C 110.105469 122.476562 112.113281 121.03125 114.375 121.03125 L 142.605469 121.03125 C 144.871094 121.03125 146.882812 122.480469 147.597656 124.628906 L 148.035156 125.941406 C 148.792969 128.207031 149.054688 130.621094 148.726562 132.988281 Z M 152.921875 128.445312 C 153.617188 126.984375 158.4375 115.96875 149.429688 108.90625 C 149.429688 108.90625 151.703125 103.980469 147.726562 103.222656 C 144.070312 102.527344 130.996094 93.207031 114.214844 100.777344 C 109.25 103.015625 105.285156 107.074219 103.394531 112.179688 C 101.566406 117.113281 101.699219 122.285156 104.40625 127.972656 C 104.390625 128.121094 104.375 128.269531 104.363281 128.421875 C 104.28125 128.417969 104.203125 128.421875 104.128906 128.433594 C 102.765625 128.671875 102.097656 131.398438 102.636719 134.53125 C 103.132812 137.410156 104.476562 139.625 105.75 139.777344 C 107.152344 145.226562 109.304688 149.871094 112.101562 153.414062 C 116.304688 158.742188 121.949219 161.582031 128.429688 161.621094 L 128.570312 161.621094 C 135.058594 161.578125 140.699219 158.738281 144.902344 153.414062 C 147.695312 149.871094 149.847656 145.226562 151.25 139.777344 C 152.523438 139.625 153.867188 137.410156 154.363281 134.53125 C 154.898438 131.433594 154.253906 128.734375 152.921875 128.445312" fill="inherit"/><path d="M 122.441406 176.527344 L 124.195312 179.566406 L 122.324219 199.210938 L 123.503906 201.785156 L 132.496094 201.785156 L 133.675781 199.210938 L 131.804688 179.566406 L 133.558594 176.527344 L 137.007812 170.558594 C 137.640625 169.453125 136.847656 168.078125 135.574219 168.078125 L 128.394531 166.636719 L 120.425781 168.078125 C 119.152344 168.078125 118.359375 169.453125 118.992188 170.558594 L 122.441406 176.527344" fill="inherit"/><path d="M 84.328125 214.699219 L 85.671875 184.019531 C 85.671875 175.121094 94.433594 167.902344 103.335938 167.902344 L 111.703125 167.902344 L 112.613281 186.917969 L 121.109375 205.507812 L 134.890625 205.507812 L 143.386719 186.917969 L 144.296875 167.902344 L 152.664062 167.902344 C 161.566406 167.902344 170.324219 175.121094 170.324219 184.019531 L 171.671875 214.699219 C 171.777344 217.136719 169.832031 219.171875 167.390625 219.171875 L 88.609375 219.171875 C 86.167969 219.171875 84.21875 217.136719 84.328125 214.699219" fill="inherit"/><path d="M 155.660156 69.488281 C 155.660156 73.1875 152.636719 76.210938 148.941406 76.210938 L 107.058594 76.210938 C 103.363281 76.210938 100.339844 73.1875 100.339844 69.488281 L 100.339844 49.175781 C 100.339844 48.246094 100.53125 47.359375 100.875 46.550781 L 126.234375 62.746094 C 127.3125 63.441406 128.699219 63.441406 129.777344 62.746094 C 129.777344 62.746094 145.074219 52.964844 155.121094 46.546875 C 155.46875 47.355469 155.660156 48.242188 155.660156 49.175781 Z M 148.941406 36.828125 L 107.058594 36.828125 C 100.242188 36.828125 94.714844 42.355469 94.714844 49.175781 L 94.714844 69.488281 C 94.714844 76.308594 100.242188 81.835938 107.058594 81.835938 L 148.941406 81.835938 C 155.757812 81.835938 161.285156 76.308594 161.285156 69.488281 L 161.285156 49.175781 C 161.285156 42.355469 155.757812 36.828125 148.941406 36.828125" fill="inherit"/><path d="M 60.765625 104.871094 L 62.195312 103.757812 C 62.890625 103.21875 63.175781 102.304688 62.914062 101.464844 C 61.765625 97.789062 58.175781 88.523438 52.148438 92.582031 L 60.765625 104.871094" fill="inherit"/><path d="M 79.738281 128.960938 L 77.96875 130.78125 C 77.082031 131.695312 75.605469 131.667969 74.753906 130.71875 L 56.933594 110.832031 C 56.082031 109.882812 56.214844 108.410156 57.21875 107.625 L 59.226562 106.066406 L 50.605469 93.773438 C 50 94.269531 49.445312 94.761719 48.929688 95.238281 L 48.925781 95.230469 C 46.367188 97.523438 44.851562 100.191406 44.414062 103.160156 C 44.027344 105.8125 44.484375 108.605469 45.824219 111.691406 C 47.96875 116.632812 52.132812 121.804688 57.726562 128.046875 C 63.320312 134.289062 68.003906 138.996094 72.683594 141.664062 C 75.605469 143.332031 78.332031 144.097656 81.011719 144 C 84.011719 143.890625 86.828125 142.671875 89.382812 140.382812 L 89.378906 140.378906 C 89.910156 139.917969 90.457031 139.417969 91.019531 138.871094 L 79.738281 128.960938" fill="inherit"/><path d="M 82.359375 126.261719 L 81.097656 127.5625 L 92.367188 137.46875 C 97.0625 131.917969 88.242188 127.339844 84.71875 125.796875 C 83.910156 125.441406 82.972656 125.628906 82.359375 126.261719" fill="inherit"/><path d="M 190.484375 124.472656 C 183.257812 124.472656 177.394531 118.609375 177.394531 111.378906 C 177.394531 104.148438 183.257812 98.285156 190.484375 98.285156 C 197.71875 98.285156 203.578125 104.148438 203.578125 111.378906 C 203.578125 118.609375 197.71875 124.472656 190.484375 124.472656 Z M 190.484375 89.601562 C 173.453125 89.582031 162.941406 109.402344 172.4375 123.53125 L 190.484375 148.8125 C 190.484375 148.8125 208.515625 123.5625 208.535156 123.53125 C 217.085938 109.539062 207.519531 89.621094 190.484375 89.601562" fill="inherit"/></g></svg>