<?xml version="1.0" encoding="UTF-8" standalone="no"?><svg xmlns="http://www.w3.org/2000/svg" xmlns:xlink="http://www.w3.org/1999/xlink" clip-rule="evenodd" fill="#000000" fill-rule="evenodd" height="507" image-rendering="optimizeQuality" preserveAspectRatio="xMidYMid meet" shape-rendering="geometricPrecision" text-rendering="geometricPrecision" version="1" viewBox="59.0 2.0 393.0 507.0" width="393" zoomAndPan="magnify"><g><g><path d="M0 0H511V511H0z" fill="none"/><g id="change1_1"><path d="M97 2l230 0c7,0 12,2 17,7l101 100c4,5 7,11 7,17l0 345c0,21 -18,38 -39,38l-316 0c-21,0 -38,-17 -38,-38l0 -431c0,-21 17,-38 38,-38zm323 129l-64 0c-19,0 -34,-15 -34,-33l0 -64 -225 0c-3,0 -6,3 -6,6l0 431c0,3 3,6 6,6l316 0c4,0 7,-3 7,-6l0 -340z" fill="#2e58a6"/></g><g id="change2_1"><path d="M136 344l197 0c2,0 4,2 4,4l0 20c0,2 -2,4 -4,4l-197 0c-2,0 -4,-2 -4,-4l0 -20c0,-2 2,-4 4,-4zm79 -99l25 8c1,0 2,2 1,3 -3,13 -9,25 -20,33 -10,8 -23,11 -35,11 -18,0 -33,-6 -44,-18 -13,-14 -18,-32 -18,-50 0,-19 5,-38 18,-52 12,-13 27,-18 45,-18 15,0 29,4 40,14 7,7 11,16 14,25 0,1 0,2 0,2 -1,1 -1,2 -2,2l-26 6c0,0 -1,0 -2,-1 0,0 -1,0 -1,-1 -1,-6 -4,-11 -8,-14 -5,-4 -10,-6 -16,-6 -9,0 -16,3 -21,10 -7,8 -9,21 -9,31 0,10 2,25 9,33 5,6 12,9 20,9 6,0 12,-2 16,-6 6,-4 9,-12 10,-19 0,-1 1,-1 1,-2 1,0 2,0 3,0zm103 8l28 -87c1,-1 2,-2 3,-2l28 0c0,0 1,1 2,1 0,1 0,2 0,3l-46 128c0,1 -1,2 -2,2l-28 0c-1,0 -2,-1 -3,-2l-45 -128c-1,-1 -1,-2 0,-3 0,0 1,-1 2,-1l28 0c1,0 2,1 3,2l30 87zm-182 156l127 0c2,0 4,2 4,5l0 20c0,2 -2,4 -4,4l-127 0c-2,0 -4,-2 -4,-4l0 -20c0,-3 2,-5 4,-5z" fill="#e9bb00"/></g></g></g></svg>