<?xml version="1.0" encoding="UTF-8"?><svg xmlns="http://www.w3.org/2000/svg" xmlns:xlink="http://www.w3.org/1999/xlink" height="353.1" preserveAspectRatio="xMidYMid meet" version="1.0" viewBox="1.9 -0.2 500.4 353.1" width="500.4" zoomAndPan="magnify"><defs><linearGradient gradientUnits="userSpaceOnUse" id="l" x1="248.576" x2="248.576" xlink:actuate="onLoad" xlink:show="other" xlink:type="simple" xmlns:xlink="http://www.w3.org/1999/xlink" y1="331.499" y2="136.78"><stop offset="0" stop-color="#c3ecfe"/><stop offset="1" stop-color="#e6faff"/></linearGradient><linearGradient gradientUnits="userSpaceOnUse" id="a" x1="261.906" x2="258.115" xlink:actuate="onLoad" xlink:show="other" xlink:type="simple" xmlns:xlink="http://www.w3.org/1999/xlink" y1="416.544" y2="246.732"><stop offset=".001" stop-color="#dcf5ff"/><stop offset="1" stop-color="#fff"/></linearGradient><linearGradient gradientUnits="userSpaceOnUse" id="j" x1="235.276" x2="245.121" xlink:actuate="onLoad" xlink:show="other" xlink:type="simple" xmlns:xlink="http://www.w3.org/1999/xlink" y1="248.41" y2="254.255"><stop offset="0" stop-color="#ff9c85"/><stop offset="1" stop-color="#ffc0ac"/></linearGradient><linearGradient gradientUnits="userSpaceOnUse" id="d" x1="233.483" x2="237.98" xlink:actuate="onLoad" xlink:show="other" xlink:type="simple" xmlns:xlink="http://www.w3.org/1999/xlink" y1="215.163" y2="247.458"><stop offset="0" stop-color="#ffc0ac"/><stop offset="1" stop-color="#ffd6c7"/></linearGradient><linearGradient gradientUnits="userSpaceOnUse" id="e" x1="235.785" x2="235.785" xlink:actuate="onLoad" xlink:show="other" xlink:type="simple" xmlns:xlink="http://www.w3.org/1999/xlink" y1="225.931" y2="259.157"><stop offset="0" stop-color="#ff9c85"/><stop offset="1" stop-color="#ff9c85" stop-opacity="0"/></linearGradient><linearGradient id="n" x1="253.322" x2="231.162" xlink:actuate="onLoad" xlink:href="#a" xlink:show="other" xlink:type="simple" xmlns:xlink="http://www.w3.org/1999/xlink" y1="198.236" y2="181.267"/><linearGradient gradientUnits="userSpaceOnUse" id="b" x1="282.431" x2="273.134" xlink:actuate="onLoad" xlink:show="other" xlink:type="simple" xmlns:xlink="http://www.w3.org/1999/xlink" y1="369.586" y2="348.668"><stop offset="0" stop-color="#1d164d"/><stop offset="1" stop-color="#4a4975"/></linearGradient><linearGradient id="o" x1="254.892" x2="245.595" xlink:actuate="onLoad" xlink:href="#b" xlink:show="other" xlink:type="simple" xmlns:xlink="http://www.w3.org/1999/xlink" y1="381.826" y2="360.908"/><linearGradient id="p" x1="287.191" x2="249.481" xlink:actuate="onLoad" xlink:href="#b" xlink:show="other" xlink:type="simple" xmlns:xlink="http://www.w3.org/1999/xlink" y1="416.132" y2="245.88"/><linearGradient gradientUnits="userSpaceOnUse" id="g" x1="262.008" x2="231.51" xlink:actuate="onLoad" xlink:show="other" xlink:type="simple" xmlns:xlink="http://www.w3.org/1999/xlink" y1="247.141" y2="237.935"><stop offset="0" stop-color="#1d164d"/><stop offset="1" stop-color="#1d164d" stop-opacity="0"/></linearGradient><linearGradient id="q" x1="310.841" x2="272.755" xlink:actuate="onLoad" xlink:href="#b" xlink:show="other" xlink:type="simple" xmlns:xlink="http://www.w3.org/1999/xlink" y1="411.6" y2="239.652"/><linearGradient id="r" x1="287.886" x2="265.926" xlink:actuate="onLoad" xlink:href="#a" xlink:show="other" xlink:type="simple" xmlns:xlink="http://www.w3.org/1999/xlink" y1="225.428" y2="180.51"/><linearGradient gradientUnits="userSpaceOnUse" id="c" x1="256.367" x2="246.958" xlink:actuate="onLoad" xlink:show="other" xlink:type="simple" xmlns:xlink="http://www.w3.org/1999/xlink" y1="183.021" y2="149.535"><stop offset="0" stop-color="#ed6ba1"/><stop offset="1" stop-color="#f3a7a8"/></linearGradient><linearGradient id="s" x1="259.207" x2="258.637" xlink:actuate="onLoad" xlink:href="#c" xlink:show="other" xlink:type="simple" xmlns:xlink="http://www.w3.org/1999/xlink" y1="148.353" y2="174.447"/><linearGradient gradientUnits="userSpaceOnUse" id="i" x1="289.022" x2="272.898" xlink:actuate="onLoad" xlink:show="other" xlink:type="simple" xmlns:xlink="http://www.w3.org/1999/xlink" y1="230.277" y2="189.131"><stop offset="0" stop-color="#f0811c"/><stop offset="1" stop-color="#fdc67f"/></linearGradient><linearGradient gradientUnits="userSpaceOnUse" id="k" x1="316.57" x2="248.702" xlink:actuate="onLoad" xlink:show="other" xlink:type="simple" xmlns:xlink="http://www.w3.org/1999/xlink" y1="220.506" y2="190.262"><stop offset="0" stop-color="#f0811c"/><stop offset="1" stop-color="#f0811c" stop-opacity="0"/></linearGradient><linearGradient id="t" x1="297.533" x2="283.656" xlink:actuate="onLoad" xlink:href="#a" xlink:show="other" xlink:type="simple" xmlns:xlink="http://www.w3.org/1999/xlink" y1="231.529" y2="168.832"/><linearGradient id="u" x1="258.535" x2="252.706" xlink:actuate="onLoad" xlink:href="#b" xlink:show="other" xlink:type="simple" xmlns:xlink="http://www.w3.org/1999/xlink" y1="122.607" y2="108.811"/><linearGradient id="v" x1="260.635" x2="261.998" xlink:actuate="onLoad" xlink:href="#d" xlink:show="other" xlink:type="simple" xmlns:xlink="http://www.w3.org/1999/xlink" y1="140.462" y2="161.125"/><linearGradient id="w" x1="259.977" x2="263.412" xlink:actuate="onLoad" xlink:href="#e" xlink:show="other" xlink:type="simple" xmlns:xlink="http://www.w3.org/1999/xlink" y1="130.881" y2="184.604"/><linearGradient id="x" x1="266.711" x2="257.592" xlink:actuate="onLoad" xlink:href="#d" xlink:show="other" xlink:type="simple" xmlns:xlink="http://www.w3.org/1999/xlink" y1="152.198" y2="126.957"/><linearGradient id="y" x1="271.504" x2="258.902" xlink:actuate="onLoad" xlink:href="#d" xlink:show="other" xlink:type="simple" xmlns:xlink="http://www.w3.org/1999/xlink" y1="207.59" y2="196.407"/><linearGradient id="z" x1="272.342" x2="259.74" xlink:actuate="onLoad" xlink:href="#d" xlink:show="other" xlink:type="simple" xmlns:xlink="http://www.w3.org/1999/xlink" y1="206.646" y2="195.463"/><linearGradient id="A" x1="273.093" x2="260.491" xlink:actuate="onLoad" xlink:href="#d" xlink:show="other" xlink:type="simple" xmlns:xlink="http://www.w3.org/1999/xlink" y1="205.799" y2="194.616"/><linearGradient id="B" x1="255.866" x2="259.439" xlink:actuate="onLoad" xlink:href="#d" xlink:show="other" xlink:type="simple" xmlns:xlink="http://www.w3.org/1999/xlink" y1="189.517" y2="185.999"/><linearGradient id="C" x1="274.007" x2="261.404" xlink:actuate="onLoad" xlink:href="#d" xlink:show="other" xlink:type="simple" xmlns:xlink="http://www.w3.org/1999/xlink" y1="204.77" y2="193.587"/><linearGradient id="D" x1="275.152" x2="262.55" xlink:actuate="onLoad" xlink:href="#d" xlink:show="other" xlink:type="simple" xmlns:xlink="http://www.w3.org/1999/xlink" y1="203.48" y2="192.296"/><linearGradient id="E" x1="266.312" x2="255.996" xlink:actuate="onLoad" xlink:href="#e" xlink:show="other" xlink:type="simple" xmlns:xlink="http://www.w3.org/1999/xlink" y1="191.882" y2="191.882"/><linearGradient gradientUnits="userSpaceOnUse" id="f" x1="297.038" x2="276.917" xlink:actuate="onLoad" xlink:show="other" xlink:type="simple" xmlns:xlink="http://www.w3.org/1999/xlink" y1="127.245" y2="160.638"><stop offset="0" stop-color="#00b5a2"/><stop offset="1" stop-color="#24e2d5"/></linearGradient><linearGradient id="F" x1="287.728" x2="272.113" xlink:actuate="onLoad" xlink:href="#c" xlink:show="other" xlink:type="simple" xmlns:xlink="http://www.w3.org/1999/xlink" y1="299.675" y2="328.639"/><linearGradient id="G" x1="248.856" x2="227.166" xlink:actuate="onLoad" xlink:href="#f" xlink:show="other" xlink:type="simple" xmlns:xlink="http://www.w3.org/1999/xlink" y1="292.718" y2="324.168"/><linearGradient id="H" x1="195.452" x2="195.452" xlink:actuate="onLoad" xlink:href="#d" xlink:show="other" xlink:type="simple" xmlns:xlink="http://www.w3.org/1999/xlink" y1="313.609" y2="338.457"/><linearGradient id="I" x1="166.943" x2="166.943" xlink:actuate="onLoad" xlink:href="#d" xlink:show="other" xlink:type="simple" xmlns:xlink="http://www.w3.org/1999/xlink" y1="313.609" y2="338.457"/><linearGradient id="J" x1="190.415" x2="166" xlink:actuate="onLoad" xlink:href="#b" xlink:show="other" xlink:type="simple" xmlns:xlink="http://www.w3.org/1999/xlink" y1="339.769" y2="245.415"/><linearGradient id="K" x1="184.546" x2="154.151" xlink:actuate="onLoad" xlink:href="#g" xlink:show="other" xlink:type="simple" xmlns:xlink="http://www.w3.org/1999/xlink" y1="229.959" y2="284.67"/><linearGradient id="L" x1="211.372" x2="186.957" xlink:actuate="onLoad" xlink:href="#b" xlink:show="other" xlink:type="simple" xmlns:xlink="http://www.w3.org/1999/xlink" y1="334.346" y2="239.992"/><linearGradient id="M" x1="191.627" x2="188.573" xlink:actuate="onLoad" xlink:href="#g" xlink:show="other" xlink:type="simple" xmlns:xlink="http://www.w3.org/1999/xlink" y1="211.122" y2="249.04"/><linearGradient id="N" x1="170.569" x2="181.834" xlink:actuate="onLoad" xlink:href="#b" xlink:show="other" xlink:type="simple" xmlns:xlink="http://www.w3.org/1999/xlink" y1="340.534" y2="325.128"/><linearGradient id="O" x1="192.071" x2="202.838" xlink:actuate="onLoad" xlink:href="#b" xlink:show="other" xlink:type="simple" xmlns:xlink="http://www.w3.org/1999/xlink" y1="355.179" y2="335.467"/><linearGradient id="P" x1="178.439" x2="178.439" xlink:actuate="onLoad" xlink:href="#d" xlink:show="other" xlink:type="simple" xmlns:xlink="http://www.w3.org/1999/xlink" y1="150.629" y2="174.708"/><linearGradient id="Q" x1="183.231" x2="169.885" xlink:actuate="onLoad" xlink:href="#e" xlink:show="other" xlink:type="simple" xmlns:xlink="http://www.w3.org/1999/xlink" y1="151.794" y2="174.356"/><linearGradient gradientUnits="userSpaceOnUse" id="R" x1="176.226" x2="181.742" xlink:actuate="onLoad" xlink:show="other" xlink:type="simple" xmlns:xlink="http://www.w3.org/1999/xlink" y1="155.598" y2="134.984"><stop offset="0" stop-color="#896160"/><stop offset="1" stop-color="#c1888f"/></linearGradient><linearGradient id="S" x1="180.105" x2="181.876" xlink:actuate="onLoad" xlink:href="#d" xlink:show="other" xlink:type="simple" xmlns:xlink="http://www.w3.org/1999/xlink" y1="170.047" y2="151.751"/><linearGradient gradientUnits="userSpaceOnUse" id="h" x1="216.304" x2="216.304" xlink:actuate="onLoad" xlink:show="other" xlink:type="simple" xmlns:xlink="http://www.w3.org/1999/xlink" y1="218.528" y2="170.047"><stop offset="0" stop-color="#1389e6"/><stop offset="1" stop-color="#22b6ff"/></linearGradient><linearGradient id="T" x1="218.756" x2="215.889" xlink:actuate="onLoad" xlink:href="#a" xlink:show="other" xlink:type="simple" xmlns:xlink="http://www.w3.org/1999/xlink" y1="215.1" y2="168.918"/><linearGradient id="U" x1="220.238" x2="220.584" xlink:actuate="onLoad" xlink:href="#h" xlink:show="other" xlink:type="simple" xmlns:xlink="http://www.w3.org/1999/xlink" y1="157.161" y2="153.801"/><linearGradient id="V" x1="179.935" x2="179.524" xlink:actuate="onLoad" xlink:href="#a" xlink:show="other" xlink:type="simple" xmlns:xlink="http://www.w3.org/1999/xlink" y1="165.925" y2="157.551"/><linearGradient id="W" x1="174.258" x2="155.226" xlink:actuate="onLoad" xlink:href="#b" xlink:show="other" xlink:type="simple" xmlns:xlink="http://www.w3.org/1999/xlink" y1="187.427" y2="170.316"/><linearGradient id="X" x1="240.1" x2="172.022" xlink:actuate="onLoad" xlink:href="#b" xlink:show="other" xlink:type="simple" xmlns:xlink="http://www.w3.org/1999/xlink" y1="199.251" y2="192.243"/><linearGradient id="Y" x1="238.94" x2="192.183" xlink:actuate="onLoad" xlink:href="#b" xlink:show="other" xlink:type="simple" xmlns:xlink="http://www.w3.org/1999/xlink" y1="132.09" y2="184.909"/><linearGradient id="Z" x1="222.301" x2="215.452" xlink:actuate="onLoad" xlink:href="#d" xlink:show="other" xlink:type="simple" xmlns:xlink="http://www.w3.org/1999/xlink" y1="168.674" y2="167.932"/><linearGradient id="aa" x1="220.798" x2="220.798" xlink:actuate="onLoad" xlink:href="#d" xlink:show="other" xlink:type="simple" xmlns:xlink="http://www.w3.org/1999/xlink" y1="180.805" y2="170.34"/><linearGradient id="ab" x1="229.142" x2="217.774" xlink:actuate="onLoad" xlink:href="#b" xlink:show="other" xlink:type="simple" xmlns:xlink="http://www.w3.org/1999/xlink" y1="172.382" y2="160.336"/><linearGradient id="ac" x1="222.377" x2="222.377" xlink:actuate="onLoad" xlink:href="#d" xlink:show="other" xlink:type="simple" xmlns:xlink="http://www.w3.org/1999/xlink" y1="180.805" y2="170.34"/><linearGradient id="ad" x1="225.416" x2="225.416" xlink:actuate="onLoad" xlink:href="#d" xlink:show="other" xlink:type="simple" xmlns:xlink="http://www.w3.org/1999/xlink" y1="180.805" y2="170.34"/><linearGradient id="ae" x1="224.416" x2="224.416" xlink:actuate="onLoad" xlink:href="#d" xlink:show="other" xlink:type="simple" xmlns:xlink="http://www.w3.org/1999/xlink" y1="180.805" y2="170.34"/><linearGradient id="af" x1="223.53" x2="223.53" xlink:actuate="onLoad" xlink:href="#d" xlink:show="other" xlink:type="simple" xmlns:xlink="http://www.w3.org/1999/xlink" y1="180.805" y2="170.34"/><linearGradient id="ag" x1="92.244" x2="93.51" xlink:actuate="onLoad" xlink:href="#d" xlink:show="other" xlink:type="simple" xmlns:xlink="http://www.w3.org/1999/xlink" y1="160.045" y2="201.558"/><linearGradient id="ah" x1="91.244" x2="87.447" xlink:actuate="onLoad" xlink:href="#e" xlink:show="other" xlink:type="simple" xmlns:xlink="http://www.w3.org/1999/xlink" y1="157.85" y2="187.087"/><linearGradient id="ai" x1="91.364" x2="91.364" xlink:actuate="onLoad" xlink:href="#d" xlink:show="other" xlink:type="simple" xmlns:xlink="http://www.w3.org/1999/xlink" y1="177.024" y2="150.572"/><linearGradient id="aj" x1="112.713" x2="106.415" xlink:actuate="onLoad" xlink:href="#d" xlink:show="other" xlink:type="simple" xmlns:xlink="http://www.w3.org/1999/xlink" y1="351.879" y2="286.247"/><linearGradient id="ak" x1="104.981" x2="105.976" xlink:actuate="onLoad" xlink:href="#e" xlink:show="other" xlink:type="simple" xmlns:xlink="http://www.w3.org/1999/xlink" y1="268.625" y2="323.319"/><linearGradient id="al" x1="72.933" x2="66.634" xlink:actuate="onLoad" xlink:href="#d" xlink:show="other" xlink:type="simple" xmlns:xlink="http://www.w3.org/1999/xlink" y1="355.697" y2="290.065"/><linearGradient id="am" x1="76.715" x2="77.71" xlink:actuate="onLoad" xlink:href="#e" xlink:show="other" xlink:type="simple" xmlns:xlink="http://www.w3.org/1999/xlink" y1="269.139" y2="323.833"/><linearGradient id="an" x1="67.101" x2="56.685" xlink:actuate="onLoad" xlink:href="#b" xlink:show="other" xlink:type="simple" xmlns:xlink="http://www.w3.org/1999/xlink" y1="361.098" y2="335.267"/><linearGradient id="ao" x1="89.47" x2="91.545" xlink:actuate="onLoad" xlink:href="#b" xlink:show="other" xlink:type="simple" xmlns:xlink="http://www.w3.org/1999/xlink" y1="298.01" y2="231.322"/><linearGradient id="ap" x1="109.133" x2="98.835" xlink:actuate="onLoad" xlink:href="#g" xlink:show="other" xlink:type="simple" xmlns:xlink="http://www.w3.org/1999/xlink" y1="218.479" y2="251.028"/><linearGradient id="aq" x1="101.082" x2="115.664" xlink:actuate="onLoad" xlink:href="#b" xlink:show="other" xlink:type="simple" xmlns:xlink="http://www.w3.org/1999/xlink" y1="362.16" y2="332.996"/><linearGradient id="ar" x1="139.55" x2="143.455" xlink:actuate="onLoad" xlink:href="#d" xlink:show="other" xlink:type="simple" xmlns:xlink="http://www.w3.org/1999/xlink" y1="183.504" y2="167.981"/><linearGradient id="as" x1="95.186" x2="97.026" xlink:actuate="onLoad" xlink:href="#a" xlink:show="other" xlink:type="simple" xmlns:xlink="http://www.w3.org/1999/xlink" y1="168.668" y2="223.63"/><linearGradient id="at" x1="76.054" x2="83.731" xlink:actuate="onLoad" xlink:href="#h" xlink:show="other" xlink:type="simple" xmlns:xlink="http://www.w3.org/1999/xlink" y1="241.013" y2="175.652"/><linearGradient gradientTransform="rotate(12.096 77.47 224.126)" id="au" x1="62.865" x2="81.104" xlink:actuate="onLoad" xlink:href="#i" xlink:show="other" xlink:type="simple" xmlns:xlink="http://www.w3.org/1999/xlink" y1="245.929" y2="218.7"/><linearGradient id="av" x1="89.927" x2="97.227" xlink:actuate="onLoad" xlink:href="#i" xlink:show="other" xlink:type="simple" xmlns:xlink="http://www.w3.org/1999/xlink" y1="222.531" y2="218.881"/><linearGradient id="aw" x1="39.137" x2="84.401" xlink:actuate="onLoad" xlink:href="#a" xlink:show="other" xlink:type="simple" xmlns:xlink="http://www.w3.org/1999/xlink" y1="218.716" y2="225.104"/><linearGradient id="ax" x1="22.944" x2="78.553" xlink:actuate="onLoad" xlink:href="#h" xlink:show="other" xlink:type="simple" xmlns:xlink="http://www.w3.org/1999/xlink" y1="196.945" y2="195.493"/><linearGradient id="ay" x1="141.235" x2="117.193" xlink:actuate="onLoad" xlink:href="#h" xlink:show="other" xlink:type="simple" xmlns:xlink="http://www.w3.org/1999/xlink" y1="212.146" y2="166.093"/><linearGradient id="az" x1="120.267" x2="96.224" xlink:actuate="onLoad" xlink:href="#h" xlink:show="other" xlink:type="simple" xmlns:xlink="http://www.w3.org/1999/xlink" y1="223.093" y2="177.04"/><linearGradient id="aA" x1="67.155" x2="76.233" xlink:actuate="onLoad" xlink:href="#d" xlink:show="other" xlink:type="simple" xmlns:xlink="http://www.w3.org/1999/xlink" y1="224.131" y2="233.109"/><linearGradient id="aB" x1="67.982" x2="76.997" xlink:actuate="onLoad" xlink:href="#d" xlink:show="other" xlink:type="simple" xmlns:xlink="http://www.w3.org/1999/xlink" y1="223.409" y2="232.324"/><linearGradient id="aC" x1="68.966" x2="77.981" xlink:actuate="onLoad" xlink:href="#d" xlink:show="other" xlink:type="simple" xmlns:xlink="http://www.w3.org/1999/xlink" y1="222.415" y2="231.33"/><linearGradient id="aD" x1="80.834" x2="82.236" xlink:actuate="onLoad" xlink:href="#d" xlink:show="other" xlink:type="simple" xmlns:xlink="http://www.w3.org/1999/xlink" y1="233.545" y2="224.83"/><linearGradient id="aE" x1="69.805" x2="78.821" xlink:actuate="onLoad" xlink:href="#d" xlink:show="other" xlink:type="simple" xmlns:xlink="http://www.w3.org/1999/xlink" y1="221.565" y2="230.48"/><linearGradient id="aF" x1="69.906" x2="78.922" xlink:actuate="onLoad" xlink:href="#d" xlink:show="other" xlink:type="simple" xmlns:xlink="http://www.w3.org/1999/xlink" y1="221.463" y2="230.378"/><linearGradient gradientUnits="userSpaceOnUse" id="aG" x1="89.065" x2="93.46" xlink:actuate="onLoad" xlink:show="other" xlink:type="simple" xmlns:xlink="http://www.w3.org/1999/xlink" y1="169.462" y2="144.72"><stop offset="0" stop-color="#462b45"/><stop offset=".999" stop-color="#884a6f"/></linearGradient><linearGradient id="aH" x1="429.524" x2="421.673" xlink:actuate="onLoad" xlink:href="#b" xlink:show="other" xlink:type="simple" xmlns:xlink="http://www.w3.org/1999/xlink" y1="351.516" y2="333.853"/><linearGradient id="aI" x1="406.27" x2="398.42" xlink:actuate="onLoad" xlink:href="#b" xlink:show="other" xlink:type="simple" xmlns:xlink="http://www.w3.org/1999/xlink" y1="361.851" y2="344.188"/><linearGradient id="aJ" x1="432.766" x2="401.88" xlink:actuate="onLoad" xlink:href="#b" xlink:show="other" xlink:type="simple" xmlns:xlink="http://www.w3.org/1999/xlink" y1="389.007" y2="249.569"/><linearGradient id="aK" x1="412.169" x2="386.823" xlink:actuate="onLoad" xlink:href="#g" xlink:show="other" xlink:type="simple" xmlns:xlink="http://www.w3.org/1999/xlink" y1="250.598" y2="242.947"/><linearGradient id="aL" x1="452.797" x2="421.581" xlink:actuate="onLoad" xlink:href="#b" xlink:show="other" xlink:type="simple" xmlns:xlink="http://www.w3.org/1999/xlink" y1="385.376" y2="244.445"/><linearGradient id="aM" x1="409.346" x2="404.424" xlink:actuate="onLoad" xlink:href="#b" xlink:show="other" xlink:type="simple" xmlns:xlink="http://www.w3.org/1999/xlink" y1="142.968" y2="131.318"/><linearGradient id="aN" x1="411.12" x2="412.27" xlink:actuate="onLoad" xlink:href="#d" xlink:show="other" xlink:type="simple" xmlns:xlink="http://www.w3.org/1999/xlink" y1="158.044" y2="175.492"/><linearGradient id="aO" x1="410.564" x2="413.464" xlink:actuate="onLoad" xlink:href="#e" xlink:show="other" xlink:type="simple" xmlns:xlink="http://www.w3.org/1999/xlink" y1="149.954" y2="195.318"/><linearGradient id="aP" x1="416.25" x2="408.55" xlink:actuate="onLoad" xlink:href="#d" xlink:show="other" xlink:type="simple" xmlns:xlink="http://www.w3.org/1999/xlink" y1="167.954" y2="146.641"/><linearGradient id="aQ" x1="389.707" x2="398.019" xlink:actuate="onLoad" xlink:href="#j" xlink:show="other" xlink:type="simple" xmlns:xlink="http://www.w3.org/1999/xlink" y1="249.195" y2="254.131"/><linearGradient id="aR" x1="388.192" x2="391.989" xlink:actuate="onLoad" xlink:href="#d" xlink:show="other" xlink:type="simple" xmlns:xlink="http://www.w3.org/1999/xlink" y1="221.122" y2="248.391"/><linearGradient id="aS" x1="390.136" x2="390.136" xlink:actuate="onLoad" xlink:href="#e" xlink:show="other" xlink:type="simple" xmlns:xlink="http://www.w3.org/1999/xlink" y1="230.214" y2="258.27"/><linearGradient id="aT" x1="404.944" x2="386.233" xlink:actuate="onLoad" xlink:href="#a" xlink:show="other" xlink:type="simple" xmlns:xlink="http://www.w3.org/1999/xlink" y1="206.829" y2="192.5"/><linearGradient id="aU" x1="435.037" x2="415.64" xlink:actuate="onLoad" xlink:href="#a" xlink:show="other" xlink:type="simple" xmlns:xlink="http://www.w3.org/1999/xlink" y1="233.278" y2="193.601"/><linearGradient id="aV" x1="407.516" x2="399.571" xlink:actuate="onLoad" xlink:href="#c" xlink:show="other" xlink:type="simple" xmlns:xlink="http://www.w3.org/1999/xlink" y1="193.981" y2="165.706"/><linearGradient id="aW" x1="409.9" x2="409.499" xlink:actuate="onLoad" xlink:href="#c" xlink:show="other" xlink:type="simple" xmlns:xlink="http://www.w3.org/1999/xlink" y1="165.307" y2="183.669"/><linearGradient id="aX" x1="435.09" x2="421.474" xlink:actuate="onLoad" xlink:href="#i" xlink:show="other" xlink:type="simple" xmlns:xlink="http://www.w3.org/1999/xlink" y1="233.884" y2="199.14"/><linearGradient id="aY" x1="458.351" x2="401.043" xlink:actuate="onLoad" xlink:href="#k" xlink:show="other" xlink:type="simple" xmlns:xlink="http://www.w3.org/1999/xlink" y1="225.633" y2="200.096"/><linearGradient id="aZ" x1="451.036" x2="434.746" xlink:actuate="onLoad" xlink:href="#a" xlink:show="other" xlink:type="simple" xmlns:xlink="http://www.w3.org/1999/xlink" y1="244.106" y2="201.073"/><linearGradient id="ba" x1="420.298" x2="409.656" xlink:actuate="onLoad" xlink:href="#d" xlink:show="other" xlink:type="simple" xmlns:xlink="http://www.w3.org/1999/xlink" y1="214.727" y2="205.284"/><linearGradient id="bb" x1="421.005" x2="410.363" xlink:actuate="onLoad" xlink:href="#d" xlink:show="other" xlink:type="simple" xmlns:xlink="http://www.w3.org/1999/xlink" y1="213.93" y2="204.487"/><linearGradient id="bc" x1="421.639" x2="410.998" xlink:actuate="onLoad" xlink:href="#d" xlink:show="other" xlink:type="simple" xmlns:xlink="http://www.w3.org/1999/xlink" y1="213.215" y2="203.772"/><linearGradient id="bd" x1="407.092" x2="410.11" xlink:actuate="onLoad" xlink:href="#d" xlink:show="other" xlink:type="simple" xmlns:xlink="http://www.w3.org/1999/xlink" y1="199.466" y2="196.496"/><linearGradient id="be" x1="422.41" x2="411.769" xlink:actuate="onLoad" xlink:href="#d" xlink:show="other" xlink:type="simple" xmlns:xlink="http://www.w3.org/1999/xlink" y1="212.346" y2="202.903"/><linearGradient id="bf" x1="423.378" x2="412.736" xlink:actuate="onLoad" xlink:href="#d" xlink:show="other" xlink:type="simple" xmlns:xlink="http://www.w3.org/1999/xlink" y1="211.256" y2="201.813"/><linearGradient id="bg" x1="415.913" x2="407.202" xlink:actuate="onLoad" xlink:href="#e" xlink:show="other" xlink:type="simple" xmlns:xlink="http://www.w3.org/1999/xlink" y1="201.463" y2="201.463"/><clipPath id="m"><circle cx="257.046" cy="130.715" fill="none" r="35.631"/></clipPath></defs><g style="isolation:isolate"><g data-name="Recruitment Agency"><g><path d="M26.1106,339.011S1.8585,317.8953,7.0183,290.1137c5.8043-31.2513,27.7044-25.3059,28.4429-60.5915.5051-24.14-18.5355-69.1839-2.13-104.53C45.8006,98.1266,76.6859,69.57,114.67,77.29c27.3526,5.559,43.4853,10.3415,70.7369-17.5382,29.71-30.3949,47.7477-41.8828,83.4271-50.91s65.9614-2.3994,95.0918,26.9565c24.57,24.76,29.9468,58.65,55.2522,75.4121s37.8034,11.3054,57.6969,27.05c16.9611,13.4241,17.4481,46.6142,7.0344,69.814s-24.6116,43.622-15.2905,62.7008c12.27,25.1141,33.6684,39.797,12.4467,68.2353Z" fill="url(#l)"/><g fill="#88d2ff"><ellipse cx="250" cy="343.38" fill="inherit" rx="245" ry="9.528"/><ellipse cx="185.568" cy="341.866" fill="inherit" rx="38.544" ry="3.534" style="mix-blend-mode:multiply"/><ellipse cx="411.382" cy="341.866" fill="inherit" rx="38.544" ry="3.534" style="mix-blend-mode:multiply"/><ellipse cx="84.159" cy="341.866" fill="inherit" rx="45.43" ry="3.534" style="mix-blend-mode:multiply"/></g><g><g><path d="M51.607,144.9944a4.9558,4.9558,0,1,0,4.9558,4.9558A4.9557,4.9557,0,0,0,51.607,144.9944Zm0,8.2506a3.2948,3.2948,0,1,1,3.2949-3.2948A3.2948,3.2948,0,0,1,51.607,153.245Z" fill="#fec957"/></g><g><path d="M239.3722,44.9172a4.9558,4.9558,0,1,0,4.9558,4.9558A4.9558,4.9558,0,0,0,239.3722,44.9172Zm0,8.2506a3.2948,3.2948,0,1,1,3.2948-3.2948A3.2948,3.2948,0,0,1,239.3722,53.1678Z" fill="#fec957"/></g><g><path d="M464.9946,163.6008a6.0927,6.0927,0,1,0,6.0926,6.0926A6.0926,6.0926,0,0,0,464.9946,163.6008Zm0,10.1433a4.0507,4.0507,0,1,1,4.0507-4.0507A4.0506,4.0506,0,0,1,464.9946,173.7441Z" fill="#fec957"/></g><g><circle cx="313.659" cy="35.254" fill="#fec957" r="2.944"/></g><g><circle cx="451.907" cy="299.795" fill="#fec957" r="2.944"/></g><g><circle cx="49.558" cy="289.879" fill="#fec957" r="2.944"/></g><g><path d="M371.364 54.926L373.092 61.77 375.351 52.068 384.654 45.556 349.967 32.531 361.429 61.77 371.364 54.926z" fill="#c3ecfe"/></g><g><path d="M373.092 61.77L371.364 54.926 361.629 42.599 375.351 52.068 373.092 61.77z" fill="#69b9f4"/></g><g><path d="M348.2318,101.4913a4.9551,4.9551,0,0,1-3.0776-1.518l.8854-.7508a3.8405,3.8405,0,0,0,2.3735,1.1229Zm3.2633-.0094-.1828-1.146a5.08,5.08,0,0,0,2.5178-1.0881l.7478.8876A6.226,6.226,0,0,1,351.4951,101.4819Zm4.9238-4.1668-1.1014-.3642a9.0114,9.0114,0,0,0,.4049-2.8184l1.16-.0491v.0491A10.1737,10.1737,0,0,1,356.4189,97.3151ZM345.68,96.8376l-1.115-.321A8.5741,8.5741,0,0,1,346.16,93.629l.908.7222A7.4447,7.4447,0,0,0,345.68,96.8376Zm3.4681-4.6231-.7615-.8755a28.1661,28.1661,0,0,1,2.5012-1.9259l.6587.9556A27.0172,27.0172,0,0,0,349.1481,92.2145Zm6.2593-1.0934a23.0267,23.0267,0,0,0-.7063-2.7006q-.2924.1632-.5756.3267l-.58-1.0047c.8687-.5012,1.7964-.9979,2.7588-1.4768l.5167,1.0387c-.3664.1824-.7283.3675-1.0825.5545a24.6214,24.6214,0,0,1,.8082,3.0408Zm4.1917-5.1122-.4653-1.0629q1.1-.4815,2.2919-.956l.5794-.233.4382,1.0742-.5893.2372Q360.6813,85.5346,359.5991,86.0089Zm-6.0765-.6316c-.4056-.9049-.8657-1.8205-1.3665-2.7217l1.0138-.5635c.5174.93.9918,1.8753,1.4118,2.81Zm11.7829-1.7857-.4865-1.0538c.9632-.4442,1.8855-.9009,2.7414-1.3575l.5454,1.0236C367.231,82.6711,366.2883,83.1379,365.3055,83.5916Zm5.513-2.96-.621-.9805a30.0476,30.0476,0,0,0,2.4808-1.7431l.7176.9125A31.3494,31.3494,0,0,1,370.8185,80.6315Zm-20.2465-.5821c-.562-.8475-1.16-1.6823-1.7782-2.4815l.917-.71c.6361.8216,1.251,1.68,1.8281,2.55Zm-60.2445-3.3309-1.0078-.5756a16.696,16.696,0,0,1,1.9513-2.5635l.8642.7743A15.8771,15.8771,0,0,0,290.3275,76.7185Zm85.4253-.0219-.84-.8a14.1421,14.1421,0,0,0,1.82-2.338l.99.6058A15.2535,15.2535,0,0,1,375.7528,76.6966Zm-28.9155-1.4719c-.6791-.7555-1.3938-1.4924-2.1242-2.19l.8022-.8385c.7509.7181,1.4867,1.4761,2.1847,2.253Zm-52.5507-2.9979-.766-.871a29.983,29.983,0,0,1,2.4762-1.9538l.6708.9472A28.7974,28.7974,0,0,0,294.2866,72.2268Zm84.7107-1.06-1.1271-.278a7.7233,7.7233,0,0,0,.1685-2.8577l1.1512-.1466a8.9045,8.9045,0,0,1-.1926,3.2823Zm-36.5678-.15c-.797-.6478-1.6181-1.26-2.4415-1.82l.6527-.9594c.8506.579,1.6981,1.2113,2.52,1.88Zm-43.2-2.2961-.5741-1.0084c.8975-.5111,1.84-.9919,2.8026-1.4285l.4789,1.0568C301.0074,67.7631,300.0972,68.2273,299.23,68.7213Zm38.17-1.12c-.8937-.4948-1.81-.9447-2.724-1.3375l.4577-1.0659c.95.4076,1.9006.8748,2.8283,1.3881Zm-32.64-1.3968-.3868-1.0938c.9715-.3441,1.98-.6565,2.9975-.928l.2991,1.121C306.6828,65.5675,305.7038,65.87,304.76,66.2047Zm72.4134-.92a7.8251,7.8251,0,0,0-1.115-1.6645l.4208-.3977-.0015-.0034-.136-.564c.6164-.1454,1.43,1.2533,1.8651,2.1008Zm-45.3388-.0665a26.4388,26.4388,0,0,0-2.9371-.7225l.2116-1.1407a27.4926,27.4926,0,0,1,3.0669.7543Zm-21.1922-.5911-.2161-1.14c1.0077-.1911,2.0479-.352,3.0934-.4785l.139,1.152C312.64,64.2837,311.6247,64.4408,310.6427,64.627Zm15.24-.5272c-1.0266-.1-2.0555-.1761-3.0579-.2259l.0574-1.1588c1.0205.051,2.0683.128,3.1123.23Zm-9.179-.21-.068-1.1581c1.0145-.0593,2.0653-.0906,3.1236-.0933l.003,1.16C318.7255,63.8014,317.6959,63.832,316.7033,63.89Z" fill="#88d2ff"/></g></g></g><g data-name="Recruitment Process"><g><g><rect fill="#88d2ff" height="179.347" rx="3.87" width="114.684" x="322.041" y="109.164"/></g><g><rect fill="#69b9f4" height="4.438" rx="1.528" width="40.686" x="359.04" y="175.273"/></g><g><rect fill="#69b9f4" height="2.836" rx=".976" width="25.999" x="366.383" y="183.975"/></g><g><rect fill="#69b9f4" height="2.982" rx="1.027" width="83.823" x="337.471" y="208.432"/></g><g><rect fill="#69b9f4" height="2.982" rx="1.027" width="70.378" x="344.194" y="216.841"/></g><g><rect fill="#69b9f4" height="2.982" rx="1.027" width="56.933" x="350.916" y="225.25"/></g><g><rect fill="#69b9f4" height="2.982" rx="1.027" width="83.823" x="337.471" y="241.678"/></g><g><path d="M385.8843,243.1693a1.4913,1.4913,0,0,0-1.4913-1.4913h-45.43a1.4913,1.4913,0,0,0,0,2.9826h45.43A1.4913,1.4913,0,0,0,385.8843,243.1693Z" fill="#c3ecfe"/></g><g><rect fill="#69b9f4" height="2.982" rx="1.027" width="83.823" x="337.471" y="249.526"/></g><g><path d="M373.6805,251.0177a1.4913,1.4913,0,0,0-1.4913-1.4913H338.9625a1.4913,1.4913,0,0,0,0,2.9826h33.2267A1.4913,1.4913,0,0,0,373.6805,251.0177Z" fill="#c3ecfe"/></g><g><rect fill="#69b9f4" height="2.982" rx="1.027" width="83.823" x="337.471" y="257.935"/></g><g><path d="M376.5154,259.4267a1.4913,1.4913,0,0,0-1.4913-1.4913H338.9625a1.4913,1.4913,0,0,0,0,2.9826h36.0616A1.4913,1.4913,0,0,0,376.5154,259.4267Z" fill="#c3ecfe"/></g><g><path d="M351.9142,194l.8947,1.8129a.463.463,0,0,0,.3487.2533l2.0007.2907a.463.463,0,0,1,.2566.79l-1.4477,1.4112a.4629.4629,0,0,0-.1332.41l.3418,1.9926a.4631.4631,0,0,1-.6719.4881l-1.7895-.9408a.4631.4631,0,0,0-.4309,0l-1.7895.9408a.4631.4631,0,0,1-.6719-.4881l.3418-1.9926a.4629.4629,0,0,0-.1332-.41l-1.4477-1.4112a.463.463,0,0,1,.2566-.79l2.0008-.2907a.463.463,0,0,0,.3486-.2533L351.0837,194A.4631.4631,0,0,1,351.9142,194Z" fill="#c3ecfe"/></g><g><path d="M365.8561,194l.8947,1.8129a.463.463,0,0,0,.3487.2533l2.0007.2907a.463.463,0,0,1,.2566.79l-1.4477,1.4112a.4629.4629,0,0,0-.1332.41l.3418,1.9926a.4631.4631,0,0,1-.6719.4881l-1.79-.9408a.4631.4631,0,0,0-.4309,0l-1.7895.9408a.4631.4631,0,0,1-.6719-.4881l.3418-1.9926a.4629.4629,0,0,0-.1332-.41l-1.4477-1.4112a.463.463,0,0,1,.2566-.79l2.0007-.2907a.463.463,0,0,0,.3487-.2533L365.0256,194A.4631.4631,0,0,1,365.8561,194Z" fill="#c3ecfe"/></g><g><path d="M379.798,194l.8947,1.8129a.463.463,0,0,0,.3486.2533l2.0008.2907a.463.463,0,0,1,.2566.79l-1.4477,1.4112a.4629.4629,0,0,0-.1332.41l.3418,1.9926a.4631.4631,0,0,1-.6719.4881l-1.7895-.9408a.4631.4631,0,0,0-.4309,0l-1.79.9408a.4631.4631,0,0,1-.6719-.4881l.3418-1.9926a.4629.4629,0,0,0-.1332-.41l-1.4477-1.4112a.463.463,0,0,1,.2566-.79l2.0007-.2907a.4631.4631,0,0,0,.3487-.2533L378.9675,194A.4631.4631,0,0,1,379.798,194Z" fill="#c3ecfe"/></g><g><path d="M393.74,194l.8947,1.8129a.4628.4628,0,0,0,.3486.2533l2.0008.2907a.463.463,0,0,1,.2566.79l-1.4478,1.4112a.4631.4631,0,0,0-.1331.41l.3417,1.9926a.463.463,0,0,1-.6718.4881l-1.79-.9408a.4631.4631,0,0,0-.4309,0l-1.7895.9408a.463.463,0,0,1-.6719-.4881l.3418-1.9926a.4634.4634,0,0,0-.1332-.41l-1.4477-1.4112a.463.463,0,0,1,.2566-.79l2.0007-.2907a.4631.4631,0,0,0,.3487-.2533L392.9094,194A.4631.4631,0,0,1,393.74,194Z" fill="#69b9f4"/></g><g><path d="M407.6817,194l.8948,1.8129a.4628.4628,0,0,0,.3486.2533l2.0008.2907a.4631.4631,0,0,1,.2566.79l-1.4478,1.4112a.4631.4631,0,0,0-.1331.41l.3417,1.9926a.463.463,0,0,1-.6718.4881l-1.7895-.9408a.4631.4631,0,0,0-.4309,0l-1.79.9408a.463.463,0,0,1-.6719-.4881l.3418-1.9926a.4634.4634,0,0,0-.1332-.41l-1.4477-1.4112a.463.463,0,0,1,.2566-.79l2.0007-.2907a.4631.4631,0,0,0,.3487-.2533L406.8513,194A.463.463,0,0,1,407.6817,194Z" fill="#69b9f4"/></g><g><circle cx="379.383" cy="145.101" fill="#c3ecfe" r="23.733"/></g><g><path d="M379.3827,168.8339a23.6859,23.6859,0,0,0,18.7132-9.145,19.67,19.67,0,0,0-37.4264,0A23.686,23.686,0,0,0,379.3827,168.8339Z" fill="#69b9f4"/></g><g><circle cx="379.383" cy="136.436" fill="#69b9f4" r="6.418"/></g><g><circle cx="395.136" cy="160.854" fill="#c3ecfe" r="7.98"/></g><g><path d="M396.0571,160.8537l2.1314-2.1314a.6515.6515,0,1,0-.9214-.9213l-2.1314,2.1314-2.1313-2.1314a.6515.6515,0,1,0-.9214.9213l2.1314,2.1314-2.1314,2.1314a.6515.6515,0,1,0,.9214.9213l2.1313-2.1314,2.1314,2.1314a.6515.6515,0,0,0,.9214-.9213Z" fill="#69b9f4"/></g><g><path d="M327.6615,109.1637a5.6206,5.6206,0,0,0-5.6207,5.6207V282.8905a5.6207,5.6207,0,0,0,5.6207,5.6207H347.583V109.1637Z" fill="#88d2ff" opacity=".6" style="mix-blend-mode:multiply"/></g></g><g data-name="Applicant"><g><rect fill="#88d2ff" height="179.347" rx="3.87" width="114.684" x="77.405" y="109.164"/></g><g><circle cx="134.747" cy="145.101" fill="#c3ecfe" r="23.733"/></g><g><path d="M134.7473,168.8339a23.686,23.686,0,0,0,18.7132-9.145,19.67,19.67,0,0,0-37.4264,0A23.6859,23.6859,0,0,0,134.7473,168.8339Z" fill="#69b9f4"/></g><g><circle cx="134.747" cy="136.436" fill="#69b9f4" r="6.418"/></g><g><rect fill="#69b9f4" height="4.438" rx="1.528" width="40.686" x="114.404" y="175.273"/></g><g><rect fill="#69b9f4" height="2.836" rx=".976" width="25.999" x="121.748" y="183.975"/></g><g><rect fill="#69b9f4" height="2.982" rx="1.027" width="83.823" x="92.836" y="208.432"/></g><g><rect fill="#69b9f4" height="2.982" rx="1.027" width="70.378" x="99.558" y="216.841"/></g><g><rect fill="#69b9f4" height="2.982" rx="1.027" width="56.933" x="106.281" y="225.25"/></g><g><rect fill="#69b9f4" height="2.982" rx="1.027" width="83.823" x="92.836" y="241.678"/></g><g><path d="M133.5135,243.1693a1.4913,1.4913,0,0,0-1.4913-1.4913H94.3271a1.4913,1.4913,0,0,0,0,2.9826h37.6951A1.4913,1.4913,0,0,0,133.5135,243.1693Z" fill="#c3ecfe"/></g><g><rect fill="#69b9f4" height="2.982" rx="1.027" width="83.823" x="92.836" y="249.526"/></g><g><path d="M129.045,251.0177a1.4913,1.4913,0,0,0-1.4913-1.4913H94.3271a1.4913,1.4913,0,0,0,0,2.9826h33.2266A1.4913,1.4913,0,0,0,129.045,251.0177Z" fill="#c3ecfe"/></g><g><rect fill="#69b9f4" height="2.982" rx="1.027" width="83.823" x="92.836" y="257.935"/></g><g><path d="M124.1446,259.4267a1.4913,1.4913,0,0,0-1.4913-1.4913H94.3271a1.4913,1.4913,0,1,0,0,2.9826h28.3262A1.4913,1.4913,0,0,0,124.1446,259.4267Z" fill="#c3ecfe"/></g><g><path d="M107.2787,194l.8948,1.8129a.4628.4628,0,0,0,.3486.2533l2.0007.2907a.4631.4631,0,0,1,.2567.79l-1.4478,1.4112a.4631.4631,0,0,0-.1331.41l.3417,1.9926a.463.463,0,0,1-.6718.4881l-1.79-.9408a.4633.4633,0,0,0-.431,0l-1.7895.9408a.463.463,0,0,1-.6718-.4881l.3418-1.9926a.4634.4634,0,0,0-.1332-.41l-1.4477-1.4112a.463.463,0,0,1,.2566-.79l2.0007-.2907a.4628.4628,0,0,0,.3486-.2533L106.4483,194A.463.463,0,0,1,107.2787,194Z" fill="#c3ecfe"/></g><g><path d="M121.2206,194l.8948,1.8129a.4628.4628,0,0,0,.3486.2533l2.0007.2907a.4631.4631,0,0,1,.2567.79l-1.4478,1.4112a.4631.4631,0,0,0-.1331.41l.3417,1.9926a.463.463,0,0,1-.6718.4881l-1.79-.9408a.4633.4633,0,0,0-.431,0l-1.79.9408a.463.463,0,0,1-.6718-.4881l.3418-1.9926a.4634.4634,0,0,0-.1332-.41l-1.4477-1.4112a.463.463,0,0,1,.2566-.79l2.0007-.2907a.4628.4628,0,0,0,.3486-.2533L120.39,194A.463.463,0,0,1,121.2206,194Z" fill="#c3ecfe"/></g><g><path d="M135.1625,194l.8948,1.8129a.4628.4628,0,0,0,.3486.2533l2.0007.2907a.463.463,0,0,1,.2566.79l-1.4477,1.4112a.4634.4634,0,0,0-.1332.41l.3418,1.9926a.463.463,0,0,1-.6718.4881l-1.79-.9408a.4633.4633,0,0,0-.431,0l-1.79.9408a.463.463,0,0,1-.6718-.4881l.3418-1.9926a.4634.4634,0,0,0-.1332-.41l-1.4478-1.4112a.4631.4631,0,0,1,.2567-.79l2.0007-.2907a.4628.4628,0,0,0,.3486-.2533L134.3321,194A.463.463,0,0,1,135.1625,194Z" fill="#69b9f4"/></g><g><path d="M149.1044,194l.8948,1.8129a.4628.4628,0,0,0,.3486.2533l2.0007.2907a.463.463,0,0,1,.2566.79l-1.4477,1.4112a.4634.4634,0,0,0-.1332.41l.3418,1.9926a.463.463,0,0,1-.6718.4881l-1.79-.9408a.4633.4633,0,0,0-.431,0l-1.79.9408a.463.463,0,0,1-.6718-.4881l.3417-1.9926a.4631.4631,0,0,0-.1331-.41l-1.4478-1.4112a.4631.4631,0,0,1,.2567-.79l2.0007-.2907a.4628.4628,0,0,0,.3486-.2533L148.274,194A.463.463,0,0,1,149.1044,194Z" fill="#69b9f4"/></g><g><path d="M163.0463,194l.8948,1.8129a.4628.4628,0,0,0,.3486.2533l2.0007.2907a.463.463,0,0,1,.2566.79l-1.4477,1.4112a.4634.4634,0,0,0-.1332.41l.3418,1.9926a.463.463,0,0,1-.6718.4881l-1.79-.9408a.4631.4631,0,0,0-.4309,0l-1.79.9408a.463.463,0,0,1-.6718-.4881l.3417-1.9926a.4631.4631,0,0,0-.1331-.41l-1.4478-1.4112a.4631.4631,0,0,1,.2566-.79l2.0008-.2907a.4628.4628,0,0,0,.3486-.2533L162.2159,194A.463.463,0,0,1,163.0463,194Z" fill="#69b9f4"/></g><g><circle cx="150.5" cy="160.854" fill="#c3ecfe" r="7.98"/></g><g><path d="M151.4216,160.8537l2.1314-2.1314a.6515.6515,0,1,0-.9213-.9213L150.5,159.9324l-2.1314-2.1314a.6515.6515,0,0,0-.9213.9213l2.1314,2.1314-2.1314,2.1314a.6515.6515,0,1,0,.9213.9213L150.5,161.775l2.1314,2.1314a.6515.6515,0,0,0,.9213-.9213Z" fill="#69b9f4"/></g><g><path d="M186.4686,109.1637a5.6207,5.6207,0,0,1,5.6207,5.6207V282.8905a5.6207,5.6207,0,0,1-5.6207,5.6207H166.547V109.1637Z" fill="#88d2ff" opacity=".6" style="mix-blend-mode:multiply"/></g></g><g><g data-name="Applicant"><rect fill="url(#a)" height="227.359" rx="4.906" width="145.385" x="184.354" y="85.158"/><g data-name="Applicant"><g><circle cx="257.046" cy="130.715" fill="#c3ecfe" r="35.631"/></g><g><path d="M292.06,137.2976a35.531,35.531,0,0,0-.4017-15.0408A24.1642,24.1642,0,0,1,251.5416,95.509a35.41,35.41,0,0,0-14.0385,5.418A35.6236,35.6236,0,0,0,292.06,137.2976Z" fill="#c3ecfe" opacity=".8" style="mix-blend-mode:multiply"/></g><g clip-path="url(#m)"><path d="M236.6,244.83a14.1312,14.1312,0,0,0,1.8217,5.8221c1.5513,2.2972,2.6253,3.1027,2.5955,4.0872s-.4177,1.1933-.6265,1.074-4.2065-5.4765-4.2065-5.4765Z" fill="url(#j)"/><path d="M232.44,233.5441s.5649,8.1173,1.0864,11.6805,3.8863,10.8279,5.0655,10.8884.786-1.1791.6349-1.6628a26.9974,26.9974,0,0,1-2.4187-6.7119c-.514-3.2048-.0809-5.0513.8538-5.7352l1.7506,1.345a6.4709,6.4709,0,0,0,.3694,2.12,1.63,1.63,0,0,0,1.3906.6839c.2193-.0913.1886-2.1171.2386-3.3984a3.4444,3.4444,0,0,0-.3047-1.5669L238.05,234.48Z" fill="url(#d)"/><path d="M238.05,234.48l-5.61-.9362s.0984,1.41.25,3.3055h6.44Z" fill="url(#e)"/><path d="M251.4032,143.8361l-3.3895,13.2832L243.589,209.437l-3.0413,25.0457h-9.0144l1.5391-79.1773a7.6615,7.6615,0,0,1,5.24-7.1179l2.904-.9619Z" fill="url(#n)"/><path d="M288.4681,358.4749h-1.9908a1.2072,1.2072,0,0,1-1.0812-.67l-.79-1.5911a.2347.2347,0,0,0-.3977-.0368l-.4287.5688a4.3427,4.3427,0,0,1-3.4684,1.7294H264.0178a4.6993,4.6993,0,0,1-3.7762-1.8836,3.15,3.15,0,0,1-.273-.4432,1.2742,1.2742,0,0,1,.962-1.8138,27.0283,27.0283,0,0,0,8.8677-3.133,66.9643,66.9643,0,0,0,10.3883-7.2738l7.4936.3664,2.7025,11.7809A1.9608,1.9608,0,0,1,288.4681,358.4749Z" fill="url(#b)"/><g><path d="M288.698,348.7308l-1.0178-4.437-7.4936-.3664a67.4319,67.4319,0,0,1-6.3567,4.8034Z" fill="#1d164d"/></g><path d="M255.489,358.4749h-1.9907a1.207,1.207,0,0,1-1.0812-.67l-.79-1.5911a.2347.2347,0,0,0-.3977-.0368l-.4286.5688a4.3431,4.3431,0,0,1-3.4685,1.7294H231.0387a4.6993,4.6993,0,0,1-3.7762-1.8836,3.15,3.15,0,0,1-.273-.4432,1.2743,1.2743,0,0,1,.962-1.8138,27.0275,27.0275,0,0,0,8.8677-3.133,66.9623,66.9623,0,0,0,10.3884-7.2738l7.4935.3664,2.7025,11.7809A1.9608,1.9608,0,0,1,255.489,358.4749Z" fill="url(#o)"/><g><path d="M255.7189,348.7308l-1.0178-4.437-7.4935-.3664a67.4424,67.4424,0,0,1-6.3568,4.8034Z" fill="#1d164d"/></g><path d="M242.982 214.376L244.559 344.97 255.684 344.97 269.271 213.915 242.982 214.376z" fill="url(#p)"/><path d="M269.1808,214.7817l-26.1984-.4053.0965,7.99h0s10.3916-2.1781,15.2064,8.91,3.9543,50.4582,3.9543,50.46Z" fill="url(#g)"/><path d="M285.7278,214.3764a41.3239,41.3239,0,0,1,2.64,11.4435c.7663,7.2413,0,14.2659,0,18.8077V344.9705h-11.308L260.653,213.33Z" fill="url(#q)"/><g><path d="M242.982 208.774H285.727V214.376H242.982z" fill="#6b6ba0"/></g><g><path d="M256.699 208.774H265.796V214.376H256.699z" fill="#8e8ec1"/></g><path d="M287.5337,147.1431v59.8112a2.4866,2.4866,0,0,1-2.4918,2.4827H243.589a2.4879,2.4879,0,0,1-2.3726-2.4827V147.2256l10.1868-3.3895,2.4-.1741,12.8893-1.8688,2.6933.8519,17.3507,4.269C287.0023,146.9783,287.268,147.0515,287.5337,147.1431Z" fill="url(#r)"/><g><path d="M276.097 157.563L287.534 195.283 287.534 168.964 276.097 157.563z" fill="#dcf5ff"/></g><path d="M258.477 152.399L252.892 212.605 257.93 217.372 263.455 213.147 259.534 152.337 258.477 152.399z" fill="url(#c)"/><path d="M256.3407,150.2351l2.1368,2.1635a.7043.7043,0,0,0,1.0561-.0612l2.5566-3.27a.7045.7045,0,0,0-.0963-.9684l-2.97-2.5487a.7044.7044,0,0,0-1.0959.2341l-1.7234,3.6559A.7043.7043,0,0,0,256.3407,150.2351Z" fill="url(#s)"/><path d="M292.5868,207.45,286.75,164.0643a1.34,1.34,0,0,0-1.51-1.1492l-31.6825,4.34a1.34,1.34,0,0,0-1.1465,1.5065l5.84,43.4067a1.34,1.34,0,0,0,1.5111,1.1491l31.68-4.3609A1.34,1.34,0,0,0,292.5868,207.45Z" fill="url(#i)"/><path d="M280.0966,204.0007c-6.6419,5.418-18.0444,6.0558-22.1239,6.1031l.2777,2.0644a1.34,1.34,0,0,0,1.5111,1.149l31.68-4.3608a1.34,1.34,0,0,0,1.1456-1.5065L290.3,190.4516l-21.2887,4.8309S288.2893,197.3177,280.0966,204.0007Z" fill="url(#k)"/><g><path d="M267.7077,177.8091l-9.7262,1.3364a1.3837,1.3837,0,0,1-1.56-1.1865l-.9139-6.802a1.3837,1.3837,0,0,1,1.184-1.5552l9.7263-1.3292a1.3836,1.3836,0,0,1,1.5586,1.1865l.9138,6.7948A1.3836,1.3836,0,0,1,267.7077,177.8091Z" fill="#f0811c"/></g><path d="M306.2218,195.2834H265.795l.229-6.99,21.51-2.3177,7.7958-.8428-7.7958-11.1763-20.841-29.8735,2.6933-1.4383,17.3507,4.269c.2656.0642.5313.1374.797.229a12.3014,12.3014,0,0,1,7.3653,6.3668l16.38,33.6936A5.6259,5.6259,0,0,1,306.2218,195.2834Z" fill="url(#t)"/><g><path d="M269.011 187.975L266.028 188.297 265.795 195.282 269.011 195.282 269.011 187.975z" fill="#aad9e8"/></g><g><circle cx="267.403" cy="193.036" fill="#fff" r=".553"/></g><g><path d="M252.59 141.603L261.731 135.628 268.411 140.557 258.998 147.317 252.59 141.603z" fill="#77b9c9"/></g><path d="M246.6506,125.6226a23.4019,23.4019,0,0,1-3.3993-10.6975c-.3-6.0486,3.2493-9.0979,9.6478-9.3478s11.2474,2.9993,11.3474,4.5489c0,0,2.8993-.8,3.1492,2.05s-.572,5.9263,0,9.8235c.3258,2.2191.7042,4.0342.97,5.186a1.7715,1.7715,0,0,1-.9463,1.9915l-1.9111.9365Z" fill="url(#u)"/><path d="M266.693 141.793L259.978 146.612 258.998 147.317 253.803 142.682 253.803 136.874 266.5 123.572 266.674 140.676 266.693 141.793z" fill="url(#v)"/><path d="M266.5136,124.8883h0l-.0137-1.314L253.8048,136.87v6.7918S264.472,140.1052,266.5136,124.8883Z" fill="url(#w)"/><path d="M266.0328,125.3737s2.2715-1.941,1.8378-4.2744-3.0768-1.5281-3.7582.1239-.0206,3.6136-.6195,3.6343-1.7965-1.5487-2.1475-3.0561a13.8551,13.8551,0,0,1-.2272-3.4072,13.5286,13.5286,0,0,1-8.57,2.354c-4.8733-.4336-7.0415-2.6638-7.0415-2.6638s1.1783,11.97,1.8525,14.7959,2.5409,4.8745,4.9263,4.8485,6.6116-1.9446,9.6452-5.4708A22.0215,22.0215,0,0,0,266.0328,125.3737Z" fill="url(#x)"/><g><path d="M252.59 141.603L258.285 146.685 255.438 151.624 251.4 143.838 252.59 141.603z" fill="#dcf5ff"/></g><g><path d="M259.98 146.613L262.935 151.624 269.388 142.648 268.411 140.557 259.98 146.613z" fill="#dcf5ff"/></g><g><path d="M231.598 231.276L231.536 234.48 240.552 234.48 240.823 231.276 231.598 231.276z" fill="#77b9c9"/></g><g><circle cx="239.029" cy="232.878" fill="#fff" r=".666"/></g><path d="M258.8785,192.6451v2.8032c-.66-.0183-1.2275-.0458-1.6215-.0641-1.74-.0824-4.9926-.7145-5.3224-1.4841-.2474-.5954.3389-1.1084.6321-1.3191a1.377,1.377,0,0,1,.1465-.1008Z" fill="url(#y)"/><path d="M258.8785,190.7488v2.2627c-1.6581-.0733-3.0872-.1374-3.5544-.1466a14.2987,14.2987,0,0,1-2.7574-.2839c-.6779-.1649-1.2-.4306-1.2826-.8428a1.173,1.173,0,0,1,.6963-1.3192h.0549Z" fill="url(#z)"/><g><path d="M255.9533,193.1148c-.281-.0108-.4983-.0184-.6334-.0211a13.9726,13.9726,0,0,1-2.8073-.29,4.6325,4.6325,0,0,1-.501-.1517l.161-.4294a3.9462,3.9462,0,0,0,.4482.136,13.551,13.551,0,0,0,2.7089.2769c.136.0027.357.01.6414.021Z" fill="#ff9c85"/></g><path d="M258.8785,189.3014v1.9146c-2.8765-.2932-5.6339-.5771-5.982-.65-.2474-.055-.5588-.0825-.8612-.1466-.65-.1007-1.31-.3023-1.4016-.9436a1.3672,1.3672,0,0,1,.7695-1.3558c.0642.0092.1283.0184.2107.0366.1649.0276.3573.0551.5955.0917.229.0458.4947.0824.7878.1283.1466.0274.3023.0549.4672.0732.55.0916,1.1727.1924,1.8414.2932q.4122.0687.8519.1374Z" fill="url(#A)"/><g><path d="M256.06,191.1565c-2.0084-.2094-2.9987-.3226-3.2108-.3668-.1189-.0264-.25-.0457-.3882-.0662-.1539-.0229-.3149-.047-.4724-.0806a3.7331,3.7331,0,0,1-.66-.1543l.15-.433a3.3251,3.3251,0,0,0,.5922.1369c.162.034.3131.0564.4572.0778.1494.0224.2925.0434.4187.0716.28.059,2.4485.2849,3.1615.3592Z" fill="#ff9c85"/></g><path d="M251.8786,186.4673l3.986-1.1395a2.55,2.55,0,0,1,1.8148.1578l6.2732,3.0449S253.0591,188.1505,251.8786,186.4673Z" fill="url(#B)"/><path d="M258.8785,187.5059v1.8046c-.9252-.1465-1.85-.2931-2.7208-.43q-.44-.0687-.8519-.1374c-.6687-.1008-1.2917-.2016-1.8414-.2932-.1649-.0183-.3206-.0458-.4672-.0732-.2931-.0459-.5588-.0825-.7878-.1283-.2382-.0366-.4306-.0641-.5955-.0917-.0824-.0182-.1465-.0274-.2107-.0366-1.9146-.33-1.0168-1.823-.6412-1.7588.3847.0641,3.2979.229,6.01.7328C257.34,187.2035,258.0724,187.341,258.8785,187.5059Z" fill="url(#C)"/><g><path d="M256.1214,189.106l-1.0932-.1731c-.5618-.0886-1.12-.1767-1.6022-.2577-.1575-.0174-.3194-.0456-.4715-.0742l-.2031-.0309c-.2147-.0326-.4115-.0626-.5868-.0975l-.5878-.09c-.0877-.0193-.1458-.0278-.2049-.0358a2.7868,2.7868,0,0,1-.5761-.1566l.1718-.4249a2.3089,2.3089,0,0,0,.475.1288c.0617.0089.1306.0192.221.0389l.5806.089c.1789.0354.3695.064.5761.0953l.212.0327c.1494.0281.2988.0545.4572.072.4929.0827,1.05.17,1.61.2585l1.095.174Z" fill="#ff9c85"/></g><path d="M265.8132,194.6421c-1.2458.8245-4.6536.87-6.9347.8062v-7.9424c3.0414.6046,7.1271,1.4474,7.1271,1.4474Z" fill="url(#D)"/><path d="M262.9174,195.3586a6.98,6.98,0,0,0,2.8958-.7165l.1924-5.6888s-1.1463-.2365-2.6727-.548Z" fill="url(#E)"/><g><circle cx="248.934" cy="124.197" fill="#1d164d" r=".563"/></g><g><circle cx="254.106" cy="123.9" fill="#1d164d" r=".563"/></g><g><path d="M249.6686,122.6026a.3429.3429,0,0,1-.2335-.0913.94.94,0,0,0-1.4081-.0161.3437.3437,0,0,1-.501-.4705,1.62,1.62,0,0,1,2.3752-.0179.3433.3433,0,0,1-.2326.5958Z" fill="#1d164d"/></g><g><path d="M252.9912,122.7873a.339.339,0,0,1-.2-.0648.3429.3429,0,0,1-.0787-.48,1.62,1.62,0,0,1,2.3313-.4571.3436.3436,0,0,1-.3972.5609.9373.9373,0,0,0-1.3759.2979A.3438.3438,0,0,1,252.9912,122.7873Z" fill="#1d164d"/></g><g><path d="M252.59,130.7154a.3539.3539,0,0,1-.0608-.0054l-1.7535-.3144a.8385.8385,0,0,1-.6844-.9492l.8848-6.1581a.3348.3348,0,0,1,.3892-.2912.3429.3429,0,0,1,.2907.3887l-.8847,6.1585a.155.155,0,0,0,.1261.1749l1.7534.3145a.3436.3436,0,0,1-.0608.6817Z" fill="#ff9c85"/></g><g><path d="M254.0012,132.7913a2.6925,2.6925,0,0,1-.5251-.0487.3435.3435,0,0,1-.2684-.4035.3381.3381,0,0,1,.4035-.27,1.87,1.87,0,0,0,2.04-.9116.3439.3439,0,0,1,.6262.2845A2.39,2.39,0,0,1,254.0012,132.7913Z" fill="#ff9c85"/></g><g><path d="M240.758 158.853H241.674V206.955H240.758z" fill="#aad9e8"/></g></g><circle cx="280.697" cy="154.366" fill="url(#f)" r="11.981"/><g><path d="M278.88,159.3725a1.37,1.37,0,0,1-.9716-.4025l-3.633-3.6331a1.374,1.374,0,1,1,1.9431-1.9431l2.6615,2.6615,6.2945-6.2945a1.374,1.374,0,1,1,1.9431,1.9431l-7.2661,7.2661A1.37,1.37,0,0,1,278.88,159.3725Z" fill="#fff"/></g></g><g><rect fill="#88d2ff" height="5.626" rx="1.937" width="51.578" x="231.257" y="168.964"/></g><g><rect fill="#88d2ff" height="3.595" rx="1.238" width="32.959" x="240.567" y="179.997"/></g><g><rect fill="#c3ecfe" height="3.781" rx="1.302" width="106.262" x="203.915" y="211.001"/></g><g><rect fill="#c3ecfe" height="3.781" rx="1.302" width="89.218" x="212.437" y="221.661"/></g><g><rect fill="#c3ecfe" height="3.781" rx="1.302" width="72.174" x="220.959" y="232.321"/></g><g><rect fill="#c3ecfe" height="3.781" rx="1.302" width="106.262" x="203.915" y="253.146"/></g><g><path d="M294.7067,255.0369a1.89,1.89,0,0,0-1.8905-1.8905H205.8056a1.8905,1.8905,0,0,0,0,3.781h87.0106A1.89,1.89,0,0,0,294.7067,255.0369Z" fill="#fec957"/></g><g><rect fill="#c3ecfe" height="3.781" rx="1.302" width="106.262" x="203.915" y="263.096"/></g><g><path d="M279.236,264.9863a1.89,1.89,0,0,0-1.89-1.89h-71.54a1.89,1.89,0,0,0,0,3.7809h71.54A1.8906,1.8906,0,0,0,279.236,264.9863Z" fill="#fec957"/></g><g><rect fill="#c3ecfe" height="3.781" rx="1.302" width="106.262" x="203.915" y="273.756"/></g><g><path d="M302.4421,275.6464a1.89,1.89,0,0,0-1.89-1.8905h-94.746a1.8905,1.8905,0,0,0,0,3.781h94.746A1.89,1.89,0,0,0,302.4421,275.6464Z" fill="#fec957"/></g><g><path d="M222.2244,192.7045l1.1343,2.2983a.5872.5872,0,0,0,.442.3211l2.5363.3685a.587.587,0,0,1,.3253,1.0012l-1.8353,1.789a.5868.5868,0,0,0-.1688.52l.4332,2.526a.587.587,0,0,1-.8517.6188l-2.2685-1.1926a.587.587,0,0,0-.5463,0l-2.2686,1.1926a.587.587,0,0,1-.8517-.6188l.4333-2.526a.5871.5871,0,0,0-.1688-.52l-1.8353-1.789a.587.587,0,0,1,.3253-1.0012l2.5363-.3685a.5872.5872,0,0,0,.442-.3211l1.1343-2.2983A.5869.5869,0,0,1,222.2244,192.7045Z" fill="#fec957"/></g><g><path d="M239.8985,192.7045l1.1343,2.2983a.5872.5872,0,0,0,.442.3211l2.5363.3685a.587.587,0,0,1,.3253,1.0012l-1.8353,1.789a.5874.5874,0,0,0-.1688.52l.4333,2.526a.587.587,0,0,1-.8517.6188l-2.2686-1.1926a.587.587,0,0,0-.5463,0l-2.2685,1.1926a.587.587,0,0,1-.8517-.6188l.4332-2.526a.5868.5868,0,0,0-.1688-.52l-1.8353-1.789a.587.587,0,0,1,.3253-1.0012l2.5364-.3685a.5872.5872,0,0,0,.4419-.3211l1.1343-2.2983A.5869.5869,0,0,1,239.8985,192.7045Z" fill="#fec957"/></g><g><path d="M257.5727,192.7045l1.1343,2.2983a.587.587,0,0,0,.4419.3211l2.5363.3685a.587.587,0,0,1,.3254,1.0012l-1.8353,1.789a.5872.5872,0,0,0-.1689.52l.4333,2.526a.587.587,0,0,1-.8517.6188l-2.2685-1.1926a.587.587,0,0,0-.5463,0l-2.2686,1.1926a.587.587,0,0,1-.8517-.6188l.4333-2.526a.5874.5874,0,0,0-.1688-.52l-1.8353-1.789a.587.587,0,0,1,.3253-1.0012l2.5363-.3685a.5872.5872,0,0,0,.442-.3211l1.1342-2.2983A.587.587,0,0,1,257.5727,192.7045Z" fill="#fec957"/></g><g><path d="M275.2468,192.7045l1.1343,2.2983a.5872.5872,0,0,0,.442.3211l2.5363.3685a.587.587,0,0,1,.3253,1.0012l-1.8353,1.789a.5868.5868,0,0,0-.1688.52l.4332,2.526a.587.587,0,0,1-.8517.6188l-2.2685-1.1926a.587.587,0,0,0-.5463,0l-2.2686,1.1926a.587.587,0,0,1-.8517-.6188l.4333-2.526a.5871.5871,0,0,0-.1688-.52l-1.8353-1.789a.587.587,0,0,1,.3253-1.0012l2.5363-.3685a.5872.5872,0,0,0,.442-.3211l1.1343-2.2983A.5869.5869,0,0,1,275.2468,192.7045Z" fill="#fec957"/></g><g><path d="M292.9209,192.7045l1.1343,2.2983a.5872.5872,0,0,0,.442.3211l2.5363.3685a.587.587,0,0,1,.3253,1.0012l-1.8353,1.789a.5871.5871,0,0,0-.1688.52l.4333,2.526a.587.587,0,0,1-.8517.6188l-2.2686-1.1926a.587.587,0,0,0-.5463,0l-2.2685,1.1926a.587.587,0,0,1-.8517-.6188l.4332-2.526a.5868.5868,0,0,0-.1688-.52l-1.8353-1.789a.587.587,0,0,1,.3253-1.0012l2.5364-.3685a.5872.5872,0,0,0,.4419-.3211l1.1343-2.2983A.5869.5869,0,0,1,292.9209,192.7045Z" fill="#c3ecfe"/></g><g><path d="M292.3946,192.3772a.58.58,0,0,0-.5264.3273l-1.1343,2.2982a.5871.5871,0,0,1-.4419.3212l-2.5364.3685a.587.587,0,0,0-.3253,1.0012l1.8353,1.789a.5869.5869,0,0,1,.1688.52l-.4332,2.5261a.587.587,0,0,0,.8517.6188l2.2685-1.1926a.5862.5862,0,0,1,.2732-.0675v-8.51Z" fill="#fec957"/></g></g><g><circle cx="281.27" cy="311.655" fill="url(#F)" r="17.728"/><g><path d="M271.2977,296.9979a17.7266,17.7266,0,0,0,27.6794,13.8444,17.7265,17.7265,0,0,0-27.6794-13.8444Z" fill="#fff" opacity=".2"/></g><g><path d="M283.3165,311.6554l4.7348-4.7348a1.4473,1.4473,0,1,0-2.0467-2.0468l-4.7349,4.7349-4.7348-4.7349a1.4473,1.4473,0,1,0-2.0468,2.0468l4.7349,4.7348-4.7349,4.7349a1.4473,1.4473,0,1,0,2.0468,2.0467l4.7348-4.7348,4.7349,4.7348a1.4472,1.4472,0,1,0,2.0467-2.0467Z" fill="#fff"/></g></g><g><g><circle cx="184.394" cy="198.837" fill="#c3ecfe" r="12.859"/></g><g><path d="M185.88,203.7777a.7714.7714,0,0,1-.5469-.2266L181.27,199.487a.7733.7733,0,0,1,0-1.0939l4.2692-4.2692a.7735.7735,0,0,1,1.0938,1.0939L182.91,198.94l3.5168,3.5172a.7736.7736,0,0,1-.5469,1.3205Z" fill="#69b9f4"/></g></g><g><g><circle cx="329.739" cy="198.837" fill="#c3ecfe" r="12.859"/></g><g><path d="M328.2526,203.7777a.7714.7714,0,0,0,.547-.2266l4.0637-4.0641a.7735.7735,0,0,0,0-1.0939l-4.2692-4.2692a.7735.7735,0,1,0-1.0938,1.0939l3.7222,3.7222-3.5168,3.5172a.7736.7736,0,0,0,.5469,1.3205Z" fill="#69b9f4"/></g></g><g fill="#1b227a"><path d="M270.6179,193.3241h86.29a3.49,3.49,0,0,1,3.49,3.49v3.1575a3.49,3.49,0,0,1-3.49,3.49h-86.29a0,0,0,0,1,0,0V193.3241a0,0,0,0,1,0,0Z" fill="inherit" transform="rotate(48.258 315.507 198.393)"/><path d="M221.2717,90.7611a53.7645,53.7645,0,1,0,75.9113,4.3233A53.7646,53.7646,0,0,0,221.2717,90.7611Zm64.8389,72.67a43.6269,43.6269,0,1,1,3.5081-61.5979A43.627,43.627,0,0,1,286.1106,163.4315Z" fill="inherit"/></g><g><circle cx="235.796" cy="311.655" fill="url(#G)" r="17.728"/><g><path d="M225.8235,296.9978a17.7265,17.7265,0,0,0,27.6794,13.8444,17.7266,17.7266,0,0,0-27.6794-13.8444Z" fill="#fff" opacity=".3"/></g><g><path d="M233.1078,318.4787a1.4427,1.4427,0,0,1-1.0233-.4241l-5.3762-5.3755a1.4472,1.4472,0,0,1,2.0467-2.0467l4.3528,4.3521,9.7284-9.7284a1.4473,1.4473,0,1,1,2.0468,2.0468l-10.7518,10.7517A1.4427,1.4427,0,0,1,233.1078,318.4787Z" fill="#fff"/></g></g></g></g><g data-name="Plant Decor"><g><path d="M348.9068,279.5749a13.52,13.52,0,0,0-10.8269-1.8094S343.1237,284.36,348.9068,279.5749Z" fill="#3e89cc"/></g><g><path d="M348.9068,279.5749s2.8826-7.1565,9.4973-7.8927C358.4041,271.6822,356.6387,280.5257,348.9068,279.5749Z" fill="#3e89cc"/></g><g><path d="M350.8856,285.946a13.52,13.52,0,0,0-10.8269-1.8094S345.1025,290.7309,350.8856,285.946Z" fill="#3e89cc"/></g><g><path d="M350.8856,285.946s2.8826-7.1566,9.4973-7.8927C360.3829,278.0533,358.6175,286.8968,350.8856,285.946Z" fill="#3e89cc"/></g><g><path d="M352.01,292.41a13.52,13.52,0,0,0-10.5823-2.9172S345.7641,296.5725,352.01,292.41Z" fill="#3e89cc"/></g><g><path d="M352.01,292.41s3.6059-6.8209,10.2612-6.87C362.2713,285.54,359.6026,294.1538,352.01,292.41Z" fill="#3e89cc"/></g><g><path d="M352.6732,298.7583a13.52,13.52,0,0,0-10.3337-3.7027S346.1326,302.4405,352.6732,298.7583Z" fill="#3e89cc"/></g><g><path d="M352.6732,298.7583s4.1073-6.5312,10.7476-6.0814C363.4208,292.6769,360.1135,301.0664,352.6732,298.7583Z" fill="#3e89cc"/></g><g><path d="M352.7987,305.1339a13.52,13.52,0,0,0-10.1565-4.1642S346.0989,308.5179,352.7987,305.1339Z" fill="#3e89cc"/></g><g><path d="M352.7987,305.1339s4.3972-6.34,11.01-5.5913C363.8092,299.5426,360.1276,307.7747,352.7987,305.1339Z" fill="#3e89cc"/></g><g><path d="M352.5987,311.0045a13.52,13.52,0,0,0-10.1566-4.1642S345.8989,314.3885,352.5987,311.0045Z" fill="#3e89cc"/></g><g><path d="M352.5987,311.0045s4.3972-6.34,11.01-5.5913C363.6092,305.4132,359.9275,313.6453,352.5987,311.0045Z" fill="#3e89cc"/></g><g><path d="M352.2765,311.5507l.707.0667a92.6484,92.6484,0,0,0,.0379-13.2117c-.4557-6.8568-1.9-16.5973-6.1888-24.0649l-.6163.3537C354.3046,288.7756,352.297,311.3248,352.2765,311.5507Z" fill="#1e5c9b"/></g><g><path d="M348.21,277.8778s2.3669-6.2995-4.3585-12.7327C343.8516,265.1451,340.034,272.17,348.21,277.8778Z" fill="#3e89cc"/></g><g><path d="M379.2084,299.9838a11.4676,11.4676,0,0,1,8.86,2.8606S381.6975,305.8435,379.2084,299.9838Z" fill="#69b9f4"/></g><g><path d="M379.2084,299.9838s.62-6.5146-4.0743-9.6493C375.1341,290.3345,373.0141,297.6838,379.2084,299.9838Z" fill="#69b9f4"/></g><g><path d="M375.2327,304.0105a11.4672,11.4672,0,0,1,8.86,2.8606S377.7219,309.87,375.2327,304.0105Z" fill="#69b9f4"/></g><g><path d="M375.2327,304.0105s.6206-6.5146-4.0743-9.6494C371.1584,294.3611,369.0384,301.71,375.2327,304.0105Z" fill="#69b9f4"/></g><g><path d="M371.8642,308.44a11.4674,11.4674,0,0,1,9.1083,1.9308S374.9449,314.0119,371.8642,308.44Z" fill="#69b9f4"/></g><g><path d="M371.8642,308.44s-.0551-6.5439-5.0484-9.1773C366.8158,299.2631,365.4656,306.7919,371.8642,308.44Z" fill="#69b9f4"/></g><g><path d="M368.8885,312.963a11.4674,11.4674,0,0,1,9.2274,1.2423S372.3783,318.2877,368.8885,312.963Z" fill="#69b9f4"/></g><g><path d="M368.8885,312.963s-.5458-6.5213-5.7225-8.7728C363.166,304.19,362.3842,311.7991,368.8885,312.963Z" fill="#69b9f4"/></g><g><path d="M366.3069,317.7159a11.4677,11.4677,0,0,1,9.274.8256S370.033,322.8782,366.3069,317.7159Z" fill="#69b9f4"/></g><g><path d="M366.3069,317.7159s-.8388-6.49-6.1117-8.5062C360.1952,309.21,359.7569,316.8461,366.3069,317.7159Z" fill="#69b9f4"/></g><g><path d="M364.1675,322.2155a11.4679,11.4679,0,0,1,9.2741.8256S367.8936,327.3778,364.1675,322.2155Z" fill="#69b9f4"/></g><g><path d="M364.1675,322.2155s-.8388-6.49-6.1117-8.5062C358.0558,313.7093,357.6175,321.3457,364.1675,322.2155Z" fill="#69b9f4"/></g><g><path d="M364.1972,322.7526l-.5592-.2257a78.6418,78.6418,0,0,1,5.1259-9.9652c3.0177-4.9861,7.9047-11.76,14.049-15.7108l.3256.5069C371.5564,304.8067,364.2691,322.574,364.1972,322.7526Z" fill="#3e89cc"/></g><g><path d="M380.3952,298.9773s.6745-5.6678,8.2494-7.89C388.6446,291.0876,388.78,297.8679,380.3952,298.9773Z" fill="#69b9f4"/></g><g><path d="M336.6723,335.3533s-7.852-5.7411-9.475-12.3184,5.7955-8.2,9.475-2.99c0,0-2.3509-12.3434,1.4076-20.564s10.79-5.0128,11.6443,1.4791a49.3522,49.3522,0,0,1-.0617,12.4222s5.8085-12.8982,11.7879-11.2753.94,16.7539.94,16.7539,5.04-3.8556,10.1648-.9513,4.0124,14.0821-2.9908,17.8465Z" fill="#fec957"/></g><g><path d="M166.1131,279.5749a13.52,13.52,0,0,1,10.8269-1.8094S171.8962,284.36,166.1131,279.5749Z" fill="#3e89cc"/></g><g><path d="M166.1131,279.5749s-2.8826-7.1565-9.4973-7.8927C156.6158,271.6822,158.3813,280.5257,166.1131,279.5749Z" fill="#3e89cc"/></g><g><path d="M164.1343,285.946a13.52,13.52,0,0,1,10.8269-1.8094S169.9174,290.7309,164.1343,285.946Z" fill="#3e89cc"/></g><g><path d="M164.1343,285.946s-2.8826-7.1566-9.4973-7.8927C154.637,278.0533,156.4024,286.8968,164.1343,285.946Z" fill="#3e89cc"/></g><g><path d="M163.01,292.41a13.52,13.52,0,0,1,10.5823-2.9172S169.2559,296.5725,163.01,292.41Z" fill="#3e89cc"/></g><g><path d="M163.01,292.41s-3.6059-6.8209-10.2612-6.87C152.7486,285.54,155.4173,294.1538,163.01,292.41Z" fill="#3e89cc"/></g><g><path d="M162.3467,298.7583a13.52,13.52,0,0,1,10.3337-3.7027S168.8873,302.4405,162.3467,298.7583Z" fill="#3e89cc"/></g><g><path d="M162.3467,298.7583s-4.1073-6.5312-10.7476-6.0814C151.5991,292.6769,154.9064,301.0664,162.3467,298.7583Z" fill="#3e89cc"/></g><g><path d="M162.2212,305.1339a13.52,13.52,0,0,1,10.1565-4.1642S168.921,308.5179,162.2212,305.1339Z" fill="#3e89cc"/></g><g><path d="M162.2212,305.1339s-4.3972-6.34-11.0105-5.5913C151.2107,299.5426,154.8924,307.7747,162.2212,305.1339Z" fill="#3e89cc"/></g><g><path d="M162.4212,311.0045a13.52,13.52,0,0,1,10.1566-4.1642S169.121,314.3885,162.4212,311.0045Z" fill="#3e89cc"/></g><g><path d="M162.4212,311.0045s-4.3971-6.34-11.0105-5.5913C151.4107,305.4132,155.0924,313.6453,162.4212,311.0045Z" fill="#3e89cc"/></g><g><path d="M162.7434,311.5507l-.707.0667a92.6484,92.6484,0,0,1-.0379-13.2117c.4557-6.8568,1.9-16.5973,6.1888-24.0649l.6163.3537C160.7153,288.7756,162.7229,311.3248,162.7434,311.5507Z" fill="#1e5c9b"/></g><g><path d="M166.81,277.8778s-2.3669-6.2995,4.3585-12.7327C171.1683,265.1451,174.986,272.17,166.81,277.8778Z" fill="#3e89cc"/></g><g><path d="M135.8116,299.9838a11.4678,11.4678,0,0,0-8.86,2.8606S133.3224,305.8435,135.8116,299.9838Z" fill="#69b9f4"/></g><g><path d="M135.8116,299.9838s-.6206-6.5146,4.0742-9.6493C139.8858,290.3345,142.0059,297.6838,135.8116,299.9838Z" fill="#69b9f4"/></g><g><path d="M139.7872,304.0105a11.4672,11.4672,0,0,0-8.86,2.8606S137.298,309.87,139.7872,304.0105Z" fill="#69b9f4"/></g><g><path d="M139.7872,304.0105s-.6205-6.5146,4.0743-9.6494C143.8615,294.3611,145.9815,301.71,139.7872,304.0105Z" fill="#69b9f4"/></g><g><path d="M143.1557,308.44a11.4674,11.4674,0,0,0-9.1083,1.9308S140.075,314.0119,143.1557,308.44Z" fill="#69b9f4"/></g><g><path d="M143.1557,308.44s.0551-6.5439,5.0484-9.1773C148.2041,299.2631,149.5543,306.7919,143.1557,308.44Z" fill="#69b9f4"/></g><g><path d="M146.1315,312.963a11.4677,11.4677,0,0,0-9.2275,1.2423S142.6416,318.2877,146.1315,312.963Z" fill="#69b9f4"/></g><g><path d="M146.1315,312.963s.5457-6.5213,5.7225-8.7728C151.854,304.19,152.6357,311.7991,146.1315,312.963Z" fill="#69b9f4"/></g><g><path d="M148.713,317.7159a11.4677,11.4677,0,0,0-9.274.8256S144.9869,322.8782,148.713,317.7159Z" fill="#69b9f4"/></g><g><path d="M148.713,317.7159s.8388-6.49,6.1117-8.5062C154.8247,309.21,155.263,316.8461,148.713,317.7159Z" fill="#69b9f4"/></g><g><path d="M150.8524,322.2155a11.4677,11.4677,0,0,0-9.274.8256S147.1263,327.3778,150.8524,322.2155Z" fill="#69b9f4"/></g><g><path d="M150.8524,322.2155s.8388-6.49,6.1117-8.5062C156.9641,313.7093,157.4024,321.3457,150.8524,322.2155Z" fill="#69b9f4"/></g><g><path d="M150.8227,322.7526l.5592-.2257a78.6418,78.6418,0,0,0-5.1259-9.9652c-3.0177-4.9861-7.9047-11.76-14.049-15.7108l-.3256.5069C143.4635,304.8067,150.7509,322.574,150.8227,322.7526Z" fill="#3e89cc"/></g><g><path d="M134.6248,298.9773s-.6746-5.6678-8.2495-7.89C126.3753,291.0876,126.24,297.8679,134.6248,298.9773Z" fill="#69b9f4"/></g><g><path d="M178.3476,335.3533s7.8521-5.7411,9.475-12.3184-5.7955-8.2-9.475-2.99c0,0,2.3509-12.3434-1.4076-20.564s-10.79-5.0128-11.6443,1.4791a49.3522,49.3522,0,0,0,.0617,12.4222s-5.8085-12.8982-11.7878-11.2753-.94,16.7539-.94,16.7539-5.04-3.8556-10.1648-.9513-4.0124,14.0821,2.9908,17.8465Z" fill="#fec957"/></g></g><g data-name="Person 3"><g><path d="M191.539 328.108L191.881 332.242 199.364 332.242 199.364 326.98 191.539 328.108z" fill="url(#H)"/><path d="M163.169 328.329L162.658 332.118 170.416 332.118 171.228 328.329 163.169 328.329z" fill="url(#I)"/><path d="M161.613,223.66s-.722,3.61.4443,13.884,4.3535,41.3717,4.3535,41.3717l-4.1349,50.2212h10.1582l8.99-45.98a50.2227,50.2227,0,0,0,.8387-6.5536l3.3051-53.6795Z" fill="url(#J)"/><path d="M185.5678,222.9233l-23.9548.7364s-.4541,2.3-.0532,8.41c.0315-.0067,11.2628-2.3946,15.2069,8.7517,3.95,11.1619,4.6573,42.3349,4.6573,42.3349a50.2249,50.2249,0,0,0,.8387-6.5536Z" fill="url(#K)"/><path d="M201.645 220.184L200.495 329.137 190.211 329.137 179.738 219.095 201.645 220.184z" fill="url(#L)"/><path d="M201.6452,220.1838l-21.9069-1.089,1.3854,14.5573A51.5564,51.5564,0,0,0,201.57,227.304Z" fill="url(#M)"/><path d="M186.3675,340.1068a3.5074,3.5074,0,0,1-1.42,1.4459,3.87,3.87,0,0,1-1.8969.4493H173.16a2.9127,2.9127,0,0,1-2.0925-.8866l-.5317-.5491a.2942.2942,0,0,0-.4629.0521l-.4773.7873a1.2383,1.2383,0,0,1-1.0588.5963H162.38a1.8339,1.8339,0,0,1-1.81-2.0808l1.16-8.3543a.9585.9585,0,0,1,.9515-.82h8.1227a1.7345,1.7345,0,0,1,1.1643.4522c1.6013,1.4508,7.0054,5.9643,13.6716,7.43A1.05,1.05,0,0,1,186.3675,340.1068Z" fill="url(#N)"/><path d="M214.9884,340.1068a3.5074,3.5074,0,0,1-1.42,1.4459,3.87,3.87,0,0,1-1.8969.4493h-9.8914a2.9127,2.9127,0,0,1-2.0925-.8866l-.5317-.5491a.2942.2942,0,0,0-.4629.0521l-.4773.7873a1.2383,1.2383,0,0,1-1.0588.5963H191.001a1.8339,1.8339,0,0,1-1.81-2.0808l1.16-8.3543a.9585.9585,0,0,1,.9515-.82h8.1227a1.7345,1.7345,0,0,1,1.1643.4522c1.6013,1.4508,7.0054,5.9643,13.6716,7.43A1.05,1.05,0,0,1,214.9884,340.1068Z" fill="url(#O)"/></g><g><path d="M178.514 146.583L170.976 146.583 174.156 160.466 185.902 160.466 184.123 152.175 178.514 146.583z" fill="url(#P)"/><path d="M178.5142,146.5831s.5419,5.1751,2.1767,8.0543a26.4608,26.4608,0,0,0,5.2106,5.8288l-1.7788-8.2907Z" fill="url(#Q)"/><path d="M178.5142,146.5831l.6953,3.8536a2.308,2.308,0,0,1-2.0435,2.7066l-3.7184.369a3.4073,3.4073,0,0,1-3.7381-3.1452c-.21-2.9235-.459-6.83-.4-8.184.0985-2.2658.5061-5.9049,2.2522-6.9027a2.7861,2.7861,0,0,1,3.0431,0s1.0512-3.8182,3.7211-3.8182,4.3665.6737,6.6122.2744a7.41,7.41,0,0,0,4.4414-2.37c.7486-.8983,2.82-.8484,2.7947.8983s-2.0461,3.119-1.9962,3.618.6488.4491,1.0979.2246,1.8464-.3743,1.3973,1.3224a7.0193,7.0193,0,0,1-3.5238,4.24C187.4082,140.57,178.5142,146.5831,178.5142,146.5831Z" fill="url(#R)"/><path d="M178.5142,146.5831s1.4645,3.8171,3.8171,5.3295,5.3775,2.0166,6.1458.5762.6241-6.986.6722-9.0506,0-3.769,0-3.769a12.9977,12.9977,0,0,1-8.8345.3361s.48,4.1291-.1921,4.4652-.5762-1.8965-2.0166-2.3766a1.7816,1.7816,0,0,0-2.3286,2.1606A3.1263,3.1263,0,0,0,178.5142,146.5831Z" fill="url(#S)"/><g><circle cx="187.172" cy="143.264" fill="#1d164d" r=".493"/></g><g><path d="M186.45,142.0373a.3057.3057,0,0,1-.2125-.5253,1.393,1.393,0,0,1,1.6688-.1325.3056.3056,0,0,1-.3072.5285.7781.7781,0,0,0-.9366.0433A.3053.3053,0,0,1,186.45,142.0373Z" fill="#c1888f"/></g><g><path d="M190.5814,146.5339l-1.4034-3.1062a.3055.3055,0,0,0-.5793.1942l-.1566,4.2273a.301.301,0,0,0-.0077.2611.3062.3062,0,0,0,.2777.1779.3029.3029,0,0,0,.1277-.0279l1.2419-.5714A.9411.9411,0,0,0,190.5814,146.5339Z" fill="#ff9c85"/></g><g><path d="M187.4157,149.95a.2731.2731,0,0,1-.0438-.0032,1.8522,1.8522,0,0,1-1.5593-1.3859.3056.3056,0,0,1,.5972-.1305,1.2471,1.2471,0,0,0,1.0489.9116.3056.3056,0,0,1-.043.608Z" fill="#ff9c85"/></g></g><g><g><g><path d="M220.3708,157.0068a2.2038,2.2038,0,1,1,2.2036-2.2036A2.2064,2.2064,0,0,1,220.3708,157.0068Zm0-3.6339a1.43,1.43,0,1,0,1.43,1.43A1.432,1.432,0,0,0,220.3708,153.3729Z" fill="#1389e6"/></g><path d="M197.8869,191.4219l6.9838-35.4173a1.69,1.69,0,0,1,1.8385-1.3537l26.5345,2.8434a1.69,1.69,0,0,1,1.4793,2.0025l-7.5035,38.69a1.69,1.69,0,0,1-2.0463,1.3236l-26.0148-6.1165A1.69,1.69,0,0,1,197.8869,191.4219Z" fill="url(#h)"/><path d="M207.036 157.02L200.281 191.274 225.066 197.102 232.314 159.729 207.036 157.02z" fill="url(#T)"/><path d="M214.5023,155.486l.0668-.3674a1.1932,1.1932,0,0,1,1.2763-.9752l9.3028.8009a1.1932,1.1932,0,0,1,1.0863,1.2937l-.0442.5Z" fill="url(#U)"/><g><path d="M209.198 162.048L209.523 160.398 228.635 162.446 228.295 164.203 209.198 162.048z" fill="#c3ecfe"/></g><g><path d="M208.448 166.235L208.773 164.585 227.886 166.633 227.545 168.39 208.448 166.235z" fill="#c3ecfe"/></g><g><path d="M207.698 170.422L208.024 168.772 227.136 170.82 226.795 172.577 207.698 170.422z" fill="#c3ecfe"/></g></g><path d="M172.2125,160.3186l.1752-2.3641a.7936.7936,0,0,1,.8565-.7324l12.3928,1.02a1.0777,1.0777,0,0,1,.9241.7048l.5541,1.52Z" fill="url(#V)"/><path d="M179.7383,159.3387l-11.3169,47.6036-4.0688,1.3614a4.721,4.721,0,0,1-6.1883-3.86c-1.284-9.762-3.7749-28.8375-3.9528-30.5393-.24-2.2819-.9591-5.2136.7272-7.38.8044-1.0288,2.746-2.1427,5.0666-3.1406a54.6089,54.6089,0,0,1,8.0526-2.6841A69.2252,69.2252,0,0,1,179.7383,159.3387Z" fill="url(#W)"/><path d="M202.3985,221.0185a58.2589,58.2589,0,0,1-21.017,5.0554.7594.7594,0,0,1-.72-.41l-1.1661-2.2332a.1712.1712,0,0,0-.3036,0l-1.1425,2.1912a1.1089,1.1089,0,0,1-.9745.5948,78.25,78.25,0,0,1-15.7085-1.4933.8469.8469,0,0,1-.6453-1.05c1.2636-4.8882,1.3184-15.1848,1.3184-15.1848v-.0077l-2.0344-45.0973a54.6089,54.6089,0,0,1,8.0526-2.6841,69.2252,69.2252,0,0,1,11.68-1.3615,67.6763,67.6763,0,0,1,10.7754,1.1294c.8508.1779,1.7559.3868,2.7.6343.789,5.1054,2.8,18.503,4.3164,32.6046.6265,5.7938,1.431,10.6594,2.2432,14.5812a87.4143,87.4143,0,0,0,3.1015,11.58A.9275.9275,0,0,1,202.3985,221.0185Z" fill="url(#X)"/><path d="M220.9292,177.981l-12.5545,27.8628a5.8423,5.8423,0,0,1-6.258,3.3727,5.66,5.66,0,0,1-2.3438-.9283,5.55,5.55,0,0,1-.8431-.6885,5.8331,5.8331,0,0,1-1.6477-3.1637l-5.964-34.5075a10.4171,10.4171,0,0,0-5.5385-7.5111l-6.0413-3.0787a67.6763,67.6763,0,0,1,10.7754,1.1294c.8508.1779,1.7559.3868,2.7.6343a69.2158,69.2158,0,0,1,7.0933,2.2433,9.3662,9.3662,0,0,1,6.0259,8.6094l.2476,16.5,8.8492-14.1093Z" fill="url(#Y)"/><path d="M197.282 204.436L191.318 169.929" fill="none" stroke="#6b6ba0" stroke-miterlimit="10"/><path d="M216.47,173.4232s1.2872-4.3323,1.8031-6.6366a2.2441,2.2441,0,0,1,.6175-1.1162l1.8241-1.7871a1.8422,1.8422,0,0,1,1.3759-.5243l1.4389.0678Z" fill="url(#Z)"/><path d="M220.2794,167.3371c-1.3451,2.151-2.8118,4.4973-3.4621,5.5379h0l-.6131.9564,4.1448,2.9351,4.4788-4.092a4.8061,4.8061,0,0,0,.5647-.6265Z" fill="url(#aa)"/><g><path d="M215.737 174.549L216.47 173.423 221.288 176.724 220.535 177.721 215.737 174.549z" fill="#fff"/></g><path d="M222.2065,165.7838a.7707.7707,0,0,1-.5609-.2409l-7.39-7.786a.7735.7735,0,0,1,1.1218-1.0652l7.39,7.786a.7735.7735,0,0,1-.5609,1.3061Z" fill="url(#ab)"/><g><path d="M219.7766,163.5738l1.869,1.9691a.7735.7735,0,1,0,1.1218-1.0652l-2.0224-2.1307Z" fill="#1d164d"/></g><path d="M224.4256,164.0341a36.55,36.55,0,0,1-2.7384,4.5948l-.1237-.1083-1.2841-1.1835c1.3692-2.1659,2.6146-4.1307,2.7848-4.355C223.4664,162.4716,224.7427,162.8738,224.4256,164.0341Z" fill="url(#ac)"/><path d="M227.1407,168.2035a10.32,10.32,0,0,1-1.3846,3.303,5.1131,5.1131,0,0,1-.3636.5415l-1.3-1.1913-.4022-.379,2.3516-3.1019a1.1484,1.1484,0,0,1,.2088-.031C226.576,167.3139,227.1562,167.3758,227.1407,168.2035Z" fill="url(#ad)"/><path d="M226.3362,166.7724a1.5591,1.5591,0,0,1-.0851.5724,10.7872,10.7872,0,0,1-1.5084,2.6069c-.1005.1392-.3326.4718-.65.905l-.4022-.379-.8354-.7658-.3636-.34,2.7925-3.8367s.0542.0154.1315.0464A1.5158,1.5158,0,0,1,226.3362,166.7724Z" fill="url(#ae)"/><path d="M225.4853,165.3337a1.1228,1.1228,0,0,1-.07.2475,31.1935,31.1935,0,0,1-2.56,4.1307l-.3636-.34-.8045-.7426-.1237-.1083,2.8621-4.4865A1.152,1.152,0,0,1,225.4853,165.3337Z" fill="url(#af)"/></g></g><g data-name="Person 2"><g><path d="M85.216 162.24L98.668 162.377 96.529 168.083 94.043 168.746 85.216 162.24z" data-name="Back Collar" fill="#77b9c9"/></g><g data-name="Head"><path d="M84.536 150.323L89.873 177.04 100.12 175.308 96.612 155.694 84.536 150.323z" fill="url(#ag)"/><path d="M96.612,155.6936l-11.6511-5.182a3.1906,3.1906,0,0,0-.1516.3147s2.4429,11.4311,13.1116,12.1851Z" fill="url(#ah)"/><path d="M86.198,148.9164s-.2355-2.7547-2.3642-3.1674-3.5038,3.33.9755,5.0773a16.4733,16.4733,0,0,0,6.4729,5.4884c4.627,2.3628,6.7251,2.0287,7.9358,1.2468s1.715-3.0014,1.6646-4.8174-.3279-7.0266-.3279-7.0266-3.2788-1.9271-4.6156-4.1971A22.5155,22.5155,0,0,1,86.198,148.9164Z" fill="url(#ai)"/><g><circle cx="94.061" cy="147.743" fill="#462b45" r=".528"/></g><g><circle cx="98.228" cy="147.402" fill="#462b45" r=".528"/></g><g><path d="M93.11,146.5289a.29.29,0,0,1-.1813-.516,1.9273,1.9273,0,0,1,1.8779-.2175.29.29,0,0,1-.2205.5363,1.3506,1.3506,0,0,0-1.2978.1367A.2914.2914,0,0,1,93.11,146.5289Z" fill="#462b45"/></g><g><path d="M97.3458,146.2252a.29.29,0,0,1-.236-.4582,1.3472,1.3472,0,0,1,1.6758-.3845.29.29,0,0,1-.2356.53.7628.7628,0,0,0-.9673.19A.29.29,0,0,1,97.3458,146.2252Z" fill="#462b45"/></g><g><path d="M96.36,152.321a.29.29,0,0,1-.1186-.5549l1.0988-.4925a.2543.2543,0,0,0,.1341-.318L95.8667,146.57a.29.29,0,0,1,.5447-.1994l1.6075,4.3851a.8357.8357,0,0,1-.4415,1.047l-1.0988.4926A.2887.2887,0,0,1,96.36,152.321Z" fill="#ff9c85"/></g><g><path d="M95.19,154.4569a1.6215,1.6215,0,0,1-1.6668-1.5286.29.29,0,0,1,.267-.3116.2946.2946,0,0,1,.3113.2655h0a1.0539,1.0539,0,0,0,1.1761.9923.2852.2852,0,0,1,.3041.2753.29.29,0,0,1-.2754.3041C95.2666,154.4557,95.228,154.4569,95.19,154.4569Z" fill="#e9687e"/></g></g><g data-name="Leg"><path d="M109.648,337.5387c-6.1187-1.3-6.4049-4.765-6.42-4.9894v-.0077l.17-.7271L97.96,279.415l-.5956-5.7242,15.3548-3.52-.2321,5.02L109.88,332.5339s4.92,2.3283,8.7719,4.1848C119.3714,338.5443,115.9678,338.8846,109.648,337.5387Z" fill="url(#aj)"/><path d="M112.719,270.1712l-.2321,5.02A47.6075,47.6075,0,0,1,97.96,279.415l-.5956-5.7242Z" fill="url(#ak)"/><path d="M82.3576,279.3764,67.4361,331.9073l.1237.6343v.0077c-.3094,1.609-1.6321,2.9317-3.6433,3.9451a23.9745,23.9745,0,0,1-7.7354,2.0963c-4.34.526-4.6954-.8741-4.5484-1.7173,3.9063-1.957,9.4217-4.6257,9.4217-4.6257l8.1066-55.8185.6421-4.4324H84.4539Z" fill="url(#al)"/><path d="M69.8031,271.9968H84.4539l-2.0963,7.38a68.6444,68.6444,0,0,1-13.1966-2.9472Z" fill="url(#am)"/><path d="M68.8916,339.4676l-1.3336-6.9255h0c-.6121,3.2157-5.3105,5.3169-11.38,6.0494-4.3372.5235-4.6929-.8764-4.5429-1.7183-1.48.743-2.7313,1.3855-3.3623,1.7427a5.2534,5.2534,0,0,0-.8864.6248,1.5041,1.5041,0,0,0,1.0061,2.6249H66.9112A2.0168,2.0168,0,0,0,68.8916,339.4676Z" fill="url(#an)"/><path d="M78.281,211.6062s-8.1725,16.7153-9.6351,30.4009-1.8441,30.5055-1.8441,30.5055,24.2008,5.4324,46.9754-1.4626V225.3591L104.8524,210.77Z" fill="url(#ao)"/><path d="M102.5425,210.843l5.5131,25.259,5.7216-3.8352v-6.9077l-8.699-14.22q-.85-.1755-1.7544-.3212Z" fill="url(#ap)"/><path d="M124.0514,339.7269a4.6294,4.6294,0,0,0-1.3463-1.02c-.7392-.3819-2.2826-1.1348-4.0506-1.9874.7186,1.8231-2.6871,2.1658-9.0071.8189s-6.4195-4.9957-6.4195-4.9961l-1.5346,6.6247a2.2767,2.2767,0,0,0,2.218,2.7906h19.0813A1.3607,1.3607,0,0,0,124.0514,339.7269Z" fill="url(#aq)"/><g><path d="M99.3975,265.597c-7.9231-8.7045-6.6287-22.8254-6.6147-22.9674l.5771.0574c-.0136.139-1.2808,14.0083,6.4667,22.52Z" fill="#6b6ba0"/></g></g><g data-name="Body"><path d="M137.15,171.4377a23.9139,23.9139,0,0,0,1.9979-4.3878c.5754-1.97.3983-3.74,0-4.2931s.3762-1.2836,1.4384-.6418c.7272.4393,1.2677,1.895,1.5363,2.77a.4915.4915,0,0,0,.7657.2521c1.8475-1.3793,7.5259-5.6032,7.8776-5.6773.4205-.0885.6639.5533.31,1.1508s-4.5785,4.6852-4.5785,4.6852,1.7681,2.6618.6616,4.5428-4.1641,2.7652-5.466,3.8058Z" fill="url(#ar)"/><g><path d="M136.517 172.844L137.15 171.438 142.162 173.626 141.174 175.85 136.517 172.844z" fill="#fff"/></g><path d="M94.043,168.7464l2.0812,4.8119a.2113.2113,0,0,0,.4052-.0839v-5.391l3.0252-4.4021a71.1128,71.1128,0,0,1,4.61,17.92c1.5484,11.1611,0,32.8381,0,32.8381s-7.0966,2.0645-13.2255,0c0,0-1.6774-43.9747-4.71-47.9868Z" fill="url(#as)"/><path d="M92.6534,210.7945l-5.4689,17.8841a3.2049,3.2049,0,0,1-2.4521,2.2124c-7.0083,1.3227-17.9306-.147-17.9306-.147a44.03,44.03,0,0,0,2.9935-6.59c.967-2.4754,1.9571-5.2369,2.8-7.6735,1.3228-3.8135,2.3052-6.8535,2.3052-6.8535s.7735-2.8.5415-15.0222a84.7516,84.7516,0,0,0-.7581-9.1432c-.8354-6.49-2.1814-13.1269-3.1174-17.3427,4.2081-2.1427,12.1987-3.8445,12.1987-3.8445l1.4079.8973a34.6692,34.6692,0,0,1,3.1715,3.8213,26.2749,26.2749,0,0,1,2.5449,4.3937C94.3552,181.06,92.6534,210.7945,92.6534,210.7945Z" fill="url(#at)"/><g><path d="M82.402,176.1567,73.6694,178.77c.3738,2.1775.7252,4.4421,1.0147,6.6912a84.7516,84.7516,0,0,1,.7581,9.1432c.2016,10.6168-.3555,14.1224-.5053,14.8605Z" fill="#1389e6"/></g><g><path d="M95.5408,222.2623a2.46,2.46,0,1,1,2.46-2.46A2.4629,2.4629,0,0,1,95.5408,222.2623Zm0-4.1464a1.6865,1.6865,0,1,0,1.6864,1.6864A1.6884,1.6884,0,0,0,95.5408,218.1159Z" fill="#f0811c"/></g><rect fill="url(#au)" height="25.36" rx="1.072" transform="rotate(-12.096 77.47 224.125)" width="34.421" x="60.259" y="211.445"/><path d="M93.0712,214.7948h0a1.5464,1.5464,0,0,1,1.8139,1.1458l1.9532,7.9511a1.5465,1.5465,0,0,1-1.0982,1.8618l-.3028.0818Z" fill="url(#av)"/><path d="M64.486 238.287L59.824 216.532 90.442 209.959 95.116 231.719 64.494 238.291 64.486 238.287z" fill="url(#aw)"/><g><path d="M87.203 213.028L88.66 212.715 92.359 229.936 90.966 230.236 87.203 213.028z" fill="#c3ecfe"/></g><g><path d="M83.651 213.801L85.108 213.488 88.807 230.709 87.414 231.008 83.651 213.801z" fill="#c3ecfe"/></g><g><path d="M80.099 214.573L81.556 214.261 85.255 231.482 83.862 231.781 80.099 214.573z" fill="#c3ecfe"/></g><g><path d="M76.547 215.346L78.003 215.033 81.702 232.254 80.309 232.553 76.547 215.346z" fill="#c3ecfe"/></g><path d="M74.6841,185.4611,61.1317,201.8137,72.5955,216.48l4.2854,5.4843L72.34,226.7371l-2.545-2.5836L51.3465,205.4493a4.7063,4.7063,0,0,1-.8123-5.5c3.3031-6.2889,10.7445-20.3673,12.6087-23.3377,2.4135-3.86,3.8058-5.8092,7.7586-8.13.2089-.1238.4254-.24.6652-.3636,4.2081-2.1427,12.1987-3.8445,12.1987-3.8445l1.4079.8973,4.1461,2.6455-.9746,1.1758Z" fill="url(#ax)"/><path d="M141.8581,175.3819l-9.4449,30.3769a4.7431,4.7431,0,0,1-8.3465,1.4l-14.21-19.3153-3.8832-5.2833s-3.4345-15.7956-6.42-18.882c0,0,2.6687.5647,5.4225,1.4233a21.23,21.23,0,0,1,4.7651,1.9957c2.893,1.8874,4.3008,4.9507,5.6081,7.3177,1.315,2.367,11.0848,19.7175,11.0848,19.7175l9.5145-21.5585Z" fill="url(#ay)"/><g><path d="M105.464,180.3516c.3223,1.3487.51,2.2087.51,2.2087l3.8832,5.2833,6.8914,9.3674h0l-7.1364-17.8078Z" fill="#1389e6"/></g><path d="M115.55,225.6928l-6.2734,5.0512s-5.4148-14.79-6.7685-20.0578c0,0,.2321-15.9581-.4486-24.3046a150.4587,150.4587,0,0,0-2.9317-18.1162l.4254-4.5871s2.6687.5647,5.4225,1.4233a32.8057,32.8057,0,0,0,2.1969,7.8282c2.6068,6.0026,3.6356,8.9421,2.6842,14.9138-.147.9205-.34,1.9029-.58,2.9858-1.8023,8.1222-1.9493,16.1747-1.199,21.0635C108.0777,211.8929,111.5664,221.2527,115.55,225.6928Z" fill="url(#az)"/><g><path d="M72.709 226.349L73.749 227.39 77.508 223.511 76.431 222.437 72.709 226.349z" fill="#fff"/></g><path d="M79.1245,237.6208s-.8357.5647-1.3772.0928a17.1626,17.1626,0,0,1-1.725-3.1638,9.2848,9.2848,0,0,1-.7039-2.2664l1.6863-.936.3791-.2089,1.6863,5.9268Z" fill="url(#aA)"/><path d="M81.1354,237.4661s-.0309.0541-.0851.1392a1.6458,1.6458,0,0,1-1.1139.75c-.5647.031-.8509-.6033-1.1061-1.2067-.0619-.17-.1315-.34-.2012-.4873-.1469-.3326-.8895-2.808-1.6244-5.3142l.3791-.2089.8972-.495.3172-.1779Z" fill="url(#aB)"/><path d="M82.8836,237.381a1.0251,1.0251,0,0,1-1.0056.673,1.3423,1.3423,0,0,1-.8277-.4487,4.2427,4.2427,0,0,1-.789-1.3305c-.17-.41-1.0752-3.0013-1.98-5.6313l.3172-.1779,1.0133-.5647.1315-.07Z" fill="url(#aC)"/><path d="M78.4985,225.3591s2.1793,2.8054,3.6935,4.3814c.6365.6626,1.1338,1.2487,1.4963,1.7055a2.9808,2.9808,0,0,1,.62,2.17l-.3244,3.046S78.5441,226.7563,78.4985,225.3591Z" fill="url(#aD)"/><path d="M84.4,237.4042a1.2788,1.2788,0,0,1-1.2841.2166.6223.6223,0,0,1-.232-.24,50.3636,50.3636,0,0,1-2.29-5.2833c-.1625-.3481-.5338-1.1835-.9825-2.1968l.1315-.07.8819-.4874c.9592,1.7946,1.8565,3.4732,2.1968,4.1307C83.6881,235.1532,84.6163,237.2263,84.4,237.4042Z" fill="url(#aE)"/><path d="M77.5075,223.5114s1.64,3.0555,3.1174,5.8325l-5.3065,2.94c-.4254-2.3361-1.2144-5.26-1.2144-5.26Z" fill="url(#aF)"/><g><path d="M85.216 162.24L94.043 168.746 90.893 173.388 83.766 164.271 85.216 162.24z" fill="#fff"/></g><g><path d="M96.529 168.083L99.762 170.528 99.555 163.681 98.668 162.377 96.529 168.083z" fill="#fff"/></g><g><path d="M79.0442,238.01a4.8641,4.8641,0,0,1-.3921-.7848c-.0634-.1745-.1307-.3384-.1979-.48-.0959-.2183-.4151-1.2359-.951-3.0292l.3709-.11c.6961,2.3312.8827,2.8668.9321,2.9786.0695.1465.142.3225.2059.4993a4.4986,4.4986,0,0,0,.3539.7116Z" fill="#ff9c85"/></g><g><path d="M81.8592,238.2467a1.5159,1.5159,0,0,1-.948-.5068,4.3579,4.3579,0,0,1-.8291-1.393c-.15-.36-.8128-2.2587-1.1947-3.3578l.3657-.1269c.647,1.8636,1.08,3.0805,1.1871,3.3389a4.0475,4.0475,0,0,0,.75,1.2706,1.142,1.142,0,0,0,.7067.39Z" fill="#ff9c85"/></g><g><path d="M83.0369,237.7973a.793.793,0,0,1-.3154-.3113,24.6239,24.6239,0,0,1-1.6834-3.774c-.2519-.6451-.4695-1.2011-.62-1.5342l.352-.16c.1553.343.3743.9035.6281,1.5532a24.7136,24.7136,0,0,0,1.643,3.6984c.0933.1428.144.1708.153.1745Z" fill="#ff9c85"/></g></g><path d="M106.2444,160.3753s-3.3416,1.547-6.32.5183a9.4584,9.4584,0,0,1-3.6434-2.808,4.1834,4.1834,0,0,0,2.9394-.526c1.2067-.7813,1.71-3.0013,1.6631-4.8192-.0541-1.81-.3326-7.0237-.3326-7.0237s-3.272-1.9261-4.61-4.1926a22.5744,22.5744,0,0,1-9.7465,7.3951s-.2321-2.7538-2.3593-3.1715c-2.1273-.41-3.5042,3.3339.9746,5.0821,0,0,2.05,6.9386,7.132,10.3267a10.9159,10.9159,0,0,1-7.9984,2.5218c-4.61-.5647-6.0413-5.291-6.6369-9.2283-.5956-3.93.4022-11.4871,2.2278-13.8309a3.58,3.58,0,0,1,4.2312-1.2686s2.5682-7.1166,8.8029-6.5209c6.2425.5956,8.2691,5.4844,9.0272,9.1045.75,3.6125,0,6.753,1.2686,11.68S106.2444,160.3753,106.2444,160.3753Z" fill="url(#aG)"/></g><g data-name="Person 1"><g data-name="Leg"><path d="M434.6216,342.1335h-1.681a1.02,1.02,0,0,1-.913-.566l-.6669-1.3435a.1982.1982,0,0,0-.3358-.0311l-.362.48a3.6668,3.6668,0,0,1-2.9287,1.46H413.9759a3.968,3.968,0,0,1-3.1886-1.5906,2.6483,2.6483,0,0,1-.2305-.3742,1.0759,1.0759,0,0,1,.8122-1.5316,22.8205,22.8205,0,0,0,7.4879-2.6455,56.5452,56.5452,0,0,0,8.7719-6.1419l6.3275.3094,2.2819,9.9477A1.6556,1.6556,0,0,1,434.6216,342.1335Z" fill="url(#aH)"/><g><path d="M434.8157,333.9056l-.8594-3.7465-6.3275-.3094a56.9478,56.9478,0,0,1-5.3676,4.0559Z" fill="#1d164d"/></g><path d="M406.7742,342.1335h-1.681a1.0192,1.0192,0,0,1-.9129-.566l-.667-1.3435a.1982.1982,0,0,0-.3358-.0311l-.3619.48a3.667,3.667,0,0,1-2.9288,1.46H386.1285a3.9681,3.9681,0,0,1-3.1886-1.5906,2.6579,2.6579,0,0,1-.2305-.3742,1.076,1.076,0,0,1,.8123-1.5316,22.82,22.82,0,0,0,7.4878-2.6455,56.5452,56.5452,0,0,0,8.7719-6.1419l6.3275.3094,2.282,9.9477A1.6557,1.6557,0,0,1,406.7742,342.1335Z" fill="url(#aI)"/><g><path d="M406.9683,333.9056l-.8594-3.7465-6.3275-.3094a56.9478,56.9478,0,0,1-5.3676,4.0559Z" fill="#1d164d"/></g><path d="M396.214 223.844L397.545 330.73 406.939 330.73 418.411 223.466 396.214 223.844z" fill="url(#aJ)"/><path d="M418.3355,224.1754l-22.1218-.3318.0814,6.5393h0a11.7981,11.7981,0,0,1,12.84,7.2927c4.0655,9.0753,3.339,41.2983,3.339,41.3Z" fill="url(#aK)"/><path d="M432.3077,223.8436a32.9866,32.9866,0,0,1,2.2289,9.3661c.647,5.9268,0,11.6762,0,15.3935V330.73h-9.5485L411.1346,222.9871Z" fill="url(#aL)"/></g><g data-name="Head"><g><path d="M404.326 159.008L412.045 153.962 417.686 158.125 409.737 163.833 404.326 159.008z" fill="#77b9c9"/></g><path d="M399.3111,145.5142a19.76,19.76,0,0,1-2.87-9.0329c-.2533-5.1074,2.7436-7.6822,8.1465-7.8933s9.4972,2.5326,9.5817,3.8411c0,0,2.4481-.6754,2.6592,1.7306s-.4831,5.0041,0,8.2949c.275,1.8738.5946,3.4065.8188,4.379a1.4958,1.4958,0,0,1-.799,1.6817l-1.6138.7907Z" fill="url(#aM)"/><path d="M416.235 159.169L410.565 163.237 409.737 163.833 405.351 159.919 405.351 155.015 416.072 143.783 416.219 158.225 416.235 159.169z" fill="url(#aN)"/><path d="M416.0833,144.8942h0l-.0115-1.11-10.72,11.2267v5.7349S414.3594,157.7432,416.0833,144.8942Z" fill="url(#aO)"/><path d="M415.6774,145.304s1.918-1.639,1.5518-3.6093-2.598-1.29-3.1734.1046-.0175,3.0514-.5231,3.0688-1.517-1.3077-1.8134-2.5806a11.7013,11.7013,0,0,1-.1918-2.877,11.4232,11.4232,0,0,1-7.2361,1.9878c-4.115-.3662-5.9459-2.2493-5.9459-2.2493s.995,10.1072,1.5643,12.4936,2.1455,4.1159,4.16,4.094,5.5828-1.642,8.1443-4.62A18.595,18.595,0,0,0,415.6774,145.304Z" fill="url(#aP)"/><g><circle cx="401.239" cy="144.31" fill="#1d164d" r=".475"/></g><g><circle cx="405.607" cy="144.059" fill="#1d164d" r=".475"/></g><g><path d="M401.86,142.9641a.2893.2893,0,0,1-.1972-.0771.7935.7935,0,0,0-1.189-.0136.29.29,0,0,1-.423-.3973,1.3681,1.3681,0,0,1,2.0056-.0151.29.29,0,0,1-.1964.5031Z" fill="#1d164d"/></g><g><path d="M404.6651,143.12a.2866.2866,0,0,1-.1693-.0548.29.29,0,0,1-.0664-.4049,1.3677,1.3677,0,0,1,1.9686-.386.29.29,0,0,1-.3354.4736.7915.7915,0,0,0-1.1619.2516A.29.29,0,0,1,404.6651,143.12Z" fill="#1d164d"/></g><g><path d="M404.3259,149.8145a.3045.3045,0,0,1-.0514-.0045l-1.4806-.2655a.7081.7081,0,0,1-.5779-.8015l.7471-5.2a.2827.2827,0,0,1,.3286-.2459.29.29,0,0,1,.2455.3283l-.7471,5.2a.1312.1312,0,0,0,.1066.1477l1.4806.2655a.29.29,0,0,1-.0514.5756Z" fill="#ff9c85"/></g><g><path d="M405.5179,151.5674a2.2748,2.2748,0,0,1-.4434-.0411.29.29,0,0,1-.2266-.3407.2855.2855,0,0,1,.3407-.2282,1.5791,1.5791,0,0,0,1.7223-.77.29.29,0,0,1,.5288.24A2.0183,2.0183,0,0,1,405.5179,151.5674Z" fill="#ff9c85"/></g></g><g data-name="Body"><path d="M390.8245,246.172a11.9333,11.9333,0,0,0,1.5382,4.9161c1.31,1.94,2.2168,2.62,2.1916,3.4512s-.3526,1.0077-.529.9069-3.5519-4.6243-3.5519-4.6243Z" fill="url(#aQ)"/><path d="M387.3119,236.6426s.477,6.8542.9173,9.8629,3.2817,9.1431,4.2773,9.1941.6638-.9956.5361-1.4041A22.8,22.8,0,0,1,391,248.628c-.434-2.706-.0683-4.2652.7209-4.8427l1.4782,1.1357a5.4639,5.4639,0,0,0,.312,1.79,1.3767,1.3767,0,0,0,1.1742.5774,12.1329,12.1329,0,0,0,.2015-2.87,2.9085,2.9085,0,0,0-.2573-1.323l-2.581-5.6629Z" fill="url(#aR)"/><path d="M392.0488,237.4331l-4.7368-.7906s.0831,1.191.211,2.7912h5.4377Z" fill="url(#aS)"/><path d="M403.3242,160.8936,400.4621,172.11l-3.7362,44.1767-2.5681,21.1485h-7.6116l1.3-66.8569a6.4693,6.4693,0,0,1,4.4247-6.01l2.4521-.8123Z" fill="url(#aT)"/><g><path d="M396.214 218.994H432.308V223.725H396.214z" fill="#6b6ba0"/></g><g><path d="M407.796 215.727H415.477V220.458H407.796z" fill="#8e8ec1"/></g><path d="M433.8325,163.686v53.771a2.1,2.1,0,0,1-2.104,2.0963H396.7259a2.1008,2.1008,0,0,1-2.0034-2.0963V163.7556l8.6017-2.862,2.0267-.147,4.5472,4.5022,6.3365-6.08,2.2742.7194,14.6508,3.6047C433.3839,163.5468,433.6082,163.6086,433.8325,163.686Z" fill="url(#aU)"/><g><path d="M424.175 172.485L433.833 204.335 433.833 182.112 424.175 172.485z" fill="#dcf5ff"/></g><path d="M409.298 168.124L404.582 218.962 408.835 222.987 413.501 219.419 410.189 168.072 409.298 168.124z" fill="url(#aV)"/><path d="M407.4934,166.2969l1.8042,1.8268a.5948.5948,0,0,0,.8918-.0516l2.1588-2.7617a.5946.5946,0,0,0-.0813-.8176l-1.7009-1.2542-.8292.5944-.6014-.5335-1.7568,2.3258A.5949.5949,0,0,0,407.4934,166.2969Z" fill="url(#aW)"/><path d="M438.0994,214.6088l-4.9288-36.6346a1.1318,1.1318,0,0,0-1.2752-.97l-26.7526,3.6645a1.1318,1.1318,0,0,0-.968,1.2722l4.9311,36.6524a1.1317,1.1317,0,0,0,1.276.97l26.75-3.6823A1.1317,1.1317,0,0,0,438.0994,214.6088Z" fill="url(#aX)"/><path d="M427.5527,211.6962c-5.6084,4.575-15.2366,5.1135-18.6813,5.1535l.2345,1.7432a1.1317,1.1317,0,0,0,1.2759.97l26.75-3.6823a1.1318,1.1318,0,0,0,.9673-1.2721l-1.9311-14.3533-17.976,4.0792S434.4706,206.0531,427.5527,211.6962Z" fill="url(#aY)"/><g><path d="M417.0916,189.58l-8.2128,1.1284a1.1682,1.1682,0,0,1-1.3169-1.0018l-.7717-5.7436a1.1684,1.1684,0,0,1,1-1.3132l8.2129-1.1224a1.1684,1.1684,0,0,1,1.3161,1.0019l.7716,5.7375A1.1685,1.1685,0,0,1,417.0916,189.58Z" fill="#f0811c"/></g><path d="M449.6127,204.3354H415.4765l.1934-5.9021,18.1626-1.957,6.5829-.7117-6.5829-9.4372-17.5979-25.225,2.2742-1.2145,14.6508,3.6047c.2243.0542.4486.116.6729.1934a10.3869,10.3869,0,0,1,6.2193,5.3761l13.8308,28.4507A4.75,4.75,0,0,1,449.6127,204.3354Z" fill="url(#aZ)"/><g><path d="M418.192 198.164L415.673 198.436 415.477 204.335 418.192 204.335 418.192 198.164z" fill="#aad9e8"/></g><g><circle cx="416.834" cy="202.438" fill="#fff" r=".467"/></g><g><path d="M404.326 159.008L409.135 163.3 406.731 167.47 403.322 160.895 404.326 159.008z" fill="#dcf5ff"/></g><g><path d="M410.566 163.239L413.062 167.47 418.511 159.89 417.686 158.125 410.566 163.239z" fill="#dcf5ff"/></g><g><path d="M386.601 234.728L386.548 237.433 394.161 237.433 394.39 234.728 386.601 234.728z" fill="#77b9c9"/></g><g><circle cx="392.876" cy="236.08" fill="#fff" r=".562"/></g><path d="M409.6363,202.1076v2.3671c-.557-.0155-1.0366-.0387-1.3692-.0542-1.47-.07-4.2158-.6033-4.4942-1.2531-.2089-.5028.2862-.936.5337-1.1139a1.16,1.16,0,0,1,.1238-.0851Z" fill="url(#ba)"/><path d="M409.6363,200.5064v1.9107c-1.4-.0619-2.6069-.1161-3.0013-.1238a12.0864,12.0864,0,0,1-2.3284-.24c-.5724-.1392-1.0133-.3636-1.083-.7117a.99.99,0,0,1,.5879-1.1139h.0465Z" fill="url(#bb)"/><g><path d="M407.1662,202.5042c-.2372-.009-.4207-.0155-.5348-.0177a11.8,11.8,0,0,1-2.37-.2448,3.9281,3.9281,0,0,1-.423-.128l.136-.3626a3.3349,3.3349,0,0,0,.3784.1148,11.44,11.44,0,0,0,2.2874.2338c.1148.0023.3014.0087.5416.0178Z" fill="#ff9c85"/></g><path d="M409.6363,199.2842v1.6167c-2.4289-.2475-4.7573-.4873-5.0512-.5492-.2089-.0464-.4719-.07-.7271-.1238-.5493-.085-1.1062-.2552-1.1836-.7967a1.1545,1.1545,0,0,1,.65-1.1448c.0542.0077.1083.0154.1779.0309.1392.0232.3017.0464.5028.0774.1934.0386.4177.07.6653.1083.1238.0232.2552.0464.3945.0618.4641.0774.99.1625,1.5548.2476q.348.0579.7194.116Z" fill="url(#bc)"/><g><path d="M407.2561,200.8506c-1.6959-.1767-2.5321-.2723-2.7111-.31-.1005-.0223-.2116-.0385-.3279-.0559-.13-.0192-.2659-.04-.3989-.068a3.1494,3.1494,0,0,1-.5574-.13l.1269-.3656a2.8031,2.8031,0,0,0,.5.1156c.1368.0287.2644.0476.3861.0657.1261.0189.247.0366.3535.06.2364.05,2.0675.2406,2.67.3033Z" fill="#ff9c85"/></g><path d="M403.7256,196.8912l3.3657-.9622a2.1537,2.1537,0,0,1,1.5325.1332l5.2971,2.5711S404.7224,198.3125,403.7256,196.8912Z" fill="url(#bd)"/><path d="M409.6363,197.7681v1.5239c-.7813-.1238-1.5626-.2476-2.2974-.3636q-.3714-.0581-.7194-.116c-.5647-.0851-1.0907-.17-1.5548-.2476-.1393-.0154-.2707-.0386-.3945-.0618-.2476-.0387-.4719-.07-.6653-.1083-.2011-.031-.3636-.0542-.5028-.0774-.07-.0155-.1237-.0232-.1779-.0309-1.6167-.2785-.8586-1.5394-.5415-1.4852.3249.0541,2.7848.1934,5.0744.6188C408.3367,197.5128,408.9556,197.6289,409.6363,197.7681Z" fill="url(#be)"/><g><path d="M407.3082,199.1192l-.9231-.1461c-.4744-.0748-.9457-.1492-1.3529-.2176-.133-.0147-.27-.0385-.3981-.0627l-.1715-.026c-.1813-.0276-.3475-.0529-.4955-.0824l-.4963-.0763c-.0741-.0162-.1232-.0234-.173-.03a2.35,2.35,0,0,1-.4865-.1322l.145-.3588a1.9462,1.9462,0,0,0,.4011.1088c.0522.0075.11.0162.1866.0328l.49.0752c.1511.03.312.054.4865.08l.179.0276c.1262.0238.2523.0461.386.0608.4163.07.8869.1439,1.36.2183l.9246.147Z" fill="#ff9c85"/></g><path d="M415.4919,203.7939c-1.052.6963-3.9295.7349-5.8556.6808v-6.7066c2.5681.5105,6.0181,1.2222,6.0181,1.2222Z" fill="url(#bf)"/><path d="M413.0467,204.3989a5.8933,5.8933,0,0,0,2.4452-.605l.1625-4.8036s-.968-.2-2.2568-.4627Z" fill="url(#bg)"/><g><path d="M394.336 173.574H395.10900000000004V214.191H394.336z" fill="#aad9e8"/></g></g></g></g></g></svg>