<?xml version="1.0" encoding="UTF-8"?><svg xmlns="http://www.w3.org/2000/svg" xmlns:xlink="http://www.w3.org/1999/xlink" height="190.0" preserveAspectRatio="xMidYMid meet" version="1.0" viewBox="-7.1 0.0 197.5 190.0" width="197.5" zoomAndPan="magnify"><g id="change1_1"><path d="M72.36,27.143c-13.717,0-24.881,11.164-24.881,24.881S58.643,76.905,72.36,76.905s24.881-11.164,24.881-24.881 S86.077,27.143,72.36,27.143z M72.36,67.857c-8.73,0-15.833-7.104-15.833-15.833S63.63,36.19,72.36,36.19 s15.833,7.104,15.833,15.833S81.09,67.857,72.36,67.857z" fill="inherit"/><path d="M113.927,30.783c-11.097-11.102-25.866-17.216-41.58-17.216s-30.483,6.114-41.585,17.216 c-22.924,22.928-22.924,60.241,0,83.169c11.464,11.464,26.524,17.194,41.585,17.194s30.116-5.73,41.58-17.194 C136.855,91.024,136.855,53.711,113.927,30.783z M42.443,112.073c4.296-12.81,16.177-21.597,29.917-21.597 c13.7,0,25.608,8.787,29.909,21.581C84.617,125.38,60.101,125.38,42.443,112.073z M109.477,105.401 c-6.475-14.402-20.864-23.973-37.117-23.973c-16.301,0-30.663,9.571-37.128,23.994C17.841,85.905,18.446,55.898,37.159,37.18 c9.392-9.392,21.89-14.565,35.188-14.565s25.791,5.173,35.183,14.565C126.241,55.891,126.852,85.884,109.477,105.401z" fill="inherit"/><path d="M188.654,156.686l-33.138-33.138c-1.767-1.767-4.63-1.767-6.397,0l-3.199,3.199l-13.712-13.708 c8.117-11.899,12.506-25.94,12.506-40.67c0-19.341-7.523-37.52-21.188-51.18C109.867,7.523,91.688,0,72.347,0 c-19.345,0-37.52,7.523-51.184,21.188c-28.216,28.221-28.216,74.139,0,102.36c13.664,13.664,31.839,21.188,51.184,21.188 c14.729,0,28.769-4.388,40.668-12.504l13.71,13.71l-3.198,3.198c-1.767,1.767-1.767,4.63,0,6.397l33.138,33.138 c0.884,0.884,2.041,1.325,3.198,1.325s2.315-0.442,3.198-1.325l25.592-25.592C190.421,161.315,190.421,158.453,188.654,156.686z M117.106,117.172c-11.952,11.94-27.846,18.515-44.759,18.515c-16.929,0-32.833-6.582-44.787-18.537 c-24.687-24.695-24.687-64.871,0-89.566C39.514,15.63,55.418,9.048,72.347,9.048c16.925,0,32.829,6.582,44.783,18.537 s18.537,27.859,18.537,44.783c0,16.914-6.575,32.807-18.515,44.759L117.106,117.172z M120.324,126.746l3.179-3.177 c0.008-0.008,0.016-0.014,0.024-0.022c0.007-0.007,0.014-0.016,0.022-0.024l3.177-3.175l12.798,12.794l-6.401,6.401 L120.324,126.746z M159.863,179.079l-26.741-26.741l19.195-19.195l26.741,26.741L159.863,179.079z" fill="inherit"/></g></svg>