<?xml version="1.0" encoding="UTF-8" standalone="no"?><svg xmlns="http://www.w3.org/2000/svg" xmlns:xlink="http://www.w3.org/1999/xlink" fill="#e9bb00" height="59" preserveAspectRatio="xMidYMid meet" version="1" viewBox="2.0 3.0 60.0 59.0" width="60" zoomAndPan="magnify"><g id="change1_1"><path d="M21.228,19.232c0.277,1.351,0.81,2.63,1.581,3.803c0.234,0.355,0.218,0.819-0.041,1.157l-1.462,1.913l1.59,1.59 l1.913-1.463c0.338-0.259,0.803-0.274,1.157-0.041c1.17,0.771,2.45,1.303,3.804,1.582c0.416,0.086,0.733,0.426,0.789,0.848 L30.876,31h2.248l0.317-2.379c0.056-0.422,0.373-0.762,0.789-0.848c1.354-0.279,2.634-0.811,3.804-1.582 c0.354-0.234,0.819-0.218,1.157,0.041l1.913,1.463l1.59-1.59l-1.462-1.913c-0.259-0.338-0.275-0.802-0.041-1.157 c0.771-1.172,1.304-2.452,1.581-3.803c0.086-0.417,0.426-0.734,0.848-0.79L46,18.125v-2.249l-2.38-0.317 c-0.422-0.056-0.762-0.373-0.848-0.79c-0.277-1.351-0.81-2.63-1.581-3.803c-0.234-0.355-0.218-0.819,0.041-1.157l1.462-1.913 l-1.59-1.59l-1.913,1.463c-0.338,0.258-0.803,0.275-1.157,0.041c-1.17-0.771-2.45-1.303-3.804-1.582 c-0.416-0.086-0.733-0.426-0.789-0.848L33.124,3h-2.248l-0.317,2.379c-0.056,0.422-0.373,0.762-0.789,0.848 c-1.354,0.279-2.634,0.811-3.804,1.582c-0.354,0.234-0.819,0.218-1.157-0.041l-1.913-1.463l-1.59,1.59l1.462,1.913 c0.259,0.338,0.275,0.802,0.041,1.157c-0.771,1.172-1.304,2.452-1.581,3.803c-0.086,0.417-0.426,0.734-0.848,0.79L18,15.875v2.249 l2.38,0.317C20.802,18.498,21.142,18.815,21.228,19.232z M32,8c4.963,0,9,4.038,9,9s-4.037,9-9,9s-9-4.038-9-9S27.037,8,32,8z" fill="inherit"/><circle cx="32" cy="17" fill="inherit" r="7"/><path d="M9,39h10v2h2v-2h5v-2H8c-0.553,0-1,0.448-1,1v3h2V39z" fill="inherit"/><path d="M38,39h5v2h2v-2h10v2h2v-3c0-0.552-0.447-1-1-1H38V39z" fill="inherit"/><path d="M32,35c-1.657,0-3,1.343-3,3v2c0,1.657,1.343,3,3,3s3-1.343,3-3v-2C35,36.343,33.657,35,32,35z" fill="inherit"/><path d="M41,47v2c0,1.657,1.343,3,3,3s3-1.343,3-3v-2c0-1.657-1.343-3-3-3S41,45.343,41,47z" fill="inherit"/><path d="M53,47v2c0,1.657,1.343,3,3,3s3-1.343,3-3v-2c0-1.657-1.343-3-3-3S53,45.343,53,47z" fill="inherit"/><path d="M8,52c1.657,0,3-1.343,3-3v-2c0-1.657-1.343-3-3-3s-3,1.343-3,3v2C5,50.657,6.343,52,8,52z" fill="inherit"/><path d="M38,53v-6c0-1.105-0.895-2-2-2h-8c-1.105,0-2,0.895-2,2v6h2v-5h2v5h4v-5h2v5H38z" fill="inherit"/><path d="M60,54h-8c-1.105,0-2,0.895-2,2c0-1.105-0.895-2-2-2h-8c-1.105,0-2,0.895-2,2v6h2v-5h2v5h4v-5h2v5h2h2v-5h2v5h4v-5h2v5h2 v-6C62,54.895,61.105,54,60,54z" fill="inherit"/><path d="M24,54h-8c-1.105,0-2,0.895-2,2c0-1.105-0.895-2-2-2H4c-1.105,0-2,0.895-2,2v6h2v-5h2v5h4v-5h2v5h2h2v-5h2v5h4v-5h2v5h2v-6 C26,54.895,25.105,54,24,54z" fill="inherit"/><path d="M17,47v2c0,1.657,1.343,3,3,3s3-1.343,3-3v-2c0-1.657-1.343-3-3-3S17,45.343,17,47z" fill="inherit"/></g></svg>