<?xml version="1.0" encoding="UTF-8" standalone="no"?><svg xmlns="http://www.w3.org/2000/svg" xmlns:xlink="http://www.w3.org/1999/xlink" fill="#000000" height="89.4" preserveAspectRatio="xMidYMid meet" version="1" viewBox="14.6 5.3 70.8 89.4" width="70.8" zoomAndPan="magnify"><g><g id="change1_8"><path d="M81.113,94.687H18.887c-2.375,0-4.307-1.932-4.307-4.306V9.62c0-2.375,1.933-4.306,4.307-4.306h62.227 c2.375,0,4.308,1.931,4.308,4.306V90.38C85.421,92.754,83.488,94.687,81.113,94.687z M18.887,8.668 c-0.515,0-0.952,0.437-0.952,0.952V90.38c0,0.515,0.437,0.951,0.952,0.951h62.227c0.515,0,0.952-0.436,0.952-0.951V9.62 c0-0.515-0.437-0.952-0.952-0.952H18.887z" fill="#e9bb00"/></g><g id="change1_5"><path d="M38.506,27.212c-3.409,0-6.181-2.773-6.181-6.181c0-3.409,2.772-6.181,6.181-6.181 c3.405,0,6.175,2.772,6.175,6.181C44.682,24.439,41.912,27.212,38.506,27.212z M38.506,18.204c-1.558,0-2.826,1.268-2.826,2.827 c0,1.558,1.268,2.826,2.826,2.826c1.554,0,2.82-1.268,2.82-2.826C41.326,19.472,40.061,18.204,38.506,18.204z" fill="#e9bb00"/></g><g id="change1_6"><path d="M38.97,44.568c-0.12,0-0.237-0.001-0.357-0.003c-0.118,0.002-0.238,0.003-0.355,0.003 c-3.75,0-7.356-0.574-10.429-1.656c-0.583-0.206-1.007-0.719-1.1-1.332c-0.451-2.982,0.329-9.444,6.519-12.566 c0.568-0.285,1.246-0.226,1.758,0.152l3.607,2.683l3.61-2.683c0.51-0.378,1.188-0.437,1.756-0.152 c6.19,3.122,6.972,9.584,6.52,12.566c-0.094,0.613-0.517,1.126-1.101,1.332C46.324,43.994,42.719,44.568,38.97,44.568z M38.613,41.21c0.005,0,0.011,0,0.017,0c3.073,0.031,6.029-0.358,8.609-1.125c0.002-1.74-0.444-5.347-3.893-7.573l-3.732,2.774 c-0.593,0.442-1.408,0.442-2,0l-3.732-2.774c-3.447,2.225-3.896,5.83-3.894,7.573c2.579,0.767,5.542,1.154,8.608,1.125 C38.602,41.21,38.607,41.21,38.613,41.21z" fill="#e9bb00"/></g><g id="change1_10"><path d="M71.684,52.425H29.988c-0.927,0-1.677-0.751-1.677-1.679c0-0.926,0.75-1.677,1.677-1.677h41.696 c0.927,0,1.678,0.75,1.678,1.677C73.362,51.674,72.611,52.425,71.684,52.425z" fill="#e9bb00"/></g><g id="change1_12"><path d="M71.684,61.609H29.988c-0.927,0-1.677-0.75-1.677-1.677c0-0.928,0.75-1.679,1.677-1.679h41.696 c0.927,0,1.678,0.751,1.678,1.679C73.362,60.859,72.611,61.609,71.684,61.609z" fill="#e9bb00"/></g><g id="change1_3"><path d="M71.684,71.443h-10.78c-0.925,0-1.677-0.751-1.677-1.677c0-0.926,0.751-1.678,1.677-1.678h10.78 c0.927,0,1.678,0.751,1.678,1.678C73.362,70.692,72.611,71.443,71.684,71.443z" fill="#e9bb00"/></g><g id="change1_9"><path d="M50.838,71.443h-20.85c-0.927,0-1.677-0.751-1.677-1.677c0-0.926,0.75-1.678,1.677-1.678h20.85 c0.927,0,1.678,0.751,1.678,1.678C52.516,70.692,51.765,71.443,50.838,71.443z" fill="#e9bb00"/></g><g id="change1_11"><path d="M71.684,80.956h-10.78c-0.925,0-1.677-0.75-1.677-1.678c0-0.926,0.751-1.678,1.677-1.678h10.78 c0.927,0,1.678,0.752,1.678,1.678C73.362,80.206,72.611,80.956,71.684,80.956z" fill="#e9bb00"/></g><g id="change1_2"><path d="M50.838,80.956h-20.85c-0.927,0-1.677-0.75-1.677-1.678c0-0.926,0.75-1.678,1.677-1.678h20.85 c0.927,0,1.678,0.752,1.678,1.678C52.516,80.206,51.765,80.956,50.838,80.956z" fill="#e9bb00"/></g><g id="change1_1"><path d="M71.684,33.392h-15.48c-0.927,0-1.677-0.75-1.677-1.677s0.75-1.678,1.677-1.678h15.48 c0.927,0,1.678,0.751,1.678,1.678S72.611,33.392,71.684,33.392z" fill="#e9bb00"/></g><g id="change1_4"><path d="M71.684,42.905h-15.48c-0.927,0-1.677-0.75-1.677-1.677c0-0.927,0.75-1.678,1.677-1.678h15.48 c0.927,0,1.678,0.751,1.678,1.678C73.362,42.155,72.611,42.905,71.684,42.905z" fill="#e9bb00"/></g><g id="change1_7"><path d="M71.684,23.879h-15.48c-0.927,0-1.677-0.75-1.677-1.676c0-0.927,0.75-1.679,1.677-1.679h15.48 c0.927,0,1.678,0.751,1.678,1.679C73.362,23.129,72.611,23.879,71.684,23.879z" fill="#e9bb00"/></g></g></svg>