<?xml version="1.0" encoding="UTF-8" standalone="no"?><svg xmlns="http://www.w3.org/2000/svg" xmlns:xlink="http://www.w3.org/1999/xlink" fill="#000000" height="60" preserveAspectRatio="xMidYMid meet" version="1" viewBox="2.0 2.0 60.0 60.0" width="60" zoomAndPan="magnify"><g fill="#e9bb00" id="change1_1"><path d="M 31 16 L 31 32.585938 L 28.292969 35.292969 C 27.902344 35.683594 27.902344 36.316406 28.292969 36.707031 L 33.585938 42 L 31.292969 44.292969 C 31.105469 44.480469 31 44.734375 31 45 L 31 56 L 27.988281 56 C 27.933594 53.753906 26.402344 51.820312 24.210938 51.273438 L 20 50.21875 L 20 49.570312 C 21.246094 48.714844 22 47.308594 22 45.765625 L 22 40 C 22 36.691406 19.308594 34 16 34 C 12.691406 34 10 36.691406 10 40 L 10 45.765625 C 10 47.308594 10.753906 48.714844 12 49.570312 L 12 50.21875 L 8 51.21875 L 8 16 Z M 33 8 L 42 8 L 42 13.765625 C 42 15.308594 42.753906 16.714844 44 17.570312 L 44 18.21875 L 39.789062 19.273438 C 37.558594 19.832031 36 21.824219 36 24.121094 L 36 29 C 36 29.550781 36.449219 30 37 30 L 56 30 L 56 48 L 33 48 L 33 45.414062 L 35.707031 42.707031 C 36.097656 42.316406 36.097656 41.683594 35.707031 41.292969 L 30.414062 36 L 32.707031 33.707031 C 32.894531 33.519531 33 33.265625 33 33 Z M 44 8 C 44 5.792969 45.792969 4 48 4 C 50.207031 4 52 5.792969 52 8 L 52 13.765625 C 52 14.761719 51.445312 15.660156 50.550781 16.105469 C 50.214844 16.277344 50 16.621094 50 17 L 50 19 C 50 19.460938 50.3125 19.859375 50.757812 19.96875 L 55.726562 21.210938 C 57.066406 21.546875 58 22.742188 58 24.121094 L 58 28 L 56 28 L 56 25 L 54 25 L 54 28 L 42 28 L 42 25 L 40 25 L 40 28 L 38 28 L 38 24.121094 C 38 22.742188 38.933594 21.546875 40.273438 21.210938 L 45.242188 19.96875 C 45.6875 19.859375 46 19.460938 46 19 L 46 17 C 46 16.621094 45.785156 16.277344 45.449219 16.105469 C 44.554688 15.660156 44 14.761719 44 13.765625 Z M 54 13.765625 L 54 8 L 56 8 L 56 19.21875 L 52 18.21875 L 52 17.570312 C 53.246094 16.714844 54 15.308594 54 13.765625 Z M 26 60 L 24 60 L 24 57 L 22 57 L 22 60 L 10 60 L 10 57 L 8 57 L 8 60 L 6 60 L 6 56.125 C 6 54.742188 6.933594 53.546875 8.273438 53.210938 L 13.242188 51.96875 C 13.6875 51.859375 14 51.460938 14 51 L 14 49 C 14 48.621094 13.785156 48.277344 13.449219 48.105469 C 12.554688 47.660156 12 46.761719 12 45.765625 L 12 40 C 12 37.792969 13.792969 36 16 36 C 18.207031 36 20 37.792969 20 40 L 20 45.765625 C 20 46.761719 19.445312 47.660156 18.550781 48.105469 C 18.214844 48.277344 18 48.621094 18 49 L 18 51 C 18 51.460938 18.3125 51.859375 18.757812 51.96875 L 23.726562 53.210938 C 25.066406 53.546875 26 54.742188 26 56.125 Z M 6 15 L 6 52.140625 C 4.773438 53.0625 4 54.511719 4 56.125 L 4 61 C 4 61.550781 4.449219 62 5 62 L 27 62 C 27.550781 62 28 61.550781 28 61 L 28 58 L 32 58 C 32.550781 58 33 57.550781 33 57 L 33 50 L 57 50 C 57.550781 50 58 49.550781 58 49 L 58 30 L 59 30 C 59.550781 30 60 29.550781 60 29 L 60 24.121094 C 60 22.511719 59.222656 21.0625 58 20.140625 L 58 7 C 58 6.449219 57.550781 6 57 6 L 53.652344 6 C 52.824219 3.671875 50.605469 2 48 2 C 45.394531 2 43.175781 3.671875 42.347656 6 L 32 6 C 31.449219 6 31 6.449219 31 7 L 31 14 L 7 14 C 6.449219 14 6 14.449219 6 15" fill="inherit"/><path d="M 14 18 L 12 18 L 12 20 L 14 20 L 14 18" fill="inherit"/><path d="M 29 18 L 16 18 L 16 20 L 29 20 L 29 18" fill="inherit"/><path d="M 29 22 L 10 22 L 10 24 L 29 24 L 29 22" fill="inherit"/><path d="M 29 26 L 10 26 L 10 28 L 29 28 L 29 26" fill="inherit"/><path d="M 25 30 L 10 30 L 10 32 L 25 32 L 25 30" fill="inherit"/><path d="M 42 32 L 40 32 L 40 34 L 42 34 L 42 32" fill="inherit"/><path d="M 54 32 L 44 32 L 44 34 L 54 34 L 54 32" fill="inherit"/><path d="M 54 36 L 38 36 L 38 38 L 54 38 L 54 36" fill="inherit"/><path d="M 54 40 L 38 40 L 38 42 L 54 42 L 54 40" fill="inherit"/><path d="M 50 44 L 38 44 L 38 46 L 50 46 L 50 44" fill="inherit"/><path d="M 60 50 C 60 51.101562 59.101562 52 58 52 L 49 52 L 49 54 L 58 54 C 60.207031 54 62 52.207031 62 50 L 62 38 L 60 38 L 60 50" fill="inherit"/><path d="M 60 36 L 62 36 L 62 34 L 60 34 L 60 36" fill="inherit"/><path d="M 4 14 C 4 12.898438 4.898438 12 6 12 L 15 12 L 15 10 L 6 10 C 3.792969 10 2 11.792969 2 14 L 2 35 L 4 35 L 4 14" fill="inherit"/><path d="M 17 10 L 17 12 L 19 12 L 19 10 L 17 10" fill="inherit"/></g></svg>