<?xml version="1.0" encoding="UTF-8" standalone="no"?><svg xmlns="http://www.w3.org/2000/svg" xmlns:xlink="http://www.w3.org/1999/xlink" fill="#000000" height="82.5" preserveAspectRatio="xMidYMid meet" version="1" viewBox="37.5 58.0 125.0 82.5" width="125" zoomAndPan="magnify"><g><g id="change1_1"><path d="M 134.085938 69.109375 C 134.109375 73.550781 137.390625 76.878906 141.753906 76.882812 C 146.15625 76.890625 149.523438 73.585938 149.542969 69.234375 C 149.5625 64.933594 146.101562 61.398438 141.878906 61.40625 C 137.546875 61.410156 134.0625 64.855469 134.085938 69.109375" fill="#1b4189"/></g><g id="change2_1"><path d="M 137.257812 130.105469 C 135.335938 130.105469 133.410156 130.011719 131.507812 129.917969 C 129.734375 129.828125 128.058594 129.746094 126.46875 129.746094 C 124.507812 129.746094 122.917969 128.15625 122.917969 126.191406 C 122.917969 124.230469 124.507812 122.640625 126.46875 122.640625 C 128.234375 122.640625 130.078125 122.730469 131.859375 122.820312 C 135.785156 123.015625 139.839844 123.21875 143.207031 122.457031 C 145.964844 121.835938 148.449219 120.132812 150.195312 117.664062 C 151.78125 115.429688 152.144531 112.886719 152.605469 109.660156 C 152.671875 109.179688 152.742188 108.695312 152.816406 108.210938 L 155.1875 92.621094 C 155.480469 90.679688 157.300781 89.347656 159.230469 89.644531 C 161.171875 89.9375 162.503906 91.75 162.210938 93.6875 L 159.839844 109.277344 C 159.769531 109.742188 159.703125 110.207031 159.636719 110.664062 C 159.113281 114.339844 158.570312 118.136719 155.992188 121.773438 C 153.230469 125.671875 149.242188 128.378906 144.769531 129.386719 C 142.320312 129.941406 139.792969 130.105469 137.257812 130.105469" fill="#e9bb00"/></g><g id="change1_2"><path d="M 108.570312 134.683594 C 109 132.484375 109.433594 130.273438 109.847656 128.0625 C 110.847656 122.859375 111.8125 117.65625 112.742188 112.4375 C 113.1875 109.917969 114.550781 108.578125 117.023438 108.261719 C 119.316406 107.964844 132.558594 107.285156 132.558594 107.285156 L 133.105469 95.839844 C 133.164062 95.199219 133.210938 94.558594 133.257812 93.9375 C 133.441406 91.566406 133.589844 89.308594 133.953125 87.09375 C 134.398438 84.375 135.953125 82.3125 138.03125 81.285156 C 139.171875 80.726562 140.464844 80.480469 141.8125 80.609375 C 141.882812 80.609375 141.941406 80.617188 142.011719 80.625 C 146.183594 81.125 149.039062 84.699219 148.777344 89.03125 C 148.355469 95.960938 147.707031 102.890625 147.601562 109.828125 C 147.5 116.300781 144.035156 119.257812 137.617188 119.210938 C 131.765625 119.164062 126.683594 119.25 120.832031 119.1875 C 119.597656 122.792969 119.164062 126.292969 118.214844 129.664062 C 117.570312 132.003906 117.167969 134.421875 116.375 136.710938 C 115.597656 138.964844 113.957031 140.558594 111.386719 139.78125 C 109.015625 139.066406 108.054688 137.285156 108.570312 134.683594" fill="#1b4189"/></g><g id="change2_2"><path d="M 123.671875 76.050781 C 123.535156 75.476562 123.183594 74.984375 122.675781 74.671875 C 122.171875 74.363281 121.578125 74.269531 120.996094 74.40625 C 120.417969 74.546875 119.929688 74.898438 119.617188 75.40625 L 111.832031 88.113281 L 95.523438 88.113281 C 94.296875 88.113281 93.300781 89.109375 93.300781 90.332031 C 93.300781 91.558594 94.296875 92.554688 95.523438 92.554688 L 114.320312 92.554688 L 123.40625 77.730469 C 123.71875 77.222656 123.8125 76.628906 123.671875 76.050781" fill="#e9bb00"/></g><g id="change1_3"><path d="M 65.523438 65.75 C 65.496094 70.207031 62.203125 73.546875 57.828125 73.554688 C 53.40625 73.5625 50.03125 70.242188 50.011719 65.875 C 49.988281 61.5625 53.464844 58.015625 57.703125 58.019531 C 62.050781 58.023438 65.546875 61.480469 65.523438 65.75" fill="#1b4189"/></g><g id="change2_3"><path d="M 62.828125 130.070312 C 64.761719 130.070312 66.691406 129.972656 68.597656 129.878906 C 70.378906 129.789062 72.0625 129.707031 73.65625 129.707031 C 75.625 129.707031 77.222656 128.109375 77.222656 126.140625 C 77.222656 124.171875 75.625 122.578125 73.65625 122.578125 C 71.882812 122.578125 70.035156 122.667969 68.246094 122.757812 C 64.308594 122.953125 60.238281 123.15625 56.859375 122.394531 C 54.089844 121.769531 51.601562 120.058594 49.84375 117.585938 C 48.257812 115.34375 47.890625 112.785156 47.429688 109.550781 C 47.359375 109.070312 47.289062 108.582031 47.21875 108.09375 L 44.839844 92.449219 C 44.542969 90.503906 42.71875 89.164062 40.777344 89.464844 C 38.832031 89.757812 37.492188 91.578125 37.789062 93.523438 L 40.167969 109.164062 C 40.238281 109.632812 40.304688 110.097656 40.371094 110.558594 C 40.898438 114.246094 41.441406 118.058594 44.027344 121.707031 C 46.800781 125.621094 50.800781 128.332031 55.289062 129.347656 C 57.75 129.902344 60.285156 130.070312 62.828125 130.070312" fill="#e9bb00"/></g><g id="change1_4"><path d="M 91.617188 134.664062 C 91.1875 132.453125 90.75 130.234375 90.335938 128.015625 C 89.335938 122.792969 88.367188 117.578125 87.429688 112.339844 C 86.988281 109.8125 85.613281 108.46875 83.136719 108.144531 C 82.664062 108.082031 81.722656 108.003906 80.527344 107.917969 C 75.925781 107.59375 67.546875 107.164062 67.546875 107.164062 L 67.523438 106.835938 L 66.507812 92.574219 C 66.445312 91.933594 66.402344 91.296875 66.351562 90.664062 C 66.324219 90.265625 66.285156 89.871094 66.257812 89.476562 C 66.464844 89.585938 66.671875 89.699219 66.875 89.8125 C 68.261719 90.570312 69.5625 91.285156 70.910156 91.925781 C 71.816406 92.355469 72.753906 92.605469 73.542969 92.617188 C 75.1875 92.652344 76.964844 92.675781 79.136719 92.675781 C 80.492188 92.675781 81.84375 92.667969 83.195312 92.660156 C 83.859375 92.660156 84.53125 92.652344 85.207031 92.652344 C 87.738281 92.640625 89.648438 90.863281 89.644531 88.523438 C 89.644531 86.207031 87.710938 84.445312 85.15625 84.445312 L 80.109375 84.445312 C 78.808594 84.445312 77.085938 84.445312 75.375 84.425781 C 74.714844 84.417969 74 84.21875 73.421875 83.882812 C 70.953125 82.4375 68.441406 80.933594 65.757812 79.285156 C 64.175781 78.320312 62.074219 77.253906 58.492188 77.253906 C 58.367188 77.253906 58.238281 77.261719 58.101562 77.261719 C 57.992188 77.269531 57.878906 77.285156 57.773438 77.289062 C 57.699219 77.289062 57.636719 77.296875 57.5625 77.304688 C 53.378906 77.808594 50.515625 81.390625 50.773438 85.742188 C 51.203125 92.695312 52.339844 102.757812 52.449219 109.71875 C 52.546875 116.21875 56.027344 119.179688 62.472656 119.136719 C 68.339844 119.085938 73.441406 119.171875 79.308594 119.109375 C 79.410156 119.394531 79.503906 119.671875 79.582031 119.960938 C 80.625 123.28125 81.0625 126.507812 81.9375 129.628906 C 82.585938 131.972656 82.988281 134.398438 83.789062 136.695312 C 84.570312 138.957031 86.214844 140.5625 88.789062 139.78125 C 91.171875 139.058594 92.140625 137.277344 91.617188 134.664062" fill="#1b4189"/></g><g id="change2_4"><path d="M 121.515625 95.652344 L 79.53125 95.652344 C 77.816406 95.652344 76.28125 96.902344 76.113281 98.609375 C 75.921875 100.570312 77.464844 102.226562 79.386719 102.226562 L 96.449219 102.226562 L 96.449219 134.535156 C 96.449219 135.34375 97.101562 135.996094 97.90625 135.996094 L 102.992188 135.996094 C 103.800781 135.996094 104.453125 135.34375 104.453125 134.535156 L 104.453125 102.226562 L 121.367188 102.226562 C 123.082031 102.226562 124.617188 100.976562 124.785156 99.269531 C 124.976562 97.308594 123.4375 95.652344 121.515625 95.652344" fill="#e9bb00"/></g></g></svg>