<?xml version="1.0" encoding="UTF-8"?><svg xmlns="http://www.w3.org/2000/svg" xmlns:xlink="http://www.w3.org/1999/xlink" height="500.7" preserveAspectRatio="xMidYMid meet" version="1.0" viewBox="-2.0 -0.6 361.1 500.7" width="361.1" zoomAndPan="magnify"><g fill="#F5B49B"><path d="M356.9,472.9c0.5-8.2,2.2-16.5,0.8-24.8c-2.2-12.7-7.2-24.4-8.6-37.3c-1.4-13.2-1.3-26.6-2.4-39.8 c-0.9-10.4-1.9-20.8-3.2-31.1c-0.6-5.1-1.3-10.2-2.1-15.3c-0.7-4.5-1-9.1-1.8-13.6c-0.4-2.4-1.6-4.6-2.3-6.9 c-3.2-9.4-6.7-19.2-11.4-27.9c-4.2-7.9-9.1-16.6-15.2-23.2c-6.6-7.1-14.3-11.9-22.5-16.6c-6.2-3.6-12.9-6.2-19.5-8.9 c-3.1-1.3-6.2-2.6-9.2-4c-2.7-1.2-4.9-3.4-7.7-4.6c-2.8-1.3-5.7-2.5-8.6-3.6c-6.2-2.5-12.6-4.6-18.8-7.1c-2.6-1-5.9-3.1-8.8-2.7 c-0.1-0.5-0.2-1-0.2-1.5c-0.1-0.7-0.2-1.4-0.2-2.2c-0.3-4.2-0.1-8.5,0.3-12.7c0.2-2.1,0-4.7,0.3-7.1l-0.1-0.2 c1.5-1.1,2.8-2.3,4-3.5c4.1-4,8.6-8.3,12.2-12.7c4.7-5.6,8.4-12.8,11.5-19.8l0.2,0.1c2.4-1.2,4.9-2.3,7.2-3.6 c3.2-1.8,6.2-4.3,8.3-7.3c0.8-1.2,1.7-2,2.3-3.4c0.6-1.4,1.3-2.8,1.7-4.3c0.8-3,0.8-6.3-0.4-9.2c-1.8-4.3-8.2-6.6-11.2-2.1l-0.2,0 c-0.3-5.6,0.1-11.2,2.3-16.5c0.9-2.2,1.1-4.7,1.8-7.1c0.9-3.6,2.7-7.9,2.6-11.7c-0.1-3.7,0.5-7.2,1-10.9c1.2-7.9-2.4-14.8-7.2-20.8 c-3.7-4.8-8-9.1-11.1-14.4c-3.4-5.9-5.6-12-12-15.5c-4.4-2.4-9.7-3.5-14.6-2.4c-1.7,0-3,0.2-3.5-1.7c-1.6-7.1-8.4-11.2-15-13 c-6.7-1.9-14.1-2.3-21-1.1c-2.2,0.4-4.5,1.1-6.6,2c-1.8,0.8-3.6,1.5-5.3,2.4c-1.1,0.6-1.9,1.5-3,2.2c-2.6,1.7-5.4,3.2-8.2,4.4 c-6.7,2.9-14.4,4-20.8,7.4c-5.8,3-10.3,8.3-13.3,14c-2,3.7-3.4,6.9-2.9,11.2c0.1,0.7,0.2,1.3,0.2,2c0.6,5.7-1.4,11.3-2.7,16.8 c-1,4.2-1.9,8.4-2.3,12.6c-0.2,2.6-0.6,5.1-0.6,7.7c0,2.4,0.4,4.4,1.2,6.6c1.6,4.7,4.6,8.9,6.1,13.6c0.8,2.4,1,4.9,1.3,7.3 c0.3,2.2,0.5,4.5,0.8,6.7c-1.7-2.3-2.9-4.7-6.3-4.4c-2.5,0.3-4.9,2-5.9,4.4c-1.2,2.8-1.1,6-0.4,9c0.4,1.5,1,2.8,1.6,4.2 c0.6,1.3,1.4,2.1,2.2,3.3c2.1,2.9,5,5.3,8.1,7c3,1.7,5.5,2.2,7.7,5c2.1,2.7,3.4,5.9,5.5,8.5c2.4,3,4.7,5.9,7,8.9 c3.8,5.2,9.4,9.4,14.6,13.1c2.6,1.9,5.3,3.5,8.1,5.1l-0.4,0.6c0.5,0.6,0.3,1.8,0.4,2.5c0.1,0.8,0.4,1.6,0.5,2.5 c0.3,2,0.5,4,0.6,5.9c0.2,4,0.2,8,0,12c0,0,0,0.1,0,0.1c-2.5,0.4-5.1,2-7.2,2.9c-6.1,2.7-12.5,5-18.6,7.7c-2.8,1.3-5.7,2.6-8.4,3.9 c-2.7,1.3-4.8,3.5-7.5,4.8c-2.7,1.3-5.4,2.6-8.1,3.8c0,0.2,0,0.4,0,0.6c0-0.2,0-0.4,0-0.7c-0.1-3.2-0.6-6.4-0.6-9.6 c0-2.9,0.7-5.7,1.4-8.6c0.9-4.1,3-9.2,1-13.3c-0.9-1.9-2.7-3.1-4.6-3.8c-1.3-0.5-2.4-0.2-3.7,0.3c-4,1.3-6.2,5.7-7.2,9.6 c-0.2,0-0.4,0.1-0.6,0.2c0,0,0,0,0,0c-4.1-5.4-8.7-11.2-15.4-13.2c-1.5-0.4-3-0.6-4.6-0.6c0,0,0,0,0,0c0-0.2-0.1-0.4-0.3-0.6 c0-0.3-0.1-0.6-0.1-1c0-11.8,0.5-23.6,0-35.3c-0.2-4.2-1-10.8-5.5-12.8c-1.6-0.7-2.4-0.7-3.9,0.2c-5.1,3.1-4.5,10.7-4.6,15.9 c0,7.4-0.4,14.8-0.2,22.3c0.2,6,0.5,12-0.9,17.9c-2,8.7-6.6,16.4-9.3,24.8c-3,9.4-1.4,18.1,0.8,27.5c0.5,2.2,1,4.5,1.4,6.8 c0.4,2.1,0.7,4.3,1.1,6.4c-0.8,0.8-2,1.1-3,1.8c-9,5.7-7.4,16-10,24.8c-1.9,6.5-7.3,10.7-10.5,16.5c-2.7,5-4,10.4-4.6,16 c-0.8,7.9-2.6,15.3-5.4,22.8c-2.9,7.9-6.8,15.4-9.6,23.4C5.3,389.5-2,415.6,0.5,439.9c1.2,11,4.4,23.3,12.9,31 c14.2,12.9,41,7.5,52.1-6.5c4.6-5.8,7.2-13,9.1-20.4c0,0,0,0,0,0c0,0,0.1,0,0.1,0c1.5,18.1,1.7,36.5,1.5,54.8h91.1h12h11.6h32.5 h73.5c0,0.1,0,0.2,0,0.3c0,0.5,0.4,1,1,1c0,0,0,0,0,0c0.5,0,1-0.4,1-1c0-0.1,0-0.2,0-0.3h58c0.1-4.3,1.3-8.4,1.3-12.7 C358.2,481.6,356.6,477.3,356.9,472.9z M251,121.4c0-0.3,0.1-0.7,0.1-1.1C251.1,120.7,251,121.1,251,121.4c0,0.3,0,0.5-0.1,0.8 C251,122,251,121.7,251,121.4z M250.5,124.5c0.2-0.5,0.3-1,0.4-1.5C250.8,123.5,250.7,124,250.5,124.5c-0.1,0.2-0.2,0.5-0.3,0.7 C250.3,125,250.4,124.8,250.5,124.5z M229.8,57c0.5,0.4,1,0.8,1.5,1.3c0.7,0.7,1.3,1.5,1.8,2.4c0.5,0.9,1,1.8,1.3,2.8 c-0.3-0.9-0.8-1.9-1.3-2.8c-0.5-0.9-1.1-1.7-1.8-2.4C230.9,57.8,230.4,57.4,229.8,57c-1.3-1-2.8-1.7-4.4-2.3 C227,55.2,228.5,56,229.8,57z M135.1,91.8c-0.3,0.5-0.5,1.1-0.8,1.7C134.6,92.9,134.8,92.4,135.1,91.8c0.2-0.4,0.4-0.7,0.5-1.1 C135.5,91.1,135.3,91.5,135.1,91.8z M110.5,244.8c-0.1,0.3-0.2,0.6-0.3,0.9c0.2-0.5,0.3-1,0.4-1.5 C110.6,244.3,110.6,244.6,110.5,244.8z M145.6,320.4c0.5,2.7,1.1,5.5,1.7,8.2C146.7,325.9,146.1,323.1,145.6,320.4z M163.4,387.4 c0,0.1,0,0.1,0,0.2c0.2,1,0.3,1.9,0.5,2.9C163.7,389.4,163.6,388.4,163.4,387.4z M166.7,421.9c0,0.4,0,0.7,0.1,1.1 c0,0.4,0,0.9,0.1,1.3C166.7,423.6,166.7,422.7,166.7,421.9z M172,234c-1.2-0.9-2.4-1.9-3.4-3C169.7,232.1,170.8,233.1,172,234 c0.4,0.3,0.8,0.6,1.2,0.8C172.8,234.6,172.4,234.3,172,234z M175.6,189.1c1.8,0.6,3.6,1.2,5.5,1.7 C179.3,190.3,177.4,189.8,175.6,189.1z M199.9,237.2c-0.6,0.2-1.2,0.5-1.8,0.7c-0.6,0.2-1.2,0.5-1.8,0.7c-0.8,0.3-1.7,0.5-2.6,0.6 c0.9-0.2,1.8-0.4,2.6-0.6c0.6-0.2,1.2-0.5,1.8-0.7S199.3,237.4,199.9,237.2c1.2-0.4,2.3-1,3.3-1.6 C202.2,236.2,201.1,236.8,199.9,237.2z M215.4,205.6L215.4,205.6c0,0,0-0.1,0-0.1C215.4,205.5,215.4,205.5,215.4,205.6z M214.1,224.1c-0.4,0.7-0.8,1.5-1.2,2.2C213.3,225.5,213.7,224.8,214.1,224.1c0.6-1.1,1-2.3,1.4-3.4 C215.1,221.8,214.6,223,214.1,224.1z M228,357.6c0.1-1.1,0.2-2.2,0.4-3.3l0,0C228.3,355.5,228.1,356.6,228,357.6z M241.1,291.2 c0.4-3,0.7-5.9,0.8-8.9C241.8,285.2,241.5,288.2,241.1,291.2z" fill="inherit"/><path d="M80.3,107.6c-0.6-0.7-1.3-1.4-1.9-2.1c-0.9-0.9-1.6-2.1-2.7-2.8c-1.2-0.8-2.8-0.7-2.7,1.1 c0.1,1.4,1.9,2.9,2.8,3.8c1.2,1.3,2.5,2.6,3.7,3.9c1,1.1,2.1,2.3,3,3.5c0.7,0.9,1.5,1.5,2.7,1.6c1,0.1,1.8-0.8,1.6-1.8 c-0.3-1.2-1.3-2.2-2.2-3C83.1,110.4,81.7,109,80.3,107.6z" fill="inherit"/><path d="M82.9,83.3c-1.4,0.3-2.5,1.5-1.2,2.7c1,1,3.3,0.7,4.6,0.8c1.8,0.1,3.6,0.1,5.4,0.2c1.5,0.1,3.1,0.2,4.6,0.4 c1.1,0.1,2.1,0,3-0.7c0.8-0.6,0.7-1.9-0.2-2.4c-1.1-0.7-2.4-0.6-3.7-0.6c-2,0-4,0-6-0.1c-0.9,0-1.9-0.1-2.8-0.1 C85.5,83.3,84.1,83,82.9,83.3z" fill="inherit"/><path d="M54.2,57.2c0.2,0.5,0.6,1,1.1,1.1c1.8,0.3,1.8-3.1,1.9-4.1c0-0.8,0.2-1.4,0.1-2.2c-0.1-0.8-0.1-5.6-0.1-6.4 c0-0.6,0.4-1.4,0.1-1.8c0-1.3-1.4-2.6-2.5-1.3c-0.4,0.5-0.5,1.2-0.5,1.9c0,0.9-0.3,5.5,0,6.5c0.2,1,0.1,2.1-0.1,3.1 C54,54.9,53.8,56.2,54.2,57.2z" fill="inherit"/><path d="M79,64.4c0.6-0.4,1.2-0.7,1.8-1.3c0.6-0.6,4.3-3.5,5-4c0.5-0.3,1.3-0.5,1.5-1.1c1-0.8,1.2-2.7-0.5-2.8 c-0.7,0-1.3,0.4-1.8,0.8c-0.7,0.6-4.5,3.2-5.1,4c-0.6,0.8-1.6,1.4-2.5,1.9c-0.9,0.5-2,1.2-2.5,2.1c-0.3,0.4-0.4,1-0.2,1.5 C75.5,67.1,78.2,65,79,64.4z" fill="inherit"/><path d="M14.9,87.3c1.5-0.2,3.1-0.3,4.6-0.4c1.8-0.1,3.6-0.1,5.4-0.2c1.3,0,3.6,0.2,4.6-0.8 c1.3-1.2,0.2-2.4-1.2-2.7c-1.3-0.3-2.6,0-3.9,0.1c-0.9,0-1.9,0.1-2.8,0.1c-2,0.1-4,0-6,0.1c-1.2,0-2.6,0-3.7,0.6 c-0.9,0.6-0.9,1.8-0.2,2.4C12.8,87.3,13.8,87.4,14.9,87.3z" fill="inherit"/><path d="M19.6,60.7c1.4,0.7,2.7,1.5,4,2.3c1.5,1,3,2,4.5,2.9c1.1,0.7,2.8,2.2,4.2,2c1.8-0.2,1.5-1.9,0.5-2.9 c-0.9-0.9-2.1-1.5-3.2-2.2c-0.8-0.5-1.6-1-2.4-1.5c-1.7-1.1-3.3-2.2-4.9-3.4c-1-0.7-2.1-1.5-3.4-1.6c-1,0-1.8,1-1.5,1.9 C17.9,59.5,18.6,60.2,19.6,60.7z" fill="inherit"/><path d="M35.5,102.8c-1.1,0.7-1.8,1.8-2.7,2.8c-0.6,0.7-1.3,1.4-1.9,2.1c-1.4,1.4-2.8,2.8-4.2,4.2 c-0.9,0.9-1.9,1.8-2.2,3c-0.2,1,0.6,1.9,1.6,1.8c1.2-0.1,2-0.8,2.6-1.6c0.9-1.2,2-2.4,3-3.5c1.2-1.3,2.5-2.6,3.7-3.9 c0.9-1,2.7-2.4,2.8-3.8C38.3,102,36.7,102,35.5,102.8z" fill="inherit"/><path d="M42.9,102.3c2.2,1.8,4.9,3,6.6,5.5c0.7,1,1.1,2,1.6,3.2l0.1,0.2c-0.4,0.4-0.5,0.8-0.5,1.3c0,0,0,0.1,0,0.1 c-0.1,0.2,0,0.4,0.1,0.6c0.1,0.3,0.1,0.7,0.2,1c0,0.6,0,1.2,0,1.9c-0.3,0-0.5,0.2-0.6,0.5c-0.1,0.4,0.1,0.8,0.5,0.9 c0.1,0,0.1,0,0.2,0c0,0.2,0,0.5,0.1,0.7c0.1,0.6,0.1,1.1,0.1,1.7c-0.2,0.1-0.3,0.2-0.4,0.4c-0.2,0.4,0,0.8,0.4,0.9l0,0 c0,0.2,0,0.5,0.1,0.7c0.1,0.8,0.5,1.7,0.9,2.4c0.9,1.4,2.4,2.5,4.1,2.7c1.4,0.2,3.3,0.1,4.4-0.9c0.3-0.2,0.5-0.5,0.8-0.8 c0.1,0,0.1,0.1,0.2,0.1c0.1,0,0.2,0.1,0.3,0.1c0.3,0,0.5-0.2,0.7-0.4c0.1-0.3,0-0.6-0.2-0.8c0,0,0-0.1,0.1-0.1 c0.5-0.8,0.6-1.7,0.8-2.6c0-0.1,0-0.1,0-0.2c0.2,0,0.3-0.1,0.5-0.2c0.2-0.2,0.3-0.5,0.2-0.8c-0.1-0.2-0.2-0.3-0.4-0.4 c0.1-0.7,0.1-1.4,0.2-2.1c0,0,0.1,0,0.1,0c0.4-0.1,0.6-0.5,0.4-0.9c-0.1-0.3-0.3-0.4-0.6-0.5c0-0.4,0-0.8,0-1.1c0-0.9,0-1.7,0-2.5 c0-0.6,0-1.5-0.6-1.8l0-0.3c0.2-2.5,2.3-4.4,3.9-6.3c1.7-2,4.1-3.4,5.8-5.5c1.5-2,2.7-4.2,3.6-6.6c1.7-4.7,1.8-9.9,0.3-14.7 c-1.5-4.7-4.5-8.7-8.4-11.6c-4.1-3-9.7-4.1-14.7-4c-11.5,0.3-20.1,10.9-19.5,22.1C34.3,91.1,37.6,98,42.9,102.3z" fill="inherit"/></g><g fill="#F5B49B"><path d="M109.2,193.2c-1.3-0.5-2.4-0.2-3.7,0.3c-4.2,1.4-6.5,6.3-7.4,10.3c-4.2-5.5-8.9-11.6-15.8-13.7 c-1.5-0.5-3.2-0.6-4.8-0.6c0-0.6-0.1-1-0.1-1.6c0-11.8,0.5-23.6,0-35.3c-0.2-4.2-1-10.8-5.5-12.8c-1.6-0.7-2.4-0.7-3.9,0.2 c-5.1,3.1-4.5,10.7-4.6,15.9c0,7.4-0.4,14.8-0.2,22.3c0.2,6,0.5,12-0.9,17.9c-2,8.7-6.6,16.4-9.3,24.8c-3,9.4-1.4,18.1,0.8,27.5 c0.5,2.2,1,4.5,1.4,6.8c0.4,2.1,0.7,4.3,1.1,6.4c0.2,0.8,0.3,1.5,0.6,2.3c0.8,2.6,2.1,5.2,2.5,7.8c0.4,2,0.8,3.2,2.2,4.9 c2.4,3,5.3,5.6,8.7,7.6c6.1,3.6,14.1,5.1,20.1,0.5c4.6-3.5,6.3-8.3,8.1-13.3c0.6-1.7,1.2-3.5,2-5.1c3-6.9,7.5-13.2,9.8-20.4 c1-3.1,1.5-6.2,1.7-9.4c0.2-2.6,0.2-5.2,0.1-7.9c-0.1-3.2-0.6-6.4-0.6-9.6c0-2.9,0.7-5.7,1.4-8.6c0.9-4.1,3-9.2,1-13.3 C112.9,195.1,111.1,193.9,109.2,193.2z" fill="inherit"/><path d="M262.4,117.8c-1.8-4.3-8.2-6.6-11.2-2.1l-0.2,0c0,0.4,0,0.8,0.1,1.2c0.1,1.3,0,3.1-0.1,4.5 c-0.1,1.1-0.2,2.1-0.6,3.1c-0.3,0.9-1.1,2.2-2.1,2.4c-3.5,0.5-2.8-9.7-2.9-11.6c-0.2-6.2-1.3-13.1-4.8-18.4c-1.9-2.7-3-6.2-3.8-9.4 c-0.8-3.6-1.1-6.9-1.1-10.5c0-5.6,0.4-11.3-2.6-16.5c-2.8-4.7-8.4-6.8-13.6-7.1c-1.2-0.1-2,0-3.2-0.1c-8.4-0.5-16.6,0.1-24.4,3.3 c-2.5,1-5.1,1.5-7.8,1.4c-6.8-0.1-13.3-2.8-19.9-4.2c-3.3-0.7-6.3-0.8-9.6-0.6c-3.4,0.2-6.8,0.4-9.7,2.6c-2.6,2-4.3,4.8-5.3,7.8 c-0.7,2.1-1.1,4.3-1.3,6.5c-0.3,2.8,0.5,5.4,0.3,8.1c-0.4,4.7-1.3,9.3-3.6,13.5c-0.6,1.1-1,2.3-1.5,3.4c-0.5,1-1.1,1.8-1.8,2.7 c-1.3,2-2.8,4-3.8,6.3c-2.1,5.2-0.8,10.9-0.7,16.3c0,2.2,0,4.6-1.4,6.5c-1.5,1.9-3.5,1.4-5-0.3c-1.5-1.8-1.7-4-2-6.2 c-0.2-1-0.3-2-0.5-3c-1.7-2.3-2.9-4.7-6.3-4.4c-2.5,0.3-4.9,2-5.9,4.4c-1.2,2.8-1.1,6-0.4,9c0.4,1.5,1,2.8,1.6,4.2 c0.6,1.3,1.4,2.1,2.2,3.3c2.1,2.9,5,5.3,8.1,7c3,1.7,5.5,2.2,7.7,5c2.1,2.7,3.4,5.9,5.5,8.5c2.4,3,4.7,5.9,7,8.9 c3.8,5.2,9.4,9.4,14.6,13.1c2.6,1.9,5.3,3.5,8.1,5.1l-0.4,0.6c0.5,0.6,0.3,1.8,0.4,2.5c0.1,0.8,0.4,1.6,0.5,2.5 c0.3,2,0.5,4,0.6,5.9c0.2,4,0.2,8,0,12c0,0.2,0,0.4,0,0.6c0,1.4,0.1,2.8,0.1,4.2c0,1.1-0.1,2.1-0.3,3.2c-0.4,2.2-0.4,4,0.2,6.3 c1.5,5.8,5.3,11,10.1,14.6c3.2,2.4,6.4,3.4,10.1,4.4c2.3,0.6,4.8,1.1,7.1,1.2c2.3,0.1,4.8-0.2,7-0.9c1.2-0.4,2.4-1,3.6-1.4 c6.1-2.4,11.2-7.3,14.2-13.1c1.5-3,2.4-6.2,2.6-9.5c0.1-1.8-0.1-3.5-0.5-5.2c-0.2-1.3-0.5-2.5-0.7-3.8c-0.1-0.1-0.2,0-0.2-0.3 c0.1,0,0.1,0,0.2,0c-0.1-0.5-0.2-1-0.2-1.5c-0.1-0.7-0.2-1.4-0.2-2.2c-4.9,0.3-9.6,1.5-14.7,1.1c-5.6-0.5-11.7-1.9-17-4 c-4.6-1.8-8.8-4.8-12.7-7.8c-2.7-2-4.8-4.5-7.1-6.9c-0.4-0.4-0.8-1-1.3-1.6c2.7,1.5,5.4,2.9,8.2,4.4c3.4,1.8,7.1,3,10.8,4 c3,0.8,6.3,1.4,9.3,1.4l0-0.2c8.2-0.3,17.8-5.1,24.9-10.6c1.5-1.1,2.8-2.3,4-3.5c4.1-4,8.6-8.3,12.2-12.7 c4.7-5.6,8.4-12.8,11.5-19.8l0.2,0.1c2.4-1.2,4.9-2.3,7.2-3.6c3.2-1.8,6.2-4.3,8.3-7.3c0.8-1.2,1.7-2,2.3-3.4 c0.6-1.4,1.3-2.8,1.7-4.3C263.6,124,263.6,120.7,262.4,117.8z" fill="inherit"/></g><g><path d="M190.5,192.3l0-0.2c8.2-0.3,17.8-5.1,24.9-10.6l0.1,0.2c-0.3,2.4-0.2,5-0.3,7.1c-0.4,4.2-0.6,8.5-0.3,12.7 c-4.9,0.3-9.6,1.5-14.7,1.1c-5.6-0.5-11.7-1.9-17-4c-4.6-1.8-8.8-4.8-12.7-7.8c-2.7-2-4.8-4.5-7.1-6.9c-0.4-0.4-0.8-1-1.3-1.6 c2.7,1.5,5.4,2.9,8.2,4.4c3.4,1.8,7.1,3,10.8,4C184.1,191.7,187.4,192.2,190.5,192.3z" fill="#DE6E50"/></g><g><path d="M155,403.3c2.8,2.2,1.6,5.8-0.3,8.1c-1.9,2.3-6.3,0.3-7.4-2c-1.3-2.9,0.4-6.9,3.8-7.1 C152.7,402.2,153.7,402.2,155,403.3z" fill="#37628F"/></g><g><path d="M206.7,144.8c1.4,3.5-1.7,7.4-4,9.7c-3.8,3.9-8.8,6.2-14.3,5.5c-3.1-0.4-5.6-1.1-8.3-2.8 c-2.4-1.6-4.7-3.5-6.4-5.8c-1.3-1.8-2.4-5.1-0.9-7.2c1.2-1.7,3.6-2.3,5.6-2.1c1.8,0.2,3.7,0.2,5.6,0.4c1.7,0.1,3.5,0.1,5.2,0 c2.3-0.1,4.6,0,6.8-0.3c2.1-0.3,4.1-1.1,6.2-0.7C204.2,141.9,205.9,142.8,206.7,144.8z" fill="#FFF"/></g><g><path d="M215.4,205.3c0,0.1,0,0.2,0.1,0.3c-0.1-0.1-0.2,0-0.2-0.3C215.3,205.3,215.3,205.3,215.4,205.3z" fill="#8CC295"/></g><g><path d="M158.2,456.1c2.8,2.2,1.6,5.8-0.3,8.1c-1.9,2.3-6.3,0.3-7.4-2c-1.3-2.9,0.4-6.9,3.8-7.1 C155.9,455,156.9,455.1,158.2,456.1z" fill="#37628F"/></g><g><path d="M118.4,117.5c-0.3-2.2-0.6-4.5-0.8-6.7c-0.3-2.4-0.5-4.9-1.3-7.3c-1.5-4.8-4.5-8.9-6.1-13.6 c-0.8-2.2-1.2-4.2-1.2-6.6c0-2.6,0.4-5.1,0.6-7.7c0.4-4.3,1.3-8.5,2.3-12.6c1.3-5.5,3.3-11.1,2.7-16.8c-0.1-0.7-0.2-1.3-0.2-2 c-0.5-4.3,0.9-7.5,2.9-11.2c3-5.7,7.5-11,13.3-14c6.4-3.3,14.1-4.5,20.8-7.4c2.9-1.2,5.6-2.7,8.2-4.4c1.1-0.7,1.9-1.6,3-2.2 c1.7-0.9,3.5-1.6,5.3-2.4c2.1-0.9,4.3-1.6,6.6-2c6.9-1.2,14.3-0.8,21,1.1c6.6,1.9,13.4,5.9,15,13c0.4,1.8,1.8,1.7,3.5,1.7 c4.9-1.1,10.2,0,14.6,2.4c6.4,3.5,8.5,9.6,12,15.5c3,5.3,7.3,9.7,11.1,14.4c4.8,6.1,8.4,12.9,7.2,20.8c-0.5,3.7-1.1,7.2-1,10.9 c0.1,3.8-1.7,8-2.6,11.7c-0.6,2.3-0.8,4.9-1.8,7.1c-2.2,5.3-2.6,10.8-2.3,16.5c0,0.4,0,0.8,0.1,1.2c0.1,1.3,0,3.1-0.1,4.5 c-0.1,1.1-0.2,2.1-0.6,3.1c-0.3,0.9-1.1,2.2-2.1,2.4c-3.5,0.5-2.8-9.7-2.9-11.6c-0.2-6.2-1.3-13.1-4.8-18.4c-1.9-2.7-3-6.2-3.8-9.4 c-0.8-3.6-1.1-6.9-1.1-10.5c0-5.6,0.4-11.3-2.6-16.5c-2.8-4.7-8.4-6.8-13.6-7.1c-1.2-0.1-2,0-3.2-0.1c-8.4-0.5-16.6,0.1-24.4,3.3 c-2.5,1-5.1,1.5-7.8,1.4c-6.8-0.1-13.3-2.8-19.9-4.2c-3.3-0.7-6.3-0.8-9.6-0.6c-3.4,0.2-6.8,0.4-9.7,2.6c-2.6,2-4.3,4.8-5.3,7.8 c-0.7,2.1-1.1,4.3-1.3,6.5c-0.3,2.8,0.5,5.4,0.3,8.1c-0.4,4.7-1.3,9.3-3.6,13.5c-0.6,1.1-1,2.3-1.5,3.4c-0.5,1-1.1,1.8-1.8,2.7 c-1.3,2-2.8,4-3.8,6.3c-2.1,5.2-0.8,10.9-0.7,16.3c0,2.2,0,4.6-1.4,6.5c-1.5,1.9-3.5,1.4-5-0.3c-1.5-1.8-1.7-4-2-6.2 C118.7,119.6,118.6,118.6,118.4,117.5z M215.6,83.2c-1.3-0.1-2.6-0.1-3.9,0.1c-1.5,0.2-3.1,0.8-4.5,1.3c-1.1,0.4-1.9,0.9-2.7,1.7 c-1.3,1.1-2.9,3.1-0.8,4.3c0.6,0.3,1.4,0.3,2,0.1c2.3-0.7,4.4-1.7,6.8-1.6c0.8,0,1.7-0.2,2.5,0c0.7,0.2,1.4,0.4,2.1,0.7 c1.5,0.5,3,1.2,4.6,1c1.7-0.3,2.6-1.9,1.6-3.4C221.8,85.1,218.3,83.5,215.6,83.2z M162,83.2c-1.3-0.1-2.6-0.1-3.9,0.1 c-1.5,0.2-3.1,0.8-4.5,1.3c-1.1,0.4-1.9,0.9-2.7,1.7c-1.3,1.1-2.9,3.1-0.8,4.3c0.6,0.3,1.4,0.3,2,0.1c2.3-0.7,4.4-1.7,6.8-1.6 c0.8,0,1.7-0.2,2.5,0c0.7,0.2,1.4,0.4,2.1,0.7c1.5,0.5,3,1.2,4.6,1c1.7-0.3,2.6-1.9,1.6-3.4C168.2,85.1,164.6,83.5,162,83.2z" fill="#1E244A"/></g><g><path d="M218,109.6c0.4,2-0.3,4.1-1.3,5.7c-1.2,1.8-3.9,2.1-5.9,1.5c-4.4-1.2-5.7-6.5-2.6-9.8c1.7-1.8,4.5-3,6.8-1.8 C216.3,106.1,217.7,108.1,218,109.6z M162.1,105.3c-2.3-1.2-5.1,0-6.8,1.8c-3.1,3.3-1.8,8.6,2.6,9.8c2,0.5,4.7,0.3,5.9-1.5 c1.1-1.6,1.7-3.8,1.4-5.7C164.9,108.1,163.5,106.1,162.1,105.3z" fill="inherit"/></g><path d="M237.5,328.7c-0.5,10.2-9.7,17.6-14.2,26.8c-4,8-4.3,17.3-4.6,26.2" fill="none"/><g><path d="M176.8,480.2c-1-3-0.9-6-1.5-9.1c-1.3-7.5-2.1-15.1-2.8-22.6c-0.3-3.6-0.1-7.7-0.9-11.2 c-0.6-2.8-0.8-5.5-1-8.4c-0.8-14-3.2-27.8-7.2-41.3c0.2,1,0.3,1.9,0.5,2.9c1.5,10.8,2.3,21.7,2.8,32.6c0,0.4,0,0.9,0.1,1.3 c0.3,5.6,0.4,11.2,0.6,16.8c0.4,11,0.7,21.8,0.6,32.9c0,8.2-0.3,16.4-0.7,24.6h12c-0.2-2.5-0.5-4.9-0.9-7.4 C177.9,487.8,177.9,483.6,176.8,480.2z" fill="#EDEDED"/></g><g><path d="M240.3,252.5c-0.7-4.6-1.1-9.2-2.2-13.8c-2.2-8.9-6.3-17.7-13.3-23.9c-2.6-2.3-6.1-3.4-8.6-5.5 c0.3,1.7,0.6,3.4,0.5,5.2c-0.2,3.3-1.1,6.6-2.6,9.5c-2.9,5.9-8,10.7-14.2,13.1c-1.2,0.5-2.4,1-3.6,1.4c-2.2,0.8-4.7,1.1-7,0.9 c-2.3-0.1-4.8-0.6-7.1-1.2c-3.8-1-6.9-2-10.1-4.4c-4.8-3.5-8.6-8.7-10.1-14.6c-0.6-2.3-0.6-4-0.2-6.3c0.2-1,0.3-2.1,0.3-3.2 c-0.7,0.8-2.3,1.7-3.2,2.5c-5.7,5.1-8.6,13.9-11.1,20.9c-4.8,12.9-5.8,26.6-5.9,40.2c-0.1,13.9,0.7,27.7,2.9,41.4 c1.2,7.4,2.7,14.7,4.6,21.9c4.6,17.2,11.2,33.2,14.1,50.8c3.9,13.4,6.3,27.3,7.2,41.3c0.2,2.9,0.4,5.6,1,8.4 c0.8,3.5,0.6,7.6,0.9,11.2c0.7,7.6,1.5,15.1,2.8,22.6c0.5,3.1,0.5,6.2,1.5,9.1c1.1,3.4,1.2,7.6,1.7,11.2c0.3,2.4,0.7,4.9,0.9,7.4 h11.6h32.5c0.1-11.4,0.3-22.9-0.8-34.2c-0.9-9.5-1.4-19.1-1.1-28.6c0.2-7.9-0.4-15.8-0.1-23.7c0.3-8.8,2.2-17.6,2.6-26.5 c0.3-6.6,1.4-13,2.8-19.5c1.6-7.4,1.5-15.1,3.5-22.5c2.1-7.5,4.2-14.9,5.7-22.6c1.4-7,2.2-14,3.6-20.9 C242.8,284.3,242.9,268.4,240.3,252.5z" fill="#FFFBF2"/></g><g fill="#4F95CF"><path d="M356.9,472.9c0.5-8.2,2.2-16.5,0.8-24.8c-2.2-12.7-7.2-24.4-8.6-37.3c-1.4-13.2-1.3-26.6-2.4-39.8 c-0.9-10.4-1.9-20.8-3.2-31.1c-0.6-5.1-1.3-10.2-2.1-15.3c-0.7-4.5-1-9.1-1.8-13.6c-0.4-2.4-1.6-4.6-2.3-6.9 c-3.2-9.4-6.7-19.2-11.4-27.9c-4.2-7.9-9.1-16.6-15.2-23.2c-6.6-7.1-14.3-11.9-22.5-16.6c-6.2-3.6-12.9-6.2-19.5-8.9 c-3.1-1.3-6.2-2.6-9.2-4c-2.7-1.2-4.9-3.4-7.7-4.6c-2.8-1.3-5.7-2.5-8.6-3.6c-6.2-2.5-12.6-4.6-18.8-7.1c-2.6-1-5.9-3.1-8.8-2.7 c0,0.1,0,0.2,0.1,0.3c0.2,1.3,0.5,2.5,0.7,3.8c2.5,2.1,6.1,3.2,8.6,5.5c7,6.2,11.1,14.9,13.3,23.9c1.1,4.6,1.5,9.2,2.2,13.8 c2.6,15.8,2.5,31.8-0.8,47.5c-1.4,6.9-2.3,14-3.6,20.9c-1.5,7.7-3.7,15.1-5.7,22.6c-2,7.4-1.9,15.1-3.5,22.5 c-1.4,6.5-2.5,12.9-2.8,19.5c-0.4,8.9-2.3,17.7-2.6,26.5c-0.3,7.9,0.4,15.9,0.1,23.7c-0.3,9.6,0.3,19.1,1.1,28.6 c1,11.3,0.9,22.8,0.8,34.2h74.5h59c0.1-4.3,1.3-8.4,1.3-12.7C358.2,481.6,356.6,477.3,356.9,472.9z" fill="inherit"/><path d="M166.8,424.4c-0.5-11.3-1.3-22.7-2.9-33.9c-2.7-18.8-9.7-35.6-14.6-53.7c-1.9-7.2-3.5-14.5-4.6-21.9 c-2.2-13.7-3-27.5-2.9-41.4c0.1-13.6,1.1-27.3,5.9-40.2c2.6-7,5.5-15.7,11.1-20.9c0.9-0.8,2.5-1.7,3.2-2.5c0,0,0,0,0,0 c0-1.4-0.1-2.8-0.1-4.2c0-0.2,0-0.3,0-0.5c-2.5,0.4-5.1,2-7.2,2.9c-6.1,2.7-12.5,5-18.6,7.7c-2.8,1.3-5.7,2.6-8.4,3.9 c-2.7,1.3-4.8,3.5-7.5,4.8c-2.7,1.3-5.4,2.6-8.1,3.8c0.1,2.6,0,5.2-0.1,7.8c-0.2,2.9-0.7,5.7-1.5,8.5c-0.1,0.3-0.2,0.6-0.3,0.9 c-2.3,7.2-6.7,13.5-9.8,20.4c-0.7,1.7-1.4,3.4-2,5.1c-1.8,5-3.5,9.8-8.1,13.3c-6,4.6-14,3.1-20.1-0.5c-3.3-1.9-6.3-4.5-8.7-7.6 c-1.3-1.7-1.8-2.9-2.2-4.9c-0.5-2.7-1.8-5.2-2.5-7.8c-0.2-0.8-0.4-1.5-0.6-2.3c-0.8,0.8-2,1.1-3,1.8c-9,5.7-7.4,16-10,24.8 c-1.9,6.5-7.3,10.7-10.5,16.5c-2.7,5-4,10.4-4.6,16c-0.8,7.9-2.6,15.3-5.4,22.8c-2.9,7.9-6.8,15.4-9.6,23.4 C5.3,389.5-2,415.6,0.5,439.9c1.2,11,4.4,23.3,12.9,31c14.2,12.9,41,7.5,52.1-6.5c4.7-5.9,7.3-13.2,9.2-20.8l0,0 c1.5,18.2,1.7,36.8,1.5,55.1h91.1c0.4-8.2,0.7-16.4,0.7-24.6c0-11.1-0.3-21.9-0.6-32.9C167.2,435.6,167,430,166.8,424.4z M147.3,409.4c-1.3-2.9,0.4-6.9,3.8-7.1c1.6-0.1,2.5-0.1,3.9,1c2.8,2.2,1.6,5.8-0.3,8.1C152.7,413.7,148.3,411.7,147.3,409.4z M157.8,464.2c-1.9,2.3-6.3,0.3-7.4-2c-1.3-2.9,0.4-6.9,3.8-7.1c1.6-0.1,2.5-0.1,3.9,1C161,458.3,159.8,461.9,157.8,464.2z" fill="inherit"/></g><g><path d="M197.1,50.4c-0.3,0-0.5-0.1-0.7-0.3c-0.4-0.4-0.4-1,0-1.4c5.7-5.8,8.4-13.4,10.2-20.2 c0.1-0.5,0.7-0.8,1.2-0.7c0.5,0.1,0.8,0.7,0.7,1.2c-3.4,12.4-7.3,17.6-10.7,21C197.6,50.3,197.3,50.4,197.1,50.4z" fill="#080E38"/></g><g><path d="M209.8,50.7c-0.4,0-0.8-0.3-0.9-0.7c-0.2-0.5,0.1-1.1,0.6-1.3c4.2-1.5,7.9-3.6,11.2-6.5 c0.4-0.4,1-0.3,1.4,0.1c0.4,0.4,0.3,1-0.1,1.4c-3.4,3-7.4,5.3-11.8,6.8C210,50.7,209.9,50.7,209.8,50.7z" fill="#080E38"/></g><g><path d="M173.5,43c-0.5,0-0.9-0.3-1-0.8c-1.8-8.2-6.3-14.4-12.6-17c-0.5-0.2-0.7-0.8-0.5-1.3 c0.2-0.5,0.8-0.7,1.3-0.5c6.8,2.9,11.8,9.5,13.7,18.4c0.1,0.5-0.2,1.1-0.8,1.2C173.6,43,173.5,43,173.5,43z" fill="#080E38"/></g><g><path d="M146.8,42.6c-0.2,0-0.3,0-0.5-0.1c-4.7-2.6-9.3-3.7-13.5-3.1c-0.5,0.1-1-0.3-1.1-0.8 c-0.1-0.5,0.3-1,0.8-1.1c4.7-0.7,9.6,0.5,14.7,3.3c0.5,0.3,0.6,0.9,0.4,1.3C147.5,42.5,147.2,42.6,146.8,42.6z" fill="#080E38"/></g><g><path d="M190.7,131.9c-0.9,0-1.8-0.2-2.7-0.6c-1.6-0.7-2.8-1.4-3.7-2.3c-0.4-0.4-0.4-1,0-1.4c0.4-0.4,1-0.4,1.4,0 c0.8,0.7,1.7,1.3,3.1,1.9c0.9,0.4,1.7,0.5,2.4,0.4c0.6-0.1,1.1-0.3,1.7-0.5c0.7-0.3,2.9-1.3,1.4-6.1c-0.5-1.6-1.1-3.2-1.6-4.8 c-0.5-1.4-1-2.9-1.5-4.4c-0.3-0.9-0.4-1.7-0.4-2.6c0-0.4-0.1-0.8-0.1-1.1c-0.4-2.9-0.2-5.9,0.2-8.7c0.1-0.5,0.6-0.9,1.1-0.9 c0.5,0.1,0.9,0.6,0.9,1.1c-0.3,2.7-0.6,5.5-0.2,8.2c0.1,0.4,0.1,0.8,0.1,1.2c0.1,0.7,0.1,1.5,0.3,2.1c0.5,1.5,1,2.9,1.5,4.4 c0.6,1.6,1.2,3.2,1.7,4.9c1.6,5.3-0.5,7.5-2.5,8.4c-0.7,0.3-1.5,0.6-2.2,0.7C191.3,131.9,191,131.9,190.7,131.9z" fill="#DE6E50"/></g><g><path d="M120.8,136.8c-0.4,0-0.7-0.2-0.9-0.5c-0.4-0.8-1.1-1.3-1.9-1.8c-1-0.7-2.1-1.4-2.6-2.8 c-0.6-1.4-0.2-2.6,0.2-3.7c0.1-0.4,0.3-0.9,0.3-1.3c0.1-0.4-0.1-0.7-0.2-1.2c-0.1-0.2-0.2-0.5-0.2-0.7c-0.2-0.8-0.4-1.3-0.9-1.7 c-1.2-1-2.3-1.5-3-1.4c-0.2,0-0.6,0.1-0.9,0.6c-0.3,0.4-0.9,0.6-1.4,0.2c-0.4-0.3-0.6-0.9-0.2-1.4c0.6-0.8,1.4-1.3,2.3-1.5 c1.3-0.2,2.8,0.4,4.5,1.8c0.9,0.8,1.3,1.7,1.5,2.7c0.1,0.2,0.1,0.4,0.2,0.6c0.2,0.6,0.5,1.3,0.3,2.1c-0.1,0.6-0.2,1.1-0.4,1.6 c-0.3,1-0.5,1.6-0.2,2.3c0.3,0.8,1,1.3,1.9,1.8c0.9,0.6,2,1.3,2.6,2.6c0.2,0.5,0,1.1-0.4,1.3C121.1,136.7,121,136.8,120.8,136.8z" fill="#DE6E50"/></g><g><path d="M248.7,137.7c-0.1,0-0.3,0-0.4-0.1c-0.5-0.2-0.7-0.8-0.4-1.3c0.6-1.3,1.7-2,2.7-2.6c0.9-0.6,1.6-1.1,2-1.9 c0.3-0.7,0.1-1.4-0.2-2.4c-0.2-0.5-0.3-1-0.4-1.6c-0.1-0.9,0.1-1.6,0.4-2.2c0.1-0.2,0.2-0.4,0.2-0.6c0.3-0.9,0.6-1.9,1.6-2.7 c1.7-1.4,3.3-2.1,4.7-1.9c0.9,0.1,1.7,0.6,2.3,1.5c0.3,0.4,0.2,1.1-0.2,1.4c-0.4,0.3-1.1,0.2-1.4-0.2c-0.4-0.5-0.7-0.6-1-0.7 c-0.8-0.1-1.9,0.4-3.1,1.4c-0.5,0.4-0.7,0.9-0.9,1.7c-0.1,0.3-0.2,0.5-0.3,0.8c-0.2,0.5-0.3,0.9-0.3,1.2c0.1,0.4,0.2,0.9,0.3,1.3 c0.3,1.1,0.7,2.3,0.2,3.8c-0.5,1.4-1.7,2.1-2.7,2.8c-0.8,0.6-1.6,1.1-2,1.9C249.4,137.5,249.1,137.7,248.7,137.7z" fill="#DE6E50"/></g><g><path d="M95.5,229.6c-0.2,0-0.4,0-0.5-0.1l0,0c-0.5,0-1-0.5-0.9-1.1c0-0.5,0.5-0.9,1.1-0.9c0.2,0,0.3,0,0.4,0.1 c0.1,0,0.2,0,0.2,0c1.9,0.1,3.7-2.3,4.4-4c1.1-2.8,1.4-6,0.9-9.5c-0.4-3-1-6.1-2.6-8.2c-0.3-0.4-0.6-0.8-0.9-1.2 c-0.3-0.4-0.2-1.1,0.2-1.4c0.4-0.3,1.1-0.2,1.4,0.2c0.3,0.4,0.6,0.8,0.9,1.2c1.9,2.5,2.5,5.9,3,9.2c0.5,3.9,0.2,7.4-1,10.5 c-1,2.6-3.4,5.4-6.2,5.3C95.6,229.6,95.6,229.6,95.5,229.6z" fill="#DE6E50"/></g><g><path d="M68,193.8c-0.3,0-0.6-0.1-0.8-0.4c-0.3-0.4-0.2-1.1,0.2-1.4c2.6-2,5.9-3.2,9.2-3.5c0.5,0,1,0.4,1.1,0.9 c0,0.5-0.4,1-0.9,1.1c-3,0.3-5.9,1.4-8.2,3.1C68.5,193.8,68.2,193.8,68,193.8z" fill="#DE6E50"/></g><g><path d="M84.2,241.7c-1.1,0-2.2-0.3-3-1.1c0,0-0.2-0.1-0.3-0.2c-0.4-0.2-1.2-0.6-1.3-1.5c0-0.5,0.4-1,0.9-1.1 c0.5,0,0.9,0.3,1,0.7c0.1,0,0.2,0.1,0.2,0.1c0.3,0.1,0.6,0.3,0.9,0.6c1,1.1,4.1,0.2,5.7-0.9c4-2.7,6.9-9.4,4.4-16.4 c-0.3-0.8-0.9-1.7-1.5-2.5c-0.2-0.3-0.5-0.7-0.7-1c-3.4-5.2-6.8-8.2-10-8.9c-3.5-0.7-7.3-0.1-9.4,0.3c-0.5,0.1-1.1-0.2-1.2-0.8 c-0.1-0.5,0.2-1.1,0.8-1.2c2.2-0.4,6.3-1.1,10.2-0.3c3.8,0.8,7.5,4,11.2,9.7c0.2,0.3,0.4,0.6,0.6,0.9c0.7,0.9,1.3,1.9,1.7,3 c2.2,6,1.1,14.6-5.1,18.7C88.4,240.7,86.2,241.7,84.2,241.7z" fill="#DE6E50"/></g><g><path d="M73.5,250.1c-1.5,0-2.9-0.7-3.9-2.1c-0.8-1.1-1.4-2.4-1.5-3.6c0-0.5,0-1,0.1-1.5c0.1-0.7,0.1-1.4-0.1-1.9 c-0.6-1.3-1.8-2.3-3-3.3l-0.4-0.3c-0.4-0.3-0.5-1-0.1-1.4c0.3-0.4,1-0.5,1.4-0.1l0.4,0.3c1.3,1.1,2.7,2.2,3.6,4 c0.5,1,0.4,2,0.3,2.9c0,0.4-0.1,0.8,0,1.2c0.1,0.8,0.5,1.8,1.1,2.6c1.1,1.4,2.8,1.7,4.3,0.6c1.9-1.2,3.9-4.3,4.1-9 c0.1-1.6-0.2-3.3-0.7-5.1c-0.6-1.8-2.1-3.4-3.6-4.9l-0.4-0.4c-1.7-1.8-3.7-3.1-5.7-3.8c-0.5-0.2-0.8-0.8-0.6-1.3 c0.2-0.5,0.8-0.8,1.3-0.6c2.3,0.9,4.5,2.3,6.4,4.3l0.4,0.4c1.6,1.6,3.4,3.4,4.1,5.7c0.6,2,0.9,3.9,0.8,5.8c-0.2,4.6-2.1,8.6-5,10.5 C75.6,249.8,74.5,250.1,73.5,250.1z" fill="#DE6E50"/></g><g><path d="M83,251.7c-0.1,0-0.2,0-0.3,0c-0.5-0.2-0.8-0.7-0.7-1.2c1.2-3.8,2.6-6.7,4.5-9.3c0.3-0.5,0.7-0.9,1-1.3 c0.4-0.6,0.9-1.2,1.4-1.9c0.3-0.4,0.9-0.5,1.4-0.2c0.4,0.3,0.5,0.9,0.2,1.4c-0.5,0.6-0.9,1.2-1.4,1.8c-0.3,0.4-0.6,0.9-1,1.3 c-1.8,2.4-3.1,5.1-4.2,8.7C83.8,251.4,83.4,251.7,83,251.7z" fill="#DE6E50"/></g><g><path d="M74.8,444c-0.1,0-0.2,0-0.2,0c-0.5-0.1-0.9-0.7-0.7-1.2c0.9-3.9,1.7-7.8,2.4-11.7c0.3-1.9,0.7-3.6,1-5.4 c1.1-5.8,2.4-11.7,3.5-17.5c3.6-17.4,7.2-35.4,9.7-53.2c0.4-2.8,0.9-5.2,1.5-7.5c0.6-2.1,1.4-4,2.1-6c1.3-3.3,2.6-6.4,2.7-9.9 c0.2-3.8-0.4-7.6-1-11.3c-0.7-4.8-1.5-9.8-0.6-15c0.6-3.9,1.7-7.3,2.8-10.5c2.1-6.3,4-11.8,1.5-19.5c-0.1-0.4-0.2-0.7-0.3-1.1 c-0.3-1.2-0.5-1.9-1.2-2.2c-0.5-0.3-0.7-0.9-0.4-1.3c0.3-0.5,0.9-0.7,1.3-0.4c1.4,0.8,1.8,2.2,2.1,3.5c0.1,0.3,0.2,0.7,0.3,1 c2.7,8.4,0.7,14.4-1.5,20.8c-1.1,3.2-2.2,6.4-2.8,10.2c-0.8,4.9,0,9.8,0.6,14.4c0.6,3.8,1.1,7.6,1,11.6c-0.2,3.8-1.5,7.2-2.9,10.5 c-0.8,1.9-1.5,3.8-2.1,5.7c-0.6,2.2-1.1,4.6-1.4,7.3c-2.5,17.9-6.2,35.9-9.7,53.4c-1.2,5.7-2.4,11.6-3.5,17.4 c-0.3,1.7-0.7,3.5-1,5.3c-0.7,3.8-1.4,7.8-2.4,11.8C75.7,443.7,75.2,444,74.8,444z" fill="#37628F"/></g><g><path d="M73.4,324.7c-0.3,0-0.5-0.1-0.7-0.3c-6.7-6.8-12.8-14.2-19.7-23.4c-0.3-0.4-0.2-1.1,0.2-1.4 c0.4-0.3,1.1-0.2,1.4,0.2c6.9,9.1,12.9,16.5,19.5,23.2c0.4,0.4,0.4,1,0,1.4C73.9,324.6,73.6,324.7,73.4,324.7z" fill="#37628F"/></g><g><path d="M60.6,342.6c-3.7,0-7.7-0.7-12.1-2.1c-0.5-0.2-0.8-0.7-0.6-1.2c0.2-0.5,0.7-0.8,1.2-0.6 c6.7,2.1,12.2,2.6,17.5,1.4c0.5-0.1,1.1,0.2,1.2,0.7c0.1,0.5-0.2,1.1-0.7,1.2C64.9,342.3,62.8,342.6,60.6,342.6z" fill="#37628F"/></g><g><path d="M297.9,500C297.9,500,297.9,500,297.9,500c-0.6,0-1-0.5-1-1c0-5.4-0.4-11-0.9-16.5 c-0.4-4.7-0.8-9.6-0.9-14.3c-0.1-8.7-0.6-17.6-1-26.2c-0.2-3.1-0.3-6.3-0.5-9.4c-0.8-18.6-2.1-36.3-3.9-54.1 c-1.9-18.8-3.5-37.1-2.3-55.4c0.8-13.2,3.7-27.3,8.9-43.2c0.2-0.5,0.7-0.8,1.2-0.6c0.5,0.2,0.8,0.7,0.6,1.2 c-5.1,15.7-8,29.6-8.8,42.7c-1.1,18.1,0.5,36.4,2.3,55.1c1.8,17.8,3.1,35.5,3.9,54.2c0.1,3.1,0.3,6.3,0.5,9.4 c0.4,8.6,0.9,17.5,1,26.2c0.1,4.7,0.5,9.5,0.9,14.2c0.5,5.5,0.9,11.1,0.9,16.6C298.9,499.6,298.4,500,297.9,500z" fill="#37628F"/></g><g><path d="M322.1,469.4c-0.3,0-0.6-0.1-0.8-0.4c-0.4-0.4-0.3-1,0.1-1.4c8.4-7,14.2-14.1,17.4-20.9 c0.2-0.5,0.8-0.7,1.3-0.5c0.5,0.2,0.7,0.8,0.5,1.3c-3.3,7.1-9.3,14.3-17.9,21.6C322.5,469.4,322.3,469.4,322.1,469.4z" fill="#37628F"/></g><g><path d="M63.1,120.7c0,0.1-0.3,0-0.4-0.1c-0.3-0.1-0.6-0.2-0.8-0.3c-0.6-0.3-1.1-0.5-1.8-0.6 c-3.1-0.7-6.1-1.8-9.1-2.8h-0.1c0-0.9,0-1.7,0-2.6c0-0.5-0.2-1.2-0.3-1.7l0,0c0,0.3,5.5,2.2,6,2.3c2,0.6,4.1,1,5.9,2 c0.2,0.1,0.6,0.4,0.8,0.4h0.1c0,1.2-0.1,2.4-0.3,3.5L63.1,120.7z" fill="#DEDEDE"/></g><g><path d="M62.7,120.6c0.1,0,0.4,0.2,0.4,0.1l0.2,0c0,0.3-0.1,0.6-0.2,0.9c-0.2,0.9-0.4,1.8-0.8,2.6 c-0.1,0.2-0.3,0.5-0.4,0.7l0,0c-0.8-0.3-1.6-0.8-2.5-1.1c-2.7-0.9-5.4-2.1-8-3.2l-0.3,0c0-0.8,0-1.6-0.1-2.3 c-0.1-0.5-0.1-0.9-0.1-1.4H51c3,1,6.1,2.1,9.1,2.8c0.7,0.2,1.1,0.4,1.8,0.6C62.2,120.4,62.4,120.5,62.7,120.6z" fill="#DEDEDE"/></g><g><path d="M61.8,124.9L61.8,124.9c-0.3,0.5-0.7,1-1.2,1.3c-1.2,0.9-3,1.1-4.4,0.9c-1.7-0.2-3.2-1.3-4.1-2.7 c-0.5-0.7-0.8-1.6-0.9-2.4c-0.1-0.4-0.1-0.9-0.1-1.3l0.3,0c2.6,1.1,5.3,2.3,8,3.2C60.2,124.1,61,124.6,61.8,124.9z" fill="#DEDEDE"/></g><g><path d="M54.4,111.2C54.4,111.2,54.4,111.2,54.4,111.2C54.4,111.2,54.4,111.2,54.4,111.2 C54.4,111.2,54.4,111.2,54.4,111.2z" fill="#8CC295"/></g><g><path d="M50.7,112.6L50.7,112.6c-0.1-0.5,0-1,0.5-1.3l0.3-0.2c1,0,1.9,0,2.9,0.1c0,0,0,0.1,0,0.1c0,0,0-0.1,0-0.1 c1.5,0,3,0.1,4.5,0.1c1.3,0,2.6,0,3.9-0.2L63,111c0.6,0.4,0.6,1.2,0.6,1.8c0,0.8,0,1.7,0,2.5c0,0.6,0,1.2,0,1.8h-0.1 c-0.2,0.1-0.6-0.2-0.8-0.4c-1.9-1-3.9-1.3-5.9-2C56.2,114.8,50.7,112.9,50.7,112.6z" fill="#DEDEDE"/></g><g><path d="M99.2,84.1c0.9,0.6,0.9,1.8,0.2,2.4c-0.9,0.7-1.9,0.8-3,0.7c-1.5-0.2-3.1-0.3-4.6-0.4 c-1.8-0.1-3.6-0.1-5.4-0.2c-1.3,0-3.6,0.2-4.6-0.8c-1.3-1.2-0.2-2.4,1.2-2.7c1.3-0.3,2.6,0,3.9,0.1c0.9,0,1.9,0.1,2.8,0.1 c2,0.1,4,0,6,0.1C96.7,83.5,98.1,83.4,99.2,84.1z M85,56c-0.7,0.6-4.5,3.2-5.1,4c-0.6,0.8-1.6,1.4-2.5,1.9c-0.9,0.5-2,1.2-2.5,2.1 c-0.3,0.4-0.4,1-0.2,1.5c0.9,1.6,3.6-0.5,4.4-1c0.6-0.4,1.2-0.7,1.8-1.3c0.6-0.6,4.3-3.5,5-4c0.5-0.3,1.3-0.5,1.5-1.1 c1-0.8,1.2-2.7-0.5-2.8C86,55.2,85.4,55.6,85,56z M84.5,111.8c-1.4-1.4-2.8-2.8-4.2-4.2c-0.6-0.7-1.3-1.4-1.9-2.1 c-0.9-0.9-1.6-2.1-2.7-2.8c-1.2-0.8-2.8-0.7-2.7,1.1c0.1,1.4,1.9,2.9,2.8,3.8c1.2,1.3,2.5,2.6,3.7,3.9c1,1.1,2.1,2.3,3,3.5 c0.7,0.9,1.5,1.5,2.7,1.6c1,0.1,1.8-0.8,1.6-1.8C86.4,113.6,85.4,112.7,84.5,111.8z M65.6,85.7c-1,0.8-1.7,1.9-2.2,3 c1.9,0.1,4.9,0.2,4.5-2.4C67.6,84.9,66.5,84.9,65.6,85.7z M58.9,111.3c0-0.3,0-0.5,0-0.8c0-2.8,1-5.7,1.4-8.4 c0.6-3.9,0.9-7.9,2.3-11.6c0.2-0.6,0.5-1.2,0.7-1.7c-0.2,0-0.4,0-0.6,0c-0.7,0-1.5-0.3-2.2-0.6c-1.7-0.6-3.1-1.8-4.1-3.2 c0,0.1-0.1,0.1-0.1,0.2c-0.4,0.6-1.1,1.1-1.7,1.6c-0.6,0.5-1.3,1.1-2,1.4c-0.7,0.2-1.5,0.5-2.2,0.6c-0.2,0-0.4,0-0.6,0 c0.3,0.6,0.5,1.1,0.7,1.7c1.3,3.7,1.7,7.8,2.3,11.6c0.5,3.1,1.4,6.1,1.7,9.1c0,0,0,0,0,0C55.9,111.2,57.4,111.3,58.9,111.3z M55.9,77.8c-1.1,0.6-1.1,2.5-0.9,3.5c0.2,1.3,0.7,2.5,1.4,3.6c0.8-1.3,1.1-3,1-4.6C57.4,79.7,57,77.2,55.9,77.8z M54.7,42.5 c-0.4,0.5-0.5,1.2-0.5,1.9c0,0.9-0.3,5.5,0,6.5c0.2,1,0.1,2.1-0.1,3.1c-0.2,1-0.3,2.3,0.1,3.3c0.2,0.5,0.6,1,1.1,1.1 c1.8,0.3,1.8-3.1,1.9-4.1c0-0.8,0.2-1.4,0.1-2.2c-0.1-0.8-0.1-5.6-0.1-6.4c0-0.6,0.4-1.4,0.1-1.8C57.2,42.4,55.8,41.2,54.7,42.5z M54.4,111.2c-0.2-3.1-1.2-6.1-1.7-9.1c-0.6-3.9-0.9-7.9-2.3-11.6c-0.2-0.6-0.5-1.2-0.7-1.7c-1.9,0.1-4.9,0.2-4.5-2.4 c0.2-1.4,1.3-1.4,2.2-0.6c1,0.8,1.7,1.9,2.2,3c0.2,0,0.4,0,0.6,0c0.7,0,1.5-0.3,2.2-0.6c0.8-0.3,1.4-0.8,2-1.4 c0.6-0.5,1.3-1,1.7-1.6c0-0.1,0.1-0.1,0.1-0.2c-0.7-1.1-1.2-2.3-1.4-3.6c-0.2-1-0.2-2.9,0.9-3.5c1.1-0.6,1.6,2,1.6,2.5 c0,1.5-0.2,3.2-1,4.6c1,1.5,2.4,2.6,4.1,3.2c0.7,0.2,1.5,0.5,2.2,0.6c0.2,0,0.4,0,0.6,0c0.6-1.1,1.3-2.2,2.2-3 c0.9-0.8,2-0.8,2.2,0.6c0.4,2.6-2.6,2.5-4.5,2.4c-0.3,0.6-0.5,1.1-0.7,1.7c-1.3,3.7-1.7,7.8-2.3,11.6c-0.4,2.8-1.4,5.6-1.4,8.4 c0,0.3,0,0.5,0,0.8c1.3,0,2.6,0,3.9-0.2L63,111l0-0.3c0.2-2.5,2.3-4.4,3.9-6.3c1.7-2,4.1-3.4,5.8-5.5c1.5-2,2.7-4.2,3.6-6.6 c1.7-4.7,1.8-9.9,0.3-14.7c-1.5-4.7-4.5-8.7-8.4-11.6c-4.1-3-9.7-4.1-14.7-4c-11.5,0.3-20.1,10.9-19.5,22.1c0.4,6.9,3.7,13.8,9,18.2 c2.2,1.8,4.9,3,6.6,5.5c0.7,1,1.1,2,1.6,3.2l0.1,0.2l0.3-0.2C52.4,111.1,53.4,111.2,54.4,111.2z M45.2,86.3 c-0.4,2.6,2.6,2.5,4.5,2.4c-0.6-1.1-1.3-2.2-2.2-3C46.5,84.9,45.5,84.9,45.2,86.3z M32.8,105.5c-0.6,0.7-1.3,1.4-1.9,2.1 c-1.4,1.4-2.8,2.8-4.2,4.2c-0.9,0.9-1.9,1.8-2.2,3c-0.2,1,0.6,1.9,1.6,1.8c1.2-0.1,2-0.8,2.6-1.6c0.9-1.2,2-2.4,3-3.5 c1.2-1.3,2.5-2.6,3.7-3.9c0.9-1,2.7-2.4,2.8-3.8c0.1-1.8-1.6-1.8-2.8-1.1C34.4,103.5,33.6,104.6,32.8,105.5z M29.7,62.9 c-0.8-0.5-1.6-1-2.4-1.5c-1.7-1.1-3.3-2.2-4.9-3.4c-1-0.7-2.1-1.5-3.4-1.6c-1,0-1.8,1-1.5,1.9c0.3,1.1,1.1,1.8,2.1,2.3 c1.4,0.7,2.7,1.5,4,2.3c1.5,1,3,2,4.5,2.9c1.1,0.7,2.8,2.2,4.2,2c1.8-0.2,1.5-1.9,0.5-2.9C32,64.1,30.8,63.6,29.7,62.9z M24.5,83.3 c-0.9,0-1.9,0.1-2.8,0.1c-2,0.1-4,0-6,0.1c-1.2,0-2.6,0-3.7,0.6c-0.9,0.6-0.9,1.8-0.2,2.4c0.9,0.7,1.9,0.8,3,0.7 c1.5-0.2,3.1-0.3,4.6-0.4c1.8-0.1,3.6-0.1,5.4-0.2c1.3,0,3.6,0.2,4.6-0.8c1.3-1.2,0.2-2.4-1.2-2.7C27.1,83,25.7,83.3,24.5,83.3z" fill="#FFBC3B"/></g><g><path d="M47.8,72.5c-1.5,0.6-3,1.8-3.3,3c-0.2,0.7,0.1,1.4-0.1,2.1c-0.3,1.1-1.5,1.7-2.4,2.5 c-1.5,1.3-2,3.6-1.3,5.4c0.6,1.5,1.8,2.7,2,4.3c0.1,1.3-0.5,2.9,0.4,3.9c0.8,0.8,2.1,0.6,3.2,1c1.4,0.5,2.2,2,3.5,2.6 c1.9,0.9,4.1-0.3,6.2-0.4c1.3-0.1,2.5,0.3,3.8,0.4s2.7,0.1,3.7-0.7c1.1-0.9,1.5-2.3,2.4-3.5c0.8-1.1,2-1.9,3.1-2.7 c1.1-0.9,2.1-2,2.2-3.4c0.1-1.9-1.4-3.4-1.9-5.2c-0.4-1.2-0.3-2.4-0.4-3.7c-0.1-1.1-0.5-2.6-1.7-3.1c-0.6-0.2-1.4-0.3-2-0.4 c-2.1-0.5-3.5-2.6-5.6-3.4c-1.3-0.5-2.8-0.6-4.1-0.3c-1.3,0.3-2.6,1.1-3.9,1.1C50.1,72.1,49,72,47.8,72.5z" fill="#FFF"/></g><g><path d="M61.8,125.6c-0.1,0-0.2,0-0.3-0.1c-0.3-0.1-0.7-0.3-1-0.5c-0.5-0.2-1-0.5-1.4-0.6c-2.5-0.8-4.9-1.9-7.3-2.9 l-0.7-0.3c-0.4-0.2-0.5-0.6-0.4-0.9c0.2-0.4,0.6-0.5,0.9-0.4l0.7,0.3c2.4,1,4.8,2,7.2,2.8c0.6,0.2,1.1,0.4,1.6,0.7 c0.3,0.2,0.6,0.3,0.9,0.4c0.4,0.1,0.5,0.6,0.4,0.9C62.4,125.5,62.1,125.6,61.8,125.6z M63.6,121.2c0.2-0.2,0.3-0.5,0.2-0.8 c-0.1-0.3-0.4-0.5-0.7-0.5c0,0-0.1,0-0.1,0c-0.3-0.1-0.6-0.2-0.8-0.3l-0.2-0.1c-0.5-0.2-1-0.4-1.7-0.6c-2.3-0.5-4.6-1.3-6.8-2 c-0.8-0.2-1.5-0.5-2.2-0.7c-0.4-0.1-0.8,0.1-0.9,0.5c-0.1,0.4,0.1,0.8,0.5,0.9c0.7,0.2,1.5,0.5,2.2,0.7c2.3,0.7,4.6,1.5,7,2.1 c0.5,0.1,0.9,0.3,1.4,0.5l0.2,0.1c0.3,0.1,0.5,0.2,0.9,0.3l0.1,0c0.1,0.1,0.3,0.1,0.5,0.1C63.3,121.4,63.5,121.4,63.6,121.2z M63.7,117.9c0.4-0.1,0.6-0.5,0.4-0.9c-0.1-0.3-0.4-0.5-0.7-0.5c0,0-0.1-0.1-0.1-0.1c-0.1-0.1-0.2-0.1-0.3-0.2 c-1.4-0.7-3-1.1-4.4-1.5c-0.5-0.1-1.1-0.3-1.6-0.5c-0.4-0.1-3.9-1.3-5.3-1.9c-0.4-0.2-0.8,0-0.9,0.4c-0.2,0.4,0,0.8,0.4,0.9 c1.5,0.7,5.1,1.9,5.5,2c0.6,0.2,1.1,0.3,1.7,0.5c1.5,0.4,2.9,0.8,4.2,1.4c0,0,0.1,0.1,0.1,0.1c0.2,0.1,0.5,0.3,0.9,0.3 C63.5,118,63.6,117.9,63.7,117.9z" fill="#A8A8A8"/></g><g><g><path d="M58.9,112.1C58.9,112.1,58.9,112.1,58.9,112.1c-0.4,0-0.7-0.3-0.7-0.7c0-1.9,0.4-3.7,0.8-5.5 c0.2-1,0.5-2,0.6-3c0.1-0.8,0.2-1.6,0.3-2.4c0.4-3.1,0.9-6.4,2-9.4c0.1-0.3,0.2-0.6,0.3-0.9c-0.7-0.1-1.4-0.3-2-0.6 c-1.5-0.5-2.9-1.5-3.9-2.7c-0.3,0.3-0.6,0.6-0.9,0.8c-0.2,0.1-0.3,0.3-0.4,0.4c-0.6,0.6-1.4,1.2-2.3,1.5c-0.6,0.2-1.3,0.5-2,0.6 c0.1,0.3,0.2,0.6,0.3,0.9c1.1,3,1.5,6.2,2,9.4c0.1,0.8,0.2,1.6,0.3,2.4c0.2,1.2,0.5,2.4,0.7,3.6c0.3,1.6,0.7,3.2,0.9,4.8 c0,0.4-0.2,0.7-0.6,0.8c-0.4,0-0.7-0.2-0.8-0.6c-0.2-1.6-0.5-3.2-0.9-4.7c-0.3-1.2-0.5-2.5-0.7-3.7c-0.1-0.8-0.2-1.6-0.3-2.4 c-0.4-3.1-0.9-6.2-1.9-9.1c-0.2-0.4-0.3-0.9-0.5-1.2c-1.4,0.1-3.2,0-4.2-1c-0.5-0.6-0.7-1.3-0.5-2.2c0.2-1.1,0.7-1.5,1.2-1.7 c0.7-0.2,1.5,0,2.2,0.6c0.9,0.7,1.6,1.6,2.2,2.8c0.1,0,0.1,0,0.2,0c0.6,0,1.4-0.3,2-0.5c0.7-0.2,1.3-0.7,1.8-1.2 c0.2-0.1,0.3-0.3,0.5-0.4c0.4-0.3,0.7-0.6,1-0.9c-0.6-1-1.1-2.2-1.3-3.4c-0.1-0.3-0.5-3.3,1.3-4.3c0.4-0.2,0.9-0.2,1.3,0 c1.2,0.7,1.3,3.1,1.3,3.2c0,1.3-0.1,3-0.9,4.5c0.9,1.2,2.1,2.1,3.5,2.6c0.6,0.2,1.4,0.5,2,0.5c0.1,0,0.1,0,0.2,0 c0.6-1.1,1.3-2.1,2.2-2.8c0.7-0.6,1.6-0.9,2.2-0.6c0.4,0.2,1,0.6,1.2,1.7c0.1,0.9,0,1.6-0.5,2.2c-0.9,1-2.7,1.1-4.2,1 c-0.2,0.4-0.3,0.8-0.5,1.2c-1,2.9-1.5,6-1.9,9.1c-0.1,0.8-0.2,1.6-0.3,2.4c-0.2,1-0.4,2.1-0.6,3.1c-0.4,1.7-0.8,3.5-0.8,5.2 C59.6,111.8,59.3,112.1,58.9,112.1z M64.5,88.9c1,0,2-0.1,2.4-0.6c0.1-0.1,0.3-0.3,0.2-1c-0.1-0.3-0.2-0.5-0.2-0.6 c-0.1,0-0.4,0-0.8,0.4C65.5,87.6,65,88.2,64.5,88.9z M46.3,86.7C46.2,86.7,46.2,86.8,46.3,86.7c-0.2,0-0.3,0.2-0.3,0.6 c-0.1,0.7,0.1,1,0.2,1c0.4,0.5,1.4,0.6,2.4,0.6c-0.5-0.7-1-1.3-1.5-1.8C46.7,86.8,46.4,86.7,46.3,86.7z M56.2,79.3 c-0.6,0.4-0.7,1.9-0.5,2.8c0.1,0.8,0.4,1.5,0.7,2.2c0.3-1.1,0.4-2.2,0.4-3C56.7,80.7,56.4,79.6,56.2,79.3z" fill="#FF643B"/></g></g><g><path d="M152.5,392.5c-0.5,0-0.9-0.4-1-0.8c-1.2-8.3-3.6-16.2-5.8-22.9c-0.8-2.3-1.7-4.7-2.6-7 c-1.9-5-3.9-10.1-4.7-15.4c-0.1-0.5,0.3-1,0.8-1.1c0.5-0.1,1,0.3,1.1,0.8c0.7,5,2.7,10.1,4.6,14.9c0.9,2.3,1.8,4.7,2.6,7.1 c2.2,6.8,4.7,14.8,5.9,23.3c0.1,0.5-0.3,1-0.8,1.1C152.6,392.5,152.5,392.5,152.5,392.5z" fill="#37628F"/></g><g><path d="M301,275c-0.1,0-0.3,0-0.4-0.1c-0.5-0.2-0.7-0.8-0.5-1.3c1.3-3.2,3.1-6,4.9-8.8c1.2-1.9,2.4-3.8,3.5-5.8 c0.3-0.5,0.8-0.7,1.3-0.4c0.5,0.3,0.7,0.8,0.4,1.3c-1.1,2-2.3,4-3.5,5.9c-1.7,2.7-3.5,5.5-4.7,8.5C301.8,274.8,301.4,275,301,275z" fill="#37628F"/></g></svg>