<?xml version="1.0" encoding="UTF-8" standalone="no"?><svg xmlns="http://www.w3.org/2000/svg" xmlns:xlink="http://www.w3.org/1999/xlink" fill="#000000" height="223.2" preserveAspectRatio="xMidYMid meet" version="1" viewBox="101.0 101.0 223.2 223.2" width="223.2" zoomAndPan="magnify"><g id="change1_1"><circle cx="212.6" cy="212.601" fill="#fff9e2" r="111.594"/></g><g id="change2_2"><path d="M210.45,190.034c-0.809,0-1.624-0.244-2.329-0.75l-66.017-47.373c-1.082-0.777-1.707-2.041-1.666-3.373 c0.041-1.331,0.741-2.555,1.869-3.264l10.256-6.448c0.646-0.407,1.386-0.614,2.129-0.614c0.522,0,1.045,0.102,1.541,0.309 l73.77,30.787c1.152,0.48,2.013,1.471,2.329,2.679s0.05,2.493-0.718,3.477l-18.01,23.035 C212.817,189.504,211.641,190.034,210.45,190.034z" fill="#a7c5ff"/></g><g id="change3_3"><path d="M154.692,132.213L228.462,163l-18.01,23.035l-66.017-47.373L154.692,132.213 M154.693,124.213 c-1.486,0-2.965,0.414-4.258,1.228l-10.256,6.448c-2.255,1.417-3.657,3.865-3.738,6.528s1.167,5.191,3.332,6.744l66.017,47.373 c1.41,1.012,3.041,1.501,4.659,1.501c2.382,0,4.734-1.06,6.308-3.073l18.01-23.035c1.538-1.966,2.069-4.538,1.437-6.952 c-0.632-2.415-2.354-4.396-4.658-5.358l-73.77-30.787C156.784,124.417,155.736,124.213,154.693,124.213L154.693,124.213z" fill="#134668"/></g><g id="change4_1"><path d="M222.002 171.264L150.903 134.596 144.436 138.661 210.453 186.034z" fill="#e8bb00"/></g><g id="change5_1"><path d="M217.29 177.291L148.089 136.365 144.436 138.661 210.453 186.034z" fill="#d69e0f"/></g><g id="change2_3"><path d="M278.47,266.428c-1.169,0-2.289-0.513-3.054-1.417l-52.474-62.038 c-1.385-1.638-1.232-4.077,0.348-5.528l21.53-19.786c0.744-0.684,1.712-1.055,2.707-1.055c0.233,0,0.468,0.021,0.702,0.062 c1.229,0.219,2.285,0.999,2.855,2.109l36.556,71.088c0.595,1.156,0.59,2.529-0.012,3.683l-5.612,10.736 c-0.617,1.18-1.781,1.976-3.105,2.122C278.764,266.42,278.617,266.428,278.47,266.428z" fill="#a7c5ff"/></g><g id="change3_4"><path d="M247.527,180.604l36.556,71.088l-5.612,10.736l-52.474-62.038L247.527,180.604 M247.527,172.604 c-1.988,0-3.925,0.742-5.413,2.109l-21.53,19.786c-3.159,2.903-3.466,7.781-0.695,11.057l52.474,62.038 c1.529,1.809,3.769,2.834,6.107,2.834c0.292,0,0.586-0.016,0.881-0.049c2.647-0.293,4.976-1.885,6.21-4.245l5.612-10.736 c1.205-2.305,1.214-5.052,0.024-7.364l-36.556-71.088c-1.142-2.22-3.253-3.78-5.711-4.217 C248.463,172.645,247.993,172.604,247.527,172.604L247.527,172.604z" fill="#134668"/></g><g id="change4_2"><path d="M225.997 200.39L278.471 262.428 282.143 255.406 239.256 188.204z" fill="#e8bb00"/></g><g id="change5_2"><path d="M225.997 200.39L278.471 262.428 280.231 259.062 232.961 193.989z" fill="#d69e0f"/></g><g id="change2_4"><path d="M164.106,250.206c-0.751,0-1.494-0.212-2.14-0.62l-25.347-16.048c-1.001-0.634-1.669-1.679-1.826-2.854 c-0.156-1.174,0.217-2.357,1.018-3.23c0.916-0.998,5.742-5.978,10.839-5.978c0.501,0,0.998,0.047,1.476,0.14 c5.185,1.003,25.319,4.961,25.319,4.961c1.25,0.246,2.309,1.072,2.85,2.226c0.542,1.154,0.5,2.496-0.11,3.615l-8.568,15.704 c-0.529,0.971-1.438,1.679-2.508,1.956C164.779,250.164,164.442,250.206,164.106,250.206z" fill="#a7c5ff"/></g><g id="change3_5"><path d="M146.651,225.477c0.242,0,0.481,0.021,0.716,0.066c5.182,1.003,25.308,4.959,25.308,4.959 l-8.568,15.704l-25.347-16.048C138.759,230.158,143.054,225.477,146.651,225.477 M146.651,217.477 c-6.601,0-12.222,5.567-13.787,7.273c-1.602,1.746-2.347,4.112-2.035,6.461c0.312,2.35,1.649,4.439,3.651,5.706l25.347,16.048 c1.292,0.818,2.778,1.241,4.279,1.241c0.671,0,1.345-0.084,2.006-0.256c2.142-0.555,3.958-1.971,5.017-3.913l8.568-15.703 c1.22-2.237,1.302-4.923,0.22-7.229c-1.083-2.308-3.199-3.961-5.7-4.452c-0.201-0.04-20.196-3.97-25.331-4.964 C148.159,217.548,147.406,217.477,146.651,217.477L146.651,217.477z" fill="#134668"/></g><g id="change4_3"><path d="M168.365,238.399l-25.767-11.457c-2.148,1.374-3.839,3.216-3.839,3.216l25.347,16.048L168.365,238.399z" fill="#e8bb00"/></g><g><g id="change2_5"><path d="M188.702,280.462c-1.184-0.062-2.278-0.645-2.99-1.593l-18.013-23.992 c-0.664-0.884-0.932-2.004-0.741-3.094c0.191-1.089,0.825-2.051,1.75-2.655l14.972-9.788c0.66-0.432,1.422-0.652,2.189-0.652 c0.474,0,0.95,0.084,1.405,0.255c1.193,0.448,2.102,1.438,2.446,2.664c0,0,5.547,19.756,6.959,24.845 c1.53,5.521-3.763,11.58-4.839,12.739c-0.759,0.816-1.822,1.277-2.93,1.277C188.842,280.468,188.772,280.466,188.702,280.462z" fill="#a7c5ff"/></g><g id="change3_7"><path d="M185.87,242.688c0,0,5.544,19.747,6.956,24.833c1.011,3.646-3.915,8.947-3.915,8.947l-18.013-23.992 L185.87,242.688 M185.871,234.688c-1.535,0-3.059,0.441-4.378,1.304l-14.972,9.788c-1.852,1.211-3.119,3.134-3.502,5.313 s0.154,4.418,1.482,6.188l18.013,23.992c1.423,1.895,3.612,3.062,5.979,3.186c0.14,0.007,0.28,0.011,0.419,0.011 c2.217,0,4.343-0.921,5.86-2.555c1.869-2.012,7.81-9.15,5.763-16.53c-1.399-5.041-6.907-24.66-6.963-24.857 c-0.689-2.454-2.505-4.433-4.891-5.328C187.771,234.855,186.818,234.688,185.871,234.688L185.871,234.688z" fill="#134668"/></g></g><g id="change4_4"><path d="M170.898,252.476l18.013,23.992c0,0,1.379-1.485,2.528-3.423l-14.133-24.76L170.898,252.476z" fill="#e8bb00"/></g><g><g id="change2_1"><path d="M166.701,257.958c-2.899-0.001-5.001-1.089-6.174-2.26c-1.694-1.432-5.21-5.956-0.24-16.538 c4.872-10.372,82.587-103.495,86.932-108.201c12.253-13.271,24.045-14.704,28.546-14.704c4.421,0,8.218,1.213,10.444,3.332 c2.41,2.158,3.936,6.071,4.192,10.765c0.3,5.481-0.915,16.538-12.428,29.007c-4.346,4.706-90.996,89.583-100.945,95.261 C173.151,256.835,169.676,257.958,166.701,257.958C166.701,257.958,166.701,257.958,166.701,257.958z" fill="#a7c5ff"/></g><g id="change3_1"><path d="M275.765,120.256c3.66,0,6.412,0.979,7.73,2.271l-0.001,0.001c3.906,3.395,6.241,18.197-8.459,34.118 c-5.444,5.895-90.897,89.312-99.989,94.5c-3.816,2.179-6.506,2.811-8.345,2.811c-2.541,0-3.453-1.208-3.453-1.208 s-3.791-2.414,0.66-11.889s80.806-101.291,86.25-107.188C259.612,123.434,269.167,120.256,275.765,120.256 M275.765,112.256 c-6.245,0-18.639,2.077-31.485,15.99c-3.15,3.412-24.411,28.87-43.815,52.617c-40.491,49.554-42.894,54.67-43.799,56.596 c-5.991,12.756-1.374,18.96,1.174,21.195c1.447,1.383,4.282,3.303,8.861,3.303c3.731,0,7.759-1.264,12.312-3.863 c1.846-1.054,6.755-3.855,52.934-48.16c22.128-21.23,45.814-44.448,48.965-47.86c12.514-13.552,13.82-25.831,13.484-31.943 c-0.317-5.773-2.241-10.53-5.426-13.438C285.965,113.83,281.285,112.256,275.765,112.256L275.765,112.256z" fill="#134668"/></g></g><g id="change4_5"><path d="M285.306,125.288L161.774,247.953c-0.271,3.68,1.474,4.796,1.474,4.796s2.707,3.589,11.798-1.603 c9.092-5.188,94.545-88.606,99.989-94.5C287.178,143.495,287.694,131.114,285.306,125.288z" fill="#e8bb00"/></g><g id="change5_3"><path d="M285.044,140.238L164.439,253.552c1.54,0.638,4.744,0.942,10.606-2.405 c9.092-5.188,94.545-88.606,99.989-94.5C280.374,150.863,283.458,145.231,285.044,140.238z" fill="#d69e0f"/></g><g id="change3_6"><path d="M276.673,149.92c0,0-4.127-11.418-19.65-18.146l8.407-5.279c0,0,11.293,3.367,15.544,14.355 L276.673,149.92z" fill="#134668"/></g><g fill="#134668" id="change3_2"><ellipse cx="239.605" cy="152.897" fill="inherit" rx="2.086" ry="3.98" transform="rotate(42.727 239.59 152.878)"/><ellipse cx="231.021" cy="163.033" fill="inherit" rx="2.085" ry="3.981" transform="rotate(42.718 231.017 163.03)"/><ellipse cx="222.437" cy="173.168" fill="inherit" rx="2.086" ry="3.981" transform="rotate(42.727 222.425 173.148)"/><ellipse cx="214.271" cy="183.688" fill="inherit" rx="2.085" ry="3.981" transform="rotate(42.71 214.276 183.707)"/><ellipse cx="206.104" cy="194.21" fill="inherit" rx="2.086" ry="3.981" transform="rotate(42.718 206.102 194.209)"/><ellipse cx="197.52" cy="204.346" fill="inherit" rx="2.085" ry="3.98" transform="rotate(42.718 197.528 204.37)"/><ellipse cx="189.353" cy="214.867" fill="inherit" rx="2.085" ry="3.98" transform="rotate(42.71 189.356 214.886)"/></g><g fill="#134668" id="change3_8"><ellipse cx="257.446" cy="169.372" fill="inherit" rx="2.085" ry="3.981" transform="rotate(-137.282 257.447 169.37)"/><ellipse cx="248.025" cy="178.734" fill="inherit" rx="2.085" ry="3.981" transform="rotate(-137.265 248.032 178.73)"/><ellipse cx="238.605" cy="188.097" fill="inherit" rx="2.085" ry="3.981" transform="rotate(-137.282 238.606 188.095)"/><ellipse cx="228.767" cy="197.074" fill="inherit" rx="2.085" ry="3.982" transform="rotate(-137.282 228.768 197.072)"/><ellipse cx="218.928" cy="206.051" fill="inherit" rx="2.085" ry="3.982" transform="rotate(-137.29 218.934 206.046)"/><ellipse cx="209.508" cy="215.415" fill="inherit" rx="2.085" ry="3.981" transform="rotate(-137.273 209.505 215.416)"/><ellipse cx="199.668" cy="224.392" fill="inherit" rx="2.085" ry="3.98" transform="rotate(-137.282 199.658 224.395)"/></g><g><g id="change2_6"><path d="M123.081,276.007c0,0,23.774-17.77,38.708,8.473c0,0,25.489-10.313,33.637,16.99 c0,0,17.843-25.002,38.563-6.366c0,0,11.782-24.414,29.53-10.624c0,0,19.012-22.052,38.602-4.494v35.808H123.081V276.007z" fill="#a7c5ff"/></g><g id="change4_6"><path d="M263.518,284.479c-21.124-10.848-29.53,10.624-29.53,10.624c-2.263-0.915-4.455-1.576-6.572-2.04 c-6.546,10.636-14.13,17.933-20.475,22.729h95.179v-35.808C280.231,263.444,263.518,284.479,263.518,284.479z" fill="#e8bb00"/></g><g id="change3_9"><path d="M195.426,305.47c-0.145,0-0.29-0.008-0.436-0.023c-1.563-0.171-2.881-1.242-3.369-2.737 c-2.843-8.724-8.37-13.811-16.428-15.117c-6.416-1.039-12.161,0.689-12.218,0.707c-1.831,0.564-3.815-0.247-4.716-1.936 c-3.205-6.004-7.44-9.73-12.587-11.076c-9.851-2.577-20.324,4.018-20.428,4.084c-1.857,1.188-4.331,0.651-5.524-1.204 c-1.192-1.854-0.663-4.322,1.189-5.52c0.542-0.351,13.444-8.557,26.727-5.116c6.546,1.694,11.947,5.838,16.088,12.334 c9.573-1.927,24.681-0.64,32.711,13.867c3.416-3.589,8.732-7.778,15.749-9.107c6.704-1.269,13.554,0.279,20.414,4.604 c2.298-3.617,6.373-8.493,12.574-10.749c5.426-1.972,11.307-1.588,17.516,1.14c3.68-3.458,11.65-9.728,21.611-10.369 c7.319-0.469,14.223,2.138,20.491,7.756c1.646,1.475,1.784,4.003,0.309,5.648c-1.474,1.644-4.003,1.782-5.648,0.309 c-4.608-4.13-9.528-6.047-14.639-5.729c-10.222,0.658-18.185,9.765-18.265,9.857c-1.227,1.423-3.28,1.799-4.933,0.906 c-5.124-2.772-9.735-3.444-13.709-1.999c-6.83,2.484-10.167,10.497-10.199,10.577c-0.464,1.173-1.454,2.058-2.671,2.388 c-1.217,0.329-2.519,0.067-3.512-0.71c-6.249-4.887-12.252-6.828-17.851-5.769c-9.098,1.724-14.747,10.923-14.801,11.016 C198.146,304.729,196.831,305.47,195.426,305.47z" fill="#134668"/></g></g></svg>