<?xml version="1.0" encoding="UTF-8" standalone="no"?><svg xmlns="http://www.w3.org/2000/svg" xmlns:xlink="http://www.w3.org/1999/xlink" fill="#000000" height="513.4" preserveAspectRatio="xMidYMid meet" version="1" viewBox="-14.1 -10.9 527.2 513.4" width="527.2" zoomAndPan="magnify"><g><g><g><g id="change1_1"><path d="M250.97,457.24c-5.74,0-11.53-.23-17.21-.7-2.2-.18-3.84-2.11-3.66-4.31,.18-2.2,2.12-3.86,4.31-3.66,6.47,.53,13.08,.74,19.59,.65h.06c2.18,0,3.97,1.75,4,3.94,.03,2.21-1.73,4.02-3.94,4.06-1.05,.01-2.09,.02-3.14,.02Zm23.03-1.28c-2.01,0-3.74-1.51-3.97-3.56-.24-2.2,1.34-4.17,3.53-4.42,6.48-.72,12.98-1.77,19.35-3.11,2.16-.46,4.28,.92,4.74,3.09,.46,2.16-.92,4.28-3.09,4.74-6.62,1.4-13.38,2.49-20.11,3.24-.15,.02-.3,.02-.45,.02Zm-59.72-1.99c-.24,0-.47-.02-.71-.06-6.67-1.2-13.34-2.75-19.85-4.59-2.13-.6-3.36-2.81-2.76-4.94,.6-2.13,2.82-3.36,4.94-2.76,6.26,1.77,12.68,3.26,19.09,4.41,2.17,.39,3.62,2.47,3.23,4.65-.35,1.93-2.03,3.29-3.93,3.29Zm98.79-6.27c-1.7,0-3.27-1.09-3.81-2.79-.67-2.11,.5-4.35,2.61-5.02,6.2-1.96,12.38-4.26,18.37-6.82,2.03-.87,4.38,.07,5.25,2.1s-.07,4.38-2.1,5.25c-6.23,2.67-12.66,5.05-19.11,7.09-.4,.13-.81,.19-1.21,.19Zm-137.2-4.61c-.49,0-.98-.09-1.46-.28-6.3-2.47-12.55-5.29-18.58-8.37-1.97-1-2.75-3.41-1.74-5.38,1-1.97,3.41-2.75,5.38-1.74,5.8,2.96,11.81,5.67,17.87,8.04,2.06,.81,3.07,3.13,2.26,5.19-.62,1.58-2.13,2.54-3.72,2.54Zm173.91-11.1c-1.41,0-2.78-.75-3.51-2.08-1.06-1.94-.35-4.37,1.58-5.43,5.7-3.13,11.32-6.58,16.7-10.25,1.83-1.25,4.31-.78,5.56,1.05,1.25,1.82,.78,4.31-1.05,5.56-5.59,3.82-11.43,7.41-17.36,10.66-.61,.33-1.27,.49-1.92,.49Zm-209.48-7.05c-.74,0-1.48-.2-2.15-.63-5.7-3.65-11.29-7.62-16.61-11.8-1.74-1.37-2.04-3.88-.67-5.62,1.36-1.74,3.88-2.04,5.62-.67,5.12,4.02,10.49,7.84,15.98,11.35,1.86,1.19,2.4,3.67,1.21,5.53-.76,1.19-2.05,1.84-3.37,1.84Zm242.45-15.47c-1.14,0-2.28-.49-3.07-1.43-1.42-1.7-1.19-4.22,.5-5.63,5-4.18,9.85-8.65,14.42-13.28,1.55-1.57,4.08-1.59,5.66-.04,1.57,1.55,1.59,4.08,.04,5.66-4.75,4.82-9.79,9.46-14.99,13.81-.75,.62-1.66,.93-2.56,.93Zm-273.84-9.21c-.99,0-1.99-.37-2.76-1.11-4.89-4.68-9.61-9.65-14.03-14.78-1.44-1.67-1.25-4.2,.42-5.64,1.67-1.44,4.2-1.25,5.64,.42,4.25,4.93,8.79,9.71,13.5,14.22,1.6,1.53,1.65,4.06,.13,5.66-.79,.82-1.84,1.24-2.89,1.24Zm301.86-19.23c-.89,0-1.78-.29-2.52-.89-1.72-1.39-1.98-3.91-.59-5.63,4.1-5.06,8-10.38,11.59-15.81,1.22-1.84,3.7-2.35,5.54-1.13,1.84,1.22,2.35,3.7,1.13,5.54-3.73,5.64-7.79,11.17-12.05,16.43-.79,.98-1.95,1.48-3.11,1.48Zm-327.92-11.02c-1.26,0-2.49-.59-3.27-1.69-3.9-5.53-7.58-11.32-10.92-17.2-1.09-1.92-.42-4.36,1.5-5.45,1.92-1.09,4.36-.42,5.45,1.5,3.22,5.66,6.75,11.22,10.51,16.55,1.27,1.81,.84,4.3-.96,5.57-.7,.49-1.51,.73-2.3,.73Zm349.94-22.29c-.63,0-1.27-.15-1.87-.47-1.95-1.03-2.7-3.46-1.66-5.41,3.05-5.76,5.85-11.73,8.31-17.74,.84-2.04,3.17-3.02,5.22-2.18,2.04,.84,3.02,3.17,2.18,5.22-2.57,6.26-5.48,12.47-8.65,18.45-.72,1.36-2.1,2.13-3.54,2.13Zm-369.68-12.42c-1.53,0-2.99-.88-3.66-2.37-2.76-6.18-5.24-12.57-7.38-19-.7-2.1,.44-4.36,2.53-5.06,2.09-.7,4.36,.43,5.06,2.53,2.06,6.17,4.44,12.32,7.1,18.27,.9,2.02,0,4.38-2.02,5.28-.53,.24-1.08,.35-1.63,.35Zm384.84-24.52c-.38,0-.77-.05-1.15-.17-2.12-.63-3.32-2.86-2.68-4.98,1.87-6.23,3.45-12.63,4.7-19.02,.42-2.17,2.52-3.58,4.69-3.16,2.17,.42,3.58,2.53,3.16,4.69-1.3,6.65-2.95,13.3-4.89,19.78-.52,1.73-2.11,2.85-3.83,2.85Zm-397.46-13.36c-1.83,0-3.47-1.26-3.9-3.11-1.5-6.59-2.69-13.34-3.54-20.07-.28-2.19,1.27-4.19,3.47-4.47,2.19-.27,4.19,1.28,4.47,3.47,.82,6.46,1.96,12.96,3.41,19.3,.49,2.15-.86,4.3-3.01,4.79-.3,.07-.6,.1-.89,.1Zm405.14-25.82c-.13,0-.26,0-.39-.02-2.2-.21-3.81-2.17-3.6-4.37,.62-6.46,.94-13.05,.94-19.58,0-4.03-.12-8.1-.36-12.1-.13-2.21,1.55-4.1,3.76-4.23,2.2-.13,4.1,1.55,4.23,3.76,.25,4.16,.37,8.39,.37,12.57,0,6.78-.33,13.63-.98,20.34-.2,2.07-1.94,3.62-3.98,3.62Zm-410.16-13.79c-2.15,0-3.93-1.71-4-3.88-.06-2.08-.09-4.2-.09-6.29,0-4.69,.16-9.42,.46-14.07,.15-2.2,2.05-3.87,4.26-3.73,2.2,.15,3.87,2.05,3.73,4.26-.3,4.47-.45,9.03-.45,13.54,0,2.02,.03,4.05,.09,6.06,.07,2.21-1.67,4.05-3.88,4.12-.04,0-.08,0-.12,0Zm408.6-38.38c-1.94,0-3.64-1.41-3.95-3.38-1.01-6.44-2.35-12.89-3.99-19.18-.55-2.14,.73-4.32,2.87-4.88,2.14-.55,4.32,.73,4.88,2.87,1.7,6.54,3.09,13.25,4.15,19.95,.34,2.18-1.15,4.23-3.33,4.57-.21,.03-.42,.05-.63,.05Zm-405.94-1.46c-.22,0-.43-.02-.66-.05-2.18-.36-3.66-2.42-3.3-4.6,1.1-6.69,2.55-13.39,4.29-19.92,.57-2.13,2.77-3.4,4.9-2.83,2.13,.57,3.4,2.76,2.83,4.9-1.68,6.28-3.07,12.72-4.12,19.15-.32,1.96-2.02,3.35-3.94,3.35Zm395.92-37.19c-1.63,0-3.16-1-3.75-2.62-2.24-6.11-4.82-12.18-7.64-18.04-.96-1.99-.13-4.38,1.86-5.34,1.99-.96,4.38-.13,5.34,1.86,2.94,6.1,5.62,12.41,7.95,18.76,.76,2.07-.3,4.37-2.38,5.13-.46,.17-.92,.25-1.38,.25Zm-385.62-1.38c-.47,0-.94-.08-1.4-.26-2.07-.78-3.12-3.08-2.34-5.15,2.38-6.33,5.1-12.62,8.08-18.71,.97-1.98,3.37-2.8,5.35-1.83,1.98,.97,2.8,3.37,1.83,5.35-2.88,5.85-5.49,11.9-7.77,17.99-.6,1.61-2.13,2.6-3.75,2.6Zm368.27-34.57c-1.35,0-2.67-.68-3.42-1.92-3.39-5.56-7.09-11.02-11-16.22-1.33-1.77-.97-4.27,.8-5.6,1.77-1.33,4.27-.97,5.6,.8,4.07,5.41,7.91,11.09,11.43,16.87,1.15,1.89,.55,4.35-1.33,5.5-.65,.4-1.37,.58-2.08,.58Zm-350.67-1.26c-.72,0-1.45-.19-2.1-.6-1.88-1.16-2.46-3.63-1.3-5.51,3.56-5.75,7.45-11.4,11.55-16.79,1.34-1.76,3.85-2.1,5.61-.76,1.76,1.34,2.1,3.85,.76,5.61-3.95,5.19-7.69,10.62-11.11,16.15-.76,1.22-2.07,1.9-3.41,1.9Zm326.69-30.67c-1.08,0-2.16-.44-2.95-1.3-4.4-4.81-9.08-9.45-13.92-13.81-1.64-1.48-1.77-4.01-.3-5.65,1.48-1.64,4.01-1.77,5.65-.3,5.03,4.53,9.89,9.36,14.46,14.35,1.49,1.63,1.38,4.16-.25,5.65-.77,.7-1.73,1.05-2.7,1.05Zm-302.48-1.09c-.97,0-1.95-.35-2.72-1.07-1.62-1.5-1.71-4.03-.21-5.65,4.6-4.96,9.5-9.75,14.57-14.25,1.65-1.46,4.18-1.32,5.65,.33,1.47,1.65,1.32,4.18-.33,5.65-4.87,4.33-9.59,8.94-14.01,13.71-.79,.85-1.86,1.28-2.93,1.28Zm272.8-25.64c-.83,0-1.66-.25-2.37-.78-5.24-3.87-10.73-7.53-16.31-10.87-1.9-1.13-2.51-3.59-1.38-5.49,1.13-1.9,3.59-2.51,5.49-1.38,5.8,3.47,11.51,7.28,16.96,11.3,1.78,1.31,2.15,3.82,.84,5.59-.78,1.06-1.99,1.62-3.22,1.62Zm-242.93-.87c-1.24,0-2.45-.57-3.24-1.65-1.3-1.79-.91-4.29,.88-5.59,5.48-3.99,11.21-7.75,17.04-11.18,1.91-1.12,4.36-.49,5.48,1.42,1.12,1.9,.49,4.36-1.42,5.48-5.61,3.3-11.12,6.92-16.39,10.75-.71,.52-1.54,.77-2.35,.77Zm208.67-19.63c-.57,0-1.15-.12-1.71-.38-5.89-2.79-11.98-5.31-18.1-7.5-2.08-.75-3.16-3.04-2.42-5.11,.74-2.08,3.04-3.17,5.11-2.42,6.37,2.28,12.7,4.91,18.83,7.8,2,.94,2.85,3.33,1.91,5.33-.68,1.44-2.12,2.29-3.62,2.29Zm-174.26-.63c-1.51,0-2.95-.86-3.63-2.32-.93-2-.06-4.38,1.94-5.31,6.14-2.85,12.5-5.43,18.88-7.67,2.09-.73,4.37,.37,5.1,2.45,.73,2.08-.37,4.37-2.45,5.1-6.14,2.15-12.25,4.63-18.16,7.37-.54,.25-1.12,.37-1.68,.37Zm136.68-12.83c-.32,0-.65-.04-.98-.12-6.31-1.58-12.77-2.88-19.22-3.84-2.18-.33-3.69-2.36-3.37-4.55,.33-2.18,2.36-3.69,4.55-3.37,6.7,1,13.42,2.34,19.98,3.99,2.14,.54,3.44,2.71,2.91,4.85-.46,1.82-2.09,3.03-3.88,3.03Zm-99-.35c-1.8,0-3.44-1.23-3.88-3.06-.52-2.15,.79-4.31,2.94-4.83,6.57-1.6,13.3-2.89,20.01-3.84,2.18-.32,4.21,1.21,4.52,3.4s-1.21,4.21-3.4,4.52c-6.46,.92-12.93,2.16-19.24,3.7-.32,.08-.64,.11-.95,.11Zm59.52-5.55c-.07,0-.14,0-.21,0-6.51-.33-13.15-.36-19.61-.07-2.23,.1-4.08-1.61-4.17-3.82-.1-2.21,1.61-4.08,3.82-4.17,6.71-.3,13.61-.28,20.37,.07,2.21,.11,3.9,1.99,3.79,4.2-.11,2.14-1.88,3.79-3.99,3.79Z" fill="#4dd8e6"/></g><g id="change2_1"><path d="M36.58,172.17C-3.27,142.08-14.06,82,21.81,34.49,51.9-5.36,112.29-10.95,152.13,19.14c39.84,30.09,51.68,80.99,13.98,131.51-33.78,45.26-89.69,51.61-129.53,21.53Z" fill="#199daf"/></g><g id="change3_1"><path d="M345.89,172.17c-39.84-30.09-50.64-90.17-14.76-137.68,30.09-39.84,90.47-45.44,130.32-15.35,39.84,30.09,51.68,80.99,13.98,131.51-33.78,45.26-89.69,51.61-129.53,21.53Z" fill="#d69e0f"/></g><g id="change4_1"><path d="M36.58,472.38c-39.84-30.09-50.64-90.17-14.76-137.68,30.09-39.84,90.47-45.44,130.32-15.35,39.84,30.09,51.68,80.99,13.98,131.51-33.78,45.26-89.69,51.61-129.53,21.53Z" fill="#d69e0f"/></g><g id="change5_1"><path d="M345.89,472.38c-39.84-30.09-50.64-90.17-14.76-137.68,30.09-39.84,90.47-45.44,130.32-15.35,39.84,30.09,51.68,80.99,13.98,131.51-33.78,45.26-89.69,51.61-129.53,21.53Z" fill="#36bbc8"/></g></g></g></g></svg>