<?xml version="1.0" encoding="UTF-8" standalone="no"?><svg xmlns="http://www.w3.org/2000/svg" xmlns:xlink="http://www.w3.org/1999/xlink" fill="#e9bb00" height="67.5" preserveAspectRatio="xMidYMid meet" version="1" viewBox="0.8 0.7 73.5 67.5" width="73.5" zoomAndPan="magnify"><g id="change1_1"><path d="M 38.757812 0.789062 C 28.578125 0.730469 18.679688 6.609375 13.902344 15.632812 C 13.699219 16.003906 13.84375 16.472656 14.21875 16.671875 C 14.59375 16.871094 15.0625 16.726562 15.257812 16.347656 C 19.972656 7.441406 30.109375 1.726562 40.167969 2.371094 C 40.175781 2.371094 40.179688 2.371094 40.183594 2.371094 C 48.789062 2.734375 56.964844 7.617188 61.507812 14.910156 L 59.015625 14.410156 C 58.964844 14.402344 58.914062 14.394531 58.859375 14.394531 C 57.921875 14.382812 57.789062 15.746094 58.714844 15.914062 L 62.726562 16.710938 C 63.222656 16.929688 63.78125 16.570312 63.792969 16.023438 L 64.621094 12.074219 C 64.730469 11.59375 64.363281 11.136719 63.871094 11.140625 C 63.503906 11.144531 63.191406 11.402344 63.125 11.761719 L 62.675781 13.890625 C 57.84375 6.277344 49.3125 1.230469 40.257812 0.839844 C 39.757812 0.808594 39.257812 0.792969 38.753906 0.789062 Z M 38.800781 16.957031 C 32.089844 16.957031 26.636719 22.414062 26.636719 29.125 C 26.636719 35.835938 32.089844 41.292969 38.800781 41.292969 C 45.507812 41.292969 50.960938 35.835938 50.960938 29.125 C 50.960938 22.414062 45.507812 16.957031 38.800781 16.957031 Z M 64.9375 19.808594 C 59.800781 19.808594 55.621094 23.988281 55.621094 29.125 C 55.621094 34.261719 59.800781 38.441406 64.9375 38.441406 C 70.070312 38.441406 74.25 34.261719 74.25 29.125 C 74.25 23.988281 70.070312 19.808594 64.9375 19.808594 Z M 6.953125 20.308594 C 6.027344 20.308594 5.25 21.066406 5.25 21.996094 L 5.25 23.105469 L 1.515625 23.105469 C 1.09375 23.105469 0.75 23.449219 0.75 23.871094 L 0.75 35.265625 C 0.75 36.738281 1.972656 37.941406 3.453125 37.941406 L 18.667969 37.941406 C 20.148438 37.941406 21.371094 36.738281 21.371094 35.265625 L 21.371094 23.871094 C 21.371094 23.449219 21.027344 23.105469 20.605469 23.105469 L 16.871094 23.105469 L 16.871094 21.996094 C 16.871094 21.066406 16.09375 20.308594 15.167969 20.308594 Z M 64.9375 21.3125 C 65.195312 21.3125 65.449219 21.351562 65.703125 21.375 L 65.703125 22.839844 C 65.703125 23.265625 65.363281 23.613281 64.9375 23.613281 C 64.511719 23.613281 64.167969 23.265625 64.171875 22.839844 L 64.171875 21.375 C 64.425781 21.347656 64.679688 21.3125 64.9375 21.3125 Z M 6.953125 21.839844 L 15.167969 21.839844 C 15.28125 21.839844 15.339844 21.898438 15.339844 21.996094 L 15.339844 23.105469 L 6.78125 23.105469 L 6.78125 21.996094 C 6.78125 21.898438 6.839844 21.839844 6.953125 21.839844 Z M 64.925781 24.695312 C 65.355469 24.6875 65.707031 25.039062 65.703125 25.46875 L 65.703125 28.359375 L 66.761719 28.359375 C 67.785156 28.359375 67.785156 29.890625 66.761719 29.890625 L 64.9375 29.890625 C 64.917969 29.890625 64.902344 29.890625 64.882812 29.886719 C 64.878906 29.886719 64.878906 29.886719 64.878906 29.886719 C 64.851562 29.886719 64.828125 29.882812 64.804688 29.878906 C 64.753906 29.871094 64.707031 29.855469 64.660156 29.835938 C 64.660156 29.835938 64.660156 29.835938 64.65625 29.835938 C 64.609375 29.820312 64.566406 29.796875 64.523438 29.769531 L 64.519531 29.765625 C 64.5 29.753906 64.480469 29.738281 64.460938 29.726562 C 64.460938 29.722656 64.460938 29.722656 64.460938 29.722656 C 64.417969 29.691406 64.382812 29.65625 64.351562 29.621094 C 64.351562 29.617188 64.347656 29.617188 64.347656 29.617188 C 64.332031 29.597656 64.320312 29.578125 64.308594 29.558594 C 64.304688 29.558594 64.304688 29.554688 64.304688 29.554688 C 64.292969 29.535156 64.277344 29.511719 64.269531 29.492188 C 64.265625 29.492188 64.265625 29.492188 64.265625 29.492188 C 64.242188 29.445312 64.222656 29.402344 64.210938 29.355469 C 64.207031 29.347656 64.207031 29.34375 64.207031 29.339844 C 64.199219 29.320312 64.195312 29.296875 64.1875 29.273438 C 64.183594 29.25 64.183594 29.222656 64.179688 29.199219 C 64.179688 29.175781 64.175781 29.152344 64.175781 29.125 L 64.175781 25.46875 C 64.171875 25.046875 64.507812 24.699219 64.929688 24.695312 Z M 2.28125 26.03125 L 4.433594 28.082031 L 17.6875 28.082031 L 19.839844 26.03125 L 19.839844 28.148438 L 18.523438 29.402344 C 18.378906 29.539062 18.191406 29.613281 17.992188 29.613281 L 4.128906 29.613281 C 3.929688 29.617188 3.742188 29.539062 3.597656 29.402344 L 2.28125 28.148438 Z M 57.191406 28.359375 L 58.652344 28.359375 C 59.082031 28.355469 59.425781 28.699219 59.425781 29.125 C 59.425781 29.550781 59.078125 29.894531 58.652344 29.890625 L 57.191406 29.890625 C 57.167969 29.636719 57.125 29.382812 57.125 29.125 C 57.125 28.867188 57.167969 28.613281 57.191406 28.359375 Z M 71.21875 28.359375 L 72.679688 28.359375 C 72.710938 28.613281 72.746094 28.867188 72.746094 29.125 C 72.746094 29.382812 72.707031 29.636719 72.679688 29.890625 L 71.21875 29.890625 C 70.792969 29.894531 70.445312 29.550781 70.445312 29.125 C 70.445312 28.699219 70.792969 28.355469 71.21875 28.359375 Z M 64.9375 34.636719 C 65.363281 34.636719 65.707031 34.984375 65.703125 35.410156 L 65.703125 36.871094 C 65.449219 36.894531 65.195312 36.9375 64.9375 36.9375 C 64.679688 36.9375 64.425781 36.894531 64.171875 36.871094 L 64.171875 35.410156 C 64.167969 34.984375 64.511719 34.636719 64.9375 34.636719 Z M 14.5625 41.484375 C 13.984375 41.492188 13.621094 42.117188 13.90625 42.621094 C 15.445312 45.460938 17.476562 48.03125 19.878906 50.191406 L 20.300781 48.492188 C 18.289062 46.570312 16.578125 44.335938 15.25 41.894531 C 15.117188 41.636719 14.851562 41.480469 14.5625 41.484375 Z M 63.011719 41.484375 C 62.730469 41.488281 62.476562 41.644531 62.347656 41.894531 C 61.019531 44.335938 59.308594 46.570312 57.296875 48.492188 L 57.71875 50.191406 C 60.121094 48.03125 62.152344 45.460938 63.691406 42.621094 C 63.980469 42.109375 63.601562 41.472656 63.011719 41.484375 Z M 31.832031 43.238281 L 29.8125 44.789062 L 33.839844 47.121094 L 37.058594 45.042969 Z M 45.765625 43.238281 L 40.539062 45.042969 L 43.757812 47.121094 L 47.785156 44.789062 Z M 27.679688 45.597656 C 25.480469 45.597656 23.503906 46.453125 22.039062 47.847656 L 16.996094 68.210938 L 23.601562 68.210938 L 25.21875 62.675781 C 25.308594 62.355469 25.597656 62.125 25.933594 62.117188 C 26.457031 62.101562 26.84375 62.605469 26.691406 63.105469 L 25.199219 68.210938 L 35.441406 68.210938 L 33.296875 65.285156 C 33.171875 65.113281 33.121094 64.902344 33.160156 64.695312 L 35.882812 49.695312 L 35.566406 47.828125 L 34.277344 48.660156 C 34.035156 48.816406 33.726562 48.820312 33.476562 48.675781 L 28.152344 45.597656 Z M 49.445312 45.597656 L 44.121094 48.679688 C 43.871094 48.824219 43.5625 48.816406 43.320312 48.664062 L 42.03125 47.828125 L 41.714844 49.699219 L 44.4375 64.695312 C 44.476562 64.902344 44.425781 65.117188 44.304688 65.285156 L 42.15625 68.210938 L 52.398438 68.210938 L 50.90625 63.109375 C 50.757812 62.617188 51.125 62.117188 51.640625 62.117188 C 51.984375 62.117188 52.285156 62.347656 52.378906 62.679688 L 53.992188 68.210938 L 60.601562 68.210938 L 55.5625 47.847656 C 54.09375 46.457031 52.117188 45.601562 49.921875 45.601562 Z M 38.800781 45.742188 L 36.945312 46.941406 C 36.972656 47.003906 36.992188 47.070312 37.003906 47.136719 L 37.304688 48.933594 L 40.289062 48.933594 L 40.59375 47.136719 C 40.605469 47.070312 40.625 47.003906 40.652344 46.9375 Z M 37.296875 50.464844 L 34.726562 64.644531 L 37.339844 68.210938 L 40.257812 68.210938 L 42.871094 64.644531 L 40.296875 50.464844 Z M 37.296875 50.464844" fill="inherit"/></g></svg>