<?xml version="1.0" encoding="UTF-8" standalone="no"?><svg xmlns="http://www.w3.org/2000/svg" xmlns:xlink="http://www.w3.org/1999/xlink" fill="#000000" height="110.7" preserveAspectRatio="xMidYMid meet" version="1" viewBox="37.8 44.9 124.4 110.7" width="124.4" zoomAndPan="magnify"><g><g id="change1_1"><path d="M 58.988281 76.402344 C 65.410156 76.402344 70.613281 71.199219 70.613281 64.777344 C 70.613281 58.355469 65.410156 53.152344 58.988281 53.152344 C 52.566406 53.152344 47.363281 58.355469 47.363281 64.777344 C 47.363281 71.199219 52.566406 76.402344 58.988281 76.402344" fill="#2e57a6"/></g><g id="change1_2"><path d="M 85.683594 68.152344 C 92.101562 68.152344 97.308594 62.945312 97.308594 56.527344 C 97.308594 50.105469 92.101562 44.902344 85.683594 44.902344 C 79.261719 44.902344 74.054688 50.105469 74.054688 56.527344 C 74.054688 62.945312 79.261719 68.152344 85.683594 68.152344" fill="#2e57a6"/></g><g id="change1_3"><path d="M 115.289062 68.394531 C 121.707031 68.394531 126.914062 63.1875 126.914062 56.769531 C 126.914062 50.347656 121.707031 45.144531 115.289062 45.144531 C 108.867188 45.144531 103.664062 50.347656 103.664062 56.769531 C 103.664062 63.1875 108.867188 68.394531 115.289062 68.394531" fill="#2e57a6"/></g><g id="change2_1"><path d="M 115.300781 119.140625 C 106.871094 127.570312 93.152344 127.570312 84.71875 119.140625 C 76.285156 110.707031 76.285156 96.988281 84.71875 88.554688 C 93.152344 80.125 106.871094 80.125 115.300781 88.554688 C 123.734375 96.988281 123.734375 110.707031 115.300781 119.140625 Z M 149.941406 139.46875 L 124.308594 121.347656 C 132.742188 109.652344 131.699219 93.191406 121.183594 82.671875 C 109.300781 70.792969 89.835938 71.003906 78.222656 83.304688 C 67.28125 94.898438 67.398438 113.207031 78.484375 124.660156 C 88.980469 135.515625 105.679688 136.671875 117.511719 128.144531 L 135.628906 153.78125 C 136.746094 155.359375 139.015625 155.554688 140.382812 154.183594 L 150.347656 144.21875 C 151.714844 142.851562 151.519531 140.582031 149.941406 139.46875" fill="#e9bb00"/></g><g id="change1_4"><path d="M 71.421875 84.003906 C 68 81.773438 63.671875 80.445312 58.988281 80.445312 C 48.414062 80.445312 39.671875 87.199219 39.046875 95.847656 L 38.011719 110.191406 C 37.804688 113.03125 40.054688 115.449219 42.902344 115.449219 L 67.210938 115.449219 C 65.9375 111.835938 65.265625 107.996094 65.242188 104.0625 C 65.195312 96.804688 67.363281 89.84375 71.421875 84.003906" fill="#2e57a6"/></g><g id="change1_5"><path d="M 161.988281 110.191406 L 160.949219 95.847656 C 160.328125 87.199219 151.585938 80.445312 141.011719 80.445312 C 136.328125 80.445312 132.003906 81.769531 128.585938 83.996094 C 132.09375 89.054688 134.222656 94.992188 134.691406 101.203125 C 135.058594 106.066406 134.402344 110.921875 132.804688 115.449219 L 157.097656 115.449219 C 159.945312 115.449219 162.191406 113.03125 161.988281 110.191406" fill="#2e57a6"/></g><g id="change1_6"><path d="M 141.011719 76.402344 C 147.433594 76.402344 152.636719 71.199219 152.636719 64.777344 C 152.636719 58.355469 147.433594 53.152344 141.011719 53.152344 C 134.589844 53.152344 129.386719 58.355469 129.386719 64.777344 C 129.386719 71.199219 134.589844 76.402344 141.011719 76.402344" fill="#2e57a6"/></g><g id="change1_7"><path d="M 100.011719 100.867188 C 103.640625 100.867188 106.585938 97.921875 106.585938 94.289062 C 106.585938 90.660156 103.640625 87.71875 100.011719 87.71875 C 96.378906 87.71875 93.433594 90.660156 93.433594 94.289062 C 93.433594 97.921875 96.378906 100.867188 100.011719 100.867188" fill="#2e57a6"/></g><g id="change1_8"><path d="M 100.011719 103.152344 C 94.027344 103.152344 89.085938 106.96875 88.730469 111.863281 L 88.292969 117.945312 C 95.058594 123.578125 104.960938 123.578125 111.726562 117.945312 L 111.285156 111.863281 C 110.933594 106.96875 105.988281 103.152344 100.011719 103.152344" fill="#2e57a6"/></g></g></svg>