<?xml version="1.0" encoding="UTF-8" standalone="no"?><svg xmlns="http://www.w3.org/2000/svg" xmlns:xlink="http://www.w3.org/1999/xlink" fill="#e9bb00" height="120.4" preserveAspectRatio="xMidYMid meet" version="1" viewBox="0.0 1.8 128.9 120.4" width="128.9" zoomAndPan="magnify"><g id="change1_1"><path d="M105,86.8c-2.8-4-8.3-5-12.3-2.3l-6-9.1c16.4-12.2,20.2-35.4,8.4-52.3C83,6,59.3,1.8,42.2,13.9c-17.1,12-21.3,35.8-9.3,52.9 C40.2,77.4,52,83,64,83c6.6,0,13.3-1.7,19.3-5.3l6.1,9.1c-1.8,1.4-2.9,3.3-3.3,5.5c-0.4,2.3,0.1,4.7,1.5,6.7 c0,0,13.3,18.2,13.3,18.2c2.8,3.8,8.4,5,12.4,2.2c0,0,2.8-2,2.8-2c4-2.8,5-8.4,2.2-12.4L105,86.8z M64,15c6.1,0,11,4.9,11,11 c0,6.1-4.9,11-11,11s-11-4.9-11-11C53,19.9,57.9,15,64,15z M64,55.5l2-2.6L65,41c1.4-0.1,2.7-0.4,3.9-0.8l1,12.4 c0.1,0.9-0.1,1.9-0.7,2.6l-2.8,3.6c-1.3,1.6-3.7,1.6-5,0c0,0-2.8-3.6-2.8-3.6c-0.6-0.7-0.8-1.7-0.7-2.6l1-12.4 c1.2,0.4,2.6,0.7,3.9,0.8L62,52.9L64,55.5z M84.9,65c0,3.3-2.7,6-6,6H49c-3.3,0-6-2.7-6-6V49c0-6.2,4-11.4,9.6-13.3 c1.1,1.3,2.5,2.4,4,3.3c-5.3,0.2-9.5,4.6-9.5,10v16c0,1.1,0.9,2,2,2h2v-6c0-1.1,0.9-2,2-2c1.1,0,2,0.9,2,2v6h18v-6c0-1.1,0.9-2,2-2 s2,0.9,2,2v6h2c1.1,0,2-0.9,2-2V49c0-5.4-4.2-9.8-9.5-10c1.5-0.9,2.8-2,4-3.3c5.6,1.9,9.6,7.1,9.6,13.3V65z" fill="inherit"/></g><g id="change1_2"><circle cx="64" cy="26" fill="inherit" r="7"/></g><g id="change1_3"><path d="M30,69.7V73H12v-6c0-1.1-0.9-2-2-2c-1.1,0-2,0.9-2,2v6H6c-1.1,0-2-0.9-2-2V55c0-5.4,4.2-9.8,9.5-10c-1.5-0.9-2.8-2-4-3.3 C4,43.6,0,48.8,0,55v16c0,3.3,2.7,6,6,6h30c0.3,0,0.5,0,0.7-0.1c-1-0.8-2-1.8-2.9-2.7C32.4,72.8,31.2,71.3,30,69.7z" fill="inherit"/></g><g id="change1_4"><path d="M126.7,49.3c-1.5-3.6-4.7-6.4-8.3-7.6c-1.1,1.3-2.5,2.4-3.9,3.3c3.8,0.1,7.3,2.7,8.7,6.2c0.9,2.3,0.9,4.8,0.9,7.3 c0,3.9,0,7.7-0.1,11.6c0,0.7,0,1.5-0.5,2.1c-0.8,1-2.3,0.9-3.5,0.8l0-5.2c0-0.5,0-1.1-0.2-1.6c-0.3-0.7-1-1.2-1.8-1.2 c-0.8,0-1.5,0.5-1.8,1.2c-0.2,0.5-0.2,1.1-0.2,1.6c0,1.7,0,3.5,0,5.2c-6,0-12,0-18,0c0-1.1,0-2.2,0-3.4c-1.9,2.3-3.8,4.5-6,6.6 c0.2,0.6,1,0.7,1.7,0.7c8.7,0,17.4,0,26.1,0c2.1,0,4.5-0.1,6.1-1.4c1.3-1.1,1.9-2.8,2.1-4.4c0.2-1.7,0-3.3-0.1-5 C127.6,60.5,128.9,54.5,126.7,49.3z" fill="inherit"/></g><g id="change1_5"><path d="M21,43c0.4,0,0.7,0,1.1-0.1c0,0,0,0,0,0c0.3-6.8,2.3-13.5,5.8-19.4c0,0,0,0,0-0.1C26,21.9,23.6,21,21,21 c-6.1,0-11,4.9-11,11C10,38.1,14.9,43,21,43z" fill="inherit"/></g><g id="change1_6"><path d="M105.9,42.9c0.4,0,0.7,0.1,1.1,0.1c6.1,0,11-4.9,11-11c0-6.1-4.9-11-11-11c-2.6,0-5,0.9-6.9,2.5c0,0,0,0,0,0 C103.6,29.5,105.5,36.2,105.9,42.9C105.8,42.9,105.8,43,105.9,42.9z" fill="inherit"/></g><g id="change1_7"><path d="M106.9,47c-0.4,0-0.8,0-1.2-0.1c-0.2,4.4-1.1,8.7-2.6,12.8c0,0.1,0.1,0.2,0.1,0.2l2.8,3.6c0.5,0.6,1.3,0.6,1.8,0l2.8-3.6 c0.2-0.3,0.4-0.7,0.3-1.2l-1-12.1C109,46.9,108,47,106.9,47z" fill="inherit"/></g><g id="change1_8"><path d="M21,47c-1,0-2-0.1-3-0.3l-1,12.1c-0.1,0.4,0,0.8,0.3,1.2l2.8,3.6c0.5,0.6,1.3,0.6,1.8,0l2.8-3.6c0,0,0,0,0,0 c-1.6-4.2-2.5-8.6-2.7-13C21.7,47,21.3,47,21,47z" fill="inherit"/></g></svg>