<?xml version="1.0" encoding="UTF-8"?><svg xmlns="http://www.w3.org/2000/svg" xmlns:xlink="http://www.w3.org/1999/xlink" height="57.9" preserveAspectRatio="xMidYMid meet" version="1.0" viewBox="7.0 3.1 50.0 57.9" width="50.0" zoomAndPan="magnify"><g><g id="change1_1"><path d="M 51 58 L 13 58 L 13 25 L 51 25 L 51 58" fill="#ecf4f3"/></g><g id="change2_1"><path d="M 37 55 L 27 55 L 27 40.761719 C 28.371094 39.660156 30.109375 39 32 39 C 33.890625 39 35.628906 39.660156 37 40.761719 L 37 55" fill="#4d8fd3"/></g><g id="change3_1"><path d="M 53.570312 11.988281 L 51.570312 11.035156 L 52.429688 9.230469 L 54.429688 10.183594 L 53.570312 11.988281" fill="#cfe0e7"/></g><g id="change3_2"><path d="M 49.570312 10.078125 L 38.746094 4.902344 L 39.609375 3.097656 L 50.429688 8.273438 L 49.570312 10.078125" fill="#cfe0e7"/></g><g id="change3_3"><path d="M 55 21 L 9 21 L 9 16 L 32 5 L 55 16 L 55 21" fill="#cfe0e7"/></g><g id="change2_2"><path d="M 35 14 C 35 15.65625 33.65625 17 32 17 C 30.34375 17 29 15.65625 29 14 C 29 12.34375 30.34375 11 32 11 C 33.65625 11 35 12.34375 35 14" fill="#4d8fd3"/></g><g id="change2_3"><path d="M 26 15 L 24 15 L 24 13 L 26 13 L 26 15" fill="#4d8fd3"/></g><g id="change2_4"><path d="M 40 15 L 38 15 L 38 13 L 40 13 L 40 15" fill="#4d8fd3"/></g><g id="change2_5"><path d="M 33 33 L 31 33 L 31 31 L 33 31 L 33 33" fill="#4d8fd3"/></g><g id="change4_1"><path d="M 55 21 L 9 21 L 9 19 L 55 19 L 55 21" fill="#aabac1"/></g><g id="change3_4"><path d="M 48 57 L 53 57 L 53 25 L 48 25 L 48 57" fill="#cfe0e7"/></g><g id="change4_2"><path d="M 53 32 L 48 32 L 48 27 L 53 27 L 53 32" fill="#aabac1"/></g><g id="change4_3"><path d="M 53 55 L 48 55 L 48 50 L 53 50 L 53 55" fill="#aabac1"/></g><g id="change5_1"><path d="M 53 29 L 48 29 L 48 27 L 53 27 L 53 29" fill="#74889b"/></g><g id="change3_5"><path d="M 37 57 L 42 57 L 42 25 L 37 25 L 37 57" fill="#cfe0e7"/></g><g id="change4_4"><path d="M 42 32 L 37 32 L 37 27 L 42 27 L 42 32" fill="#aabac1"/></g><g id="change4_5"><path d="M 42 55 L 37 55 L 37 50 L 42 50 L 42 55" fill="#aabac1"/></g><g id="change5_2"><path d="M 42 29 L 37 29 L 37 27 L 42 27 L 42 29" fill="#74889b"/></g><g id="change3_6"><path d="M 11 57 L 16 57 L 16 25 L 11 25 L 11 57" fill="#cfe0e7"/></g><g id="change4_6"><path d="M 16 32 L 11 32 L 11 27 L 16 27 L 16 32" fill="#aabac1"/></g><g id="change4_7"><path d="M 16 55 L 11 55 L 11 50 L 16 50 L 16 55" fill="#aabac1"/></g><g id="change5_3"><path d="M 16 29 L 11 29 L 11 27 L 16 27 L 16 29" fill="#74889b"/></g><g id="change3_7"><path d="M 22 57 L 27 57 L 27 25 L 22 25 L 22 57" fill="#cfe0e7"/></g><g id="change4_8"><path d="M 27 32 L 22 32 L 22 27 L 27 27 L 27 32" fill="#aabac1"/></g><g id="change4_9"><path d="M 27 55 L 22 55 L 22 50 L 27 50 L 27 55" fill="#aabac1"/></g><g id="change5_4"><path d="M 27 29 L 22 29 L 22 27 L 27 27 L 27 29" fill="#74889b"/></g><g id="change3_8"><path d="M 57 61 L 7 61 L 7 55 L 57 55 L 57 61" fill="#cfe0e7"/></g><g id="change3_9"><path d="M 57 27 L 7 27 L 7 21 L 57 21 L 57 27" fill="#cfe0e7"/></g><g id="change6_1"><path d="M 31 55 L 33 55 L 33 39.070312 C 32.671875 39.027344 32.339844 39 32 39 C 31.660156 39 31.328125 39.027344 31 39.070312 L 31 55" fill="#4686ce"/></g></g></svg>