<?xml version="1.0" encoding="UTF-8" standalone="no"?><svg xmlns="http://www.w3.org/2000/svg" xmlns:xlink="http://www.w3.org/1999/xlink" fill="#000000" height="347" preserveAspectRatio="xMidYMid meet" version="1" viewBox="0.0 -0.0 368.6 347.0" width="368.6" zoomAndPan="magnify"><defs><clipPath id="a"><path d="M 273 252 L 368.640625 252 L 368.640625 346.980469 L 273 346.980469 Z M 273 252"/></clipPath></defs><g><g id="change1_1"><path d="M 302.023438 320.476562 C 302.023438 327.914062 295.992188 333.941406 288.558594 333.941406 L 13.464844 333.941406 C 6.027344 333.941406 0 327.914062 0 320.476562 L 0 13.460938 C 0 6.027344 6.027344 -0.00390625 13.464844 -0.00390625 L 288.558594 -0.00390625 C 295.992188 -0.00390625 302.023438 6.027344 302.023438 13.460938 L 302.023438 320.476562" fill="#edf6ff" fill-rule="evenodd"/></g><g id="change2_1"><path d="M 81.21875 92.839844 C 65.050781 92.839844 51.898438 79.6875 51.898438 63.515625 C 51.898438 47.347656 65.050781 34.195312 81.21875 34.195312 C 97.390625 34.195312 110.542969 47.347656 110.542969 63.515625 C 110.542969 79.6875 97.390625 92.839844 81.21875 92.839844 Z M 81.21875 42.121094 C 69.421875 42.121094 59.824219 51.71875 59.824219 63.515625 C 59.824219 75.316406 69.421875 84.914062 81.21875 84.914062 C 93.019531 84.914062 102.617188 75.316406 102.617188 63.515625 C 102.617188 51.71875 93.015625 42.121094 81.21875 42.121094" fill="#b0ccdd" fill-rule="evenodd"/></g><g id="change2_2"><path d="M 125.511719 137.136719 C 123.324219 137.136719 121.546875 135.359375 121.546875 133.171875 C 121.546875 110.933594 103.457031 92.839844 81.21875 92.839844 C 58.980469 92.839844 40.890625 110.933594 40.890625 133.171875 C 40.890625 135.359375 39.113281 137.136719 36.921875 137.136719 C 34.730469 137.136719 32.960938 135.359375 32.960938 133.171875 C 32.960938 106.5625 54.605469 84.914062 81.214844 84.914062 C 107.824219 84.914062 129.472656 106.5625 129.472656 133.171875 C 129.476562 135.359375 127.703125 137.136719 125.511719 137.136719" fill="#b0ccdd" fill-rule="evenodd"/></g><g id="change2_3"><path d="M 265.097656 47.605469 L 164.683594 47.605469 C 162.492188 47.605469 160.71875 45.832031 160.71875 43.640625 C 160.71875 41.453125 162.492188 39.675781 164.683594 39.675781 L 265.097656 39.675781 C 267.289062 39.675781 269.0625 41.449219 269.0625 43.640625 C 269.0625 45.832031 267.289062 47.605469 265.097656 47.605469" fill="#b0ccdd" fill-rule="evenodd"/></g><g id="change2_4"><path d="M 265.097656 89.628906 L 164.683594 89.628906 C 162.492188 89.628906 160.71875 87.855469 160.71875 85.664062 C 160.71875 83.476562 162.492188 81.699219 164.683594 81.699219 L 265.097656 81.699219 C 267.289062 81.699219 269.0625 83.472656 269.0625 85.664062 C 269.0625 87.851562 267.289062 89.628906 265.097656 89.628906" fill="#b0ccdd" fill-rule="evenodd"/></g><g id="change2_5"><path d="M 213.730469 131.652344 L 164.679688 131.652344 C 162.492188 131.652344 160.714844 129.878906 160.714844 127.6875 C 160.714844 125.496094 162.488281 123.722656 164.679688 123.722656 L 213.730469 123.722656 C 215.917969 123.722656 217.695312 125.496094 217.695312 127.6875 C 217.695312 129.878906 215.921875 131.652344 213.730469 131.652344" fill="#b0ccdd" fill-rule="evenodd"/></g><g id="change2_6"><path d="M 156.644531 173.671875 L 36.925781 173.671875 C 34.738281 173.671875 32.960938 171.898438 32.960938 169.707031 C 32.960938 167.515625 34.734375 165.742188 36.925781 165.742188 L 156.644531 165.742188 C 158.835938 165.742188 160.609375 167.515625 160.609375 169.707031 C 160.609375 171.898438 158.835938 173.671875 156.644531 173.671875" fill="#b0ccdd" fill-rule="evenodd"/></g><g id="change2_7"><path d="M 141.882812 215.695312 L 36.925781 215.695312 C 34.734375 215.695312 32.960938 213.921875 32.960938 211.730469 C 32.960938 209.539062 34.734375 207.765625 36.925781 207.765625 L 141.882812 207.765625 C 144.070312 207.765625 145.847656 209.539062 145.847656 211.730469 C 145.847656 213.921875 144.070312 215.695312 141.882812 215.695312" fill="#b0ccdd" fill-rule="evenodd"/></g><g id="change2_8"><path d="M 147.296875 257.71875 L 36.925781 257.71875 C 34.734375 257.71875 32.960938 255.945312 32.960938 253.753906 C 32.960938 251.566406 34.734375 249.789062 36.925781 249.789062 L 147.296875 249.789062 C 149.484375 249.789062 151.261719 251.5625 151.261719 253.753906 C 151.261719 255.945312 149.484375 257.71875 147.296875 257.71875" fill="#b0ccdd" fill-rule="evenodd"/></g><g id="change2_9"><path d="M 164.679688 299.742188 L 36.925781 299.742188 C 34.734375 299.742188 32.960938 297.96875 32.960938 295.777344 C 32.960938 293.585938 34.734375 291.8125 36.925781 291.8125 L 164.679688 291.8125 C 166.871094 291.8125 168.644531 293.585938 168.644531 295.777344 C 168.644531 297.96875 166.871094 299.742188 164.679688 299.742188" fill="#b0ccdd" fill-rule="evenodd"/></g><g clip-path="url(#a)" id="change3_1"><path d="M 296.144531 252.023438 L 363.984375 319.867188 C 370.160156 326.042969 370.191406 336.042969 364.058594 342.253906 C 357.867188 348.527344 347.753906 348.558594 341.523438 342.328125 L 273.6875 274.488281 L 296.144531 252.023438" fill="#8297bf" fill-rule="evenodd"/></g><g id="change4_1"><path d="M 322.105469 223.628906 C 322.105469 181.320312 287.597656 146.8125 245.289062 146.8125 C 202.980469 146.8125 168.472656 181.320312 168.472656 223.628906 C 168.472656 265.9375 202.980469 300.445312 245.289062 300.445312 C 287.597656 300.445312 322.105469 265.9375 322.105469 223.628906" fill="#8297bf" fill-rule="evenodd"/></g><g id="change5_1"><path d="M 299.609375 223.628906 C 299.609375 193.710938 275.207031 169.308594 245.289062 169.308594 C 215.371094 169.308594 190.96875 193.710938 190.96875 223.628906 C 190.96875 253.546875 215.371094 277.949219 245.289062 277.949219 C 275.207031 277.949219 299.609375 253.546875 299.609375 223.628906" fill="#ffffff" fill-rule="evenodd"/></g></g></svg>