<?xml version="1.0" encoding="UTF-8"?><svg xmlns="http://www.w3.org/2000/svg" xmlns:xlink="http://www.w3.org/1999/xlink" height="172.2" preserveAspectRatio="xMidYMid meet" version="1.0" viewBox="98.2 126.5 236.1 172.2" width="236.1" zoomAndPan="magnify"><g id="change1_1"><path d="M99.221,298.678V153.007c0,0-1.008-9.656,24.5-8.829v-17.657c0,0,28.416,1.104,43.867,0l12.139,16.553 l80.836,3.311c0,0,21.242,0.909,19.865,15.45c-1.379,14.541-0.223,136.842-0.223,136.842H99.221z" fill="#EFB054"/></g><g id="change2_1"><path d="M114.525 152.64H255.04500000000002V288.746H114.525z" fill="#FFF"/></g><g id="change3_1"><path d="M99.221,298.678c0,0,38.623-109.253,55.178-115.875c16.553-6.621,158.914-8.829,171.053,0 c0,0,8.828,9.932-45.246,115.875H99.221z" fill="#F4DB73"/></g></svg>