<?xml version="1.0" encoding="UTF-8" standalone="no"?><svg xmlns="http://www.w3.org/2000/svg" xmlns:xlink="http://www.w3.org/1999/xlink" fill="#000000" height="430.9" preserveAspectRatio="xMidYMid meet" version="1" viewBox="115.9 184.1 567.4 430.9" width="567.4" zoomAndPan="magnify"><g id="change1_1"><path d="M 419.316406 397.195312 C 408.082031 407.152344 391.136719 407.152344 379.90625 397.199219 L 186.988281 226.128906 L 612.230469 226.128906 Z M 494.566406 413.195312 L 465.835938 443.832031 L 603.621094 573.058594 L 194.035156 573.058594 L 324.8125 443.300781 L 295.238281 413.480469 L 157.921875 549.730469 L 157.921875 256.484375 L 352.035156 428.617188 C 365.152344 440.253906 382.050781 446.660156 399.609375 446.660156 C 417.171875 446.660156 434.066406 440.253906 447.183594 428.617188 L 641.308594 256.476562 L 641.308594 550.820312 Z M 620.589844 184.128906 L 178.632812 184.128906 C 144.050781 184.128906 115.921875 212.265625 115.921875 246.847656 L 115.921875 552.347656 C 115.921875 586.925781 144.050781 615.058594 178.632812 615.058594 L 620.589844 615.058594 C 655.171875 615.058594 683.308594 586.925781 683.308594 552.347656 L 683.308594 246.847656 C 683.308594 212.265625 655.171875 184.128906 620.589844 184.128906" fill="#2e57a6"/></g></svg>