<?xml version="1.0" encoding="UTF-8"?><svg xmlns="http://www.w3.org/2000/svg" xmlns:xlink="http://www.w3.org/1999/xlink" height="512.0" preserveAspectRatio="xMidYMid meet" version="1.0" viewBox="0.0 0.0 512.0 512.0" width="512.0" zoomAndPan="magnify"><g id="change1_1"><path d="M505.264,214.578l-67.101-10.74c-3.954-13.826-9.481-27.154-16.481-39.747l39.864-55.058 c2.305-3.184,1.956-7.569-0.823-10.349l-47.408-47.408c-2.779-2.778-7.165-3.129-10.348-0.822L347.91,90.316 c-12.601-7.006-25.929-12.533-39.748-16.484l-10.74-67.097C296.801,2.854,293.453,0,289.522,0h-67.045 c-3.93,0-7.278,2.854-7.899,6.735l-10.74,67.097c-13.823,3.952-27.152,9.479-39.75,16.483l-55.055-39.861 c-3.184-2.307-7.57-1.957-10.348,0.822L51.277,98.685c-2.779,2.779-3.128,7.165-0.823,10.349l39.863,55.057 c-7.002,12.597-12.528,25.925-16.48,39.747L6.735,214.578C2.855,215.199,0,218.548,0,222.478v67.045c0,3.93,2.855,7.278,6.736,7.899 l67.101,10.74c3.954,13.826,9.481,27.155,16.48,39.747l-39.863,55.058c-2.305,3.184-1.956,7.569,0.823,10.349l47.408,47.408 c2.779,2.778,7.165,3.128,10.348,0.822l55.058-39.862c12.601,7.006,25.929,12.533,39.748,16.484l10.74,67.097 c0.621,3.881,3.969,6.735,7.899,6.735h67.045c3.93,0,7.278-2.854,7.899-6.735l10.741-67.102c13.824-3.953,27.153-9.479,39.746-16.48 l55.059,39.863c3.183,2.305,7.57,1.955,10.348-0.822l47.408-47.408c2.779-2.779,3.128-7.165,0.823-10.349l-39.863-55.057 c7.005-12.6,12.533-25.93,16.484-39.748l67.097-10.74c3.88-0.621,6.735-3.97,6.735-7.899v-67.045 C512,218.548,509.145,215.199,505.264,214.578z M496,282.701l-65.467,10.479c-3.148,0.504-5.696,2.829-6.486,5.918 c-4.058,15.868-10.369,31.087-18.758,45.232c-1.626,2.743-1.469,6.189,0.401,8.772l38.896,53.722l-37.761,37.761l-53.723-38.896 c-2.583-1.871-6.03-2.027-8.772-0.401c-14.137,8.383-29.355,14.693-45.233,18.755c-3.088,0.79-5.413,3.338-5.917,6.485L282.701,496 h-53.402l-10.479-65.467c-0.504-3.147-2.829-5.696-5.918-6.486c-15.867-4.056-31.086-10.367-45.232-18.758 c-2.743-1.626-6.19-1.47-8.772,0.401l-53.722,38.896l-37.761-37.761l38.896-53.723c1.87-2.583,2.027-6.029,0.401-8.772 c-8.382-14.134-14.692-29.353-18.755-45.233c-0.791-3.088-3.338-5.412-6.486-5.916L16,282.701v-53.402l65.472-10.48 c3.148-0.504,5.696-2.829,6.486-5.918c4.059-15.874,10.368-31.092,18.753-45.231c1.626-2.743,1.469-6.189-0.401-8.772 l-38.896-53.722l37.761-37.761l53.72,38.894c2.583,1.87,6.029,2.026,8.772,0.401c14.143-8.387,29.362-14.697,45.236-18.756 c3.088-0.79,5.414-3.339,5.917-6.486L229.299,16h53.402l10.479,65.467c0.504,3.147,2.829,5.696,5.918,6.486 c15.867,4.056,31.086,10.367,45.232,18.758c2.743,1.626,6.19,1.47,8.772-0.401l53.722-38.896l37.761,37.761l-38.897,53.723 c-1.87,2.583-2.027,6.029-0.401,8.772c8.382,14.135,14.692,29.354,18.755,45.233c0.791,3.088,3.338,5.412,6.486,5.916L496,229.299 V282.701z M317.545,198.764c-0.024,0-0.049,0-0.073,0c-6.876,0.019-13.333,2.715-18.208,7.615l-55.567,56.377l-29.35-29.35 c-10.057-10.055-26.418-10.054-36.475,0c-4.872,4.872-7.555,11.349-7.555,18.238s2.683,13.367,7.555,18.238l47.656,47.656 c5.028,5.027,11.632,7.541,18.237,7.541c6.604,0,13.209-2.514,18.237-7.541c19.443-19.443,29.489-29.728,41.122-41.636 c8.873-9.083,18.048-18.475,32.671-33.245c4.849-4.875,7.509-11.348,7.49-18.224s-2.715-13.333-7.59-18.181 C330.837,201.422,324.394,198.764,317.545,198.764z M324.438,231.389c-14.674,14.821-24.282,24.656-32.759,33.335 c-11.597,11.871-21.613,22.124-40.99,41.501c-3.818,3.818-10.03,3.818-13.848,0l-47.656-47.656h0 c-1.85-1.85-2.868-4.308-2.868-6.924c0-2.615,1.019-5.074,2.868-6.924c1.91-1.909,4.417-2.863,6.925-2.863 c2.507,0,5.015,0.954,6.924,2.863l35.047,35.047c1.5,1.5,3.536,2.343,5.657,2.343c0.01,0,0.02,0,0.029,0 c2.132-0.008,4.172-0.866,5.669-2.384l61.198-62.09c1.835-1.846,4.279-2.866,6.882-2.873c0.01,0,0.019,0,0.028,0 c2.592,0,5.03,1.006,6.87,2.835c1.845,1.835,2.865,4.278,2.873,6.881S326.286,229.531,324.438,231.389z M256,127.09 c-71.081,0-128.91,57.829-128.91,128.91S184.919,384.91,256,384.91S384.91,327.081,384.91,256S327.081,127.09,256,127.09z M256,368.91c-62.259,0-112.91-50.651-112.91-112.91S193.741,143.09,256,143.09S368.91,193.741,368.91,256 S318.259,368.91,256,368.91z"/></g></svg>