<?xml version="1.0" encoding="UTF-8"?><svg xmlns="http://www.w3.org/2000/svg" xmlns:xlink="http://www.w3.org/1999/xlink" height="425.2" preserveAspectRatio="xMidYMid meet" version="1.0" viewBox="0.0 0.0 485.1 425.2" width="485.1" zoomAndPan="magnify"><defs><clipPath id="a"><path d="M 0 0 L 485.089844 0 L 485.089844 425.199219 L 0 425.199219 Z M 0 0"/></clipPath><clipPath id="b"><path d="M 0 321 L 485.089844 321 L 485.089844 425.199219 L 0 425.199219 Z M 0 321"/></clipPath><clipPath id="c"><path d="M 424.59375 260.984375 L 430.023438 260.984375 L 430.023438 261.539062 L 424.59375 261.539062 Z M 424.59375 261.539062 L 425.3125 261.539062 L 425.3125 262.855469 L 424.59375 262.855469 Z M 424.59375 262.855469 L 426.949219 262.855469 L 426.949219 263.679688 L 424.59375 263.679688 Z M 424.59375 263.679688 L 425.3125 263.679688 L 425.3125 264.996094 L 424.59375 264.996094 Z M 429.371094 261.539062 L 430.023438 261.539062 L 430.023438 264.996094 L 429.371094 264.996094 Z M 424.59375 264.996094 L 430.023438 264.996094 L 430.023438 265.550781 L 424.59375 265.550781 Z M 424.59375 264.996094"/></clipPath><clipPath id="e"><path d="M 205.226562 247.703125 L 210.164062 247.703125 L 210.164062 248.207031 L 205.226562 248.207031 Z M 205.226562 248.207031 L 205.878906 248.207031 L 205.878906 249.40625 L 205.226562 249.40625 Z M 205.226562 249.40625 L 207.371094 249.40625 L 207.371094 250.152344 L 205.226562 250.152344 Z M 205.226562 250.152344 L 205.878906 250.152344 L 205.878906 251.351562 L 205.226562 251.351562 Z M 209.574219 248.207031 L 210.164062 248.207031 L 210.164062 251.351562 L 209.574219 251.351562 Z M 205.226562 251.351562 L 210.164062 251.351562 L 210.164062 251.855469 L 205.226562 251.855469 Z M 205.226562 251.351562"/></clipPath><clipPath id="g"><path d="M 281.183594 244.09375 L 286.117188 244.09375 L 286.117188 244.59375 L 281.183594 244.59375 Z M 281.183594 244.59375 L 281.835938 244.59375 L 281.835938 245.796875 L 281.183594 245.796875 Z M 281.183594 245.796875 L 283.324219 245.796875 L 283.324219 246.542969 L 281.183594 246.542969 Z M 281.183594 246.542969 L 281.835938 246.542969 L 281.835938 247.742188 L 281.183594 247.742188 Z M 285.527344 244.59375 L 286.117188 244.59375 L 286.117188 247.742188 L 285.527344 247.742188 Z M 281.183594 247.742188 L 286.117188 247.742188 L 286.117188 248.246094 L 281.183594 248.246094 Z M 281.183594 247.742188"/></clipPath><linearGradient gradientTransform="rotate(-90 364.17 -63.139) scale(60.4929)" gradientUnits="userSpaceOnUse" id="d" x1=".587" x2=".662" xlink:actuate="onLoad" xlink:show="other" xlink:type="simple" xmlns:xlink="http://www.w3.org/1999/xlink" y1="0" y2="0"><stop offset="0" stop-color="#f9b132"/><stop offset=".125" stop-color="#f9b131"/><stop offset=".25" stop-color="#f9b131"/><stop offset=".313" stop-color="#f9b030"/><stop offset=".375" stop-color="#f9b030"/><stop offset=".5" stop-color="#f9b02f"/><stop offset=".625" stop-color="#f8b02f"/><stop offset=".75" stop-color="#f8b02e"/><stop offset=".875" stop-color="#f8b02e"/><stop offset="1" stop-color="#f8af2d"/></linearGradient><linearGradient gradientTransform="rotate(-90 245.914 38.22) scale(55.033)" gradientUnits="userSpaceOnUse" id="f" x1=".587" x2=".662" xlink:actuate="onLoad" xlink:show="other" xlink:type="simple" xmlns:xlink="http://www.w3.org/1999/xlink" y1="0" y2="0"><stop offset="0" stop-color="#f9b132"/><stop offset=".125" stop-color="#f9b131"/><stop offset=".25" stop-color="#f9b131"/><stop offset=".313" stop-color="#f9b030"/><stop offset=".375" stop-color="#f9b030"/><stop offset=".5" stop-color="#f9b02f"/><stop offset=".625" stop-color="#f8b02f"/><stop offset=".75" stop-color="#f8b02e"/><stop offset=".875" stop-color="#f8b02e"/><stop offset="1" stop-color="#f8af2d"/></linearGradient><linearGradient gradientTransform="rotate(-90 282.087 -1.563) scale(55.033)" gradientUnits="userSpaceOnUse" id="h" x1=".587" x2=".662" xlink:actuate="onLoad" xlink:show="other" xlink:type="simple" xmlns:xlink="http://www.w3.org/1999/xlink" y1="0" y2="0"><stop offset="0" stop-color="#f9b132"/><stop offset=".125" stop-color="#f9b131"/><stop offset=".25" stop-color="#f9b131"/><stop offset=".313" stop-color="#f9b030"/><stop offset=".375" stop-color="#f9b030"/><stop offset=".5" stop-color="#f9b02f"/><stop offset=".625" stop-color="#f8b02f"/><stop offset=".75" stop-color="#f8b02e"/><stop offset=".875" stop-color="#f8b02e"/><stop offset="1" stop-color="#f8af2d"/></linearGradient></defs><g><g clip-path="url(#a)"/><g><path d="M 162.640625 137.234375 L 131.40625 137.234375 C 130.46875 137.234375 129.710938 136.472656 129.710938 135.535156 L 129.710938 125.351562 C 129.710938 124.410156 130.46875 123.652344 131.40625 123.652344 L 162.640625 123.652344 C 163.578125 123.652344 164.335938 124.410156 164.335938 125.351562 L 164.335938 135.535156 C 164.335938 136.472656 163.578125 137.234375 162.640625 137.234375" fill="#72b7d0"/></g><g><path d="M 191.078125 152.089844 L 159.84375 152.089844 C 158.90625 152.089844 158.148438 151.328125 158.148438 150.390625 L 158.148438 140.203125 C 158.148438 139.269531 158.90625 138.507812 159.84375 138.507812 L 191.078125 138.507812 C 192.015625 138.507812 192.773438 139.269531 192.773438 140.203125 L 192.773438 150.390625 C 192.773438 151.328125 192.015625 152.089844 191.078125 152.089844" fill="#72b7d0"/></g><g><path d="M 133.140625 152.089844 L 101.910156 152.089844 C 100.972656 152.089844 100.210938 151.328125 100.210938 150.390625 L 100.210938 140.203125 C 100.210938 139.269531 100.972656 138.507812 101.910156 138.507812 L 133.140625 138.507812 C 134.078125 138.507812 134.839844 139.269531 134.839844 140.203125 L 134.839844 150.390625 C 134.839844 151.328125 134.078125 152.089844 133.140625 152.089844" fill="#72b7d0"/></g><g><path d="M 114.015625 63.574219 L 78.550781 63.574219 C 77.484375 63.574219 76.621094 62.710938 76.621094 61.644531 L 76.621094 50.078125 C 76.621094 49.015625 77.484375 48.152344 78.550781 48.152344 L 114.015625 48.152344 C 115.078125 48.152344 115.941406 49.015625 115.941406 50.078125 L 115.941406 61.644531 C 115.941406 62.710938 115.078125 63.574219 114.015625 63.574219" fill="#72b7d0"/></g><g><path d="M 146.304688 80.441406 L 110.839844 80.441406 C 109.777344 80.441406 108.914062 79.578125 108.914062 78.515625 L 108.914062 66.949219 C 108.914062 65.882812 109.777344 65.019531 110.839844 65.019531 L 146.304688 65.019531 C 147.371094 65.019531 148.234375 65.882812 148.234375 66.949219 L 148.234375 78.515625 C 148.234375 79.578125 147.371094 80.441406 146.304688 80.441406" fill="#72b7d0"/></g><g><path d="M 359.445312 63.574219 L 323.980469 63.574219 C 322.914062 63.574219 322.054688 62.710938 322.054688 61.644531 L 322.054688 50.078125 C 322.054688 49.015625 322.914062 48.152344 323.980469 48.152344 L 359.445312 48.152344 C 360.511719 48.152344 361.375 49.015625 361.375 50.078125 L 361.375 61.644531 C 361.375 62.710938 360.511719 63.574219 359.445312 63.574219" fill="#72b7d0"/></g><g><path d="M 391.738281 80.441406 L 356.273438 80.441406 C 355.207031 80.441406 354.34375 79.578125 354.34375 78.515625 L 354.34375 66.949219 C 354.34375 65.882812 355.207031 65.019531 356.273438 65.019531 L 391.738281 65.019531 C 392.800781 65.019531 393.664062 65.882812 393.664062 66.949219 L 393.664062 78.515625 C 393.664062 79.578125 392.800781 80.441406 391.738281 80.441406" fill="#72b7d0"/></g><g><path d="M 116.726562 53.28125 C 116.726562 57.617188 113.210938 61.132812 108.875 61.132812 C 104.539062 61.132812 101.023438 57.617188 101.023438 53.28125 C 101.023438 48.945312 104.539062 45.429688 108.875 45.429688 C 113.210938 45.429688 116.726562 48.945312 116.726562 53.28125" fill="#ebc54e"/></g><g><path d="M 134.53125 54.46875 L 108.96875 31.640625 L 83.21875 54.46875 Z M 134.53125 54.46875" fill="#1d254a"/></g><g><path d="M 108.144531 0.00390625 L 108.144531 41.960938 L 109.972656 41.960938 L 109.972656 0.00390625 L 108.144531 0.00390625" fill="#1d254a"/></g><g><path d="M 112.628906 34.976562 L 112.628906 31.503906 C 112.628906 29.464844 110.976562 27.808594 108.933594 27.808594 C 106.890625 27.808594 105.234375 29.464844 105.234375 31.503906 L 105.234375 34.976562 L 112.628906 34.976562" fill="#1d254a"/></g><g><path d="M 384.066406 53.28125 C 384.066406 57.617188 380.554688 61.132812 376.214844 61.132812 C 371.878906 61.132812 368.363281 57.617188 368.363281 53.28125 C 368.363281 48.945312 371.878906 45.429688 376.214844 45.429688 C 380.554688 45.429688 384.066406 48.945312 384.066406 53.28125" fill="#ebc54e"/></g><g><path d="M 401.871094 54.46875 L 376.308594 31.640625 L 350.5625 54.46875 Z M 401.871094 54.46875" fill="#1d254a"/></g><g><path d="M 375.484375 0.00390625 L 375.484375 41.960938 L 377.3125 41.960938 L 377.3125 0.00390625 L 375.484375 0.00390625" fill="#1d254a"/></g><g><path d="M 379.972656 34.976562 L 379.972656 31.503906 C 379.972656 29.464844 378.316406 27.808594 376.273438 27.808594 C 374.230469 27.808594 372.574219 29.464844 372.574219 31.503906 L 372.574219 34.976562 L 379.972656 34.976562" fill="#1d254a"/></g><g><path d="M 248.417969 53.28125 C 248.417969 57.617188 244.902344 61.132812 240.566406 61.132812 C 236.230469 61.132812 232.714844 57.617188 232.714844 53.28125 C 232.714844 48.945312 236.230469 45.429688 240.566406 45.429688 C 244.902344 45.429688 248.417969 48.945312 248.417969 53.28125" fill="#ebc54e"/></g><g><path d="M 266.222656 54.46875 L 240.65625 31.640625 L 214.910156 54.46875 Z M 266.222656 54.46875" fill="#1d254a"/></g><g><path d="M 239.835938 0.00390625 L 239.835938 41.960938 L 241.660156 41.960938 L 241.660156 0.00390625 L 239.835938 0.00390625" fill="#1d254a"/></g><g><path d="M 244.320312 34.976562 L 244.320312 31.503906 C 244.320312 29.464844 242.664062 27.808594 240.621094 27.808594 C 238.582031 27.808594 236.925781 29.464844 236.925781 31.503906 L 236.925781 34.976562 L 244.320312 34.976562" fill="#1d254a"/></g><g><path d="M 330.433594 174.375 L 163.144531 174.375 L 163.144531 71.609375 L 330.433594 71.609375 L 330.433594 174.375" fill="#fff"/></g><g><path d="M 330.433594 76.050781 L 330.433594 71.609375 L 163.144531 71.609375 L 163.144531 76.050781 L 330.433594 76.050781" fill="#1d254a"/></g><g><path d="M 163.144531 169.589844 L 163.144531 174.375 L 330.433594 174.375 L 330.433594 169.589844 L 163.144531 169.589844" fill="#1d254a"/></g><g><path d="M 180.078125 0.00390625 L 180.078125 73.828125 L 182.417969 73.828125 L 182.417969 0.00390625 L 180.078125 0.00390625" fill="#1d254a"/></g><g><path d="M 311.480469 0.00390625 L 311.480469 73.515625 L 313.820312 73.515625 L 313.820312 0.00390625 L 311.480469 0.00390625" fill="#1d254a"/></g><g clip-path="url(#b)"><path d="M 0 425.199219 L 485.09375 425.199219 L 485.09375 321.382812 L 0 321.382812 Z M 0 425.199219" fill="#6ac1e2"/></g><g><path d="M 114.488281 270.882812 L 79.023438 270.882812 C 77.960938 270.882812 77.097656 270.019531 77.097656 268.957031 L 77.097656 257.390625 C 77.097656 256.324219 77.960938 255.460938 79.023438 255.460938 L 114.488281 255.460938 C 115.554688 255.460938 116.414062 256.324219 116.414062 257.390625 L 116.414062 268.957031 C 116.414062 270.019531 115.554688 270.882812 114.488281 270.882812" fill="#72b7d0"/></g><g><path d="M 146.78125 287.753906 L 111.316406 287.753906 C 110.25 287.753906 109.386719 286.890625 109.386719 285.824219 L 109.386719 274.257812 C 109.386719 273.191406 110.25 272.328125 111.316406 272.328125 L 146.78125 272.328125 C 147.84375 272.328125 148.707031 273.191406 148.707031 274.257812 L 148.707031 285.824219 C 148.707031 286.890625 147.84375 287.753906 146.78125 287.753906" fill="#72b7d0"/></g><g><path d="M 304.710938 248.984375 L 271.101562 248.984375 C 270.089844 248.984375 269.273438 248.164062 269.273438 247.152344 L 269.273438 236.191406 C 269.273438 235.183594 270.089844 234.367188 271.101562 234.367188 L 304.710938 234.367188 C 305.71875 234.367188 306.539062 235.183594 306.539062 236.191406 L 306.539062 247.152344 C 306.539062 248.164062 305.71875 248.984375 304.710938 248.984375" fill="#72b7d0"/></g><g><path d="M 335.3125 264.96875 L 301.703125 264.96875 C 300.691406 264.96875 299.875 264.148438 299.875 263.140625 L 299.875 252.179688 C 299.875 251.171875 300.691406 250.351562 301.703125 250.351562 L 335.3125 250.351562 C 336.320312 250.351562 337.140625 251.171875 337.140625 252.179688 L 337.140625 263.140625 C 337.140625 264.148438 336.320312 264.96875 335.3125 264.96875" fill="#72b7d0"/></g><g><path d="M 265.605469 232.683594 L 231.996094 232.683594 C 230.984375 232.683594 230.167969 231.863281 230.167969 230.855469 L 230.167969 219.894531 C 230.167969 218.886719 230.984375 218.066406 231.996094 218.066406 L 265.605469 218.066406 C 266.613281 218.066406 267.433594 218.886719 267.433594 219.894531 L 267.433594 230.855469 C 267.433594 231.863281 266.613281 232.683594 265.605469 232.683594" fill="#72b7d0"/></g><g><path d="M 341.976562 231.4375 L 308.363281 231.4375 C 307.355469 231.4375 306.539062 230.617188 306.539062 229.609375 L 306.539062 218.648438 C 306.539062 217.640625 307.355469 216.820312 308.363281 216.820312 L 341.976562 216.820312 C 342.984375 216.820312 343.800781 217.640625 343.800781 218.648438 L 343.800781 229.609375 C 343.800781 230.617188 342.984375 231.4375 341.976562 231.4375" fill="#72b7d0"/></g><g><path d="M 272.964844 264.96875 L 239.355469 264.96875 C 238.347656 264.96875 237.527344 264.148438 237.527344 263.140625 L 237.527344 252.179688 C 237.527344 251.171875 238.347656 250.351562 239.355469 250.351562 L 272.964844 250.351562 C 273.976562 250.351562 274.792969 251.171875 274.792969 252.179688 L 274.792969 263.140625 C 274.792969 264.148438 273.976562 264.96875 272.964844 264.96875" fill="#72b7d0"/></g><g><path d="M 65.785156 394.898438 C 49.671875 394.898438 36.609375 389.664062 36.609375 383.203125 C 36.609375 376.746094 49.671875 371.507812 65.785156 371.507812 C 81.898438 371.507812 94.960938 376.746094 94.960938 383.203125 C 94.960938 389.664062 81.898438 394.898438 65.785156 394.898438" fill="#49abcf"/></g><g><path d="M 429.300781 396.679688 C 413.1875 396.679688 400.125 391.445312 400.125 384.984375 C 400.125 378.527344 413.1875 373.289062 429.300781 373.289062 C 445.414062 373.289062 458.472656 378.527344 458.472656 384.984375 C 458.472656 391.445312 445.414062 396.679688 429.300781 396.679688" fill="#49abcf"/></g><g><path d="M 210.457031 371.441406 C 193.636719 371.441406 180 366.207031 180 359.75 C 180 353.289062 193.636719 348.054688 210.457031 348.054688 C 227.277344 348.054688 240.914062 353.289062 240.914062 359.75 C 240.914062 366.207031 227.277344 371.441406 210.457031 371.441406" fill="#49abcf"/></g><g><path d="M 284.234375 371.441406 C 267.414062 371.441406 253.777344 366.207031 253.777344 359.75 C 253.777344 353.289062 267.414062 348.054688 284.234375 348.054688 C 301.058594 348.054688 314.691406 353.289062 314.691406 359.75 C 314.691406 366.207031 301.058594 371.441406 284.234375 371.441406" fill="#49abcf"/></g><g><path d="M 390.746094 262.273438 C 390.746094 262.273438 389.144531 265.460938 387.785156 270.460938 C 387.253906 272.398438 386.941406 275.492188 389.292969 277.03125 C 389.558594 277.203125 390.375 277.332031 390.582031 277.113281 C 390.851562 276.824219 390.933594 276.492188 390.511719 275.703125 C 389.667969 274.136719 389.625 273.128906 389.890625 272.160156 C 390.09375 271.40625 390.222656 270.859375 390.453125 270.015625 C 390.667969 269.226562 392.066406 267.457031 392.652344 267.613281 C 393.214844 267.769531 393.675781 269.964844 393.886719 270.433594 C 394.527344 271.886719 396.199219 272.027344 395.71875 270.441406 C 394.542969 266.550781 395.941406 263.6875 395.941406 263.6875 L 390.746094 262.273438" fill="#b56553"/></g><g><path d="M 445.546875 265.875 L 446.601562 197.738281 C 446.601562 195.296875 443.523438 193.402344 441.257812 192.484375 C 437.53125 190.976562 433.171875 191.054688 433.171875 191.054688 C 433.171875 191.054688 432.296875 196.417969 427.433594 196.417969 C 423.007812 196.417969 421.941406 191.054688 421.941406 191.054688 C 421.941406 191.054688 418.039062 191.101562 413.625 192.941406 C 411.371094 193.882812 409.523438 195.621094 409.261719 198.351562 C 407.339844 218.394531 408.25 265.875 408.25 265.875 L 445.546875 265.875" fill="#a3b3d9"/></g><g><path d="M 433.289062 191.632812 C 433.289062 191.632812 432.65625 197.082031 427.523438 197.082031 C 422.789062 197.082031 421.941406 191.632812 421.941406 191.632812 L 421.941406 186.074219 L 433.289062 186.074219 L 433.289062 191.632812" fill="#a15949"/></g><g><path d="M 438.554688 179.660156 C 436.132812 187.707031 431.75 189.273438 427.5 189.273438 C 423.4375 189.273438 418.988281 187.183594 416.570312 179.332031 C 415.582031 176.128906 415.539062 170.898438 416.046875 168.144531 C 417.484375 160.292969 422.378906 158.078125 427.617188 158.078125 C 432.992188 158.078125 437.3125 159.703125 439.011719 167.488281 C 439.617188 170.269531 439.867188 175.285156 438.554688 179.660156" fill="#b56553"/></g><g><path d="M 442.871094 193.265625 C 442.871094 193.265625 454.566406 196.074219 462.117188 232.707031 L 452.929688 234.121094 C 452.929688 234.121094 447.003906 213.503906 446.414062 210.109375 C 444.632812 199.84375 442.871094 193.265625 442.871094 193.265625" fill="#a3b3d9"/></g><g><path d="M 413.261719 193.101562 C 413.261719 193.101562 402.457031 194.945312 393.59375 233.144531 L 402.886719 235.671875 C 402.886719 235.671875 407.800781 216.015625 408.476562 212.636719 C 410.523438 202.421875 413.261719 193.101562 413.261719 193.101562" fill="#a3b3d9"/></g><g><path d="M 396.617188 264.695312 L 389.457031 263.164062 L 393.578125 233.042969 L 403.015625 235.0625 L 396.617188 264.695312" fill="#a3b3d9"/></g><g><path d="M 441.257812 192.484375 C 437.53125 190.976562 433.300781 191.0625 433.300781 191.0625 C 433.300781 191.0625 432.296875 196.417969 427.433594 196.417969 C 423.007812 196.417969 421.941406 191.054688 421.941406 191.054688 C 421.941406 191.054688 417.675781 191.261719 413.261719 193.101562 C 413.191406 193.128906 412.726562 198.695312 411.96875 202.585938 C 410.972656 207.703125 408.460938 211.9375 408.460938 211.9375 C 407.648438 234.449219 408.25 265.875 408.25 265.875 L 445.546875 265.875 L 446.414062 209.753906 C 442.328125 205.59375 441.324219 192.511719 441.257812 192.484375" fill="#1d254a"/></g><g><path d="M 415.828125 372.472656 C 415.386719 373.347656 414.882812 375.554688 414.324219 376.730469 C 413.023438 379.464844 412.433594 380.917969 410.722656 384.214844 C 409.78125 386.03125 409.351562 390.410156 413.613281 390.875 C 418.019531 391.355469 420.167969 387.269531 420.472656 385.261719 C 421.179688 380.632812 421.582031 378.042969 422.402344 373.472656 C 422.71875 371.730469 420.726562 371.039062 418.972656 371.078125 C 417.605469 371.105469 416.367188 371.402344 415.828125 372.472656" fill="#572015"/></g><g><path d="M 433.488281 375.738281 C 433.488281 375.738281 432.125 376.28125 432.695312 379.578125 C 433.054688 381.660156 434.832031 381.746094 436.539062 382.402344 C 438.769531 383.269531 439.707031 388.699219 447.109375 388.699219 C 451.296875 388.699219 451.90625 386.175781 449.890625 384.296875 C 445.953125 380.628906 442.269531 377.847656 439.589844 375.738281 L 433.488281 375.738281" fill="#572015"/></g><g><path d="M 445.5625 264.808594 L 408.234375 264.808594 L 412.507812 376.179688 C 412.507812 376.179688 415.730469 377.953125 418.390625 377.953125 C 421.855469 377.953125 423.546875 376.339844 423.546875 376.339844 L 426.058594 282.710938 L 427.515625 283.988281 L 434.199219 328.445312 L 434.230469 328.445312 L 431.296875 375.414062 C 431.292969 375.410156 431.828125 377.507812 435.671875 377.507812 C 438.707031 377.507812 441.40625 376.742188 441.40625 376.742188 L 450.335938 328.445312 L 450.367188 328.445312 L 445.5625 264.808594" fill="#ebc54e"/></g><g><path d="M 419.121094 265.003906 C 419.121094 265.003906 420.363281 278.523438 408.71875 278.171875 L 408.234375 265.003906 L 419.121094 265.003906" fill="#e99938"/></g><g><path d="M 438.96875 265.003906 C 438.96875 265.003906 437.3125 276.429688 446.527344 277.183594 L 445.554688 265.003906 L 438.96875 265.003906" fill="#e99938"/></g><g><path d="M 445.550781 265.003906 L 408.1875 265.003906 L 408.1875 261.53125 L 445.550781 261.53125 L 445.550781 265.003906" fill="#572015"/></g><g clip-path="url(#c)"><path d="M 424.59375 265.550781 L 430.023438 265.550781 L 430.023438 260.984375 L 424.59375 260.984375 Z M 424.59375 265.550781" fill="url(#d)"/></g><g><path d="M 427.617188 196.367188 C 427.617188 196.367188 429.894531 199.367188 433.746094 200.703125 C 433.746094 200.703125 433.875 193.789062 435.59375 191.171875 C 435.59375 191.171875 434.167969 191.019531 433.300781 191.0625 C 433.300781 191.0625 431.007812 196.445312 427.617188 196.367188" fill="#a3b3d9"/></g><g><path d="M 427.617188 196.367188 C 427.617188 196.367188 424.890625 199.914062 421.488281 200.703125 C 421.488281 200.703125 421.359375 193.789062 419.640625 191.171875 C 419.640625 191.171875 421.066406 191.019531 421.933594 191.0625 C 421.933594 191.0625 424.695312 196.574219 427.617188 196.367188" fill="#a3b3d9"/></g><g><path d="M 440.464844 170.882812 C 440.632812 170.503906 440.738281 170.070312 440.753906 169.609375 C 440.777344 168.898438 440.59375 168.25 440.273438 167.753906 C 440.40625 167.296875 440.4375 166.769531 440.335938 166.230469 C 440.210938 165.542969 439.894531 164.953125 439.484375 164.539062 C 439.574219 163.660156 438.925781 162.714844 437.871094 162.203125 L 437.953125 162.027344 C 438.355469 160.972656 437.535156 159.6875 436.121094 159.15625 C 435.710938 159.003906 435.296875 158.933594 434.902344 158.933594 C 434.644531 158.238281 433.988281 157.597656 433.089844 157.261719 C 432.390625 156.996094 431.675781 156.96875 431.085938 157.136719 C 430.628906 156.484375 429.714844 156.039062 428.660156 156.039062 C 427.871094 156.039062 427.164062 156.289062 426.664062 156.683594 C 426.105469 156.316406 425.324219 156.148438 424.496094 156.265625 C 423.363281 156.429688 422.472656 157.089844 422.175781 157.882812 C 421.660156 157.90625 421.109375 158.0625 420.59375 158.375 C 420 158.730469 419.558594 159.226562 419.3125 159.746094 C 418.800781 159.933594 418.300781 160.285156 417.894531 160.785156 C 417.605469 161.136719 417.402344 161.523438 417.28125 161.910156 C 417.003906 162.097656 416.742188 162.335938 416.507812 162.617188 C 415.917969 163.351562 415.675781 164.21875 415.792969 164.9375 C 415.402344 165.351562 415.105469 165.925781 414.984375 166.59375 C 414.878906 167.160156 414.917969 167.710938 415.070312 168.1875 C 414.777344 168.671875 414.609375 169.296875 414.632812 169.972656 C 414.644531 170.328125 414.710938 170.667969 414.816406 170.976562 C 414.445312 171.449219 414.226562 172.128906 414.253906 172.878906 C 414.300781 174.265625 415.171875 175.359375 416.199219 175.324219 C 417.226562 175.289062 418.019531 174.136719 417.96875 172.75 C 417.960938 172.535156 417.933594 172.332031 417.890625 172.132812 C 418.433594 171.628906 418.773438 170.78125 418.742188 169.828125 L 418.742188 169.824219 C 419.421875 169.636719 420.097656 169.109375 420.535156 168.332031 C 420.773438 167.914062 420.914062 167.472656 420.960938 167.050781 C 421.355469 167.039062 421.765625 166.960938 422.171875 166.796875 C 423.003906 166.457031 423.617188 165.855469 423.890625 165.207031 C 424.441406 165.769531 425.394531 166.066406 426.421875 165.917969 C 427.085938 165.820312 427.664062 165.558594 428.09375 165.195312 C 428.621094 165.453125 429.292969 165.566406 429.996094 165.460938 C 430.804688 165.347656 431.488281 164.976562 431.921875 164.488281 C 432.164062 165.203125 432.832031 165.867188 433.75 166.214844 C 433.996094 166.304688 434.238281 166.367188 434.480469 166.402344 C 434.492188 166.910156 434.632812 167.453125 434.925781 167.96875 C 435.351562 168.71875 435.988281 169.234375 436.644531 169.441406 L 436.644531 169.46875 C 436.609375 170.394531 436.9375 171.226562 437.457031 171.734375 C 437.367188 172.015625 437.3125 172.324219 437.300781 172.652344 C 437.257812 174.066406 438.050781 175.246094 439.074219 175.285156 C 440.097656 175.324219 440.960938 174.207031 441.007812 172.789062 C 441.03125 172.042969 440.820312 171.363281 440.464844 170.882812" fill="#41170e"/></g><g><path d="M 417.410156 174.796875 C 417.597656 176.078125 417.097656 177.214844 416.296875 177.332031 C 415.488281 177.449219 414.6875 176.507812 414.496094 175.222656 C 414.308594 173.941406 414.808594 172.804688 415.613281 172.6875 C 416.417969 172.570312 417.222656 173.511719 417.410156 174.796875" fill="#b56553"/></g><g><path d="M 437.804688 175.09375 C 437.585938 176.371094 438.0625 177.519531 438.863281 177.652344 C 439.664062 177.789062 440.492188 176.859375 440.707031 175.582031 C 440.921875 174.304688 440.445312 173.15625 439.644531 173.023438 C 438.84375 172.886719 438.019531 173.816406 437.804688 175.09375" fill="#b56553"/></g><g><path d="M 448.246094 240.277344 L 423.542969 240.703125 L 422.941406 205.9375 L 447.644531 205.511719 L 448.246094 240.277344" fill="#cad5e6"/></g><g><path d="M 449.285156 243.28125 L 424.59375 242.464844 L 425.742188 207.714844 L 450.433594 208.53125 L 449.285156 243.28125" fill="#52bfd6"/></g><g><path d="M 426.078125 218.921875 L 423.828125 218.839844 L 424.15625 209.84375 L 426.410156 209.925781 L 426.078125 218.921875" fill="#52bfd6"/></g><g><path d="M 434.21875 228.585938 C 434.21875 228.585938 430.738281 227.792969 426.011719 225.671875 C 424.179688 224.847656 421.59375 223.125 421.898438 220.328125 C 421.933594 220.015625 422.351562 219.304688 422.652344 219.285156 C 423.046875 219.253906 423.355469 219.40625 423.695312 220.230469 C 424.371094 221.878906 425.121094 222.550781 426.039062 222.964844 C 426.75 223.285156 427.253906 223.53125 428.054688 223.890625 C 428.800781 224.226562 431.054688 224.269531 431.304688 223.714844 C 431.542969 223.183594 430.140625 221.433594 429.910156 220.976562 C 429.195312 219.554688 430.148438 218.175781 431.070312 219.554688 C 433.328125 222.933594 436.425781 223.671875 436.425781 223.671875 L 434.21875 228.585938" fill="#b56553"/></g><g><path d="M 436.015625 222.34375 L 433.015625 229.023438 C 433.015625 229.023438 460.679688 240.707031 462.480469 240.074219 C 463.789062 239.617188 461.957031 232.191406 461.957031 232.191406 L 436.015625 222.34375" fill="#a3b3d9"/></g><g><path d="M 393.683594 278.179688 L 389.664062 278.179688 L 389.664062 269.367188 L 393.683594 269.367188 L 393.683594 278.179688" fill="#3f160e"/></g><g><path d="M 398.507812 315.035156 L 384.839844 315.035156 L 384.839844 277.960938 L 398.507812 277.960938 L 398.507812 315.035156" fill="#572015"/></g><g><path d="M 82.28125 184.4375 C 78.578125 177.359375 78.511719 170.984375 78.183594 167.863281 L 54.003906 168.09375 C 53.808594 171.859375 53.105469 179.40625 49.863281 183.871094 C 42.628906 193.832031 45.578125 207.460938 52.589844 207.367188 L 81.4375 207.460938 C 88.449219 207.554688 86.933594 193.316406 82.28125 184.4375" fill="#572015"/></g><g><path d="M 35.847656 257.582031 C 35.847656 257.582031 34.46875 260.726562 33.359375 265.617188 C 32.925781 267.511719 32.726562 270.523438 34.925781 271.949219 C 35.171875 272.109375 35.921875 272.210938 36.105469 271.988281 C 36.347656 271.703125 36.414062 271.378906 36.003906 270.625 C 35.1875 269.128906 35.121094 268.152344 35.335938 267.203125 C 35.503906 266.46875 35.605469 265.933594 35.792969 265.105469 C 35.96875 264.332031 37.203125 262.574219 37.742188 262.714844 C 38.265625 262.84375 38.746094 264.960938 38.953125 265.410156 C 39.578125 266.804688 41.113281 266.890625 40.632812 265.363281 C 39.445312 261.625 40.648438 258.804688 40.648438 258.804688 L 35.847656 257.582031" fill="#f89a8d"/></g><g><path d="M 56.121094 370.371094 C 55.730469 371.3125 55.28125 373.691406 54.78125 374.957031 C 53.628906 377.902344 53.105469 379.46875 51.585938 383.019531 C 50.75 384.976562 50.367188 389.691406 54.152344 390.191406 C 58.066406 390.707031 59.972656 386.308594 60.246094 384.148438 C 60.871094 379.160156 61.230469 376.371094 61.960938 371.449219 C 62.238281 369.574219 60.46875 368.828125 58.914062 368.867188 C 57.699219 368.898438 56.597656 369.21875 56.121094 370.371094" fill="#f89a8d"/></g><g><path d="M 58.074219 385.367188 C 57.171875 386.671875 55.117188 387.527344 53.160156 386.074219 C 51.589844 384.910156 51.636719 382.90625 51.585938 383.019531 C 50.75 384.976562 50.367188 389.691406 54.152344 390.191406 C 58.066406 390.707031 59.972656 386.308594 60.246094 384.148438 C 60.644531 380.972656 60.933594 378.6875 61.28125 376.175781 C 60.96875 377.304688 60.082031 382.460938 58.074219 385.367188" fill="#572015"/></g><g><path d="M 69.027344 374.035156 C 69.027344 374.035156 67.816406 374.621094 68.324219 378.171875 C 68.644531 380.414062 70.21875 380.507812 71.738281 381.21875 C 73.714844 382.148438 74.546875 387.996094 81.125 387.996094 C 84.84375 387.996094 85.382812 385.28125 83.59375 383.257812 C 80.097656 379.304688 76.828125 376.308594 74.445312 374.035156 L 69.027344 374.035156" fill="#f89a8d"/></g><g><path d="M 83.59375 383.257812 C 82.992188 382.578125 82.402344 381.929688 81.816406 381.304688 C 82.019531 382.496094 81.6875 383.664062 80.292969 384.066406 C 79.4375 384.3125 78.429688 384.449219 77.574219 384.109375 C 76.644531 383.738281 75.574219 383.046875 74.953125 382.285156 C 74.148438 381.296875 73.4375 380.75 72.34375 380.167969 C 71.46875 379.707031 70.824219 379.492188 70.191406 378.710938 C 69.613281 377.996094 69.386719 377.125 69.460938 376.214844 C 69.523438 375.480469 69.578125 374.761719 69.613281 374.035156 L 69.027344 374.035156 C 69.027344 374.035156 67.816406 374.621094 68.324219 378.171875 C 68.644531 380.414062 70.21875 380.507812 71.738281 381.21875 C 73.714844 382.148438 74.546875 387.996094 81.125 387.996094 C 84.84375 387.996094 85.382812 385.28125 83.59375 383.257812" fill="#572015"/></g><g><path d="M 80.589844 198.90625 C 79.957031 195.476562 78.722656 191.304688 75.605469 190.089844 C 72.53125 188.890625 69.257812 189.113281 69.257812 189.113281 C 69.257812 189.113281 69.109375 193.003906 65.652344 193.40625 C 62.195312 193.003906 62.042969 189.113281 62.042969 189.113281 C 62.042969 189.113281 59.40625 188.714844 56.335938 189.910156 C 53.214844 191.128906 51.550781 195.601562 50.992188 199.050781 C 48.851562 212.226562 52.0625 220.035156 51.929688 232.171875 C 51.84375 240.390625 50.160156 250.414062 49.082031 254.632812 L 81.105469 254.632812 C 81.058594 250.027344 79.550781 240.296875 79.460938 232.078125 C 79.332031 219.941406 82.941406 211.617188 80.589844 198.90625" fill="#ebc54e"/></g><g><path d="M 70.179688 189.855469 C 70.179688 189.855469 70.09375 193.601562 66.019531 193.601562 C 61.996094 193.601562 61.996094 189.855469 61.996094 189.855469 L 61.996094 183.871094 L 70.179688 183.871094 L 70.179688 189.855469" fill="#f78e80"/></g><g><path d="M 75.671875 177.742188 C 72.382812 185.910156 68.660156 187.316406 65.761719 187.316406 C 63.46875 187.316406 59.175781 184.640625 55.808594 176.867188 C 54.460938 173.757812 54.710938 169.496094 55.222656 166.714844 C 56.6875 158.785156 62.316406 157.398438 65.882812 157.398438 C 69.636719 157.398438 74.96875 159.109375 76.703125 166.972656 C 77.320312 169.78125 77.394531 173.460938 75.671875 177.742188" fill="#f89a8d"/></g><g><path d="M 57.433594 189.539062 C 57.433594 189.539062 43.378906 190.71875 38.699219 229.273438 L 46.679688 232.230469 C 46.679688 232.230469 49.761719 213.136719 50.289062 209.84375 C 51.882812 199.867188 57.433594 189.539062 57.433594 189.539062" fill="#ebc54e"/></g><g><path d="M 41.296875 259.761719 L 34.691406 258.484375 L 38.730469 228.996094 L 46.972656 230.816406 L 41.296875 259.761719" fill="#ebc54e"/></g><g><path d="M 95.882812 257.582031 C 95.882812 257.582031 97.261719 260.726562 98.371094 265.617188 C 98.800781 267.511719 99.003906 270.523438 96.804688 271.949219 C 96.558594 272.109375 95.808594 272.210938 95.621094 271.988281 C 95.382812 271.703125 95.316406 271.378906 95.726562 270.625 C 96.539062 269.128906 96.609375 268.152344 96.394531 267.203125 C 96.226562 266.46875 96.121094 265.933594 95.9375 265.105469 C 95.761719 264.332031 94.527344 262.574219 93.984375 262.714844 C 93.464844 262.84375 92.980469 264.960938 92.78125 265.410156 C 92.152344 266.804688 90.613281 266.890625 91.097656 265.363281 C 92.28125 261.625 91.082031 258.804688 91.082031 258.804688 L 95.882812 257.582031" fill="#f89a8d"/></g><g><path d="M 74.8125 189.828125 C 74.8125 189.828125 88.347656 190.71875 93.03125 229.273438 L 84.820312 232.9375 C 84.820312 232.9375 81.96875 213.136719 81.441406 209.84375 C 79.847656 199.867188 74.8125 189.828125 74.8125 189.828125" fill="#ebc54e"/></g><g><path d="M 90.433594 259.761719 L 97.039062 258.484375 L 93 228.996094 L 84.523438 231.523438 L 90.433594 259.761719" fill="#ebc54e"/></g><g><path d="M 81.105469 254.632812 L 49.082031 254.632812 C 49.082031 254.632812 46.269531 262.664062 46.285156 271.496094 C 46.289062 274.960938 46.09375 285.078125 46.761719 291.464844 C 50.160156 323.871094 52.878906 374.589844 52.878906 374.589844 C 52.878906 374.589844 55.742188 376.496094 58.101562 376.496094 C 61.179688 376.496094 62.679688 374.761719 62.679688 374.761719 L 64.910156 273.914062 L 69.617188 323.652344 L 69.644531 323.652344 L 67.066406 374.242188 C 67.0625 374.238281 67.539062 376.496094 70.953125 376.496094 C 73.644531 376.496094 76.042969 375.671875 76.042969 375.671875 L 83.945312 323.652344 L 83.972656 323.652344 C 83.972656 323.652344 83.414062 277.488281 82.28125 261.84375 C 81.964844 257.4375 81.105469 254.632812 81.105469 254.632812" fill="#1d254a"/></g><g><path d="M 57.59375 187.421875 C 55.148438 180.847656 55.394531 174.246094 55.667969 173.023438 C 56.28125 170.246094 60.410156 170.8125 61.210938 164.867188 C 61.210938 164.867188 66.527344 159.710938 66.960938 156.191406 C 66.960938 156.191406 55.785156 155.449219 53.996094 166.722656 C 53.273438 176.5 52.734375 183.179688 53.253906 187.421875 L 57.59375 187.421875" fill="#572015"/></g><g><path d="M 73.226562 169.871094 C 73.226562 169.871094 69.941406 167.851562 70.476562 165.996094 C 70.476562 165.996094 72.683594 169.15625 76.082031 169.941406 C 76.371094 171.492188 77.308594 180.796875 70.34375 187.421875 L 78.050781 187.421875 C 78.125 183.082031 78.328125 170.457031 78.203125 168.160156 C 77.988281 164.304688 75.46875 157.398438 68.757812 156.296875 C 60.550781 154.949219 60.71875 165.011719 60.71875 165.011719 C 60.71875 165.011719 65.109375 171.527344 73.226562 169.871094" fill="#572015"/></g><g><path d="M 74.757812 173.105469 C 74.511719 174.316406 74.925781 175.425781 75.6875 175.582031 C 76.445312 175.734375 77.261719 174.878906 77.511719 173.667969 C 77.757812 172.453125 77.34375 171.347656 76.582031 171.191406 C 75.820312 171.035156 75.003906 171.890625 74.757812 173.105469" fill="#f89a8d"/></g><g><path d="M 54.683594 173.703125 C 54.957031 174.910156 55.792969 175.75 56.550781 175.574219 C 57.308594 175.402344 57.699219 174.285156 57.421875 173.078125 C 57.148438 171.875 56.308594 171.035156 55.554688 171.207031 C 54.796875 171.382812 54.410156 172.5 54.683594 173.703125" fill="#f89a8d"/></g><g><path d="M 66.019531 193.601562 C 66.019531 193.601562 68.234375 195.894531 71.515625 197.007812 C 71.515625 197.007812 70.945312 191.414062 72.410156 189.234375 C 72.410156 189.234375 70.917969 189.066406 70.179688 189.097656 C 70.179688 189.097656 68.910156 193.660156 66.019531 193.601562" fill="#1d254a"/></g><g><path d="M 66.019531 193.601562 C 66.019531 193.601562 63.269531 196.128906 60.371094 196.785156 C 60.371094 196.785156 61.140625 191.230469 59.675781 189.050781 C 59.675781 189.050781 61.269531 189.003906 62.042969 189.113281 C 62.042969 189.113281 63.53125 193.769531 66.019531 193.601562" fill="#1d254a"/></g><g><path d="M 56.574219 175.757812 C 56.574219 176.148438 56.257812 176.46875 55.867188 176.46875 C 55.472656 176.46875 55.15625 176.148438 55.15625 175.757812 C 55.15625 175.363281 55.472656 175.046875 55.867188 175.046875 C 56.257812 175.046875 56.574219 175.363281 56.574219 175.757812" fill="#f14a54"/></g><g><path d="M 76.589844 175.757812 C 76.589844 176.148438 76.273438 176.46875 75.882812 176.46875 C 75.488281 176.46875 75.167969 176.148438 75.167969 175.757812 C 75.167969 175.363281 75.488281 175.046875 75.882812 175.046875 C 76.273438 175.046875 76.589844 175.363281 76.589844 175.757812" fill="#f14a54"/></g><g><path d="M 27.796875 287.082031 L 27.105469 265.929688 L 55.296875 265.003906 L 55.988281 286.160156 L 27.796875 287.082031" fill="#cad5e6"/></g><g><path d="M 40.851562 268.835938 L 41.191406 265.691406 L 52.007812 266.863281 L 51.664062 270.011719 L 40.851562 268.835938" fill="#52bfd6"/></g><g><path d="M 23.839844 286.984375 L 26.121094 265.941406 L 54.164062 268.984375 L 51.882812 290.027344 L 23.839844 286.984375" fill="#52bfd6"/></g><g><path d="M 45.625 286.6875 L 47.285156 271.390625 L 50.921875 271.785156 L 49.265625 287.082031 L 45.625 286.6875" fill="#389abb"/></g><g><path d="M 35.335938 267.203125 C 35.472656 266.609375 35.566406 266.144531 35.695312 265.554688 L 33.375 265.554688 L 33.359375 265.617188 C 32.925781 267.511719 32.726562 270.523438 34.925781 271.949219 C 35.171875 272.109375 35.921875 272.210938 36.105469 271.988281 C 36.347656 271.703125 36.414062 271.378906 36.003906 270.625 C 35.1875 269.128906 35.121094 268.152344 35.335938 267.203125" fill="#f89a8d"/></g><g><path d="M 95.882812 273.113281 L 92.058594 273.113281 L 92.058594 264.726562 L 95.882812 264.726562 L 95.882812 273.113281" fill="#3f160e"/></g><g><path d="M 100.476562 308.195312 L 87.464844 308.195312 L 87.464844 272.90625 L 100.476562 272.90625 L 100.476562 308.195312" fill="#572015"/></g><g><path d="M 230.257812 347.664062 C 230.660156 348.460938 231.121094 350.46875 231.628906 351.539062 C 232.808594 354.023438 233.347656 355.347656 234.902344 358.347656 C 235.761719 359.996094 236.152344 363.980469 232.277344 364.402344 C 228.265625 364.839844 226.3125 361.125 226.035156 359.296875 C 225.394531 355.089844 225.027344 352.734375 224.277344 348.578125 C 223.992188 346.992188 225.804688 346.363281 227.398438 346.394531 C 228.644531 346.421875 229.769531 346.691406 230.257812 347.664062" fill="#572015"/></g><g><path d="M 202.960938 352.601562 C 202.960938 352.601562 204.199219 353.09375 203.683594 356.09375 C 203.355469 357.988281 201.738281 358.066406 200.1875 358.664062 C 198.160156 359.453125 197.308594 364.390625 190.570312 364.390625 C 186.761719 364.390625 186.210938 362.097656 188.039062 360.390625 C 191.621094 357.046875 194.972656 354.519531 197.410156 352.601562 L 202.960938 352.601562" fill="#572015"/></g><g><path d="M 224.285156 252.152344 L 225.246094 190.171875 C 225.246094 187.949219 222.445312 186.226562 220.386719 185.390625 C 216.992188 184.019531 213.027344 184.089844 213.027344 184.089844 C 213.027344 184.089844 212.234375 188.96875 207.808594 188.96875 C 203.785156 188.96875 202.8125 184.089844 202.8125 184.089844 C 202.8125 184.089844 199.265625 184.132812 195.246094 185.804688 C 193.195312 186.660156 191.519531 188.242188 191.28125 190.726562 C 189.53125 208.960938 190.359375 252.152344 190.359375 252.152344 L 224.285156 252.152344" fill="#ebc54e"/></g><g><path d="M 213.136719 184.617188 C 213.136719 184.617188 212.558594 189.574219 207.890625 189.574219 C 203.585938 189.574219 202.8125 184.617188 202.8125 184.617188 L 202.8125 179.5625 L 213.136719 179.5625 L 213.136719 184.617188" fill="#a15949"/></g><g><path d="M 217.925781 173.722656 C 215.722656 181.046875 211.734375 182.472656 207.867188 182.472656 C 204.175781 182.472656 200.128906 180.566406 197.925781 173.425781 C 197.027344 170.511719 196.992188 165.753906 197.449219 163.246094 C 198.757812 156.105469 203.210938 154.09375 207.976562 154.09375 C 212.867188 154.09375 216.792969 155.570312 218.339844 162.652344 C 218.894531 165.183594 219.121094 169.746094 217.925781 173.722656" fill="#b56553"/></g><g><path d="M 193.671875 186.664062 C 193.671875 186.664062 183.199219 188.253906 178.636719 223.628906 L 186.941406 224.441406 C 186.941406 224.441406 190.101562 207.746094 190.40625 204.632812 C 191.335938 195.199219 193.671875 186.664062 193.671875 186.664062" fill="#ebc54e"/></g><g><path d="M 224.300781 251.183594 L 190.34375 251.183594 L 194.234375 352.488281 C 194.234375 352.488281 197.164062 354.105469 199.582031 354.105469 C 202.734375 354.105469 204.273438 352.636719 204.273438 352.636719 L 206.855469 265.765625 L 208.183594 266.925781 L 215.222656 309.105469 L 215.25 309.105469 L 223.273438 350.582031 C 223.269531 350.582031 223.757812 352.488281 227.25 352.488281 C 230.011719 352.488281 232.46875 351.792969 232.46875 351.792969 L 229.898438 309.105469 L 229.925781 309.105469 L 224.300781 251.183594" fill="#1d254a"/></g><g><path d="M 224.289062 251.359375 L 190.304688 251.359375 L 190.304688 248.199219 L 224.289062 248.199219 L 224.289062 251.359375" fill="#572015"/></g><g clip-path="url(#e)"><path d="M 205.226562 251.855469 L 210.164062 251.855469 L 210.164062 247.703125 L 205.226562 247.703125 Z M 205.226562 251.855469" fill="url(#f)"/></g><g><path d="M 199.351562 251.359375 C 199.351562 251.359375 199.867188 261.960938 190.746094 262.277344 L 190.34375 251.359375 L 199.351562 251.359375" fill="#0f1324"/></g><g><path d="M 218.300781 251.359375 C 218.300781 251.359375 215.839844 261.628906 225.433594 262.839844 L 224.292969 251.359375 L 218.300781 251.359375" fill="#0f1324"/></g><g><path d="M 208.023438 189.472656 C 208.023438 189.472656 210.097656 192.769531 213.597656 194.144531 C 213.597656 194.144531 213.714844 187.003906 215.28125 184.300781 C 215.28125 184.300781 214.125 184.046875 213.128906 184.089844 C 213.128906 184.089844 211.109375 189.550781 208.023438 189.472656" fill="#1d254a"/></g><g><path d="M 208.023438 189.472656 C 208.023438 189.472656 205.542969 193.332031 202.449219 194.144531 C 202.449219 194.144531 202.332031 187.003906 200.769531 184.300781 C 200.769531 184.300781 202.027344 184.050781 202.8125 184.089844 C 202.8125 184.089844 205.367188 189.6875 208.023438 189.472656" fill="#1d254a"/></g><g><path d="M 209.328125 195.140625 L 210.679688 192.324219 L 208.023438 189.472656 L 205.367188 192.324219 L 206.71875 195.140625 L 209.328125 195.140625" fill="#0f1324"/></g><g><path d="M 211.359375 229.660156 L 207.867188 233.785156 L 204.148438 229.660156 L 206.71875 195.140625 L 209.351562 195.140625 L 211.359375 229.660156" fill="#0f1324"/></g><g><path d="M 196.0625 251.183594 L 190.511719 255.851562 L 178.636719 223.628906 L 186.96875 224.1875 L 196.0625 251.183594" fill="#ebc54e"/></g><g><path d="M 195.664062 251.515625 C 195.664062 251.515625 197.691406 255.34375 194.886719 258.210938 C 193.332031 259.804688 192.144531 258.164062 191.003906 255.402344 L 195.664062 251.515625" fill="#b56553"/></g><g><path d="M 222.042969 186.335938 C 222.042969 186.335938 232.515625 187.925781 237.078125 223.304688 L 228.773438 224.117188 C 228.773438 224.117188 225.617188 207.421875 225.308594 204.304688 C 224.378906 194.871094 222.042969 186.335938 222.042969 186.335938" fill="#ebc54e"/></g><g><path d="M 219.652344 250.855469 L 225.207031 255.523438 L 237.078125 223.304688 L 228.746094 223.859375 L 219.652344 250.855469" fill="#ebc54e"/></g><g><path d="M 220.050781 251.191406 C 220.050781 251.191406 218.023438 255.019531 220.828125 257.886719 C 222.386719 259.476562 223.570312 257.839844 224.710938 255.074219 L 220.050781 251.191406" fill="#b56553"/></g><g><path d="M 218.253906 160.554688 C 218.253906 160.554688 217.402344 153.796875 208.316406 153.796875 C 208.316406 153.796875 200.15625 153.296875 197.847656 160.492188 C 196.257812 167.152344 197.652344 170.4375 197.652344 170.4375 C 199.335938 169.851562 199.289062 168.863281 199.316406 166.976562 C 199.375 162.539062 201.667969 161.519531 202.449219 161.226562 C 205.234375 160.175781 211.441406 159.65625 214.496094 161.390625 C 215.792969 162.125 216.621094 162.753906 216.917969 166.835938 C 217.054688 168.71875 216.25 170.539062 218.460938 170.882812 C 218.460938 170.882812 219.847656 167.476562 218.253906 160.554688" fill="#572015"/></g><g><path d="M 198.953125 169.664062 C 199.230469 170.808594 198.875 171.878906 198.15625 172.054688 C 197.433594 172.226562 196.628906 171.4375 196.351562 170.289062 C 196.074219 169.144531 196.433594 168.074219 197.152344 167.902344 C 197.871094 167.726562 198.675781 168.515625 198.953125 169.664062" fill="#b56553"/></g><g><path d="M 216.921875 170.121094 C 216.644531 171.269531 217.003906 172.339844 217.722656 172.511719 C 218.4375 172.6875 219.246094 171.898438 219.523438 170.753906 C 219.800781 169.605469 219.441406 168.535156 218.722656 168.359375 C 218.003906 168.1875 217.195312 168.976562 216.921875 170.121094" fill="#b56553"/></g><g><path d="M 273.207031 349.164062 C 272.808594 349.960938 272.347656 351.964844 271.839844 353.035156 C 270.65625 355.523438 270.121094 356.847656 268.5625 359.84375 C 267.707031 361.496094 267.3125 365.480469 271.191406 365.902344 C 275.199219 366.339844 277.15625 362.621094 277.433594 360.796875 C 278.074219 356.585938 278.441406 354.230469 279.1875 350.074219 C 279.472656 348.488281 277.664062 347.859375 276.066406 347.894531 C 274.824219 347.917969 273.695312 348.1875 273.207031 349.164062" fill="#572015"/></g><g><path d="M 289.269531 352.132812 C 289.269531 352.132812 288.03125 352.628906 288.550781 355.625 C 288.878906 357.523438 290.496094 357.597656 292.046875 358.195312 C 294.074219 358.984375 294.925781 363.921875 301.660156 363.921875 C 305.472656 363.921875 306.023438 361.628906 304.191406 359.921875 C 300.609375 356.582031 297.261719 354.050781 294.824219 352.132812 L 289.269531 352.132812" fill="#572015"/></g><g><path d="M 300.183594 247.746094 L 301.199219 190.214844 C 301.199219 187.992188 298.398438 186.269531 296.339844 185.4375 C 292.949219 184.0625 288.984375 184.132812 288.984375 184.132812 C 288.984375 184.132812 288.1875 189.015625 283.765625 189.015625 C 279.738281 189.015625 278.769531 184.132812 278.769531 184.132812 C 278.769531 184.132812 275.21875 184.175781 271.203125 185.851562 C 269.152344 186.707031 267.472656 188.289062 267.234375 190.769531 C 265.488281 209.003906 266.257812 247.746094 266.257812 247.746094 L 300.183594 247.746094" fill="#a3b3d9"/></g><g><path d="M 289.09375 184.660156 C 289.09375 184.660156 288.515625 189.617188 283.847656 189.617188 C 279.539062 189.617188 278.769531 184.660156 278.769531 184.660156 L 278.769531 179.605469 L 289.09375 179.605469 L 289.09375 184.660156" fill="#f78e80"/></g><g><path d="M 293.878906 173.769531 C 291.675781 181.089844 287.6875 182.515625 283.824219 182.515625 C 280.132812 182.515625 276.082031 180.613281 273.882812 173.472656 C 272.980469 170.554688 272.945312 165.800781 273.40625 163.292969 C 274.714844 156.148438 279.164062 154.136719 283.929688 154.136719 C 288.820312 154.136719 292.75 155.613281 294.296875 162.695312 C 294.847656 165.226562 295.078125 169.789062 293.878906 173.769531" fill="#f89a8d"/></g><g><path d="M 300.191406 247.570312 L 266.234375 247.570312 L 270.1875 352.535156 C 270.1875 352.535156 273.117188 354.148438 275.539062 354.148438 C 278.6875 354.148438 280.230469 352.679688 280.230469 352.679688 L 282.511719 267.511719 L 283.839844 268.671875 L 289.917969 309.113281 L 289.945312 309.113281 L 287.28125 351.839844 C 287.277344 351.835938 287.761719 353.742188 291.257812 353.742188 C 294.019531 353.742188 296.472656 353.046875 296.472656 353.046875 L 304.597656 309.113281 L 304.625 309.113281 L 300.191406 247.570312" fill="#1d254a"/></g><g><path d="M 300.246094 247.746094 L 266.257812 247.746094 L 266.257812 244.589844 L 300.246094 244.589844 L 300.246094 247.746094" fill="#572015"/></g><g clip-path="url(#g)"><path d="M 281.183594 248.246094 L 286.117188 248.246094 L 286.117188 244.09375 L 281.183594 244.09375 Z M 281.183594 248.246094" fill="url(#h)"/></g><g><path d="M 276.941406 247.746094 C 276.941406 247.746094 277.550781 262.324219 266.648438 260.546875 L 266.234375 247.746094 L 276.941406 247.746094" fill="#0f1324"/></g><g><path d="M 291.898438 247.746094 C 291.898438 247.746094 289.195312 260.421875 301.019531 260.695312 L 300.183594 247.746094 L 291.898438 247.746094" fill="#0f1324"/></g><g><path d="M 278.40625 161.269531 C 278.40625 161.269531 275.726562 162.578125 275.667969 167.011719 C 275.640625 168.902344 275.707031 171.519531 273.5 171.863281 C 273.5 171.863281 271.851562 166.613281 273.804688 160.535156 L 278.40625 161.269531" fill="#1d254a"/></g><g><path d="M 289.71875 159.613281 C 289.71875 159.613281 292.273438 162.488281 292.332031 166.925781 C 292.355469 168.8125 292.105469 171.667969 294.3125 172.011719 C 294.3125 172.011719 296.308594 167.015625 293.394531 159.613281 L 291.152344 159.058594 L 289.71875 159.613281" fill="#1d254a"/></g><g><path d="M 274.867188 170.71875 C 275.039062 171.886719 274.582031 172.921875 273.851562 173.027344 C 273.121094 173.136719 272.390625 172.273438 272.21875 171.109375 C 272.046875 169.941406 272.5 168.90625 273.234375 168.800781 C 273.964844 168.695312 274.695312 169.554688 274.867188 170.71875" fill="#f89a8d"/></g><g><path d="M 292.667969 170.695312 C 292.472656 171.859375 292.902344 172.902344 293.632812 173.023438 C 294.363281 173.148438 295.113281 172.304688 295.308594 171.140625 C 295.503906 169.976562 295.070312 168.9375 294.34375 168.8125 C 293.613281 168.691406 292.863281 169.53125 292.667969 170.695312" fill="#f89a8d"/></g><g><path d="M 295.953125 185.285156 C 295.953125 185.285156 307.445312 185.800781 313.394531 220.664062 L 304.675781 220.867188 C 304.675781 220.867188 302.488281 205.335938 301.082031 202.636719 C 296.695312 194.230469 295.953125 185.285156 295.953125 185.285156" fill="#a3b3d9"/></g><g><path d="M 271.796875 185.613281 C 271.796875 185.613281 258.753906 188.105469 254.441406 222.4375 L 263.074219 220.867188 C 263.074219 220.867188 265.261719 205.335938 266.667969 202.636719 C 271.054688 194.230469 271.796875 185.613281 271.796875 185.613281" fill="#a3b3d9"/></g><g><path d="M 273.828125 160.636719 C 273.828125 160.636719 285.765625 166.976562 295.355469 158.050781 C 295.355469 158.050781 292.785156 157.699219 290.058594 155.605469 C 286.429688 152.816406 283.476562 152.640625 278.59375 154.863281 C 274.339844 156.796875 273.828125 160.636719 273.828125 160.636719" fill="#1d254a"/></g><g><path d="M 283.929688 189.617188 C 283.929688 189.617188 286.003906 192.714844 289.503906 194.09375 C 289.503906 194.09375 289.625 186.953125 291.1875 184.25 C 291.1875 184.25 289.890625 184.09375 289.101562 184.132812 C 289.101562 184.132812 287.015625 189.695312 283.929688 189.617188" fill="#1d254a"/></g><g><path d="M 283.929688 189.617188 C 283.929688 189.617188 281.449219 193.28125 278.355469 194.09375 C 278.355469 194.09375 278.238281 186.953125 276.675781 184.25 C 276.675781 184.25 277.972656 184.09375 278.757812 184.132812 C 278.757812 184.132812 281.273438 189.828125 283.929688 189.617188" fill="#1d254a"/></g><g><path d="M 285.238281 195.289062 L 286.585938 192.371094 L 283.929688 189.617188 L 281.273438 192.371094 L 282.625 195.289062 L 285.238281 195.289062" fill="#12172f"/></g><g><path d="M 287.265625 229.609375 L 283.773438 233.734375 L 280.054688 229.609375 L 282.625 195.089844 L 285.257812 195.089844 L 287.265625 229.609375" fill="#12172f"/></g><g><path d="M 276.46875 216.789062 C 276.46875 216.789062 272.246094 215.902344 267.582031 216.953125 C 264.933594 217.550781 262.9375 219.445312 262.285156 220.441406 C 262.285156 220.441406 262.046875 221.371094 264.128906 220.839844 C 266.214844 220.308594 273.414062 219.839844 276.210938 221.003906 L 276.46875 216.789062" fill="#f89a8d"/></g><g><path d="M 275.617188 222.863281 L 276.261719 216.625 L 313.246094 219.804688 C 313.246094 219.804688 313.945312 225.753906 312.382812 226.644531 C 310.257812 227.859375 275.617188 222.863281 275.617188 222.863281" fill="#a3b3d9"/></g><g><path d="M 289.320312 218.558594 C 289.320312 218.558594 291.101562 217.621094 296.714844 216.875 C 301.324219 216.265625 302.558594 216.496094 304.039062 217.65625 C 304.402344 217.941406 306.09375 219.554688 303.5625 219.320312 C 300.148438 219.003906 293.503906 220.882812 290.257812 221.730469 L 289.320312 218.558594" fill="#f89a8d"/></g><g><path d="M 292.480469 223.398438 L 291.628906 216.71875 L 254.78125 219.929688 C 254.78125 219.929688 253.207031 226.671875 254.636719 227.761719 C 256.578125 229.25 292.480469 223.398438 292.480469 223.398438" fill="#a3b3d9"/></g><g><path d="M 171.859375 358.867188 L 166.792969 358.867188 L 166.792969 299.746094 L 171.859375 299.746094 L 171.859375 358.867188" fill="#ece9e8"/></g><g><path d="M 178.898438 289.222656 L 159.75 289.222656 L 159.75 276.054688 L 178.898438 276.054688 L 178.898438 289.222656" fill="#1d254a"/></g><g><path d="M 196.476562 277.246094 L 196.476562 214.027344 C 196.476562 211.03125 194.4375 208.605469 191.925781 208.605469 L 146.726562 208.605469 C 144.210938 208.605469 142.175781 211.03125 142.175781 214.027344 L 142.175781 277.246094 L 196.476562 277.246094" fill="#52bfd6"/></g><g><path d="M 204.042969 294.53125 C 204.042969 295.402344 202.074219 296.109375 199.644531 296.109375 L 136.695312 296.109375 C 134.265625 296.109375 132.292969 295.402344 132.292969 294.53125 L 140.441406 284.496094 C 141.386719 283.519531 142.410156 282.921875 144.839844 282.921875 L 193.707031 282.921875 C 196.136719 282.921875 197.636719 283.578125 198.105469 284.496094 L 204.042969 294.53125" fill="#52bfd6"/></g><g><path d="M 132.292969 294.453125 L 132.292969 298.359375 C 132.292969 299.40625 133.984375 300.253906 136.066406 300.253906 L 200.273438 300.253906 C 202.355469 300.253906 204.042969 299.40625 204.042969 298.359375 L 204.042969 294.453125 L 132.292969 294.453125" fill="#2e93b4"/></g><g><path d="M 150.949219 300.253906 C 152.746094 303.917969 156.023438 306.371094 159.769531 306.371094 L 178.390625 306.371094 C 182.136719 306.371094 185.414062 303.917969 187.210938 300.253906 L 150.949219 300.253906" fill="#ece9e8"/></g><g><path d="M 145.257812 359.269531 L 139.707031 359.269531 C 141.179688 353.308594 145.609375 346.652344 150.820312 342.808594 C 156.042969 338.960938 162.613281 336.839844 169.324219 336.839844 C 176.035156 336.839844 182.605469 338.960938 187.828125 342.808594 C 193.039062 346.652344 197.460938 353.308594 198.933594 359.269531 L 193.390625 359.269531 C 190.910156 349.226562 180.792969 341.933594 169.324219 341.933594 C 157.859375 341.933594 147.738281 349.226562 145.257812 359.269531" fill="#ece9e8"/></g><g><path d="M 146.796875 358.867188 C 146.796875 361.839844 144.453125 364.25 141.566406 364.25 C 138.679688 364.25 136.335938 361.839844 136.335938 358.867188 C 136.335938 355.894531 138.679688 353.484375 141.566406 353.484375 C 144.453125 353.484375 146.796875 355.894531 146.796875 358.867188" fill="#0f1428"/></g><g><path d="M 174.550781 358.867188 C 174.550781 361.839844 172.207031 364.25 169.320312 364.25 C 166.429688 364.25 164.089844 361.839844 164.089844 358.867188 C 164.089844 355.894531 166.429688 353.484375 169.320312 353.484375 C 172.207031 353.484375 174.550781 355.894531 174.550781 358.867188" fill="#0f1428"/></g><g><path d="M 201.707031 358.867188 C 201.707031 361.839844 199.367188 364.25 196.476562 364.25 C 193.589844 364.25 191.246094 361.839844 191.246094 358.867188 C 191.246094 355.894531 193.589844 353.484375 196.476562 353.484375 C 199.367188 353.484375 201.707031 355.894531 201.707031 358.867188" fill="#0f1428"/></g><g><path d="M 324.566406 358.867188 L 319.503906 358.867188 L 319.503906 299.746094 L 324.566406 299.746094 L 324.566406 358.867188" fill="#ece9e8"/></g><g><path d="M 331.609375 289.222656 L 312.460938 289.222656 L 312.460938 276.054688 L 331.609375 276.054688 L 331.609375 289.222656" fill="#1d254a"/></g><g><path d="M 349.1875 277.246094 L 349.1875 214.027344 C 349.1875 211.03125 347.148438 208.605469 344.636719 208.605469 L 299.433594 208.605469 C 296.921875 208.605469 294.882812 211.03125 294.882812 214.027344 L 294.882812 277.246094 L 349.1875 277.246094" fill="#52bfd6"/></g><g><path d="M 356.753906 294.53125 C 356.753906 295.402344 354.785156 296.109375 352.355469 296.109375 L 289.402344 296.109375 C 286.972656 296.109375 285.003906 295.402344 285.003906 294.53125 L 293.148438 284.496094 C 294.097656 283.519531 295.121094 282.921875 297.550781 282.921875 L 346.414062 282.921875 C 348.847656 282.921875 350.34375 283.578125 350.816406 284.496094 L 356.753906 294.53125" fill="#52bfd6"/></g><g><path d="M 285.003906 294.453125 L 285.003906 298.359375 C 285.003906 299.40625 286.691406 300.253906 288.773438 300.253906 L 352.984375 300.253906 C 355.066406 300.253906 356.753906 299.40625 356.753906 298.359375 L 356.753906 294.453125 L 285.003906 294.453125" fill="#2e93b4"/></g><g><path d="M 303.660156 300.253906 C 305.453125 303.917969 308.734375 306.371094 312.480469 306.371094 L 331.097656 306.371094 C 334.847656 306.371094 338.125 303.917969 339.921875 300.253906 L 303.660156 300.253906" fill="#ece9e8"/></g><g><path d="M 297.96875 359.269531 L 292.414062 359.269531 C 293.890625 353.308594 298.320312 346.652344 303.53125 342.808594 C 308.753906 338.960938 315.324219 336.839844 322.035156 336.839844 C 328.746094 336.839844 335.316406 338.960938 340.539062 342.808594 C 345.75 346.652344 350.171875 353.308594 351.640625 359.269531 L 346.101562 359.269531 C 343.621094 349.226562 333.5 341.933594 322.035156 341.933594 C 310.570312 341.933594 300.449219 349.226562 297.96875 359.269531" fill="#ece9e8"/></g><g><path d="M 299.507812 358.867188 C 299.507812 361.839844 297.164062 364.25 294.277344 364.25 C 291.386719 364.25 289.046875 361.839844 289.046875 358.867188 C 289.046875 355.894531 291.386719 353.484375 294.277344 353.484375 C 297.164062 353.484375 299.507812 355.894531 299.507812 358.867188" fill="#0f1428"/></g><g><path d="M 327.261719 358.867188 C 327.261719 361.839844 324.917969 364.25 322.03125 364.25 C 319.140625 364.25 316.800781 361.839844 316.800781 358.867188 C 316.800781 355.894531 319.140625 353.484375 322.03125 353.484375 C 324.917969 353.484375 327.261719 355.894531 327.261719 358.867188" fill="#0f1428"/></g><g><path d="M 354.417969 358.867188 C 354.417969 361.839844 352.074219 364.25 349.1875 364.25 C 346.296875 364.25 343.957031 361.839844 343.957031 358.867188 C 343.957031 355.894531 346.296875 353.484375 349.1875 353.484375 C 352.074219 353.484375 354.417969 355.894531 354.417969 358.867188" fill="#0f1428"/></g><g><path d="M 249.878906 358.867188 L 244.8125 358.867188 L 244.8125 299.746094 L 249.878906 299.746094 L 249.878906 358.867188" fill="#ece9e8"/></g><g><path d="M 256.921875 289.222656 L 237.769531 289.222656 L 237.769531 276.054688 L 256.921875 276.054688 L 256.921875 289.222656" fill="#1d254a"/></g><g><path d="M 274.496094 277.246094 L 274.496094 214.027344 C 274.496094 211.03125 272.460938 208.605469 269.945312 208.605469 L 224.746094 208.605469 C 222.230469 208.605469 220.195312 211.03125 220.195312 214.027344 L 220.195312 277.246094 L 274.496094 277.246094" fill="#52bfd6"/></g><g><path d="M 282.066406 294.53125 C 282.066406 295.402344 280.097656 296.109375 277.667969 296.109375 L 214.714844 296.109375 C 212.285156 296.109375 210.316406 295.402344 210.316406 294.53125 L 218.460938 284.496094 C 219.410156 283.519531 220.429688 282.921875 222.859375 282.921875 L 271.726562 282.921875 C 274.15625 282.921875 275.65625 283.578125 276.125 284.496094 L 282.066406 294.53125" fill="#52bfd6"/></g><g><path d="M 210.316406 294.453125 L 210.316406 298.359375 C 210.316406 299.40625 212.003906 300.253906 214.085938 300.253906 L 278.296875 300.253906 C 280.378906 300.253906 282.066406 299.40625 282.066406 298.359375 L 282.066406 294.453125 L 210.316406 294.453125" fill="#2e93b4"/></g><g><path d="M 228.96875 300.253906 C 230.765625 303.917969 234.042969 306.367188 237.792969 306.367188 L 256.410156 306.367188 C 260.15625 306.367188 263.433594 303.917969 265.230469 300.253906 L 228.96875 300.253906" fill="#ece9e8"/></g><g><path d="M 223.277344 359.269531 L 217.726562 359.269531 C 219.199219 353.304688 223.632812 346.652344 228.84375 342.808594 C 234.066406 338.960938 240.636719 336.839844 247.347656 336.839844 C 254.054688 336.839844 260.628906 338.960938 265.851562 342.808594 C 271.0625 346.652344 275.480469 353.304688 276.953125 359.269531 L 271.414062 359.269531 C 268.933594 349.226562 258.8125 341.933594 247.347656 341.933594 C 235.882812 341.933594 225.757812 349.226562 223.277344 359.269531" fill="#ece9e8"/></g><g><path d="M 224.816406 358.867188 C 224.816406 361.839844 222.476562 364.25 219.585938 364.25 C 216.699219 364.25 214.355469 361.839844 214.355469 358.867188 C 214.355469 355.894531 216.699219 353.484375 219.585938 353.484375 C 222.476562 353.484375 224.816406 355.894531 224.816406 358.867188" fill="#0f1428"/></g><g><path d="M 252.570312 358.867188 C 252.570312 361.839844 250.230469 364.25 247.339844 364.25 C 244.453125 364.25 242.109375 361.839844 242.109375 358.867188 C 242.109375 355.894531 244.453125 353.484375 247.339844 353.484375 C 250.230469 353.484375 252.570312 355.894531 252.570312 358.867188" fill="#0f1428"/></g><g><path d="M 279.726562 358.867188 C 279.726562 361.839844 277.386719 364.25 274.496094 364.25 C 271.609375 364.25 269.265625 361.839844 269.265625 358.867188 C 269.265625 355.894531 271.609375 353.484375 274.496094 353.484375 C 277.386719 353.484375 279.726562 355.894531 279.726562 358.867188" fill="#0f1428"/></g><g><path d="M 106.257812 392.214844 L 99.832031 392.214844 L 99.832031 277.921875 L 106.257812 277.921875 L 106.257812 392.214844" fill="#1d254a"/></g><g><path d="M 126.777344 372.605469 L 120.351562 372.605469 L 120.351562 270.652344 L 126.777344 270.652344 L 126.777344 372.605469" fill="#1d254a"/></g><g><path d="M 382.539062 394.816406 L 388.964844 394.816406 L 388.964844 280.523438 L 382.539062 280.523438 L 382.539062 394.816406" fill="#1d254a"/></g><g><path d="M 362.019531 372.605469 L 368.445312 372.605469 L 368.445312 270.652344 L 362.019531 270.652344 L 362.019531 372.605469" fill="#1d254a"/></g><g><path d="M 389.21875 284.402344 L 99.832031 284.402344 L 99.832031 276.179688 L 389.21875 276.179688 L 389.21875 284.402344" fill="#1d254a"/></g><g><path d="M 397.984375 276.179688 L 91.0625 276.179688 L 127.503906 263.796875 L 371.003906 263.796875 L 397.984375 276.179688" fill="#a3b3d9"/></g></g></svg>