<?xml version="1.0" encoding="UTF-8" standalone="no"?><svg xmlns="http://www.w3.org/2000/svg" xmlns:xlink="http://www.w3.org/1999/xlink" fill="#000000" height="49.7" preserveAspectRatio="xMidYMid meet" version="1" viewBox="0.0 -0.0 56.6 49.7" width="56.6" zoomAndPan="magnify"><g data-name="Layer 2"><g data-name="Layer 1" fill="#e9bb00" id="change1_1"><path d="M23.48,11.91a.93.93,0,0,0-.63-.26.89.89,0,0,0-.63,1.52l1.53,1.53A.89.89,0,1,0,25,13.44Z" fill="inherit"/><path d="M44.34,23.23H46.5a.89.89,0,0,0,0-1.78H44.34a.89.89,0,0,0,0,1.78Z" fill="inherit"/><path d="M32.65,11.53a.88.88,0,0,0,.88-.89V8.48a.89.89,0,1,0-1.77,0v2.16A.89.89,0,0,0,32.65,11.53Z" fill="inherit"/><path d="M32.65,33.15a.89.89,0,0,0-.89.89V36.2a.89.89,0,0,0,1.77,0V34A.88.88,0,0,0,32.65,33.15Z" fill="inherit"/><path d="M32.65,0A22.28,22.28,0,0,0,10.37,20.73a.89.89,0,0,0-.28.65v1.09a12.63,12.63,0,0,0-1.2.5l-.77-.78a.91.91,0,0,0-.63-.26.89.89,0,0,0-.63.26L1.7,27.35a.91.91,0,0,0,0,1.26l.78.77c-.18.39-.35.79-.49,1.19H.89a.89.89,0,0,0-.89.89v7.3a.89.89,0,0,0,.89.89H2c.14.4.31.8.49,1.19l-.78.77a.91.91,0,0,0,0,1.26L6.86,48a.89.89,0,0,0,.63.26A.91.91,0,0,0,8.12,48l.77-.78c.39.18.79.35,1.2.5v1.09a.88.88,0,0,0,.88.89h7.3a.89.89,0,0,0,.89-.89V47.75c.4-.15.8-.32,1.19-.5l.78.78a.88.88,0,0,0,1.25,0l4.19-4.19A22.34,22.34,0,1,0,32.65,0Zm0,42.9A20.56,20.56,0,0,1,14.56,32.13a.89.89,0,0,0-.78-.47,1,1,0,0,0-.43.11A.89.89,0,0,0,13,33a22.19,22.19,0,0,0,6.62,7.5A7.34,7.34,0,1,1,20.71,31a.89.89,0,0,0,.74.39.91.91,0,0,0,.5-.15A.89.89,0,0,0,22.19,30a9.14,9.14,0,1,0-1.06,11.47,23.4,23.4,0,0,0,3.56,1.73l-2.94,2.93-.29-.29a1.48,1.48,0,0,0-1.05-.43,1.56,1.56,0,0,0-.67.15,10.52,10.52,0,0,1-1.34.56,1.5,1.5,0,0,0-1,1.41V48H11.86v-.42a1.5,1.5,0,0,0-1-1.41,11.88,11.88,0,0,1-1.34-.56,1.55,1.55,0,0,0-.66-.15,1.52,1.52,0,0,0-1.06.43l-.29.29-3.9-3.9L3.88,42a1.5,1.5,0,0,0,.28-1.72,12.2,12.2,0,0,1-.56-1.34,1.49,1.49,0,0,0-1.41-1H1.78V32.35h.41a1.49,1.49,0,0,0,1.41-1A12.2,12.2,0,0,1,4.16,30a1.5,1.5,0,0,0-.28-1.72L3.59,28l3.9-3.9.29.29a1.52,1.52,0,0,0,1,.43,1.56,1.56,0,0,0,.67-.15,11.88,11.88,0,0,1,1.34-.56,1.5,1.5,0,0,0,1-1.41v-.42h5.52v.42a1.5,1.5,0,0,0,1,1.41,10.52,10.52,0,0,1,1.34.56,1.56,1.56,0,0,0,.67.15,1.48,1.48,0,0,0,1.05-.43l.29-.29,3.14,3.14a.91.91,0,0,0,.63.26A.89.89,0,0,0,26.15,26l-3.77-3.77a.88.88,0,0,0-1.25,0l-.78.78c-.39-.18-.79-.35-1.19-.5V21.38a.89.89,0,0,0-.89-.89H15.63A17.1,17.1,0,1,1,17.84,31a.89.89,0,0,0-.77-.44.82.82,0,0,0-.45.12.88.88,0,0,0-.32,1.21,18.95,18.95,0,1,0-2.45-11.37H12.19A20.55,20.55,0,1,1,32.65,42.9Z" fill="inherit"/><path d="M41.82,32.77a.89.89,0,0,0,1.25-1.26L41.54,30a.89.89,0,1,0-1.25,1.26Z" fill="inherit"/><path d="M40.92,15a.89.89,0,0,0,.62-.26l1.53-1.53a.89.89,0,1,0-1.25-1.26l-1.53,1.53A.89.89,0,0,0,40.92,15Z" fill="inherit"/><path d="M30.16,25.71a.87.87,0,0,0,.63-.26L33.27,23a.88.88,0,0,0,.26-.63V16a.89.89,0,1,0-1.77,0v6L29.53,24.2a.89.89,0,0,0,0,1.25A.87.87,0,0,0,30.16,25.71Z" fill="inherit"/></g></g></svg>