<?xml version="1.0" encoding="UTF-8" standalone="no"?><svg xmlns="http://www.w3.org/2000/svg" xmlns:xlink="http://www.w3.org/1999/xlink" fill="#000000" height="187.1" preserveAspectRatio="xMidYMid meet" version="1" viewBox="0.0 0.0 500.0 187.1" width="500" zoomAndPan="magnify"><g id="change1_1"><path d="M296.1,118.7L228,187.1l-43.9-71.9C220.9,127,250.7,125.2,296.1,118.7z" fill="#1b4189"/></g><g fill="#2e57a6" id="change2_1"><path d="M500,0l-22.4,104.1l-69.4-29.4C440.7,55.8,472,32.6,500,0z" fill="inherit"/><path d="M184.1,115.2l-89.8,40.1L80.1,68.8C103.7,84.2,152.3,105,184.1,115.2z" fill="inherit"/></g><g fill="#f9d564" id="change3_1"><path d="M408.2,74.7l-46.2,100l-65.9-56C331.6,113.7,369,97.5,408.2,74.7z" fill="inherit"/><path d="M80.1,68.8l-67.5,51.4L0,0C0,0,29.6,35.9,80.1,68.8z" fill="inherit"/></g></svg>